<svg xmlns="http://www.w3.org/2000/svg" xmlns:xlink="http://www.w3.org/1999/xlink" width="140" height="140" viewBox="0 0 140 140"><defs><filter id="a" x="0" y="0" width="140" height="140" filterUnits="userSpaceOnUse"><feOffset dy="3" input="SourceAlpha"/><feGaussianBlur stdDeviation="3" result="b"/><feFlood flood-opacity="0.161"/><feComposite operator="in" in2="b"/><feComposite in="SourceGraphic"/></filter></defs><g transform="translate(-612.668 -1151.64)"><g transform="translate(316.86 -2465.411)"><g transform="matrix(1, 0, 0, 1, 295.81, 3617.05)" filter="url(#a)"><circle cx="61" cy="61" r="61" transform="translate(9 6)" fill="#fff" opacity="0.45"/></g><circle cx="49" cy="49" r="49" transform="translate(316.808 3635.051)" fill="#fff"/></g><g transform="translate(585.903 1173.306)"><g transform="translate(70.764 16.009)"><path d="M76.786,65.089V24.9a.893.893,0,0,1,.256-.6l6.568-7.958a.891.891,0,0,1,.69-.326l35.9,0a2.574,2.574,0,0,1,2.565,2.566V71.134A2.571,2.571,0,0,1,120.2,73.7H108.08L99.348,78.74a5.432,5.432,0,0,1-3.855.845l-9.6-1.387-.171.1.264.417a.894.894,0,0,1-.281,1.233l-5.207,3.3a.894.894,0,0,1-1.233-.281L70.9,69.752a.894.894,0,0,1,.281-1.233l5.207-3.3A.89.89,0,0,1,76.786,65.089Z" transform="translate(-70.764 -16.009)" fill-rule="evenodd"/><path d="M132.066,29.976v5.453a2.571,2.571,0,0,1-2.566,2.565h-4.253v41.2l.209.33,7.047-2.442a5.464,5.464,0,0,1,3.626-.019l2.7.9a9.537,9.537,0,0,1-.481-3.25h-9.22a.9.9,0,1,1,0-1.793h1.995V62.8a.9.9,0,0,1,.9-.9H137.1a.9.9,0,0,1,.9.9V72.918h.566a9.431,9.431,0,0,1,.479-1.541V58.832a.9.9,0,0,1,.9-.9h5.084a.9.9,0,0,1,.9.9V65.65a9.55,9.55,0,0,1,1.045-.156V60.837a.9.9,0,0,1,.9-.9h5.084a.9.9,0,0,1,.9.9v6.737a9.559,9.559,0,0,1,1.045.987V55.907a.9.9,0,0,1,.9-.9h5.084a.9.9,0,0,1,.9.9V72.918h2a.9.9,0,1,1,0,1.793h-6.4a9.531,9.531,0,0,1-.374,2.905,3.2,3.2,0,0,1,1.548.037,3.081,3.081,0,0,1,.676,5.644l-1.358.782h9.013a.777.777,0,0,0,.772-.772V30.748a.826.826,0,0,0-.772-.772Zm3.9,11.443a.9.9,0,0,1,0-1.793h10.682a.9.9,0,1,1,0,1.793Zm0-3.443a.9.9,0,0,1,0-1.793h7.16a.9.9,0,1,1,0,1.793ZM156.7,46.107a.894.894,0,1,1,.175-1.779l3.779.371a.895.895,0,0,1,.831,1.013l-.371,3.778a.894.894,0,1,1-1.779-.175l.173-1.758-6.907,5.3a2.719,2.719,0,1,1-5.278.5l-3.337-1.683a2.719,2.719,0,0,1-3.21.422l-4.176,3.73a2.718,2.718,0,1,1-1.291-1.242l4.277-3.82a2.719,2.719,0,1,1,5.206-.688l3.337,1.683a2.719,2.719,0,0,1,3.383-.318l6.747-5.176Z" transform="translate(-117.601 -28.016)" fill="#fff" fill-rule="evenodd"/><path d="M132.387,44.474h3.251a.777.777,0,0,0,.772-.772V39.6Z" transform="translate(-123.738 -36.289)" fill="#b3b3b3" fill-rule="evenodd"/><path d="M88.427,382l-3.7,2.34,7.4,11.7,3.7-2.339Z" transform="translate(-82.77 -330.629)" fill="#116562" fill-rule="evenodd"/><path d="M165.541,379.233c.352-.251.56-.368.689-.832a1.276,1.276,0,0,0-.881-1.58,1.437,1.437,0,0,0-1.043.117l-7.865,4.076a3.145,3.145,0,0,1-1.829,2.844,2.876,2.876,0,0,1-2.24.159l-7.974-2.671a.894.894,0,0,1,.567-1.7l7.974,2.67a1.124,1.124,0,0,0,.874-.068,1.272,1.272,0,0,0,.7-1.745,1.3,1.3,0,0,0-.747-.656L142.851,376.2a3.655,3.655,0,0,0-2.477.012l-6.648,2.3,4.992,7.889.471-.275a.89.89,0,0,1,.6-.129l9.91,1.432a3.825,3.825,0,0,0,1.376-.039,4.116,4.116,0,0,0,1.3-.56Z" transform="translate(-124.889 -325.46)" fill="#f7d199" fill-rule="evenodd"/><path d="M236.319,250.763a9.535,9.535,0,0,1,3.29-2.334v-6.483h-3.29Z" transform="translate(-213.081 -210.233)" fill="#22cac5" fill-rule="evenodd"/><path d="M292.759,260a9.447,9.447,0,0,1,3.29.93v-4.692h-3.29Z" transform="translate(-261.599 -222.517)" fill="#22cac5" fill-rule="evenodd"/><path d="M349.2,235.719a9.438,9.438,0,0,1,.464,1.5h2.827V221.108H349.2Z" transform="translate(-310.118 -192.32)" fill="#22cac5" fill-rule="evenodd"/><path d="M245.785,307.082a7.725,7.725,0,1,0-13.476-.01l5.93,1.986a3.077,3.077,0,0,1,1.535,1.138l6.011-3.114Zm-3.907-5.549a.9.9,0,1,1-1.793,0,.8.8,0,0,0-.553-.78,1.459,1.459,0,0,0-.964,0,.8.8,0,0,0-.554.78c0,.63.61.763,1.221.9,1.321.288,2.643.577,2.643,2.658a2.519,2.519,0,0,1-1.73,2.461q-.1.037-.2.066v.328a.9.9,0,1,1-1.793,0v-.328q-.1-.03-.2-.067a2.519,2.519,0,0,1-1.73-2.461.9.9,0,1,1,1.793,0,.8.8,0,0,0,.554.78,1.46,1.46,0,0,0,.964,0,.8.8,0,0,0,.553-.78c0-.639-.614-.773-1.228-.907-1.319-.288-2.637-.575-2.637-2.647a2.519,2.519,0,0,1,1.73-2.461q.1-.037.2-.067v-.328a.9.9,0,0,1,1.793,0V299q.1.03.2.067A2.518,2.518,0,0,1,241.878,301.532Z" transform="translate(-208.793 -256.361)" fill="#f0cb48" fill-rule="evenodd"/><path d="M183.157,216.259a.926.926,0,1,0,.926.926A.926.926,0,0,0,183.157,216.259Z" transform="translate(-166.585 -188.152)" fill="#fff" fill-rule="evenodd"/><path d="M296.04,192.461a.925.925,0,1,0,.655.271A.926.926,0,0,0,296.04,192.461Z" transform="translate(-263.625 -167.694)" fill="#fff" fill-rule="evenodd"/><path d="M240.241,164.257a.926.926,0,1,0,0,1.309.926.926,0,0,0,0-1.309Z" transform="translate(-215.093 -143.215)" fill="#fff" fill-rule="evenodd"/></g><path d="M179.88,270.231h3.29v9.219h-3.29Z" transform="translate(-93.8 -218.539)" fill="#22cac5"/></g></g></svg>