<svg xmlns="http://www.w3.org/2000/svg" xmlns:xlink="http://www.w3.org/1999/xlink" width="159.541" height="160.91" viewBox="0 0 159.541 160.91"><defs><radialGradient id="a" cx="0.076" cy="0.019" r="1.465" gradientTransform="translate(0.001)" gradientUnits="objectBoundingBox"><stop offset="0" stop-color="#f6f6f7"/><stop offset="0.477" stop-color="#f9f9fa"/><stop offset="0.715" stop-color="#fff"/></radialGradient><filter id="b" x="0" y="1.539" width="159.541" height="159.371" filterUnits="userSpaceOnUse"><feOffset dy="7" input="SourceAlpha"/><feGaussianBlur stdDeviation="2.5" result="c"/><feFlood flood-opacity="0.102"/><feComposite operator="in" in2="c"/><feComposite in="SourceGraphic"/></filter></defs><g transform="translate(-497.038 -1474)"><g transform="translate(502.668 1474)"><g transform="translate(0 0)"><path d="M341.034,2218.924a73.206,73.206,0,1,1-73.2-73.2A73.2,73.2,0,0,1,341.034,2218.924Z" transform="translate(-194.623 -2145.721)" fill="#fff"/><g transform="matrix(1, 0, 0, 1, -5.63, 0)" filter="url(#b)"><path d="M340.018,2217.816a73.2,73.2,0,1,0-73.2,73.207A72.914,72.914,0,0,0,340.018,2217.816Z" transform="translate(-187.98 -2144.61)" fill="url(#a)"/></g><g transform="translate(12.969 41.099)"><path d="M326.585,2164.488a73.214,73.214,0,0,1-126.04,72.9,72.982,72.982,0,0,0,126.04-72.9Z" transform="translate(-200.545 -2164.488)" fill="#eceef0"/></g></g></g><g transform="translate(492.28 1497.599)"><g transform="translate(54.034 1.561)"><g transform="translate(39.546 35.775)"><path d="M289.2,192.927l11.374,11.38a.888.888,0,0,1,0,1.261L289.2,216.941a.889.889,0,0,1-1.523-.628v-4.942a.9.9,0,0,0-.893-.893H265.519a.891.891,0,0,1-.889-.893v-9.3a.89.89,0,0,1,.889-.889h21.264a.9.9,0,0,0,.893-.893v-4.942a.892.892,0,0,1,1.521-.635Z" transform="translate(-264.63 -192.666)" fill="#22cac5" fill-rule="evenodd"/></g><g transform="translate(0 24.679)"><path d="M83.864,182.124A23.367,23.367,0,1,0,60.5,158.754,23.413,23.413,0,0,0,83.864,182.124Z" transform="translate(-60.5 -135.39)" fill="#b15815" fill-rule="evenodd"/></g><g transform="translate(6.697 31.376)"><path d="M111.737,203.293A16.667,16.667,0,1,0,95.07,186.627,16.7,16.7,0,0,0,111.737,203.293Z" transform="translate(-95.07 -169.96)" fill="#efddcf" fill-rule="evenodd"/></g><g transform="translate(15.495 0)"><path d="M165.047,8.266,176.421,19.64a.9.9,0,0,1,0,1.261l-11.374,11.38a.9.9,0,0,1-.974.192.878.878,0,0,1-.548-.825V26.706a.9.9,0,0,0-.893-.893H141.369a.89.89,0,0,1-.889-.889v-9.3a.891.891,0,0,1,.889-.893h21.264a.9.9,0,0,0,.893-.893V8.894a.888.888,0,0,1,1.521-.628Z" transform="translate(-140.48 -8.001)" fill="#22cac5" fill-rule="evenodd"/></g><g transform="translate(15.495 71.548)"><path d="M165.047,377.583l11.374,11.374a.9.9,0,0,1,0,1.261L165.047,401.6a.892.892,0,0,1-1.523-.634v-4.942a.9.9,0,0,0-.893-.889H141.369a.9.9,0,0,1-.889-.893v-9.3a.894.894,0,0,1,.889-.893h21.264a.894.894,0,0,0,.893-.889v-4.942a.891.891,0,0,1,1.521-.633Z" transform="translate(-140.48 -377.32)" fill="#22cac5" fill-rule="evenodd"/></g><g transform="translate(15.495)"><path d="M165.047,8.266l1.186,1.186v4.384a.891.891,0,0,1-.889.893h-2.712a.9.9,0,0,0,.893-.893V8.894a.889.889,0,0,1,1.523-.628Zm1.188,22.823-1.186,1.191a.9.9,0,0,1-.974.192.878.878,0,0,1-.548-.825V26.706a.9.9,0,0,0-.893-.893h2.712a.9.9,0,0,1,.889.893Zm-22.153-5.279h-2.712a.89.89,0,0,1-.889-.889v-9.3a.891.891,0,0,1,.889-.893h2.712a.9.9,0,0,0-.893.893v9.3a.894.894,0,0,0,.893.889Z" transform="translate(-140.48 -8.001)" fill="#116562" fill-rule="evenodd"/></g><g transform="translate(61.697 35.775)"><path d="M381.386,192.924l1.191,1.191V198.5a.9.9,0,0,1-.893.893h-2.712a.9.9,0,0,0,.893-.893v-4.942a.891.891,0,0,1,1.521-.633Zm1.191,22.827-1.191,1.186a.889.889,0,0,1-1.523-.628v-4.942a.9.9,0,0,0-.893-.893h2.712a.9.9,0,0,1,.893.893v4.384Z" transform="translate(-378.97 -192.663)" fill="#116562" fill-rule="evenodd"/></g><g transform="translate(15.495 71.548)"><path d="M165.047,377.583l1.186,1.191v4.384a.89.89,0,0,1-.889.889h-2.712a.894.894,0,0,0,.893-.889v-4.942a.892.892,0,0,1,1.523-.633Zm1.188,22.823-1.186,1.191a.892.892,0,0,1-1.523-.634v-4.942a.9.9,0,0,0-.893-.889h2.712a.89.89,0,0,1,.889.889Zm-22.153-5.273h-2.712a.9.9,0,0,1-.889-.893v-9.3a.894.894,0,0,1,.889-.893h2.712a.9.9,0,0,0-.893.893v9.3A.9.9,0,0,0,144.081,395.134Z" transform="translate(-140.48 -377.32)" fill="#116562" fill-rule="evenodd"/></g><g transform="translate(0 24.679)"><path d="M83.864,135.39c.575,0,1.139.021,1.7.058a23.367,23.367,0,0,0,0,46.612c-.558.043-1.122.064-1.7.064a23.367,23.367,0,0,1,0-46.734Z" transform="translate(-60.5 -135.39)" fill="#7b3d0e" fill-rule="evenodd"/></g></g><path d="M130.617,47.886,119.232,36.5a2.441,2.441,0,0,0-4.154,1.738v4.283H101.287a24.919,24.919,0,1,0,0,14.187H115.08v4.283a2.436,2.436,0,0,0,1.5,2.251,2.407,2.407,0,0,0,.938.19,2.47,2.47,0,0,0,1.73-.715l11.364-11.37a2.432,2.432,0,0,0,.006-3.458ZM77.4,71.43A21.821,21.821,0,1,1,99.22,49.606,21.847,21.847,0,0,1,77.4,71.43ZM118.178,59.4V56.044a2.445,2.445,0,0,0-2.445-2.439H102a24.983,24.983,0,0,0,0-7.991h13.737a2.445,2.445,0,0,0,2.445-2.439V39.819l9.785,9.789ZM82.131,49.938a4.56,4.56,0,0,1,1.416,3.76,4.926,4.926,0,0,1-2.212,3.6,6.222,6.222,0,0,1-2.385.916v1.647a1.548,1.548,0,0,1-3.1,0V58.02l-.045-.012a7.111,7.111,0,0,1-4.46-4.2,1.549,1.549,0,1,1,2.858-1.2,3.985,3.985,0,0,0,2.509,2.437,3.562,3.562,0,0,0,2.923-.345,1.8,1.8,0,0,0,.825-1.3,1.487,1.487,0,0,0-.5-1.246,5.788,5.788,0,0,0-2.269-.821,8.75,8.75,0,0,1-4.558-2.108,4.858,4.858,0,0,1,2.067-7.939,6.666,6.666,0,0,1,.647-.182V39.362a1.548,1.548,0,0,1,3.1,0v1.687a6.346,6.346,0,0,1,1.819.643,5.031,5.031,0,0,1,2.54,3.272,1.549,1.549,0,1,1-3.007.744,1.959,1.959,0,0,0-1.021-1.3,4.081,4.081,0,0,0-3.082-.186A1.744,1.744,0,0,0,74.982,45.5a1.713,1.713,0,0,0,.376,1.567,6.331,6.331,0,0,0,3.053,1.255,7.514,7.514,0,0,1,3.72,1.616ZM77.4,31.392A18.218,18.218,0,1,0,95.618,49.608,18.237,18.237,0,0,0,77.4,31.392Zm0,33.339A15.122,15.122,0,1,1,92.52,49.606,15.139,15.139,0,0,1,77.4,64.731ZM70.418,20.924H91.027v4.283a2.44,2.44,0,0,0,4.167,1.724L106.566,15.56a2.437,2.437,0,0,0,0-3.452L95.194.736A2.414,2.414,0,0,0,92.547.2L92.528.2a2.436,2.436,0,0,0-1.5,2.251V6.745H70.418a2.442,2.442,0,0,0-2.439,2.439v9.3a2.442,2.442,0,0,0,2.439,2.437Zm.659-11.083H91.681A2.447,2.447,0,0,0,94.126,7.4V4.047l9.787,9.787-9.787,9.787V20.266a2.445,2.445,0,0,0-2.445-2.439H71.076ZM95.192,72.284a2.443,2.443,0,0,0-2.646-.539l-.019.008A2.436,2.436,0,0,0,91.027,74v4.289H70.418a2.442,2.442,0,0,0-2.439,2.439v9.3a2.442,2.442,0,0,0,2.439,2.439H91.027v4.283a2.44,2.44,0,0,0,4.167,1.724l11.364-11.364a2.437,2.437,0,0,0,.01-3.462ZM94.124,95.172V91.815a2.445,2.445,0,0,0-2.445-2.439h-20.6V81.392H91.681a2.447,2.447,0,0,0,2.445-2.443V75.6l9.787,9.787Z" transform="translate(0 0)"/></g></g></svg>