<svg xmlns="http://www.w3.org/2000/svg" xmlns:xlink="http://www.w3.org/1999/xlink" width="125.599" height="126.53" viewBox="0 0 125.599 126.53"><defs><radialGradient id="a" cx="0.076" cy="0.019" r="1.465" gradientTransform="translate(0.001)" gradientUnits="objectBoundingBox"><stop offset="0" stop-color="#f6f6f7"/><stop offset="0.477" stop-color="#f9f9fa"/><stop offset="0.715" stop-color="#fff"/></radialGradient><filter id="b" x="0" y="1.061" width="125.599" height="125.469" filterUnits="userSpaceOnUse"><feOffset dy="7" input="SourceAlpha"/><feGaussianBlur stdDeviation="2.5" result="c"/><feFlood flood-opacity="0.102"/><feComposite operator="in" in2="c"/><feComposite in="SourceGraphic"/></filter></defs><g transform="translate(-177.342 -3979.538)"><g transform="translate(183.411 3979.538)"><g transform="translate(0 0)"><path d="M306.653,2201.734a56.015,56.015,0,1,1-56.014-56.013A56.015,56.015,0,0,1,306.653,2201.734Z" transform="translate(-194.623 -2145.721)" fill="#fff"/><g transform="matrix(1, 0, 0, 1, -6.07, 0)" filter="url(#b)"><path d="M306.076,2201.105a56.014,56.014,0,1,0-56.014,56.016A55.793,55.793,0,0,0,306.076,2201.105Z" transform="translate(-187.98 -2145.09)" fill="url(#a)"/></g><g transform="translate(9.924 31.448)"><path d="M296.988,2164.489a56.022,56.022,0,0,1-96.443,55.782,55.844,55.844,0,0,0,96.443-55.782Z" transform="translate(-200.545 -2164.489)" fill="#eceef0"/></g></g></g><g transform="translate(201.217 3997.678)"><g transform="translate(14.523 19.595)"><path d="M279.7,128.8h8.319v7.694H279.7Z" transform="translate(-252.575 -128.8)" fill="#fdb614" fill-rule="evenodd"/><path d="M279.7,235.5h8.319v7.694H279.7Z" transform="translate(-252.575 -219.981)" fill="#fdb614" fill-rule="evenodd"/><path d="M279.7,342.3h8.319v7.694H279.7Z" transform="translate(-252.575 -311.248)" fill="#fdb614" fill-rule="evenodd"/><path d="M104.225,208.249a11.025,11.025,0,1,1,11.025-11.025A11.027,11.027,0,0,1,104.225,208.249Z" transform="translate(-93.2 -177.852)" fill="#fdb614" fill-rule="evenodd"/></g><path d="M68.829,17.357A36.331,36.331,0,0,0,7.67,52.875l4.421-1.28a31.733,31.733,0,0,1,53.363-31.11L62.72,23l5.861,1.833,5.861,1.833L73.1,20.674l-1.338-5.992ZM16.062,67.332a36.334,36.334,0,0,0,61.173-35.5l-4.421,1.28A31.729,31.729,0,0,1,19.466,64.234L22.2,61.717l-5.861-1.833-5.861-1.833,1.338,5.992,1.338,5.992Z" transform="translate(-4.244 -4.263)" fill="#76cedb" fill-rule="evenodd"/><path d="M64.032,13.559A35.606,35.606,0,0,0,3.921,47.724l3.025-.873A32.461,32.461,0,0,1,61.719,15.712a.733.733,0,0,1-.029,1.033l-1.8,1.658,9.323,2.923L67.086,11.8l-1.993,1.833a.73.73,0,0,1-1.062-.073ZM44.266,1.517A37.142,37.142,0,0,1,64.614,12.09l2.4-2.211a.718.718,0,0,1,1.193.378L70.868,22.2a.728.728,0,0,1-.916.9l-11.723-3.68a.726.726,0,0,1-.276-1.222l2.182-2.007A30.976,30.976,0,0,0,8.546,47.113a.713.713,0,0,1-.48.916l-4.421,1.28a.727.727,0,0,1-.9-.48A37.04,37.04,0,0,1,44.266,1.517Zm-31.881,61.1A35.612,35.612,0,0,0,72.5,28.467l-3.025.873A32.457,32.457,0,0,1,14.7,60.479a.721.721,0,0,1,.044-1.033l1.8-1.658L7.222,54.865l2.123,9.526,1.978-1.862a.732.732,0,0,1,1.062.087ZM32.107,74.674A37.188,37.188,0,0,1,11.789,64.086l-2.4,2.2A.718.718,0,0,1,8.2,65.9L5.535,53.963a.728.728,0,0,1,.916-.9l11.708,3.68a.721.721,0,0,1,.276,1.222L16.254,59.97A31.016,31.016,0,0,0,67.886,29.034a.713.713,0,0,1,.48-.916l4.421-1.28a.727.727,0,0,1,.9.48A37.141,37.141,0,0,1,32.107,74.674ZM43.961,38.43a.723.723,0,0,1,1.251-.727l.916,1.6,3.1-3.083v-.364H42.361V42.1h6.865V38.27L46.506,41a.723.723,0,0,1-1.134-.145Zm6.661-3.607,1.716-1.716a.73.73,0,0,1,1.033,1.033L50.68,36.83v6.007a.72.72,0,0,1-.727.727h-8.3a.72.72,0,0,1-.727-.727V39.7H37.285a11.77,11.77,0,0,1-11.01,11.01v3.069H40.921V50.647a.72.72,0,0,1,.727-.727h8.3a.735.735,0,0,1,.727.611l1.673-1.673a.73.73,0,0,1,1.033,1.033l-2.691,2.691v5.76a.729.729,0,0,1-.727.727h-8.3a.72.72,0,0,1-.727-.727V55.214H25.548a.72.72,0,0,1-.727-.727v-3.8a11.745,11.745,0,0,1,0-23.445v-3.8a.729.729,0,0,1,.727-.727H40.907V19.6a.72.72,0,0,1,.727-.727h8.3a.739.739,0,0,1,.567.276l1.818-1.818a.73.73,0,0,1,1.033,1.033L50.666,21.05v6.239a.729.729,0,0,1-.727.727h-8.3a.72.72,0,0,1-.727-.727V24.162H26.275v3.069a11.768,11.768,0,0,1,11.01,11h3.636V35.1a.729.729,0,0,1,.727-.727h8.3A.782.782,0,0,1,50.622,34.823ZM43.961,54.181a.723.723,0,0,1,1.251-.727l.916,1.6,3.1-3.083V51.36H42.361V57.6h6.865V54.021l-2.734,2.734a.723.723,0,0,1-1.134-.145Zm0-31.517a.723.723,0,0,1,1.251-.727l.916,1.6,3.1-3.1v-.131H42.361v6.239h6.865V22.49l-2.734,2.734a.723.723,0,0,1-1.134-.145ZM26.275,44.044v.771a.727.727,0,0,1-1.454,0v-.771c-1.614-.2-3.331-1.222-3.331-2.88a.727.727,0,0,1,1.454,0c0,1.251,2.88,2.051,4.552.945a1.243,1.243,0,0,0,.654-.945c0-1.047-1.353-1.265-2.72-1.484-1.978-.305-3.941-.625-3.941-2.909,0-1.658,1.716-2.662,3.331-2.88v-.785a.727.727,0,0,1,1.454,0v.785c1.614.2,3.331,1.222,3.331,2.88a.727.727,0,0,1-1.454,0c0-1.251-2.88-2.051-4.567-.945a1.222,1.222,0,0,0-.64.945c0,1.047,1.353,1.265,2.705,1.469,1.978.305,3.941.625,3.941,2.909.015,1.673-1.7,2.676-3.316,2.894Zm-8.014,2.211a10.295,10.295,0,1,0,0-14.559A10.306,10.306,0,0,0,18.261,46.255Z" transform="translate(0 0)" fill-rule="evenodd"/></g></g></svg>