<svg xmlns="http://www.w3.org/2000/svg" width="54.013" height="60.018" viewBox="0 0 54.013 60.018"><g transform="translate(-31.806 -6.991)"><g transform="translate(32.774 7.959)"><g transform="translate(8.998 0)"><path d="M136.849,28.145l2.89,15.8-10.5-.119,2.869-15.677Z" transform="translate(-127.421 -26.553)" fill="#178d89" fill-rule="evenodd"/><path d="M182.093,28.145h1.21l2.89,15.8-1.213-.014Z" transform="translate(-173.875 -26.553)" fill="#758596" fill-rule="evenodd"/><path d="M126.34,80.2a.605.605,0,0,1,.6.568l.47,7.687-1.195,2.3-2.934,1.143.543,3.471-4.207,8.116H114.78a.605.605,0,0,1-.6-.642c.205-3.361,1.155-18.9,1.349-22.08a.6.6,0,0,1,.6-.568Z" transform="translate(-114.175 -72.312)" fill="#22cac5" fill-rule="evenodd"/><path d="M115.99,103.492h-1.21a.605.605,0,0,1-.6-.642l1.349-22.08a.6.6,0,0,1,.6-.568h1.21a.6.6,0,0,0-.6.568l-1.349,22.08a.605.605,0,0,0,.6.642Z" transform="translate(-114.175 -72.312)" fill="#8d9ca8" fill-rule="evenodd"/><path d="M140.649,14.992a.645.645,0,0,1,.645.645v1.372a.645.645,0,0,1-.645.645h-8.68a.645.645,0,0,1-.645-.645V15.637a.645.645,0,0,1,.645-.645Z" transform="translate(-129.249 -14.992)" fill="#eceff1" fill-rule="evenodd"/><path d="M141.114,15.454a.645.645,0,0,1,.382.589v1.372a.645.645,0,0,1-.645.645h-8.68a.645.645,0,0,1-.617-.457.642.642,0,0,0,.263.056h8.68a.645.645,0,0,0,.645-.645V15.642a.646.646,0,0,0-.028-.188Z" transform="translate(-129.451 -15.398)" fill="#d1d1d6" fill-rule="evenodd"/><path d="M164.527,111.944a.6.6,0,0,1-.6.6h-4.736v-11.9a.605.605,0,0,1,.406-.571l27.461-9.542a.6.6,0,0,1,.8.571v20.833a.6.6,0,0,1-.6.6h-1.844a.605.605,0,0,1-.6-.6v-7.16a.6.6,0,0,0-.6-.6H165.132a.605.605,0,0,0-.6.6Z" transform="translate(-153.74 -81.369)" fill="#a6eae8" fill-rule="evenodd"/><path d="M212.125,90.728l.543-.189a.6.6,0,0,1,.8.571v20.833a.6.6,0,0,1-.6.6h-1.21a.6.6,0,0,0,.6-.6V91.111A.605.605,0,0,0,212.125,90.728Zm-21.379,13.45a.6.6,0,0,0-.6.6v7.16a.6.6,0,0,1-.6.6h-1.21a.6.6,0,0,0,.6-.6v-7.16a.605.605,0,0,1,.6-.6Z" transform="translate(-179.354 -81.369)" fill="#758596" fill-rule="evenodd"/><path d="M154.47,105.834a.6.6,0,0,1,.6.6V108.2a.6.6,0,0,1-.6.6h-4.333a.6.6,0,0,1-.6-.6v-1.758a.6.6,0,0,1,.6-.6Z" transform="translate(-145.254 -94.842)" fill="#eceff1" fill-rule="evenodd"/></g><g transform="translate(0 43.719)"><path d="M46.989,376.308a7.181,7.181,0,1,1-7.181,7.181A7.181,7.181,0,0,1,46.989,376.308Z" transform="translate(-39.808 -376.308)" fill="#b15815" fill-rule="evenodd"/><path d="M94.691,376.308a7.181,7.181,0,1,1,0,14.363c-.207,0-.412-.009-.615-.027a7.181,7.181,0,0,0,0-14.31C94.279,376.317,94.484,376.308,94.691,376.308Z" transform="translate(-87.51 -376.308)" fill="#f5b829" fill-rule="evenodd"/></g><g transform="translate(18.857 43.719)"><path d="M202.831,376.308a7.181,7.181,0,1,1-7.181,7.181A7.181,7.181,0,0,1,202.831,376.308Z" transform="translate(-195.65 -376.308)" fill="#b15815" fill-rule="evenodd"/><path d="M250.533,376.308a7.181,7.181,0,1,1,0,14.363c-.207,0-.412-.009-.615-.027a7.181,7.181,0,0,0,0-14.31C250.121,376.317,250.326,376.308,250.533,376.308Z" transform="translate(-243.352 -376.308)" fill="#b15815" fill-rule="evenodd"/></g><g transform="translate(37.714 43.719)"><path d="M358.673,376.308a7.181,7.181,0,1,1-7.181,7.181A7.181,7.181,0,0,1,358.673,376.308Z" transform="translate(-351.492 -376.308)" fill="#b15815" fill-rule="evenodd"/><path d="M406.375,376.308a7.181,7.181,0,1,1,0,14.363c-.207,0-.412-.009-.615-.027a7.181,7.181,0,0,0,0-14.31C405.963,376.317,406.168,376.308,406.375,376.308Z" transform="translate(-399.194 -376.308)" fill="#b15815" fill-rule="evenodd"/></g></g><path d="M52.56,40.107H41.734a.968.968,0,0,1-.966-1.027l1.423-23.29a.968.968,0,0,1,.966-.909H44.5l.6-3.293h-.615A1.613,1.613,0,0,1,42.88,9.975V8.6a1.613,1.613,0,0,1,1.613-1.613h8.68A1.613,1.613,0,0,1,54.785,8.6V9.975a1.613,1.613,0,0,1-1.613,1.613h-.615l.6,3.293h1.347a.968.968,0,0,1,.966.909l.427,6.981,19.672-6.835a.968.968,0,0,1,1.286.914V39.139a.968.968,0,0,1-.968.968H72.836a.968.968,0,0,1-.968-.968v-7.4H53.528v7.4a.968.968,0,0,1-.968.968ZM46.473,14.881h4.719l-.6-3.293H47.076ZM54,23.431l-.4-6.614H44.068l-1.3,21.354h3.487V26.813a.968.968,0,0,1,.65-.914Zm-2.409,14.74v-7.4a.968.968,0,0,1,.968-.968H72.836a.968.968,0,0,1,.968.968v7.4h1.118V18.212L48.187,27.5v10.67ZM44.816,9.652h8.034V8.927H44.816Zm7.746,9.3v2.968a.968.968,0,0,1-.968.968H46.051a.968.968,0,0,1-.968-.968V18.951a.968.968,0,0,1,.968-.968h5.543A.968.968,0,0,1,52.562,18.951Zm-1.936.968H47.019v1.032h3.607Zm7.218,25.453H40.924v2.761a.968.968,0,0,1-1.936,0V44.4a.968.968,0,0,1,.968-.968H57.844v-5.3a.968.968,0,1,1,1.936,0v5.3H77.669a.968.968,0,0,1,.968.968v3.729a.968.968,0,0,1-1.936,0V45.372H59.78v2.761a.968.968,0,0,1-1.936,0ZM39.956,67.009a8.149,8.149,0,1,1,8.149-8.15A8.167,8.167,0,0,1,39.956,67.009Zm0-1.936a6.213,6.213,0,1,0-6.214-6.214A6.227,6.227,0,0,0,39.956,65.073ZM38.988,54.5v-.189a.968.968,0,0,1,1.936,0v.179A3.078,3.078,0,0,1,42.962,56.3a.968.968,0,1,1-1.785.75,1.34,1.34,0,0,0-1.763-.651.757.757,0,0,0-.556.721.607.607,0,0,0,.409.512,3.115,3.115,0,0,0,.851.245c1.389.227,2.888.892,3.09,2.544h0a2.624,2.624,0,0,1-2.285,2.82v.16a.968.968,0,0,1-1.936,0V63.23a3.047,3.047,0,0,1-2.275-2.205.968.968,0,1,1,1.879-.468,1.326,1.326,0,0,0,1.435.862,2.144,2.144,0,0,0,.874-.2.557.557,0,0,0,.387-.565.783.783,0,0,0-.533-.609,3.8,3.8,0,0,0-.947-.258h0c-1.369-.225-2.8-.945-2.88-2.573h0A2.632,2.632,0,0,1,38.705,54.6Q38.843,54.545,38.988,54.5ZM58.812,67.009a8.149,8.149,0,1,1,8.149-8.15,8.167,8.167,0,0,1-8.149,8.15Zm0-1.936A6.213,6.213,0,1,0,52.6,58.859a6.226,6.226,0,0,0,6.213,6.214ZM57.844,54.5v-.189a.968.968,0,0,1,1.936,0v.179A3.078,3.078,0,0,1,61.819,56.3a.968.968,0,0,1-1.785.75,1.339,1.339,0,0,0-1.763-.651.757.757,0,0,0-.556.721.607.607,0,0,0,.409.512,3.115,3.115,0,0,0,.851.245c1.389.227,2.888.892,3.09,2.544h0a2.624,2.624,0,0,1-2.285,2.82v.16a.968.968,0,0,1-1.936,0V63.23a3.047,3.047,0,0,1-2.275-2.205.968.968,0,1,1,1.879-.468,1.326,1.326,0,0,0,1.435.862,2.145,2.145,0,0,0,.874-.2.557.557,0,0,0,.386-.565.783.783,0,0,0-.533-.609,3.8,3.8,0,0,0-.947-.258h0c-1.369-.225-2.8-.945-2.88-2.573h0A2.632,2.632,0,0,1,57.562,54.6Q57.7,54.545,57.844,54.5ZM77.669,67.009a8.149,8.149,0,1,1,8.15-8.15A8.167,8.167,0,0,1,77.669,67.009Zm0-1.936a6.213,6.213,0,1,0-6.213-6.214A6.227,6.227,0,0,0,77.669,65.073ZM76.7,54.5v-.189a.968.968,0,0,1,1.936,0v.179A3.078,3.078,0,0,1,80.676,56.3a.968.968,0,0,1-1.785.75,1.339,1.339,0,0,0-1.763-.651.757.757,0,0,0-.556.721.607.607,0,0,0,.409.512,3.115,3.115,0,0,0,.851.245c1.389.227,2.888.892,3.09,2.544h0a2.624,2.624,0,0,1-2.285,2.82v.16a.968.968,0,0,1-1.936,0V63.23a3.047,3.047,0,0,1-2.275-2.205.968.968,0,1,1,1.879-.468,1.326,1.326,0,0,0,1.435.862,2.145,2.145,0,0,0,.874-.2A.558.558,0,0,0,79,60.657a.783.783,0,0,0-.533-.609,3.8,3.8,0,0,0-.947-.258h0c-1.369-.225-2.8-.945-2.88-2.573h0a2.632,2.632,0,0,1,1.78-2.616Q76.557,54.545,76.7,54.5Z" fill-rule="evenodd"/></g></svg>