<svg xmlns="http://www.w3.org/2000/svg" width="57.998" height="58.002" viewBox="0 0 57.998 58.002"><g transform="translate(-5.018 -5)"><path d="M166.126,154.325v13.727H147.79V154.325h-3.128a.644.644,0,0,1-.31-1.209l11.8-6.463a1.642,1.642,0,0,1,1.619,0l11.8,6.463a.644.644,0,0,1-.31,1.209Z" transform="translate(-122.939 -125.098)" fill="#aeaed6" fill-rule="evenodd"/><path d="M164.726,170.569H147.789V156.842h-3.128a.644.644,0,0,1-.31-1.209l11.585-6.347,11.585,6.347a.644.644,0,0,1-.31,1.209h-2.486v13.727Z" transform="translate(-122.938 -127.614)" fill="#a6eae8" fill-rule="evenodd"/><path d="M197.366,243.126h4.575v7.926h-4.575Z" transform="translate(-170.124 -210.613)" fill="#f3f3ff"/><path d="M264.87,214.687h5.754v2.572H264.87Z" transform="translate(-229.828 -185.459)" fill="#f3f3ff"/><path d="M237.5,173.551a1.7,1.7,0,1,0-1.7-1.7A1.7,1.7,0,0,0,237.5,173.551Z" transform="translate(-204.117 -146.066)" fill="#aeaed6" fill-rule="evenodd"/><circle cx="1.665" cy="1.665" r="1.665" transform="translate(31.854 26.687) rotate(-67.486)" fill="#f3f3ff"/><rect width="24.283" height="2.516" rx="1.258" transform="translate(21.877 40.439)" fill="#178d89"/><path d="M173.6,313.388v-1.667h.953a.667.667,0,0,1,.665.665v1.185a.667.667,0,0,1-.665.665H151.6a.667.667,0,0,1-.665-.665v-.183Z" transform="translate(-129.057 -271.282)" fill="#7986bf" fill-rule="evenodd"/><path d="M259.675,214.687h.6v2.572h-.6Z" transform="translate(-225.234 -185.459)" fill="#aeaed6"/><path d="M189.392,243.126h.921v7.926h-.921Z" transform="translate(-163.071 -210.613)" fill="#aeaed6"/><g transform="translate(5.703 46.279)"><path d="M87.175,380.119a2.259,2.259,0,0,0-2.025-3.407c-2.816,0-3.552.145-6.161-1.409l-2.838-1.691a8.251,8.251,0,0,0-5.332-1.278L63,373.057V384.6c7.525,0,15.76,3.8,23.735,2.146,2.8-.58,11.92-5.8,13.616-8.026,1.532-2.014-.446-3.911-2.783-2.562-3.147,1.817-10.127,4.978-13.053,5.266a3.43,3.43,0,0,0,2.656-1.309Z" transform="translate(-56.99 -371.134)" fill="#f2c496" fill-rule="evenodd"/><path d="M87.175,380.119a2.259,2.259,0,0,0-2.025-3.407c-2.816,0-3.552.145-6.161-1.409l-2.838-1.691a8.251,8.251,0,0,0-5.332-1.278L63,373.057v9.588c7.458.089,15.856,3.776,23.735,2.144,2.8-.58,11.92-5.8,13.616-8.025a3.151,3.151,0,0,0,.245-.372c-.534-.724-1.725-.981-3.028-.229-3.147,1.817-10.127,4.978-13.053,5.266a3.43,3.43,0,0,0,2.656-1.309Z" transform="translate(-56.99 -371.134)" fill="#fdd7ad" fill-rule="evenodd"/><path d="M160.2,414.134a16.381,16.381,0,0,0,5.686,1.563,11.573,11.573,0,0,0,3.128-.022c2.924-.533,2.788-1.808,1.965-2.621a2.262,2.262,0,0,1,.826,3.117,2.963,2.963,0,0,1-2.029,1.2c-.188.035-.4.07-.627.1a13.6,13.6,0,0,1-3.449.042,18.38,18.38,0,0,1-6.434-1.808.929.929,0,1,1,.934-1.581Z" transform="translate(-141.62 -407.186)" fill="#f2c496" fill-rule="evenodd"/><path d="M10.947,362.264h4.745a1.7,1.7,0,0,1,1.694,1.694v12.007a1.7,1.7,0,0,1-1.694,1.694H10.947V362.264Z" transform="translate(-10.947 -362.264)" fill="#116562" fill-rule="evenodd"/><path d="M10.947,362.264h4.745a1.681,1.681,0,0,1,.265.907v11.843a1.317,1.317,0,0,1-1.314,1.314h-3.7Z" transform="translate(-10.947 -362.264)" fill="#22cac5" fill-rule="evenodd"/></g><circle cx="1.268" cy="1.268" r="1.268" transform="translate(7.123 58.291) rotate(-45)" fill="#0062d9"/><g transform="translate(18.429 5.69)"><path d="M134.809,18.021a2.259,2.259,0,0,0,2.025,3.407c2.816,0,3.552-.145,6.161,1.409l2.838,1.691a8.251,8.251,0,0,0,5.332,1.278l7.814-.723V13.535c-7.525,0-15.76-3.8-23.735-2.146-2.8.58-11.92,5.8-13.616,8.026-1.532,2.014.446,3.911,2.783,2.562,3.147-1.817,10.127-4.978,13.053-5.266a3.43,3.43,0,0,0-2.656,1.309Z" transform="translate(-121.089 -10.973)" fill="#f2c496" fill-rule="evenodd"/><path d="M137.07,33.032a2.259,2.259,0,0,0,2.025,3.407c2.816,0,3.552-.145,6.161,1.409l2.838,1.691a8.251,8.251,0,0,0,5.332,1.278l7.814-.723V30.506c-7.458-.089-15.856-3.776-23.735-2.144-2.8.58-11.92,5.8-13.616,8.026a3.167,3.167,0,0,0-.245.372c.534.724,1.725.981,3.028.229,3.147-1.817,10.127-4.978,13.053-5.266a3.43,3.43,0,0,0-2.656,1.309Z" transform="translate(-123.35 -25.985)" fill="#fdd7ad" fill-rule="evenodd"/><path d="M249,62.984a16.381,16.381,0,0,0-5.686-1.563,11.573,11.573,0,0,0-3.128.022c-2.924.533-2.788,1.808-1.965,2.621a2.262,2.262,0,0,1-.826-3.117,2.963,2.963,0,0,1,2.029-1.2c.188-.035.4-.07.627-.1A13.6,13.6,0,0,1,243.5,59.6a18.382,18.382,0,0,1,6.434,1.807A.929.929,0,1,1,249,62.984Z" transform="translate(-223.675 -53.899)" fill="#f2c496" fill-rule="evenodd"/><path d="M451.8,31.892h-4.745A1.7,1.7,0,0,1,445.36,30.2V18.192a1.7,1.7,0,0,1,1.694-1.694H451.8Z" transform="translate(-407.893 -15.86)" fill="#116562" fill-rule="evenodd"/><path d="M462.732,42.077h-4.745a1.681,1.681,0,0,1-.265-.907V29.327a1.317,1.317,0,0,1,1.314-1.314h3.7Z" transform="translate(-418.826 -26.044)" fill="#22cac5" fill-rule="evenodd"/></g><circle cx="1.268" cy="1.268" r="1.268" transform="translate(57.577 8.749) rotate(-13.3)" fill="#0062d9"/><path d="M34.02,26.754a.972.972,0,1,1,.969-.972A.972.972,0,0,1,34.02,26.754Zm2.355-.972a2.358,2.358,0,1,0-2.355,2.358A2.36,2.36,0,0,0,36.375,25.783ZM32.511,39.747h9.983V29.228a.693.693,0,0,1,.69-.693h2.94L34.493,22.163a.948.948,0,0,0-.952,0L21.91,28.535h2.94a.689.689,0,0,1,.69.693V39.747h1.008V33.2a.692.692,0,0,1,.028-1.384h5.9a.692.692,0,0,1,.033,1.384v6.542Zm-4.577-6.54h3.19v6.54h-3.19Zm17.532,9.055h-22.9V41.134h22.9v1.129Zm.846-12.341a1.338,1.338,0,0,0,.646-2.511l-11.8-6.463a2.339,2.339,0,0,0-2.288,0L21.08,27.411a1.337,1.337,0,0,0,.64,2.511h2.433v9.826H22.539a1.362,1.362,0,0,0-1.358,1.359V42.29a1.362,1.362,0,0,0,1.358,1.359H45.494a1.358,1.358,0,0,0,1.359-1.359V41.106a1.358,1.358,0,0,0-1.359-1.359H43.88V29.921ZM40.689,31.5H38.613V30.085h2.077Zm-4.866-1.411h1.4V31.5h-1.4ZM41.385,28.7a.69.69,0,0,1,.69.693v2.8a.69.69,0,0,1-.69.693H35.127a.694.694,0,0,1-.69-.693v-2.8a.694.694,0,0,1,.69-.693ZM59.107,9.133a.574.574,0,1,1-.573.574A.574.574,0,0,1,59.107,9.133Zm0,2.535a1.961,1.961,0,1,0-1.96-1.961A1.963,1.963,0,0,0,59.107,11.668Zm2.522,9.359v-14H57.582a1,1,0,0,0-1,1v12a1,1,0,0,0,1,1Zm-13.19-1.2a7.523,7.523,0,0,1-4.916-1.183L40.69,16.956a8.749,8.749,0,0,0-5.857-1.508l-.657,0h-.028a1.594,1.594,0,0,1-.512-.062l-.05-.018a1.572,1.572,0,0,1-.841-2.277,2.231,2.231,0,0,1,1.481-.858c2.684-.632,7.694.523,9.292,1.556a.694.694,0,1,0,.752-1.166,18.366,18.366,0,0,0-9.532-1.882v0c-3.207.315-10.384,3.654-13.329,5.354-.958.552-1.732.406-2.077.016s-.262-.96.195-1.557c1.609-2.114,10.612-7.227,13.2-7.763,4.616-.957,9.409-.014,14.053.9A58.427,58.427,0,0,0,55.193,8.92V19.2l-6.753.625ZM62.325,5.638H57.582a2.4,2.4,0,0,0-2.338,1.9,56.44,56.44,0,0,1-8.2-1.209c-4.777-.938-9.715-1.908-14.6-.895-2.917.6-12.215,5.906-14.019,8.281a2.552,2.552,0,0,0-.134,3.314,2.552,2.552,0,0,0,1.932.817,3.787,3.787,0,0,0,1.882-.549,65.1,65.1,0,0,1,9.136-4.186,2.916,2.916,0,0,0,.317,2.288.924.924,0,0,0,.061.1,18.869,18.869,0,0,0-2.433.481,18.546,18.546,0,0,0-9.6,6.193.692.692,0,0,0,.1.975.681.681,0,0,0,.434.157.7.7,0,0,0,.54-.254,17.17,17.17,0,0,1,8.886-5.732,17.422,17.422,0,0,1,3.764-.576,2.94,2.94,0,0,0,.88.1l.651,0a7.445,7.445,0,0,1,5.139,1.313l2.839,1.69a10.262,10.262,0,0,0,2.528,1.116,17.291,17.291,0,0,1,4.666,19.6l-.017-.141a.695.695,0,0,0-1.381.154l.278,2.5a.7.7,0,0,0,.69.616.709.709,0,0,0,.351-.094l2.244-1.3a.693.693,0,0,0-.7-1.2l-.256.149a18.663,18.663,0,0,0-3.569-19.978c.3,0,.6-.016.913-.045l6.7-.619a2.392,2.392,0,0,0,2.316,1.823h4.744a.69.69,0,0,0,.69-.693V6.331a.69.69,0,0,0-.69-.693ZM8.927,58.869a.574.574,0,1,1,.573-.574A.574.574,0,0,1,8.927,58.869Zm0-2.535a1.961,1.961,0,1,0,1.965,1.961A1.963,1.963,0,0,0,8.927,56.334Zm39.58-2.884c-1.609,2.115-10.612,7.228-13.2,7.763-4.61.956-9.409.014-14.053-.9a58.444,58.444,0,0,0-8.413-1.235V48.8l6.759-.624a7.507,7.507,0,0,1,4.911,1.182l2.834,1.69A8.762,8.762,0,0,0,33.2,52.554l.657,0h.028a1.566,1.566,0,0,1,1.4,2.358,2.232,2.232,0,0,1-1.481.858c-2.684.632-7.689-.524-9.292-1.556a.693.693,0,0,0-.752,1.166,18.5,18.5,0,0,0,8.223,1.955,11.277,11.277,0,0,0,1.308-.072v0c3.207-.316,10.383-3.654,13.329-5.353.958-.555,1.732-.407,2.077-.016s.262.959-.195,1.556ZM11.454,59.978v-12a1,1,0,0,0-1-1H6.4v14h4.048a1,1,0,0,0,1-1Zm34.474-9.27a65.123,65.123,0,0,1-9.136,4.186,2.917,2.917,0,0,0-.317-2.288.8.8,0,0,0-.061-.095,18.873,18.873,0,0,0,2.433-.482,18.516,18.516,0,0,0,9.6-6.193.691.691,0,0,0-.095-.975.7.7,0,0,0-.98.1,17.145,17.145,0,0,1-8.886,5.732,17.4,17.4,0,0,1-3.764.577,2.982,2.982,0,0,0-.88-.1l-.651,0a7.452,7.452,0,0,1-5.139-1.313l-2.839-1.69a10.266,10.266,0,0,0-2.528-1.116,17.278,17.278,0,0,1-4.66-19.6l.017.141a.691.691,0,0,0,.685.616c.028,0,.05,0,.078,0a.694.694,0,0,0,.612-.766l-.278-2.5a.693.693,0,0,0-1.036-.522l-2.249,1.3a.693.693,0,0,0,.7,1.2l.256-.149a18.666,18.666,0,0,0,3.569,19.979c-.3,0-.6.015-.907.044l-6.7.619a2.382,2.382,0,0,0-2.316-1.823H5.709a.69.69,0,0,0-.69.693V61.671a.69.69,0,0,0,.69.693h4.744a2.4,2.4,0,0,0,2.338-1.9,56.422,56.422,0,0,1,8.2,1.21A53.186,53.186,0,0,0,31.158,63a21.744,21.744,0,0,0,4.432-.431c2.917-.6,12.215-5.905,14.019-8.281a2.545,2.545,0,0,0,.134-3.314,2.969,2.969,0,0,0-3.814-.268Z" fill-rule="evenodd"/></g></svg>