<svg xmlns="http://www.w3.org/2000/svg" width="58.37" height="65.132" viewBox="0 0 58.37 65.132"><g transform="translate(-26.571 0)"><path d="M107.425,37.9h35.862a2.587,2.587,0,0,1,2.578,2.579V85.059a2.587,2.587,0,0,1-2.578,2.578H107.425a2.587,2.587,0,0,1-2.578-2.578V40.479A2.587,2.587,0,0,1,107.425,37.9Z" transform="translate(-68.319 -33.079)" fill="#116562" fill-rule="evenodd"/><path d="M132.108,63.783h31.668a1.39,1.39,0,0,1,1.385,1.385v40.383a1.39,1.39,0,0,1-1.385,1.385H132.108a1.387,1.387,0,0,1-1.381-1.385V65.168A1.387,1.387,0,0,1,132.108,63.783Z" transform="translate(-90.906 -55.67)" fill="#d5e3f2" fill-rule="evenodd"/><path d="M203.025,9.583h4.9V9.546a2.558,2.558,0,1,1,5.117,0,.124.124,0,0,1,0,.036h4.9a.639.639,0,0,1,.638.638v5.106h-16.2V10.221a.642.642,0,0,1,.638-.638Z" transform="translate(-153.45 -6.1)" fill="#4d6c8f" fill-rule="evenodd"/><path d="M160.292,250.841h4.435v4.435h-4.435Z" transform="translate(-116.71 -218.932)" fill="#e8faf9"/><path d="M160.292,320.573h4.435v4.435h-4.435Z" transform="translate(-116.71 -279.793)" fill="#22cac5"/><path d="M160.292,181.08h4.435v4.435h-4.435Z" transform="translate(-116.71 -158.045)" fill="#a6eae8"/><path d="M160.292,111.348h4.435v4.435h-4.435Z" transform="translate(-116.71 -97.184)" fill="#22cac5"/><g transform="translate(27.46 3.483)"><path d="M330.655,276.5c0-1.554,4.173-2.809,9.318-2.809s9.318,1.255,9.318,2.809v17.579c0,1.551-4.173,2.809-9.318,2.809s-9.318-1.258-9.318-2.809Z" transform="translate(-292.862 -242.356)" fill="#efddcf" fill-rule="evenodd"/><path d="M339.971,279.3c5.131,0,9.318-1.258,9.318-2.805s-4.186-2.809-9.318-2.809-9.318,1.262-9.318,2.809S334.839,279.3,339.971,279.3Z" transform="translate(-292.86 -242.356)" fill="#b15815" fill-rule="evenodd"/><path d="M349.291,295.77v5.723c0,1.551-4.173,2.809-9.318,2.809s-9.318-1.259-9.318-2.809V295.77c0,1.551,4.173,2.805,9.318,2.805S349.291,297.321,349.291,295.77Z" transform="translate(-292.862 -261.629)" fill="#efddcf" fill-rule="evenodd"/><path d="M330.655,342.343h.025c.346,1.457,4.374,2.608,9.293,2.608s8.946-1.15,9.293-2.608h.025v5.726c0,1.551-4.173,2.809-9.318,2.809s-9.318-1.259-9.318-2.809Z" transform="translate(-292.862 -302.277)" fill="#b15815" fill-rule="evenodd"/><path d="M338.833,163.222a9.482,9.482,0,1,0-9.484-9.483A9.482,9.482,0,0,0,338.833,163.222Z" transform="translate(-291.722 -129.391)" fill="#dfbba0" fill-rule="evenodd"/><path d="M43.816,217.264,33.744,186.523a3.575,3.575,0,0,1,6.793-2.228l10.072,30.741-1.168,7.908Z" transform="translate(-33.565 -162.186)" fill="#ffd23b" fill-rule="evenodd"/><path d="M33.9,186.981l-.151-.458a3.575,3.575,0,0,1,6.793-2.228l.152.462Z" transform="translate(-33.565 -162.186)" fill="#fb4455" fill-rule="evenodd"/><path d="M114.144,445.06l6.794-2.228-1.168,7.908Z" transform="translate(-103.893 -389.983)" fill="#4d6c8f" fill-rule="evenodd"/><path d="M203.808,31.345V27.386h-.787a.642.642,0,0,0-.638.638V33.13h16.2V31.345Z" transform="translate(-180.907 -27.386)" fill="#3b5c82" fill-rule="evenodd"/><path d="M132.115,101.938V63.783h-.007a1.387,1.387,0,0,0-1.381,1.385V97.7Z" transform="translate(-118.367 -59.153)" fill="#b7cfe8" fill-rule="evenodd"/><path d="M108.139,75.11V42.577a1.387,1.387,0,0,1,1.381-1.385h.007v-.714a2.585,2.585,0,0,1,2.578-2.579h-4.681a2.587,2.587,0,0,0-2.578,2.579v24.59Z" transform="translate(-95.779 -36.562)" fill="#178d89" fill-rule="evenodd"/><path d="M116.333,454.709l-2.189.718,5.625,5.679.375-2.546Z" transform="translate(-103.893 -400.349)" fill="#3b5c82" fill-rule="evenodd"/><path d="M46.083,247.656l2.189-.718-1.082-3.3-2.29-6.988-6.548-19.992-2.189.718Z" transform="translate(-35.833 -192.578)" fill="#e8bd31" fill-rule="evenodd"/><path d="M33.914,186.895l2.189-.718-.152-.458a3.617,3.617,0,0,1,1.244-3.985,3.659,3.659,0,0,0-1.154.173,3.606,3.606,0,0,0-2.279,4.529Z" transform="translate(-33.583 -162.099)" fill="#e82e41" fill-rule="evenodd"/><path d="M331.168,153.738a9.486,9.486,0,0,1,7.352-9.242,9.814,9.814,0,0,1,1.224-.2c-.3-.025-.6-.04-.905-.04-.1,0-.213,0-.318,0a9.482,9.482,0,0,0,0,18.953c.1,0,.213.007.318.007.306,0,.606-.014.905-.043a9.82,9.82,0,0,1-1.223-.2A9.485,9.485,0,0,1,331.168,153.738Z" transform="translate(-291.727 -129.391)" fill="#b15815" fill-rule="evenodd"/><path d="M331.607,302.73v-5.723c-.609-.375-.952-.793-.952-1.237v5.723a.942.942,0,0,0,.025.2,1.835,1.835,0,0,0,.927,1.035Z" transform="translate(-292.862 -261.629)" fill="#e8bd31" fill-rule="evenodd"/><path d="M331.605,343.378a1.837,1.837,0,0,1-.927-1.035h-.025v5.726c0,.444.342.865.952,1.237v-5.928Z" transform="translate(-292.86 -302.277)" fill="#e68720" fill-rule="evenodd"/><path d="M331.607,388.594c-.609-.371-.952-.793-.952-1.237v5.928c0,1.551,4.173,2.809,9.318,2.809.159,0,.317,0,.476,0-4.926-.076-8.842-1.3-8.842-2.805Z" transform="translate(-292.862 -341.565)" fill="#e8bd31" fill-rule="evenodd"/></g><path d="M57.933,3.45a.893.893,0,1,1-.9-.89h.011a.891.891,0,0,1,.891.891Zm15.747,18.4v.882a3.062,3.062,0,0,0,.89,5.991,1.28,1.28,0,1,1-1.205,1.709.891.891,0,0,0-1.678.6,3.069,3.069,0,0,0,1.993,1.9v.883a.89.89,0,0,0,1.781,0v-.882a3.062,3.062,0,0,0-.89-5.991,1.28,1.28,0,1,1,1.205-1.71.891.891,0,0,0,1.678-.6,3.069,3.069,0,0,0-1.992-1.9v-.883a.89.89,0,0,0-1.781,0ZM48.908,23.037v4.435a.89.89,0,0,1-.89.89H43.582a.89.89,0,0,1-.89-.89V23.037a.89.89,0,0,1,.89-.89h4.435a.891.891,0,0,1,.891.891Zm-1.781.89H44.473v2.654h2.654ZM62.062,39.891H51.226a.89.89,0,0,0,0,1.781H62.062a.89.89,0,0,0,0-1.781ZM51.226,28.363H61.9a.89.89,0,1,0,0-1.781H51.226a.89.89,0,0,0,0,1.781Zm10.836,7.093H51.226a.89.89,0,0,0,0,1.781H62.062a.89.89,0,0,0,0-1.781Zm.5-4.439H51.226a.89.89,0,0,0,0,1.781h11.34a.89.89,0,1,0,0-1.781Zm.27-8.87H51.226a.89.89,0,0,0,0,1.781H62.837a.89.89,0,0,0,0-1.781ZM84.779,37.623V55.2c0,2.539-5.292,3.7-10.208,3.7-4.758,0-9.867-1.083-10.192-3.454H45.152l.2.61a.889.889,0,0,1,.035.408l-1.172,7.908a.89.89,0,0,1-1.514.5l-5.622-5.679a.891.891,0,0,1-.213-.349L26.794,28.1a4.465,4.465,0,1,1,8.486-2.783l.15.457s0,0,0,0v0l.205.627V7.4a3.473,3.473,0,0,1,3.469-3.469h8.952A1.53,1.53,0,0,1,49.575,2.6H53.7a3.449,3.449,0,0,1,6.684,0H64.5a1.53,1.53,0,0,1,1.515,1.338h8.956A3.473,3.473,0,0,1,78.436,7.4V18.209A10.36,10.36,0,0,1,82.057,35c1.787.651,2.722,1.545,2.722,2.625Zm-4.324-1.257a10.343,10.343,0,0,1-11.769,0c-1.975.516-2.513,1.122-2.541,1.258.027.125.474.668,2.243,1.177a26.194,26.194,0,0,0,12.361,0c1.784-.512,2.227-1.06,2.249-1.18-.024-.128-.559-.738-2.543-1.256ZM74.57,19.24a8.591,8.591,0,1,0,8.589,8.591A8.591,8.591,0,0,0,74.57,19.24ZM66.025,7.225h6.844A2.278,2.278,0,0,1,75.144,9.5v7.974a10.358,10.358,0,0,1,1.511.194V7.4a1.689,1.689,0,0,0-1.688-1.687H66.024ZM49.827,8.34H64.243V4.377H59.592a.89.89,0,0,1-.89-.89c0-.028,0-.054,0-.076a1.668,1.668,0,1,0-3.335.041v.036a.89.89,0,0,1-.89.89H49.827ZM37.42,31.846l1.507,4.6V9.5A2.278,2.278,0,0,1,41.2,7.225h6.844V5.715H39.107A1.689,1.689,0,0,0,37.42,7.4Zm-9.027-4.7L33.429,25.5a2.677,2.677,0,0,0-5.036,1.649ZM38.28,57.437l5.1-1.673-4.391-13.4a.875.875,0,0,1-.032-.1L34.016,27.179l-5.1,1.671Zm5.132.192-4.055,1.33,3.356,3.39Zm20.95-5.471H44.074l.494,1.507H64.362ZM67.082,35a10.362,10.362,0,0,1,6.28-17.467V9.5a.5.5,0,0,0-.494-.494H66.025V9.23a.89.89,0,0,1-.89.89h-16.2a.89.89,0,0,1-.89-.89V9.007H41.2a.5.5,0,0,0-.495.494V41.883l2.783,8.493H64.362V37.623c0-1.08.934-1.973,2.72-2.624Zm-.939,8.347v0c.02.116.463.666,2.249,1.178a26.161,26.161,0,0,0,12.355,0c1.784-.512,2.227-1.061,2.249-1.181V39.857c-2.192,1.117-5.928,1.465-8.427,1.465s-6.238-.349-8.427-1.463Zm0,5.93v0c.02.116.463.665,2.249,1.178a26.161,26.161,0,0,0,12.355,0c1.785-.513,2.228-1.062,2.249-1.182V45.56c-1.967,1.012-5.274,1.488-8.427,1.488s-6.46-.476-8.427-1.488ZM83,55.2V51.488c-1.967,1.012-5.274,1.488-8.427,1.488s-6.46-.476-8.427-1.488V55.2c.021.116.463.665,2.25,1.177a26.228,26.228,0,0,0,12.355,0C82.535,55.87,82.977,55.321,83,55.2Zm-34.09-14.42v4.435a.89.89,0,0,1-.89.89H43.582a.89.89,0,0,1-.89-.89V40.781a.89.89,0,0,1,.89-.89h4.435a.891.891,0,0,1,.891.891Zm-1.781.89H44.473v2.654h2.654Zm1.781-9.765v4.439a.89.89,0,0,1-.89.89H43.582a.89.89,0,0,1-.89-.89V31.908a.89.89,0,0,1,.89-.89h4.435a.891.891,0,0,1,.891.891Zm-1.781.89H44.473v2.657h2.654Zm1.781-18.631V18.6a.89.89,0,0,1-.89.89H43.582a.89.89,0,0,1-.89-.89V14.167a.89.89,0,0,1,.89-.89h4.435a.891.891,0,0,1,.891.891Zm-1.781.89H44.473v2.654h2.654ZM62.062,44.326H51.226a.89.89,0,1,0,0,1.781H62.062a.89.89,0,0,0,0-1.781ZM51.226,15.058H70.492a.89.89,0,1,0,0-1.781H51.226a.89.89,0,1,0,0,1.781Zm0,4.435H65.888a.89.89,0,1,0,0-1.781H51.226a.89.89,0,0,0,0,1.781Z"/></g></svg>