<svg xmlns="http://www.w3.org/2000/svg" xmlns:xlink="http://www.w3.org/1999/xlink" width="140" height="140" viewBox="0 0 140 140"><defs><filter id="a" x="0" y="0" width="140" height="140" filterUnits="userSpaceOnUse"><feOffset dy="3" input="SourceAlpha"/><feGaussianBlur stdDeviation="3" result="b"/><feFlood flood-opacity="0.161"/><feComposite operator="in" in2="b"/><feComposite in="SourceGraphic"/></filter></defs><g transform="translate(-363.146 -2923.371)"><g transform="translate(67.339 -693.68)"><g transform="matrix(1, 0, 0, 1, 295.81, 3617.05)" filter="url(#a)"><circle cx="61" cy="61" r="61" transform="translate(9 6)" fill="#fff" opacity="0.45"/></g><circle cx="49" cy="49" r="49" transform="translate(316.808 3635.051)" fill="#fff"/></g><g transform="translate(405.387 2960.122)"><circle cx="24.327" cy="24.327" r="24.327" transform="translate(5.89 5.922)" fill="#e3e3e3"/><path d="M35.467,16.409c-.285,1.5-4.553,2.716-9.8,2.716-5.407,0-9.753-1.293-9.753-2.871,0-.983,1.63-1.837,4.217-2.354a8.873,8.873,0,0,0,5.562,1.914A8.75,8.75,0,0,0,31.2,13.9h.026c2.561.517,4.268,1.371,4.268,2.354a.318.318,0,0,1-.026.155Z" transform="translate(24.422 21.264)" fill="#00aac6"/><path d="M35.483,16.9v5.381c0,.88-1.371,1.681-3.57,2.2a11.772,11.772,0,0,1-1.552.31c-.259.052-.543.078-.854.129a34.932,34.932,0,0,1-7.605,0c-.31-.052-.595-.078-.88-.129-.414-.078-.8-.155-1.19-.233-2.38-.517-3.932-1.345-3.932-2.276V16.9a1.159,1.159,0,0,0,.44.828,2.083,2.083,0,0,0,.336.285,9.635,9.635,0,0,0,3.156,1.164V19.2c.388.078.776.155,1.19.207.285.052.569.078.88.129a31.172,31.172,0,0,0,7.605,0c.31-.052.595-.078.854-.129a11.771,11.771,0,0,0,1.552-.31,8.773,8.773,0,0,0,2.794-1.086,2.083,2.083,0,0,0,.336-.285,1.159,1.159,0,0,0,.44-.828Z" transform="translate(24.406 26.025)" fill="#00aac6"/><path d="M25.245,7.64A9.054,9.054,0,0,1,34.3,16.694a8.953,8.953,0,0,1-3.518,7.14h-.026a8.75,8.75,0,0,1-5.51,1.914,8.873,8.873,0,0,1-5.562-1.914,9.035,9.035,0,0,1-.31-14.021A8.883,8.883,0,0,1,25.245,7.64Zm3.57,11.175a2.407,2.407,0,0,0-.181-1.009,1.962,1.962,0,0,0-.492-.75,2.763,2.763,0,0,0-.724-.517,5.039,5.039,0,0,0-.776-.362c-.233-.078-.492-.155-.828-.259V13.073a3.1,3.1,0,0,1,1.552.724.64.64,0,0,0,.88-.052.7.7,0,0,0-.047-.983l-.031-.026a3.993,3.993,0,0,0-2.354-.957v-.854a.472.472,0,0,0-.155-.362.516.516,0,0,0-.729-.047c-.016.016-.031.028-.047.047a.516.516,0,0,0-.155.362v.828a3.433,3.433,0,0,0-2.069.8,2.455,2.455,0,0,0-.854,1.914,2.131,2.131,0,0,0,.181.931,2.309,2.309,0,0,0,.466.7,3.21,3.21,0,0,0,.7.492c.285.129.569.259.8.336s.492.155.776.233v3.208a3.736,3.736,0,0,1-1.966-.905.61.61,0,0,0-.44-.155.627.627,0,0,0-.466.181.713.713,0,0,0-.207.492.781.781,0,0,0,.259.543,4.807,4.807,0,0,0,2.82,1.138v.8a.516.516,0,0,0,.155.362.563.563,0,0,0,.776,0,.516.516,0,0,0,.155-.362v-.8a3.4,3.4,0,0,0,2.225-.931,2.7,2.7,0,0,0,.776-1.914Z" transform="translate(24.866 11.33)" fill="#b15815"/><path d="M25.285,16.121a2.407,2.407,0,0,1,.181,1.009,2.7,2.7,0,0,1-.776,1.914,3.4,3.4,0,0,1-2.225.931v.8a.516.516,0,0,1-.155.362.563.563,0,0,1-.776,0,.516.516,0,0,1-.155-.362v-.8a4.807,4.807,0,0,1-2.82-1.138.781.781,0,0,1-.259-.543.713.713,0,0,1,.207-.492.627.627,0,0,1,.466-.181.61.61,0,0,1,.44.155,3.736,3.736,0,0,0,1.966.905V15.474c-.285-.078-.569-.155-.776-.233s-.517-.207-.8-.336a3.21,3.21,0,0,1-.7-.492,2.309,2.309,0,0,1-.466-.7,2.131,2.131,0,0,1-.181-.931,2.455,2.455,0,0,1,.854-1.914,3.433,3.433,0,0,1,2.069-.8V9.24a.546.546,0,0,1,.885-.409c.016.016.031.028.047.047a.472.472,0,0,1,.155.362v.854a3.993,3.993,0,0,1,2.354.957.7.7,0,0,1,.1.978c-.008.01-.018.021-.026.031a.64.64,0,0,1-.88.052,3.1,3.1,0,0,0-1.552-.724v2.846c.336.1.595.181.828.259a5.039,5.039,0,0,1,.776.362,2.763,2.763,0,0,1,.724.517,1.962,1.962,0,0,1,.492.75Zm-1.63,2.07a1.417,1.417,0,0,0,.388-.957,1.1,1.1,0,0,0-.414-.931,4.123,4.123,0,0,0-1.164-.543v2.923a1.868,1.868,0,0,0,1.19-.492Zm-2.276-4.242V11.335a2.039,2.039,0,0,0-1.061.414,1.242,1.242,0,0,0-.44.957.816.816,0,0,0,.414.75,4.422,4.422,0,0,0,1.086.492Z" transform="translate(28.215 13.016)"/><path d="M21.488,12.9a1.417,1.417,0,0,1-.388.957,1.868,1.868,0,0,1-1.19.492V11.43a4.123,4.123,0,0,1,1.164.543,1.1,1.1,0,0,1,.414.931Z" transform="translate(30.77 17.345)" fill="#b15815"/><path d="M20.411,9.72v2.613a4.422,4.422,0,0,1-1.086-.492.816.816,0,0,1-.414-.75,1.242,1.242,0,0,1,.44-.957,2.039,2.039,0,0,1,1.061-.414Z" transform="translate(29.182 14.631)" fill="#b15815"/><path d="M24.656,12.3H16.3a3.421,3.421,0,0,1-3.441-3.4V.5Z" transform="translate(19.582 0)" fill="#22cac5"/><path d="M14.423,13.76a2.858,2.858,0,1,1-2.858,2.859A2.859,2.859,0,0,1,14.423,13.76Z" transform="translate(17.527 21.042)" fill="#178d89"/><path d="M14.928,8.04a8.854,8.854,0,0,1,2.639,6.312,8.962,8.962,0,0,1-8.951,8.976H8.59V14.352Z" transform="translate(12.806 11.965)" fill="#00aac6"/><path d="M18.816,9.633v.026l-6.338,6.312L6.14,9.633A9.06,9.06,0,0,1,12.478,7.02,8.954,8.954,0,0,1,18.816,9.633Z" transform="translate(8.918 10.346)" fill="#00aac6"/><path d="M10.343,15.06a2.858,2.858,0,1,1-2.858,2.858A2.859,2.859,0,0,1,10.343,15.06Z" transform="translate(11.053 23.105)" fill="#178d89"/><path d="M14.1,10.48v8.976A8.981,8.981,0,0,1,5.12,10.48Z" transform="translate(7.3 15.837)" fill="#00aac6"/><path d="M14.1,14.368H5.12A8.918,8.918,0,0,1,7.759,8.03Z" transform="translate(7.3 11.949)" fill="#00aac6"/><path d="M9.071,16.607a2.435,2.435,0,0,1-.155.88,2.8,2.8,0,1,1,.155-.88Z" transform="translate(4.668 21.041)" fill="#178d89"/><g transform="translate(0.52 0.5)"><path d="M40.817,60.5H3.971A3.945,3.945,0,0,1,.02,56.558V3.925A3.945,3.945,0,0,1,3.989,0H32.442A.5.5,0,0,1,32.8.146l11.8,11.8a.5.5,0,0,1,.146.354v8.847a.5.5,0,0,1-1,0V12.5L32.235,1H3.986A2.945,2.945,0,0,0,1.02,3.928v52.63A2.945,2.945,0,0,0,3.97,59.5H40.8a2.927,2.927,0,0,0,2.941-2.907v-.6a.5.5,0,0,1,1,0v.605A3.928,3.928,0,0,1,40.817,60.5Z" transform="translate(-0.52 -0.5)"/><path d="M16.279,12.8a3.926,3.926,0,0,1-3.919-3.9V.5a.5.5,0,1,1,1,0V8.892A2.925,2.925,0,0,0,16.3,11.8h8.358a.5.5,0,0,1,0,1H16.279Z" transform="translate(19.062 -0.5)"/><path d="M21.782,3.38H2.51a.5.5,0,0,1,0-1H21.782a.5.5,0,0,1,0,1Z" transform="translate(2.638 3.277)"/><path d="M21.782,5.338H2.51a.5.5,0,0,1,0-1H21.782a.5.5,0,0,1,0,1Z" transform="translate(2.638 6.384)"/><path d="M14.092,25.447A9.463,9.463,0,1,1,20.771,9.279a.5.5,0,0,1,.083.108,9.445,9.445,0,0,1-6.747,16.06Zm0-17.927h-.009a8.509,8.509,0,1,0,5.986,2.495.5.5,0,0,1-.083-.107A8.524,8.524,0,0,0,14.09,7.52Z" transform="translate(6.795 9.846)"/><path d="M12.478,23.844a.5.5,0,0,1-.5-.5V14.575L5.786,8.384a.5.5,0,0,1,.707-.707l6.338,6.338a.5.5,0,0,1,.146.354v8.976A.5.5,0,0,1,12.478,23.844Z" transform="translate(8.398 11.449)"/><path d="M14.1,14.868H5.12a.5.5,0,0,1,0-1h8.77L20,7.784a.5.5,0,0,1,.435-.254h.026a.5.5,0,0,1,.34.866l-.013.014-6.338,6.312A.5.5,0,0,1,14.1,14.868Z" transform="translate(6.78 11.449)"/><path d="M6.3,20.073H6.221A3.437,3.437,0,1,1,9.733,16.7a2.927,2.927,0,0,1-.185,1.045A3.439,3.439,0,0,1,6.3,20.073Zm0-5.874a2.437,2.437,0,0,0-.051,4.873H6.3A2.439,2.439,0,0,0,8.6,17.419l.005-.015a1.931,1.931,0,0,0,.123-.7q0-.008,0-.015A2.436,2.436,0,0,0,6.35,14.2Z" transform="translate(3.986 20.446)"/><path d="M10.348,21.282a3.358,3.358,0,1,1,3.358-3.358A3.362,3.362,0,0,1,10.348,21.282Zm0-5.717a2.358,2.358,0,1,0,2.358,2.358A2.361,2.361,0,0,0,10.348,15.565Z" transform="translate(10.541 22.613)"/><path d="M10.666,17.33a.5.5,0,0,1-.152-.024l-5.1-1.63a.5.5,0,0,1,.3-.952l5.1,1.63a.5.5,0,0,1-.152.976Z" transform="translate(7.494 22.827)"/><path d="M14.417,13.26h.017a3.359,3.359,0,0,1,0,6.717h-.017a3.366,3.366,0,0,1-3.357-3.343v-.028A3.366,3.366,0,0,1,14.417,13.26Zm0,5.717h.012a2.367,2.367,0,0,0,2.348-2.348,2.359,2.359,0,0,0-2.348-2.369h-.012a2.364,2.364,0,0,0-2.357,2.348v.023A2.363,2.363,0,0,0,14.417,18.977Z" transform="translate(16.999 20.542)"/><path d="M9.65,17.33a.5.5,0,0,1-.153-.976l5.07-1.63a.5.5,0,1,1,.306.952L9.8,17.306A.5.5,0,0,1,9.65,17.33Z" transform="translate(13.968 22.827)"/><path d="M33.6,21.72H2.51a.5.5,0,0,1,0-1H33.6a.5.5,0,0,1,0,1Z" transform="translate(2.638 32.38)"/><path d="M33.6,19.738H2.51a.5.5,0,0,1,0-1H33.6a.5.5,0,0,1,0,1Z" transform="translate(2.638 29.235)"/><path d="M25.188,26.248a9.408,9.408,0,0,1-5.816-2.022,9.588,9.588,0,0,1-1.408-1.348A9.536,9.536,0,0,1,19.048,9.432a9.379,9.379,0,0,1,6.2-2.292,9.529,9.529,0,0,1,5.836,17.091.5.5,0,0,1-.1.061,9.279,9.279,0,0,1-5.736,1.956ZM25.194,8.14A8.385,8.385,0,0,0,19.7,10.191a8.536,8.536,0,0,0-.974,12.038,8.6,8.6,0,0,0,1.264,1.21,8.407,8.407,0,0,0,5.252,1.809h.006a8.276,8.276,0,0,0,5.2-1.8.5.5,0,0,1,.115-.069A8.538,8.538,0,0,0,25.244,8.14Z" transform="translate(24.346 10.83)"/><path d="M15.9,20.691a.5.5,0,0,1-.5-.5V14.81a.5.5,0,0,1,1,0v5.381A.5.5,0,0,1,15.9,20.691Z" transform="translate(23.886 22.208)"/><path d="M16.406,18a.5.5,0,0,1-.281-.087,2.58,2.58,0,0,1-.417-.353.5.5,0,1,1,.725-.689,1.579,1.579,0,0,0,.255.216.5.5,0,0,1-.282.913Z" transform="translate(24.156 26.033)"/><path d="M18.611,18.513a.505.505,0,0,1-.063,0c-.432-.054-.836-.135-1.226-.213a.5.5,0,0,1-.4-.49V17.78a.5.5,0,0,1,.747-.435c.336.067.66.128,1,.171a.5.5,0,0,1-.061,1Z" transform="translate(26.298 26.921)"/><path d="M22.023,18.653a31.669,31.669,0,0,1-3.864-.236.5.5,0,1,1,.122-.993,30.689,30.689,0,0,0,7.483,0,.5.5,0,0,1,.122.993A31.669,31.669,0,0,1,22.023,18.653Z" transform="translate(27.568 27.143)"/><path d="M21.489,18.56a.5.5,0,0,1-.063-1,11.3,11.3,0,0,0,1.486-.3.5.5,0,1,1,.26.966,12.3,12.3,0,0,1-1.618.323A.5.5,0,0,1,21.489,18.56Z" transform="translate(32.757 26.874)"/><path d="M23.17,18a.5.5,0,0,1-.282-.913,1.58,1.58,0,0,0,.255-.216.5.5,0,1,1,.725.689,2.582,2.582,0,0,1-.417.353A.5.5,0,0,1,23.17,18Z" transform="translate(35.423 26.033)"/><path d="M23.47,20.691a.5.5,0,0,1-.5-.5V14.81a.5.5,0,1,1,1,0v5.381A.5.5,0,0,1,23.47,20.691Z" transform="translate(35.899 22.208)"/><path d="M25.663,19.625a25.941,25.941,0,0,1-7.045-.864c-2.1-.62-3.207-1.487-3.207-2.507,0-.679.47-1.281,1.4-1.79a11.58,11.58,0,0,1,3.221-1.054.5.5,0,0,1,.2.981,10.782,10.782,0,0,0-2.936.95c-.558.306-.879.639-.879.913,0,.375.652,1,2.49,1.548a24.933,24.933,0,0,0,6.762.823,25.688,25.688,0,0,0,6.63-.777c1.865-.521,2.611-1.151,2.683-1.532a.5.5,0,0,1,.017-.066c-.005-.519-1.2-1.316-3.823-1.851a.5.5,0,0,1,.028-1h.026a.5.5,0,0,1,.1.01,12.21,12.21,0,0,1,3.232,1.052c.944.507,1.427,1.1,1.437,1.772a.807.807,0,0,1-.044.316c-.148.652-.866,1.558-3.386,2.262A26.7,26.7,0,0,1,25.663,19.625Z" transform="translate(23.902 20.764)"/><path d="M15.9,22.781a.5.5,0,0,1-.5-.5V16.9a.5.5,0,0,1,1,0v5.381A.5.5,0,0,1,15.9,22.781Z" transform="translate(23.886 25.525)"/><path d="M18.611,20.593a.505.505,0,0,1-.063,0c-.432-.054-.836-.135-1.226-.213a.5.5,0,0,1-.4-.49V19.86a.5.5,0,0,1,.747-.435c.336.067.66.128,1,.171a.5.5,0,0,1-.061,1Z" transform="translate(26.298 30.222)"/><path d="M22.023,20.733a31.669,31.669,0,0,1-3.864-.236.5.5,0,1,1,.122-.993,30.689,30.689,0,0,0,7.483,0,.5.5,0,1,1,.122.993A31.669,31.669,0,0,1,22.023,20.733Z" transform="translate(27.568 30.444)"/><path d="M21.489,20.64a.5.5,0,0,1-.063-1,11.3,11.3,0,0,0,1.486-.3.5.5,0,0,1,.26.966,12.3,12.3,0,0,1-1.618.323A.5.5,0,0,1,21.489,20.64Z" transform="translate(32.757 30.174)"/><path d="M23.47,22.781a.5.5,0,0,1-.5-.5V16.9a.5.5,0,0,1,1,0v5.381A.5.5,0,0,1,23.47,22.781Z" transform="translate(35.899 25.525)"/><path d="M25.7,20.262a35.444,35.444,0,0,1-3.857-.21l-.028,0c-.136-.023-.271-.041-.4-.058-.158-.021-.321-.043-.485-.073-.418-.078-.812-.157-1.193-.233a10.1,10.1,0,0,1-3.315-1.224.5.5,0,0,1-.049-.033,4.42,4.42,0,0,1-.364-.306,1.663,1.663,0,0,1-.61-1.17q0-.018,0-.036V16.89a.5.5,0,0,1,1,0V16.9a.661.661,0,0,0,.249.455l.035.03a3.381,3.381,0,0,0,.27.23A9.1,9.1,0,0,0,19.92,18.7l.01,0c.38.076.772.154,1.184.232.138.025.282.044.435.065.134.018.273.036.42.061a34.488,34.488,0,0,0,7.469,0c.136-.022.265-.04.389-.057.156-.021.3-.041.435-.067l.034-.006a11.3,11.3,0,0,0,1.486-.3l.031-.007a8.243,8.243,0,0,0,2.612-1.011,3.388,3.388,0,0,0,.273-.232l.035-.03a.661.661,0,0,0,.249-.455V16.89a.5.5,0,0,1,1,0v.026q0,.018,0,.036a1.663,1.663,0,0,1-.61,1.17,4.422,4.422,0,0,1-.363.306.5.5,0,0,1-.043.029A9.24,9.24,0,0,1,32.027,19.6a12.307,12.307,0,0,1-1.586.317c-.156.031-.313.052-.479.074-.121.016-.246.033-.373.054l-.028,0A35.444,35.444,0,0,1,25.7,20.262Z" transform="translate(23.886 25.509)"/><path d="M25.418,27.734a28.207,28.207,0,0,1-5.686-.581h-.005C16.15,26.374,15.4,25.2,15.4,24.361V18.98a.5.5,0,1,1,1,0v5.381c0,.52,1.093,1.282,3.536,1.813a27.2,27.2,0,0,0,5.763.558H25.7a25.238,25.238,0,0,0,6.776-.814c1.847-.54,2.5-1.177,2.5-1.557V18.98a.5.5,0,0,1,1,0v5.381c0,1.03-1.114,1.9-3.221,2.517a26.241,26.241,0,0,1-7.054.854Z" transform="translate(23.886 28.826)"/><path d="M25.7,22.326a35.445,35.445,0,0,1-3.857-.21l-.028,0c-.136-.023-.271-.041-.4-.058-.158-.021-.321-.043-.485-.073-.42-.079-.816-.158-1.2-.234l-.008,0a10.936,10.936,0,0,1-3-1.036c-.881-.5-1.327-1.08-1.327-1.729a.5.5,0,1,1,1,0c0,.49,1.106,1.259,3.534,1.787.379.076.77.154,1.18.231.138.025.282.044.435.065.134.018.273.036.42.061a34.488,34.488,0,0,0,7.469,0c.136-.022.265-.04.389-.057.156-.021.3-.041.435-.067l.034-.006a11.3,11.3,0,0,0,1.486-.3l.015,0c2.188-.515,3.184-1.248,3.184-1.712a.5.5,0,0,1,1,0,2.041,2.041,0,0,1-1.2,1.663,9.666,9.666,0,0,1-2.747,1.021,12.31,12.31,0,0,1-1.594.319c-.156.031-.313.052-.479.074-.121.016-.246.033-.373.054l-.028,0A35.445,35.445,0,0,1,25.7,22.326Z" transform="translate(23.886 28.826)"/></g></g></g></svg>