<svg xmlns="http://www.w3.org/2000/svg" xmlns:xlink="http://www.w3.org/1999/xlink" width="140" height="140" viewBox="0 0 140 140"><defs><filter id="a" x="0" y="0" width="140" height="140" filterUnits="userSpaceOnUse"><feOffset dy="3" input="SourceAlpha"/><feGaussianBlur stdDeviation="3" result="b"/><feFlood flood-opacity="0.161"/><feComposite operator="in" in2="b"/><feComposite in="SourceGraphic"/></filter></defs><g transform="translate(11103.521 8729.299)"><g transform="translate(-11399.329 -12346.35)"><g transform="matrix(1, 0, 0, 1, 295.81, 3617.05)" filter="url(#a)"><circle cx="61" cy="61" r="61" transform="translate(9 6)" fill="#fff" opacity="0.45"/></g><circle cx="49" cy="49" r="49" transform="translate(316.808 3635.051)" fill="#fff"/></g><g transform="translate(-11040.776 -8664.989)"><g transform="translate(-28.779 -28.753)"><g transform="translate(22.906 5.293)"><path d="M166.8,69.618h35.374a1.9,1.9,0,0,1,1.891,1.891v46.643a1.9,1.9,0,0,1-1.891,1.891H166.8a1.9,1.9,0,0,1-1.891-1.891V71.509A1.894,1.894,0,0,1,166.8,69.618Z" transform="translate(-164.906 -63.277)" fill="#d2f5f4" fill-rule="evenodd"/><path d="M196.884,101.6h31.592v42.861H196.884Z" transform="translate(-193.102 -91.473)" fill="#f4f6f8" fill-rule="evenodd"/><path d="M254.21,20.038h4.978a4.038,4.038,0,1,1,8.076,0h4.978v6.085H254.21Zm9.017-1.064a1.064,1.064,0,1,0,1.064,1.064A1.064,1.064,0,0,0,263.227,18.974Z" transform="translate(-243.649 -16)" fill="#cad0d7" fill-rule="evenodd"/></g><g transform="translate(0 0)"><circle cx="12.785" cy="12.785" r="12.785" transform="translate(0 18.078) rotate(-45)" fill="#d2f5f4"/><ellipse cx="10.078" cy="10.078" rx="10.078" ry="10.078" transform="translate(7.811 8.197) rotate(-1.088)" fill="#f4f6f8"/></g><g transform="translate(30.866 26.949)"><path d="M398.039,199.122h3.625v17.332h-3.625Z" transform="translate(-378.428 -199.122)" fill="#66d4f1" fill-rule="evenodd"/><path d="M232.214,282.1h3.625v7.519h-3.625Z" transform="translate(-232.214 -272.288)" fill="#f76c82" fill-rule="evenodd"/><path d="M342.764,226.782h3.625v14.061h-3.625Z" transform="translate(-329.69 -223.511)" fill="#c6ea94" fill-rule="evenodd"/><path d="M287.489,254.442h3.625v10.79h-3.625Z" transform="translate(-280.952 -247.9)" fill="#f5b945" fill-rule="evenodd"/></g><g transform="translate(32.926 38.096)"><circle cx="6.753" cy="6.753" r="6.753" transform="translate(0 9.548) rotate(-45)" fill="#b15815"/><circle cx="5.79" cy="5.79" r="5.79" transform="matrix(0.16, -0.987, 0.987, 0.16, 2.905, 14.333)" fill="#b15815"/></g></g><path d="M23.441,29.863v.5a.828.828,0,1,1-1.656,0v-.5a.828.828,0,1,1,1.656,0ZM18.073,16.9A.828.828,0,1,1,16.9,18.072l-.355-.355a.828.828,0,0,1,1.171-1.171Zm0,10.252a.828.828,0,0,1,0,1.171l-.355.356a.828.828,0,0,1-1.171-1.171l.355-.356A.829.829,0,0,1,18.073,27.153Zm13.121-4.54a.828.828,0,0,1-.828.827h-.5a.828.828,0,1,1,0-1.656h.5A.828.828,0,0,1,31.193,22.613Zm-15,0a.828.828,0,0,1-.828.827h-.5a.828.828,0,1,1,0-1.656h.5A.828.828,0,0,1,16.192,22.613ZM28.68,16.546a.828.828,0,0,1,0,1.171l-.355.355A.828.828,0,0,1,27.155,16.9l.355-.355A.829.829,0,0,1,28.68,16.546Zm0,10.963A.828.828,0,0,1,27.51,28.68l-.355-.356a.828.828,0,0,1,1.171-1.171ZM21.786,15.363v-.5a.828.828,0,1,1,1.656,0v.5a.828.828,0,1,1-1.656,0ZM26.052,24.6a.828.828,0,0,1-.718.415.836.836,0,0,1-.413-.111l-1.9-1.1a1.259,1.259,0,0,1-1.237-2.141V18.241a.828.828,0,1,1,1.656,0v3.422a1.259,1.259,0,0,1,.411.708l1.9,1.1A.828.828,0,0,1,26.052,24.6Zm-3.439,7.265a9.25,9.25,0,1,0-9.25-9.25A9.261,9.261,0,0,0,22.613,31.863Zm0-20.156A10.906,10.906,0,1,0,33.519,22.613,10.919,10.919,0,0,0,22.613,11.707ZM49.356,53.555a2.191,2.191,0,0,1-1.5,2.032l0,.082a.828.828,0,0,1-.808.847h-.02a.829.829,0,0,1-.827-.809l0-.1a2.828,2.828,0,0,1-1.021-.677.828.828,0,0,1,1.136-1.2c.332.312.44.354.7.354a.542.542,0,1,0,0-1.045,2.266,2.266,0,0,1-2.34-2.178,2.194,2.194,0,0,1,1.5-2.033l0-.13a.828.828,0,1,1,1.655-.041l0,.179a2.388,2.388,0,0,1,1.219.843.828.828,0,0,1-1.374.924,1.4,1.4,0,0,0-.659-.265.541.541,0,1,0,0,1.044,2.266,2.266,0,0,1,2.34,2.178ZM35.173,36.122a.828.828,0,0,1,.707-.933c7.012-.965,13.139-4.479,16.467-9.337l-.928.24A.828.828,0,0,1,51,24.49l2.89-.75a.828.828,0,0,1,1.034.746l.2,3.026a.828.828,0,1,1-1.652.109l-.03-.456C49.8,32.207,43.39,35.827,36.105,36.829a.886.886,0,0,1-.114.008.828.828,0,0,1-.819-.716ZM47.016,58.1a5.924,5.924,0,1,0-5.925-5.925A5.932,5.932,0,0,0,47.016,58.1ZM44.733,38.854v6.1a7.6,7.6,0,0,0-1.969.957V38.854ZM49.3,35.583v9.369a7.6,7.6,0,0,1,1.969.957V35.583Zm3.625-.828a.828.828,0,0,0-.828-.827H48.473a.828.828,0,0,0-.828.827v9.873c-.207-.016-.417-.027-.628-.027s-.421.011-.628.027v-6.6a.828.828,0,0,0-.828-.828H41.936a.828.828,0,0,0-.828.828V47.44a7.58,7.58,0,1,0,11.817,0V34.755ZM38.2,47.988H36.226V42.125H38.2Zm1.656.828a.828.828,0,0,1-.828.827H35.4a.828.828,0,0,1-.828-.827V41.3a.829.829,0,0,1,.828-.828h3.625a.828.828,0,0,1,.828.828Zm17.955-.828H55.837V32.312h1.969Zm.828-17.332H55.009a.828.828,0,0,0-.828.827V48.817a.828.828,0,0,0,.828.827h3.625a.828.828,0,0,0,.828-.827V31.484A.828.828,0,0,0,58.634,30.656ZM45.952,13.867a1.064,1.064,0,1,1,1.064,1.065A1.066,1.066,0,0,1,45.952,13.867ZM65.766,64.7V18.06A1.064,1.064,0,0,0,64.7,17H56.861v2.126h5.952a.827.827,0,0,1,.828.828v42.86a.827.827,0,0,1-.828.827H31.22a.827.827,0,0,1-.828-.827V33.777A13.6,13.6,0,0,1,28.266,35V64.7a1.064,1.064,0,0,0,1.063,1.063H64.7A1.064,1.064,0,0,0,65.766,64.7ZM10.657,22.613A11.957,11.957,0,1,0,22.613,10.656,11.97,11.97,0,0,0,10.657,22.613ZM37.172,17v2.126h-1.4A13.455,13.455,0,0,0,35.013,17Zm5.806-2.3H38.828v4.428H55.205V14.695H51.055a.829.829,0,0,1-.828-.828,3.21,3.21,0,1,0-6.42,0,.829.829,0,0,1-.828.828ZM32.048,32.416A13.594,13.594,0,0,0,36.1,20.779H61.985v41.2H32.048ZM64.7,15.341H56.861V13.867a.827.827,0,0,0-.828-.828H51.812a4.867,4.867,0,0,0-9.591,0H38a.827.827,0,0,0-.828.828v1.475H34.116a13.606,13.606,0,1,0-7.506,20.286V64.7a2.722,2.722,0,0,0,2.719,2.719H64.7A2.722,2.722,0,0,0,67.422,64.7V18.06A2.722,2.722,0,0,0,64.7,15.341Z" transform="translate(-33.312 -33.288)" fill-rule="evenodd"/></g></g></svg>