<svg xmlns="http://www.w3.org/2000/svg" xmlns:xlink="http://www.w3.org/1999/xlink" width="140" height="140" viewBox="0 0 140 140"><defs><filter id="a" x="0" y="0" width="140" height="140" filterUnits="userSpaceOnUse"><feOffset dy="3" input="SourceAlpha"/><feGaussianBlur stdDeviation="3" result="b"/><feFlood flood-opacity="0.161"/><feComposite operator="in" in2="b"/><feComposite in="SourceGraphic"/></filter></defs><g transform="translate(11422.521 8729.299)"><g transform="translate(-11718.329 -12346.35)"><g transform="matrix(1, 0, 0, 1, 295.81, 3617.05)" filter="url(#a)"><circle cx="61" cy="61" r="61" transform="translate(9 6)" fill="#fff" opacity="0.45"/></g><circle cx="49" cy="49" r="49" transform="translate(316.808 3635.051)" fill="#fff"/></g><g transform="translate(-11382.667 -8691.667)"><g transform="translate(1 5.624)"><path d="M59.8,53.7l-5.548,3.7V55.548H45v-3.7h9.247V50Z" transform="translate(-4.311 -9.311)" fill="#ccd1d9"/><path d="M16.721,53.7l-5.548,3.7V55.548H1v-3.7H11.172V50Z" transform="translate(-1 -9.311)" fill="#ccd1d9"/><path d="M18.8,7.849v3.7H9.548V13.4L4,9.7,9.548,6V7.849Z" transform="translate(-1.226 -6)" fill="#ccd1d9"/><path d="M61.721,7.849v3.7H51.548V13.4L46,9.7,51.548,6V7.849Z" transform="translate(-4.387 -6)" fill="#ccd1d9"/></g><path d="M57.485,16V45.592H2V16H57.485Z" transform="translate(-0.075 -1.129)" fill="#116562"/><path d="M47.613,20H12.473A6.468,6.468,0,0,1,6,26.473v9.247a6.468,6.468,0,0,1,6.473,6.473h35.14a6.468,6.468,0,0,1,6.473-6.473V26.473A6.468,6.468,0,0,1,47.613,20Z" transform="translate(-0.376 -1.43)" fill="#22cac5"/><path d="M6,20h6.473A6.468,6.468,0,0,1,6,26.473Z" transform="translate(-0.376 -1.43)" fill="#a6eae8"/><path d="M12.473,43.473H6V37A6.468,6.468,0,0,1,12.473,43.473Z" transform="translate(-0.376 -2.709)" fill="#a6eae8"/><path d="M57.473,37v6.473H51A6.468,6.468,0,0,1,57.473,37Z" transform="translate(-3.763 -2.709)" fill="#a6eae8"/><path d="M57.473,20v6.473A6.468,6.468,0,0,1,51,20Z" transform="translate(-3.763 -1.43)" fill="#a6eae8"/><path d="M31.247,48h8.471a9.247,9.247,0,1,1-16.941,0h8.471Z" transform="translate(-1.58 -3.537)" fill="#b15815"/><circle cx="9" cy="9" r="9" transform="translate(20.667 20.667)" fill="#b15815"/><path d="M33.1,14.946H22.777a9.247,9.247,0,1,1,16.941,0Z" transform="translate(-1.58 -0.075)" fill="#b15815"/><path d="M21,31.172A10.172,10.172,0,1,0,31.172,21,10.184,10.184,0,0,0,21,31.172Zm10.172-8.323a8.323,8.323,0,1,1-8.323,8.323A8.332,8.332,0,0,1,31.172,22.849Z" transform="translate(-1.505 -1.505)"/><path d="M31.774,34.247a.926.926,0,0,1-.925-.925H29a2.77,2.77,0,0,0,1.849,2.6v2.02H32.7V36.1h1.849V33.323a2.778,2.778,0,0,0-2.774-2.774.926.926,0,0,1-.925-.925V28.7h.925a.926.926,0,0,1,.925.925h1.849a2.77,2.77,0,0,0-1.849-2.6V25H30.849v1.849H29v2.774A2.778,2.778,0,0,0,31.774,32.4a.926.926,0,0,1,.925.925v.925Z" transform="translate(-2.107 -1.806)"/><path d="M37,31h1.849v1.849H37Z" transform="translate(-2.709 -2.258)"/><path d="M25,31h1.849v1.849H25Z" transform="translate(-1.806 -2.258)"/><path d="M5,43.043H54.936V19H5Zm1.849-6.39a5.555,5.555,0,0,1,4.54,4.54H6.849Zm41.7,4.54a5.555,5.555,0,0,1,4.54-4.54v4.54Zm4.54-15.8a5.555,5.555,0,0,1-4.54-4.54h4.54Zm-6.409-4.54a7.4,7.4,0,0,0,6.409,6.409v7.526a7.4,7.4,0,0,0-6.409,6.409H13.259a7.4,7.4,0,0,0-6.409-6.409V27.259a7.4,7.4,0,0,0,6.409-6.409H46.677Zm-35.287,0a5.555,5.555,0,0,1-4.54,4.54v-4.54Z" transform="translate(-0.301 -1.355)"/><path d="M45,51h1.849v1.849H45Z" transform="translate(-3.311 -3.763)"/><path d="M3,51H4.849v1.849H3Z" transform="translate(-0.151 -3.763)"/><path d="M18,11h1.849v1.849H18Z" transform="translate(-1.279 -0.753)"/><path d="M59,11h1.849v1.849H59Z" transform="translate(-4.365 -0.753)"/><path d="M58.334,6.548H49.087V3.9L40.946,9.323l6.936,4.624H39.441a10.08,10.08,0,0,0,.4-2.774,10.172,10.172,0,0,0-20.344,0,10.079,10.079,0,0,0,.4,2.774H10.247V12.1h4.624V10.247H8.4v1.046L5.442,9.323,8.4,7.352V8.4H18.57V6.548H10.247V3.9L2.107,9.323l6.936,4.624H1V45.388h9.247v1.849h-3.7v1.849H12.1V48.041l2.956,1.971L12.1,51.982V50.936H1v1.849h9.247v2.653l8.141-5.427-6.936-4.624h8.441a10.079,10.079,0,0,0-.4,2.774,10.172,10.172,0,1,0,20.344,0,10.08,10.08,0,0,0-.4-2.774H50.011v1.849H45.388v1.849h6.473V48.041l2.956,1.971-2.956,1.971V50.936H41.689v1.849h8.323v2.653l8.141-5.427-6.936-4.624h7.118V13.946H49.087V12.1h3.7V10.247H47.237v1.046L44.281,9.323l2.956-1.971V8.4h11.1Zm-36.99,4.624A8.323,8.323,0,1,1,37.5,13.946H32.441v-.925a2.778,2.778,0,0,0-2.774-2.774.926.926,0,0,1-.925-.925V8.4h.925a.926.926,0,0,1,.925.925h1.849a2.77,2.77,0,0,0-1.849-2.6V4.7H28.742V6.548H26.893V9.323A2.778,2.778,0,0,0,29.667,12.1a.926.926,0,0,1,.925.925v.925h-.925a.926.926,0,0,1-.925-.925H26.893a2.743,2.743,0,0,0,.17.925H21.832A8.253,8.253,0,0,1,21.344,11.172ZM37.99,48.162a8.323,8.323,0,1,1-16.158-2.774h5.061v.925a2.778,2.778,0,0,0,2.774,2.774.926.926,0,0,1,.925.925v.925h-.925a.926.926,0,0,1-.925-.925H26.893a2.77,2.77,0,0,0,1.849,2.6v2.02h1.849V52.786h1.849V50.011a2.778,2.778,0,0,0-2.774-2.774.926.926,0,0,1-.925-.925v-.925h.925a.926.926,0,0,1,.925.925h1.849a2.743,2.743,0,0,0-.17-.925H37.5a8.253,8.253,0,0,1,.487,2.774Zm18.495-4.624H2.849V15.8H56.485Z"/><path d="M15,25h1.849v1.849H15Z" transform="translate(-1.054 -1.806)"/><path d="M19,25h1.849v1.849H19Z" transform="translate(-1.355 -1.806)"/><path d="M47,37h1.849v1.849H47Z" transform="translate(-3.462 -2.709)"/><path d="M43,37h1.849v1.849H43Z" transform="translate(-3.161 -2.709)"/><path d="M37,11h1.849v1.849H37Z" transform="translate(-2.709 -0.753)"/><path d="M25,11h1.849v1.849H25Z" transform="translate(-1.806 -0.753)"/><path d="M37,51h1.849v1.849H37Z" transform="translate(-2.709 -3.763)"/><path d="M25,51h1.849v1.849H25Z" transform="translate(-1.806 -3.763)"/></g></g></svg>