<svg xmlns="http://www.w3.org/2000/svg" xmlns:xlink="http://www.w3.org/1999/xlink" width="154" height="154" viewBox="0 0 154 154"><defs><filter id="a" x="0" y="0" width="154" height="154" filterUnits="userSpaceOnUse"><feOffset dy="3" input="SourceAlpha"/><feGaussianBlur stdDeviation="3" result="b"/><feFlood flood-opacity="0.161"/><feComposite operator="in" in2="b"/><feComposite in="SourceGraphic"/></filter></defs><g transform="translate(-865.332 -403)"><g transform="translate(874.688 409.355)"><g transform="matrix(1, 0, 0, 1, -9.36, -6.36)" filter="url(#a)"><circle cx="68" cy="68" r="68" transform="translate(9 6)" fill="#fff" opacity="0.45"/></g><circle cx="54" cy="54" r="54" transform="translate(13.645 13.645)" fill="#22cac5"/></g><g transform="translate(574.84 -1873.996)"><g transform="translate(334.493 2314.996)"><path d="M681.568,2488.141a6.592,6.592,0,0,1,0,9.319l-5.041,5.04a6.1,6.1,0,0,0,0-8.622l-.539-.539,1.448-4.042,3.942-1.347Z" transform="translate(-627.776 -2463.533)" fill="#e17559"/><path d="M534.037,2383.438l-1.489,3.9-3.9,1.485-.539-.539a6.094,6.094,0,0,0-8.622,0l5.04-5.04a6.589,6.589,0,0,1,9.319,0l.191.189Z" transform="translate(-493.37 -2371.954)" fill="#e17559"/><path d="M633.24,2323.68a23.292,23.292,0,0,0-13.639,6.651L616,2333.938h0l-1.077,1.077,4.811,7.626,8.122,5.307,4.684-4.684a23.292,23.292,0,0,0,6.659-13.709Z" transform="translate(-575.328 -2322.454)" fill="#7ed7f5"/><path d="M546.921,2663.673l-29.589-2.683-1.835,15.035,31.424-2.47a2.315,2.315,0,0,0,2.315-2.315v-5.252A2.315,2.315,0,0,0,546.921,2663.673Z" transform="translate(-489.943 -2612.144)" fill="#eec158"/><path d="M532.654,2749.99H498.665l-3.068,8.4a2.314,2.314,0,0,0,2.159,1.479h34.9a2.315,2.315,0,0,0,2.315-2.315v-5.252A2.315,2.315,0,0,0,532.654,2749.99Z" transform="translate(-472.853 -2688.579)" fill="#f6df5b"/><path d="M546.147,2609.99h-34.84l2.841,9.883h32a2.315,2.315,0,0,0,2.315-2.315v-5.252A2.315,2.315,0,0,0,546.147,2609.99Z" transform="translate(-486.345 -2568.343)" fill="#f6df5b"/><path d="M582.136,2403.97l-5.389,5.388,12.933,12.934,5.389-5.389Z" transform="translate(-542.546 -2391.409)" fill="#495f66"/><path d="M677.844,2367.743a5.335,5.335,0,1,1-7.545,0A5.334,5.334,0,0,1,677.844,2367.743Z" transform="translate(-621.549 -2358.954)" fill="#f6df5b"/><path d="M585.539,2454.01l4.194,4.193a9.141,9.141,0,0,1-10.765,6.572A9.142,9.142,0,0,1,585.539,2454.01Z" transform="translate(-544.276 -2434.385)" fill="#e17559"/><path d="M750.979,2319.99c-.419,5.38-.416,5.6-.513,6.4a5.336,5.336,0,0,1-5.953-5.874C745.441,2320.4,745.521,2320.418,750.979,2319.99Z" transform="translate(-686.6 -2319.285)" fill="#e17559"/><path d="M436.438,2575.637c-2-3.473-4.852-5.647-8.022-5.647h-5.647c-.013,1.642-.268,33.543-.282,35.294h5.929C438.036,2605.284,442.825,2586.735,436.438,2575.637Z" transform="translate(-410.064 -2533.991)" fill="#e6986b"/><path d="M355.643,2570c-.117-.006-.234-.009-.353-.009-7.776,0-13.275,12.967-10,24.816l.018-.01,2.839,6.21c1.773,2.466,4.212,4.277,7.213,4.277,6.01-.062,10.871-7.938,10.871-17.647C366.231,2578.081,361.522,2570.3,355.643,2570Z" transform="translate(-342.938 -2533.991)" fill="#f6df5b"/><path d="M391.237,2610.632c-1.005-1.624-2.224-2.632-3.177-2.632s-2.171,1.008-3.176,2.632c-2.512,4.048-3.17,10.8-1.412,16.192l1.473,3.207c.994,1.566,2.183,2.534,3.116,2.534.953,0,2.171-1.008,3.177-2.632C394.434,2624.78,394.436,2615.784,391.237,2610.632Z" transform="translate(-375.709 -2566.635)" fill="#eec158"/><path d="M348.578,2726.115a.933.933,0,0,1,0,1.636l-1.182.647c-1.494.816-1.819,2.1-2.3,2.839a.932.932,0,0,1-1.638,0l-.645-1.18c-.815-1.492-2.094-1.818-2.839-2.305a.932.932,0,0,1,0-1.636,5.737,5.737,0,0,0,2.839-2.3l.645-1.182a.934.934,0,0,1,1.638,0c.583.991.9,2.069,2.3,2.841Z" transform="translate(-338.78 -2664.665)" fill="#e6986b"/><circle cx="2.286" cy="2.286" r="2.286" transform="translate(50.236 10.275)" fill="#dfe8eb"/><path d="M553.4,2315c-5.436.426-5.567.412-6.47.521l-.026,0a24.018,24.018,0,0,0-14.054,6.852l-3.117,3.117a7.291,7.291,0,0,0-10,.3l-5.041,5.041a.706.706,0,0,0,0,1,.716.716,0,0,0,.111.091.706.706,0,0,0,.887-.091,5.4,5.4,0,0,1,7.624,0l.04.04-.579.579a.706.706,0,0,0,0,1l3,3a9.814,9.814,0,0,0-2.7,9.085.705.705,0,0,0,.542.542,9.816,9.816,0,0,0,9.085-2.7l3,3a.706.706,0,0,0,1,0l.58-.58a5.386,5.386,0,0,1,.038,7.666.706.706,0,1,0,1,1l5.041-5.041a7.3,7.3,0,0,0,.3-10l3.117-3.117a24.016,24.016,0,0,0,6.862-14.144c.229-2.456-.04.685.514-6.406A.705.705,0,0,0,553.4,2315Zm-.713,1.471c-.386,4.984-.34,4.47-.386,4.962a4.627,4.627,0,0,1-4.638-4.57C548.144,2316.813,547.966,2316.833,552.686,2316.469ZM518.619,2328.9l2.112-2.112a5.877,5.877,0,0,1,8-.3l-4.378,4.378A6.821,6.821,0,0,0,518.619,2328.9Zm5.754,15.882a8.432,8.432,0,0,1,5.763-9.366l3.6,3.6A8.431,8.431,0,0,1,524.373,2344.781Zm11.836.1-2.583-2.583a9.839,9.839,0,0,0,1.237-2.233.706.706,0,0,0,.768-1.152l-.6-.6-4.791-4.791a.706.706,0,0,0-1.151.769,9.818,9.818,0,0,0-2.233,1.236l-2.583-2.583,4.391-4.391,11.935,11.935-3.812,3.812h0Zm6.158,3.542-2.108,2.107a6.739,6.739,0,0,0-1.972-5.731l4.376-4.376A5.891,5.891,0,0,1,542.366,2348.424Zm3.416-13.117-4.185,4.185-11.935-11.936,4.185-4.185a22.6,22.6,0,0,1,12.409-6.332,6.035,6.035,0,0,0,5.868,5.8A22.6,22.6,0,0,1,545.783,2335.307Z" transform="translate(-489.075 -2314.996)"/><path d="M584.36,2540.417l-6.118,6.118a.706.706,0,0,0,1,1l6.118-6.118a.706.706,0,0,0-1-1Z" transform="translate(-543.653 -2508.415)"/><path d="M619,2552.92a.7.7,0,0,0,.5-.207l3.666-3.666a.706.706,0,0,0-1-1l-3.666,3.666A.706.706,0,0,0,619,2552.92Z" transform="translate(-578.23 -2514.97)"/><path d="M524.665,2485.4a.706.706,0,0,0,1,0l5.059-5.059a.706.706,0,0,0-1-1l-5.059,5.059A.705.705,0,0,0,524.665,2485.4Z" transform="translate(-497.64 -2455.96)"/><path d="M479.89,2468.016c.557,0,.045.134,10.871-10.579a.706.706,0,0,0-1-1l-10.372,10.372A.706.706,0,0,0,479.89,2468.016Z" transform="translate(-458.756 -2436.293)"/><path d="M686.207,2383.663a2.992,2.992,0,0,0,4.232,4.232h0a2.992,2.992,0,0,0-4.232-4.232Zm3.233,3.233a1.581,1.581,0,1,1,0-2.235A1.583,1.583,0,0,1,689.44,2386.9Z" transform="translate(-635.799 -2373.217)"/><path d="M665.527,2362.947a6.041,6.041,0,1,0,8.543,0A6.047,6.047,0,0,0,665.527,2362.947Zm7.545,7.544h0a4.629,4.629,0,1,1,0-6.546A4.626,4.626,0,0,1,673.071,2370.491Z" transform="translate(-617.275 -2354.656)"/><path d="M394.295,2570.605H361.267c-1.912-3.152-4.795-5.647-8.422-5.647-1.227,0-5.556,0-5.671,0-8.615-.375-14.165,13.209-11.152,25.162-.236.122-.466.238-.677.374a1.64,1.64,0,0,0,0,2.875c.8.515,1.865.756,2.559,2.024.589.953.608,1.44,1.228,1.7,2.223,3.092,5.059,4.631,7.89,4.569h5.823a8.061,8.061,0,0,0,4.156-1.185,3.041,3.041,0,0,0,2.395,1.185h34.9a3.025,3.025,0,0,0,3.021-3.021v-5.251a3.025,3.025,0,0,0-3.021-3.021h-.271a3,3,0,0,0,.469-1.609v-5.251a3,3,0,0,0-.469-1.609h.271a3.025,3.025,0,0,0,3.021-3.021v-5.251A3.025,3.025,0,0,0,394.295,2570.605ZM337.2,2592.78l-1.181-.646a.227.227,0,0,1,0-.4l1.143-.625a6.6,6.6,0,0,0,2.622-3.141.227.227,0,0,1,.4,0l.646,1.181a6.635,6.635,0,0,0,3.12,2.585.227.227,0,0,1,0,.4l-1.181.646a6.635,6.635,0,0,0-2.585,3.121.227.227,0,0,1-.4,0A6.63,6.63,0,0,0,337.2,2592.78Zm7.427-2.283a11.336,11.336,0,0,1-1.756-1.039c-1.633-5.2-.966-11.62,1.4-15.425.977-1.578,2.021-2.3,2.576-2.3,1.612,0,4.871,4.492,4.871,11.577s-3.259,11.576-4.871,11.576c-.475,0-1.27-.5-2.095-1.593A1.638,1.638,0,0,0,344.63,2590.5ZM340.843,2597a1.221,1.221,0,0,0,.582-.426c.514-.8.756-1.865,2.024-2.559l.058-.032c1.059,1.458,2.279,2.314,3.338,2.314,1.215,0,2.627-1.109,3.776-2.965,3.338-5.379,3.339-14.667,0-20.045-1.15-1.857-2.562-2.966-3.777-2.966s-2.627,1.108-3.776,2.965c-2.114,3.406-2.96,8.574-2.269,13.364a1.642,1.642,0,0,0-2.25.639,8.061,8.061,0,0,1-1.276,2.007c-2.585-11.089,2.5-22.929,9.571-22.929,5.644,0,10.235,7.6,10.235,16.941C357.08,2597.093,347.6,2605.137,340.843,2597Zm14.338-26.542a13,13,0,0,0-3.825-4.091h1.488c2.887,0,5.5,1.99,7.361,5.183.072.2,2.874,4.337,2.874,11.759,0,9.071-4.46,16.941-10.235,16.941H351.36C359.015,2595.224,360.851,2579.607,355.181,2570.461Zm40.722,22.931v5.252a1.611,1.611,0,0,1-1.609,1.609H359.4a1.619,1.619,0,0,1-1.234-.581,16.952,16.952,0,0,0,5.03-7.89h31.1A1.61,1.61,0,0,1,395.9,2593.393Zm-2.824-9.882v5.252a1.611,1.611,0,0,1-1.609,1.609H363.607a28.126,28.126,0,0,0,.848-8.471h27.016A1.61,1.61,0,0,1,393.08,2583.51Zm2.824-4.632a1.611,1.611,0,0,1-1.609,1.609h-29.94a24.543,24.543,0,0,0-2.314-8.471h32.254a1.611,1.611,0,0,1,1.609,1.609v5.252Z" transform="translate(-334.493 -2529.665)"/></g></g></g></svg>