<svg xmlns="http://www.w3.org/2000/svg" xmlns:xlink="http://www.w3.org/1999/xlink" width="158" height="158" viewBox="0 0 158 158"><defs><filter id="a" x="0" y="0" width="158" height="158" filterUnits="userSpaceOnUse"><feOffset dy="3" input="SourceAlpha"/><feGaussianBlur stdDeviation="3" result="b"/><feFlood flood-opacity="0.161"/><feComposite operator="in" in2="b"/><feComposite in="SourceGraphic"/></filter></defs><g transform="translate(-1264.332 -407)"><g transform="translate(1273.688 413.355)"><g transform="matrix(1, 0, 0, 1, -9.36, -6.36)" filter="url(#a)"><circle cx="70" cy="70" r="70" transform="translate(9 6)" fill="#fff" opacity="0.45"/></g><circle cx="56" cy="56" r="56" transform="translate(13.645 13.645)" fill="#116562"/></g><g transform="translate(1305.332 453)"><path d="M1091.076,3167.463v3.7l-37.038,2.3-37.038-2.3v-3.7l37.038-2.963Z" transform="translate(-1016.259 -3150.426)" fill="#de8393"/><path d="M1091.076,3209.5v32.46a6.059,6.059,0,0,1-6.059,6.059h-61.958a6.059,6.059,0,0,1-6.06-6.059V3209.5Z" transform="translate(-1016.259 -3188.759)" fill="#e8e6f1"/><path d="M1389.408,3271.634l1.234,1.57-1.234,1.571a2.134,2.134,0,0,1-2.134,2.134h-3.141a2.134,2.134,0,0,1-2.133-2.134v-3.141a2.134,2.134,0,0,1,2.133-2.133h3.141A2.134,2.134,0,0,1,1389.408,3271.634Z" transform="translate(-1327.183 -3239.87)" fill="#f2de98"/><path d="M1389.408,3351.634l1.234,1.57-1.234,1.571a2.134,2.134,0,0,1-2.134,2.134h-3.141a2.134,2.134,0,0,1-2.133-2.134v-3.141a2.134,2.134,0,0,1,2.133-2.133h3.141A2.134,2.134,0,0,1,1389.408,3351.634Z" transform="translate(-1327.183 -3308.018)" fill="#f2de98"/><path d="M1059.408,3351.634l1.185,1.57-1.185,1.571a2.134,2.134,0,0,1-2.133,2.134h-3.141a2.134,2.134,0,0,1-2.133-2.134v-3.141a2.134,2.134,0,0,1,2.133-2.133h3.141A2.134,2.134,0,0,1,1059.408,3351.634Z" transform="translate(-1046.074 -3308.018)" fill="#f2de98"/><path d="M1059.408,3271.634l1.185,1.57-1.185,1.571a2.134,2.134,0,0,1-2.133,2.134h-3.141a2.134,2.134,0,0,1-2.133-2.134v-3.141a2.134,2.134,0,0,1,2.133-2.133h3.141A2.134,2.134,0,0,1,1059.408,3271.634Z" transform="translate(-1046.074 -3239.87)" fill="#f2de98"/><path d="M1109.408,3271.633v3.141a2.134,2.134,0,0,1-2.134,2.133h-3.141a2.134,2.134,0,0,1-2.133-2.133v-3.141a2.134,2.134,0,0,1,2.133-2.133h3.141A2.134,2.134,0,0,1,1109.408,3271.633Z" transform="translate(-1088.666 -3239.869)" fill="#edc96b"/><path d="M1109.408,3351.633v3.141a2.134,2.134,0,0,1-2.134,2.134h-3.141a2.134,2.134,0,0,1-2.133-2.134v-3.141a2.134,2.134,0,0,1,2.133-2.133h3.141A2.134,2.134,0,0,1,1109.408,3351.633Z" transform="translate(-1088.666 -3308.017)" fill="#edc96b"/><path d="M1439.408,3351.633v3.141a2.134,2.134,0,0,1-2.134,2.134h-3.141a2.134,2.134,0,0,1-2.133-2.134v-3.141a2.134,2.134,0,0,1,2.133-2.133h3.141A2.134,2.134,0,0,1,1439.408,3351.633Z" transform="translate(-1369.776 -3308.017)" fill="#edc96b"/><path d="M1439.408,3271.633v3.141a2.134,2.134,0,0,1-2.134,2.133h-3.141a2.134,2.134,0,0,1-2.133-2.133v-3.141a2.134,2.134,0,0,1,2.133-2.133h3.141A2.134,2.134,0,0,1,1439.408,3271.633Z" transform="translate(-1369.776 -3239.869)" fill="#edc96b"/><path d="M1070.335,3114.5h14.682a6.059,6.059,0,0,1,6.059,6.06v4.311H1017v-4.311a6.059,6.059,0,0,1,6.06-6.06h47.276Z" transform="translate(-1016.259 -3107.833)" fill="#606cd2"/><circle cx="8.904" cy="8.904" r="8.904" transform="translate(28.875 31.097)" fill="#e7ad4f"/><path d="M1188.831,3335.892l-.411,2.386-2.731.756a12.553,12.553,0,0,1-3.689-8.9l2.321-1.63,2.124,1.63A8.124,8.124,0,0,0,1188.831,3335.892Z" transform="translate(-1156.814 -3290.128)" fill="#f2de98"/><path d="M1263.391,3378.39l2.584.165.558,2.978a12.554,12.554,0,0,1-8.9,3.689l-1.63-2.469,1.63-1.976A8.123,8.123,0,0,0,1263.391,3378.39Z" transform="translate(-1219.851 -3332.627)" fill="#f2de98"/><path d="M1312.721,3288.3l-2.321,1.778-2.123-1.778a8.122,8.122,0,0,0-2.387-5.761l.56-2.733,2.583-.41A12.554,12.554,0,0,1,1312.721,3288.3Z" transform="translate(-1262.349 -3248.302)" fill="#f2de98"/><path d="M1215.8,3254.5l1.926,2.519-1.926,1.926a8.124,8.124,0,0,0-5.762,2.387l-2.831-.757-.311-2.385A12.554,12.554,0,0,1,1215.8,3254.5Z" transform="translate(-1178.025 -3227.092)" fill="#f2de98"/><path d="M1185.689,3279.4l3.142,3.142a8.123,8.123,0,0,0-2.387,5.761H1182A12.553,12.553,0,0,1,1185.689,3279.4Z" transform="translate(-1156.814 -3248.302)" fill="#edc96b"/><path d="M1215.8,3380.777v4.445a12.554,12.554,0,0,1-8.9-3.689l3.142-3.142A8.124,8.124,0,0,0,1215.8,3380.777Z" transform="translate(-1178.025 -3332.627)" fill="#edc96b"/><path d="M1308.277,3339.5h4.445a12.555,12.555,0,0,1-3.689,8.9l-3.142-3.143A8.123,8.123,0,0,0,1308.277,3339.5Z" transform="translate(-1262.349 -3299.499)" fill="#edc96b"/><path d="M1275.9,3258.189l-3.142,3.142a8.123,8.123,0,0,0-5.762-2.387V3254.5A12.554,12.554,0,0,1,1275.9,3258.189Z" transform="translate(-1229.221 -3227.091)" fill="#edc96b"/><path d="M1255.7,3307.463a.741.741,0,0,0,0-1.481h-.741v-.741a.741.741,0,0,0-1.482,0v.741h-.741a.741.741,0,0,0-.741.741v2.963a.741.741,0,0,0,.741.741h2.222v1.481h-2.222a.741.741,0,0,0,0,1.481h.741v.741a.741.741,0,0,0,1.482,0v-.741h.741a.741.741,0,0,0,.741-.741v-2.963a.741.741,0,0,0-.741-.741h-2.222v-1.482Z" transform="translate(-1216.443 -3269.684)"/><path d="M1190.334,3249.5a13.334,13.334,0,1,0,13.334,13.334A13.35,13.35,0,0,0,1190.334,3249.5Zm8.882,21.168-2.1-2.1a8.848,8.848,0,0,0,2.073-5h2.971A11.8,11.8,0,0,1,1199.216,3270.668Zm-20.709-7.093h2.971a8.849,8.849,0,0,0,2.073,5l-2.1,2.1A11.81,11.81,0,0,1,1178.507,3263.575Zm2.945-8.575,2.1,2.1a8.847,8.847,0,0,0-2.073,5h-2.971A11.8,11.8,0,0,1,1181.452,3255Zm8.882,15.242a7.408,7.408,0,1,1,7.408-7.408A7.416,7.416,0,0,1,1190.334,3270.241Zm5.737-14.192a8.851,8.851,0,0,0-5-2.073v-2.971a11.8,11.8,0,0,1,7.094,2.944Zm-6.477-2.073a8.849,8.849,0,0,0-5,2.073l-2.1-2.1a11.8,11.8,0,0,1,7.094-2.944Zm-5,15.641a8.85,8.85,0,0,0,5,2.073v2.971a11.8,11.8,0,0,1-7.094-2.944Zm6.477,2.073a8.849,8.849,0,0,0,5-2.073l2.1,2.1a11.8,11.8,0,0,1-7.094,2.944Zm8.116-9.6a8.849,8.849,0,0,0-2.073-5l2.1-2.1a11.8,11.8,0,0,1,2.944,7.094Z" transform="translate(-1152.555 -3222.833)"/><path d="M1080.758,3075.426h-2.131a6.666,6.666,0,0,0-13.25,0h-1.566a6.666,6.666,0,0,0-13.25,0H1049a6.666,6.666,0,0,0-13.25,0h-1.566a6.666,6.666,0,0,0-13.25,0H1018.8a6.808,6.808,0,0,0-6.8,6.8V3122.7a6.808,6.808,0,0,0,6.8,6.8h61.958a6.808,6.808,0,0,0,6.8-6.8v-40.475A6.808,6.808,0,0,0,1080.758,3075.426Zm-67.276,11.852h72.595v2.222h-72.595Zm58.52-16.3a5.193,5.193,0,0,1,5.132,4.445H1066.87A5.193,5.193,0,0,1,1072,3070.981Zm-14.815,0a5.193,5.193,0,0,1,5.132,4.445h-10.263A5.193,5.193,0,0,1,1057.187,3070.981Zm-14.815,0a5.193,5.193,0,0,1,5.132,4.445H1037.24A5.193,5.193,0,0,1,1042.371,3070.981Zm-14.815,0a5.193,5.193,0,0,1,5.132,4.445h-10.263A5.193,5.193,0,0,1,1027.556,3070.981Zm-8.756,5.926h2.131a6.676,6.676,0,0,0,6.625,5.926.741.741,0,1,0,0-1.481,5.193,5.193,0,0,1-5.132-4.445h13.322a6.676,6.676,0,0,0,6.625,5.926.741.741,0,1,0,0-1.481,5.193,5.193,0,0,1-5.131-4.445h13.322a6.676,6.676,0,0,0,6.625,5.926.741.741,0,0,0,0-1.481,5.193,5.193,0,0,1-5.132-4.445h13.322a6.676,6.676,0,0,0,6.625,5.926.741.741,0,0,0,0-1.481,5.193,5.193,0,0,1-5.132-4.445h13.887a5.324,5.324,0,0,1,5.319,5.319v3.57h-72.595v-3.57A5.324,5.324,0,0,1,1018.8,3076.908Zm61.958,51.113H1018.8a5.324,5.324,0,0,1-5.319-5.319v-31.72h72.595v31.72A5.324,5.324,0,0,1,1080.758,3128.021Z" transform="translate(-1012 -3069.5)"/><path d="M1060.423,3264.5h-3.141a2.86,2.86,0,0,1-4.267,0h-3.141a2.878,2.878,0,0,0-2.874,2.874v3.141a2.877,2.877,0,0,0,2.874,2.874h3.141a2.86,2.86,0,0,1,4.267,0h3.141a2.877,2.877,0,0,0,2.874-2.874v-3.141A2.877,2.877,0,0,0,1060.423,3264.5Zm-7.408,7.408h-3.141a1.394,1.394,0,0,1-1.393-1.393v-3.141a1.394,1.394,0,0,1,1.393-1.393h3.141a1.394,1.394,0,0,1,1.393,1.393v3.141A1.4,1.4,0,0,1,1053.015,3271.908Zm8.8-1.393a1.394,1.394,0,0,1-1.393,1.393h-3.141a1.394,1.394,0,0,1-1.393-1.393v-3.141a1.394,1.394,0,0,1,1.393-1.393h3.141a1.394,1.394,0,0,1,1.393,1.393v3.141Z" transform="translate(-1041.815 -3235.61)"/><path d="M1060.423,3344.5h-3.141a2.86,2.86,0,0,1-4.267,0h-3.141a2.878,2.878,0,0,0-2.874,2.874v3.141a2.877,2.877,0,0,0,2.874,2.874h3.141a2.86,2.86,0,0,1,4.267,0h3.141a2.877,2.877,0,0,0,2.874-2.874v-3.141A2.877,2.877,0,0,0,1060.423,3344.5Zm-7.408,7.408h-3.141a1.394,1.394,0,0,1-1.393-1.393v-3.141a1.394,1.394,0,0,1,1.393-1.393h3.141a1.394,1.394,0,0,1,1.393,1.393v3.141A1.4,1.4,0,0,1,1053.015,3351.908Zm8.8-1.393a1.394,1.394,0,0,1-1.393,1.393h-3.141a1.394,1.394,0,0,1-1.393-1.393v-3.141a1.394,1.394,0,0,1,1.393-1.393h3.141a1.394,1.394,0,0,1,1.393,1.393v3.141Z" transform="translate(-1041.815 -3303.758)"/><path d="M1390.423,3264.5h-3.141a2.86,2.86,0,0,1-4.267,0h-3.141a2.877,2.877,0,0,0-2.874,2.874v3.141a2.877,2.877,0,0,0,2.874,2.874h3.141a2.86,2.86,0,0,1,4.267,0h3.141a2.878,2.878,0,0,0,2.874-2.874v-3.141A2.877,2.877,0,0,0,1390.423,3264.5Zm-7.408,7.408h-3.141a1.394,1.394,0,0,1-1.393-1.393v-3.141a1.394,1.394,0,0,1,1.393-1.393h3.141a1.394,1.394,0,0,1,1.393,1.393v3.141A1.4,1.4,0,0,1,1383.015,3271.908Zm8.8-1.393a1.394,1.394,0,0,1-1.393,1.393h-3.141a1.394,1.394,0,0,1-1.393-1.393v-3.141a1.394,1.394,0,0,1,1.393-1.393h3.141a1.394,1.394,0,0,1,1.393,1.393Z" transform="translate(-1322.924 -3235.61)"/><path d="M1390.423,3344.5h-3.141a2.86,2.86,0,0,1-4.267,0h-3.141a2.877,2.877,0,0,0-2.874,2.874v3.141a2.877,2.877,0,0,0,2.874,2.874h3.141a2.86,2.86,0,0,1,4.267,0h3.141a2.878,2.878,0,0,0,2.874-2.874v-3.141A2.877,2.877,0,0,0,1390.423,3344.5Zm-7.408,7.408h-3.141a1.394,1.394,0,0,1-1.393-1.393v-3.141a1.4,1.4,0,0,1,1.393-1.393h3.141a1.394,1.394,0,0,1,1.393,1.393v3.141A1.4,1.4,0,0,1,1383.015,3351.908Zm8.8-1.393a1.394,1.394,0,0,1-1.393,1.393h-3.141a1.394,1.394,0,0,1-1.393-1.393v-3.141a1.394,1.394,0,0,1,1.393-1.393h3.141a1.394,1.394,0,0,1,1.393,1.393Z" transform="translate(-1322.924 -3303.758)"/></g></g></svg>