<svg xmlns="http://www.w3.org/2000/svg" xmlns:xlink="http://www.w3.org/1999/xlink" width="64.916" height="155.044" viewBox="0 0 64.916 155.044"><defs><clipPath id="a"><rect width="64.917" height="155.044" fill="none"/></clipPath><clipPath id="b"><rect width="64.916" height="155.043" fill="none"/></clipPath><clipPath id="c"><rect width="15.329" height="40.834" fill="none"/></clipPath><clipPath id="d"><rect width="15.598" height="52.866" fill="none"/></clipPath><clipPath id="e"><rect width="9.976" height="26.158" fill="none"/></clipPath><clipPath id="f"><rect width="23.313" height="94.287" fill="none"/></clipPath><clipPath id="g"><rect width="10.509" height="14.19" fill="none"/></clipPath><clipPath id="h"><rect width="14.935" height="29.792" fill="none"/></clipPath><clipPath id="i"><rect width="11.086" height="22.083" fill="none"/></clipPath><clipPath id="j"><rect width="2.129" height="39.089" fill="none"/></clipPath></defs><g clip-path="url(#a)"><g transform="translate(0 0.001)"><g clip-path="url(#b)"><path d="M25.563,24.5a117.983,117.983,0,0,1-6.247,21.047,5.534,5.534,0,0,1,5.493,2.913c1.884,3.764,5.473,11.747,7.758,16.873H34.64V43.249c0-12.9-6.712-17.516-9.077-18.745" transform="translate(29.025 36.82)" fill="#6ea9da"/><path d="M25.192,23.748l.6.313A15.643,15.643,0,0,1,31.4,29.221c2.48,3.67,3.737,8.389,3.737,14.028V65.837h-2.9l-.132-.3c-3.714-8.332-6.321-14-7.749-16.853A4.895,4.895,0,0,0,19.7,46.042c-.119,0-.239,0-.358.009l-.771.038.281-.719a115.508,115.508,0,0,0,6.22-20.955ZM34.14,64.837V43.249c0-5.435-1.2-9.966-3.566-13.468a15,15,0,0,0-4.647-4.5,116.914,116.914,0,0,1-5.88,19.769,5.84,5.84,0,0,1,5.21,3.191c1.417,2.83,3.986,8.413,7.636,16.6Z" transform="translate(29.025 36.82)" fill="#001470"/><path d="M9.587,24.5a117.984,117.984,0,0,0,6.242,21.047,5.528,5.528,0,0,0-5.493,2.913C8.451,52.228,4.86,60.212,2.577,65.337H.5V43.249c0-12.9,6.722-17.516,9.087-18.745" transform="translate(0.751 36.82)" fill="#6ea9da"/><path d="M9.958,23.748l.121.667A115.546,115.546,0,0,0,16.294,45.37l.28.719-.771-.038c-.119-.006-.239-.009-.358-.009a4.889,4.889,0,0,0-4.663,2.646C8.959,52.331,5.562,59.863,3.034,65.54l-.132.3H0V43.249c0-5.638,1.259-10.358,3.743-14.028A15.67,15.67,0,0,1,9.357,24.06Zm5.14,21.3A116.956,116.956,0,0,1,9.223,25.281a15.022,15.022,0,0,0-4.652,4.5C2.2,33.283,1,37.814,1,43.249V64.837H2.253c2.517-5.65,5.835-13,7.636-16.6A5.833,5.833,0,0,1,15.1,45.049Z" transform="translate(0.751 36.82)" fill="#001470"/><g transform="translate(1.251 61.323)" style="mix-blend-mode:multiply;isolation:isolate"><g clip-path="url(#c)"><path d="M9.587,24.5a117.984,117.984,0,0,0,6.242,21.047,5.528,5.528,0,0,0-5.493,2.913C8.451,52.228,4.86,60.212,2.577,65.337H.5V43.249c0-12.9,6.722-17.516,9.087-18.745" transform="translate(-0.5 -24.503)" fill="#6ea9da"/></g></g><path d="M22.772,2.762C16.08,11.088,3.562,29.515,3.562,50.873c0,18.615,13.019,43.921,13.019,43.921H37.17S50.191,69.487,50.191,50.873c0-21.312-12.466-39.712-19.168-48.058-2.46-3.068-5.811-3.086-8.251-.053" transform="translate(5.352 0.751)" fill="#fff"/><path d="M26.865,0h0a5.879,5.879,0,0,1,4.548,2.5A100.188,100.188,0,0,1,43.572,21.766c4.724,9.924,7.119,19.717,7.119,29.106a63.629,63.629,0,0,1-2.049,14.835A126.083,126.083,0,0,1,44.148,79.99a159.524,159.524,0,0,1-6.534,15.033l-.14.271h-21.2l-.14-.271A159.54,159.54,0,0,1,9.6,79.99,126.105,126.105,0,0,1,5.11,65.707,63.641,63.641,0,0,1,3.062,50.873c0-9.406,2.4-19.216,7.144-29.157A100.354,100.354,0,0,1,22.382,2.449,5.791,5.791,0,0,1,26.865,0Zm10,94.294c.652-1.3,3.52-7.131,6.354-14.668a125.048,125.048,0,0,0,4.456-14.163,62.635,62.635,0,0,0,2.019-14.59c0-9.239-2.363-18.887-7.022-28.676A99.173,99.173,0,0,0,30.633,3.128,4.924,4.924,0,0,0,26.865,1a4.835,4.835,0,0,0-3.7,2.075,99.339,99.339,0,0,0-12.053,19.07C6.433,31.952,4.062,41.617,4.062,50.873A62.646,62.646,0,0,0,6.08,65.463a125.067,125.067,0,0,0,4.455,14.163c2.834,7.536,5.7,13.368,6.353,14.667Z" transform="translate(5.352 0.751)" fill="#001470"/><rect width="21.065" height="4.815" transform="translate(21.936 95.545)" fill="#6ea9da"/><path d="M-.5-.5H21.565V5.315H-.5ZM20.565.5H.5V4.315H20.565Z" transform="translate(21.936 95.545)" fill="#001470"/><path d="M33.048,40.1s10.616,10.784,6.722,25.76c0,0-2.543-7.638-5.989-10.934,0,0,3.784,7.636-3.426,18.122s-13.194,16.175-9.45,20.965c0,0-15.274-23.062-7.636-38.485,0,0-5.991,9.583-5.546,15.874,0,0-4.355-18.722,4.259-31.3Z" transform="translate(9.952 60.258)" fill="#ffc41b"/><path d="M11.72,39.6H33.257l.147.149a29.1,29.1,0,0,1,4.917,7.4,28.977,28.977,0,0,1,2.536,8.3,26.627,26.627,0,0,1-.6,10.54l-.425,1.634-.534-1.6a40.645,40.645,0,0,0-4.327-8.911,16.2,16.2,0,0,1,.3,2.941,19.511,19.511,0,0,1-.861,5.889,26.752,26.752,0,0,1-3.644,7.394c-1.456,2.12-2.886,4.076-4.148,5.8C22.1,85.314,19.111,89.4,20.68,92.714c.4.655.64,1.02.642,1.023l-.811.584a6.349,6.349,0,0,1-.712-1.13,74.354,74.354,0,0,1-7.093-15.516,42.542,42.542,0,0,1-2.061-11.267,26.713,26.713,0,0,1,.393-5.636c-1.5,3.214-3.044,7.38-2.816,10.6l-.986.149A54.949,54.949,0,0,1,6.123,60.47,46.05,46.05,0,0,1,7.2,50.188a30.056,30.056,0,0,1,4.375-10.369Zm21.112,1H12.249A29.213,29.213,0,0,0,8.174,50.4,45.021,45.021,0,0,0,7.123,60.444a57.2,57.2,0,0,0,.456,7.046,33.4,33.4,0,0,1,2.3-6.591,53.876,53.876,0,0,1,2.971-5.636l.872.487a22.17,22.17,0,0,0-2.072,10.627,41.55,41.55,0,0,0,2.016,11A71.877,71.877,0,0,0,19.281,90.3,10.172,10.172,0,0,1,20.4,86.7a62.705,62.705,0,0,1,5.411-8.156c1.258-1.72,2.683-3.669,4.131-5.777a25.757,25.757,0,0,0,3.51-7.116,18.513,18.513,0,0,0,.819-5.587,12.469,12.469,0,0,0-.939-4.913L32.069,52.6l2.058,1.969c2.55,2.438,4.578,7.076,5.531,9.531a25.527,25.527,0,0,0,.213-8.485,27.964,27.964,0,0,0-2.438-8A29.424,29.424,0,0,0,32.832,40.6Z" transform="translate(9.952 60.258)" fill="#001470"/><g transform="translate(16.574 100.359)" style="mix-blend-mode:multiply;isolation:isolate"><g clip-path="url(#d)"><path d="M22.222,84.519V40.1H11.981C3.369,52.68,7.724,71.4,7.724,71.4c-.445-6.289,5.543-15.874,5.543-15.874C6.6,69,17.4,88.3,20.245,92.968c-1.159-2.39-.178-5.06,1.977-8.449" transform="translate(-6.622 -40.102)" fill="#ffc41b"/></g></g><path d="M12.157,40.1S7.865,43.6,9.066,50.385a6.756,6.756,0,0,1,3.689-3.7s-1.594,12.581,3.4,19.571c0,0,.3-10.383,4.59-11.882A11.121,11.121,0,0,0,27.033,40.1Z" transform="translate(13.305 60.258)" fill="#e6621c"/><path d="M11.979,39.6H27.385l.118.332a11.6,11.6,0,0,1-.38,9.111,12.055,12.055,0,0,1-2.718,3.661,10.311,10.311,0,0,1-3.5,2.144c-1.993.7-3.045,3.716-3.576,6.125a32.5,32.5,0,0,0-.679,5.3l-.044,1.484-.863-1.209a18.437,18.437,0,0,1-2.713-6.174,34.132,34.132,0,0,1-.948-6.5,46.3,46.3,0,0,1,.082-6.31,5.928,5.928,0,0,0-2.62,2.961l-.612,1.956-.358-2.016a12.2,12.2,0,0,1,1.147-8.011,9.583,9.583,0,0,1,2.121-2.747Zm14.7,1H12.348a9.252,9.252,0,0,0-1.768,2.373,10.763,10.763,0,0,0-1.2,5.8,8.077,8.077,0,0,1,3.168-2.541l.821-.384-.114.9a43.78,43.78,0,0,0-.169,7.091c.179,3.178.8,7.472,2.673,10.849a32.5,32.5,0,0,1,.6-3.919c.851-3.875,2.273-6.185,4.226-6.868a10.439,10.439,0,0,0,5.645-5.292A10.577,10.577,0,0,0,26.675,40.6Z" transform="translate(13.305 60.258)" fill="#001470"/><g transform="translate(22.158 100.359)" style="mix-blend-mode:multiply;isolation:isolate"><g clip-path="url(#e)"><path d="M18.829,40.1H12.157S7.865,43.6,9.066,50.385a6.756,6.756,0,0,1,3.689-3.7s-1.594,12.581,3.4,19.571c0,0,.205-7.055,2.678-10.373Z" transform="translate(-8.853 -40.102)" fill="#e6621c"/></g></g><g transform="translate(8.916 1.258)" style="mix-blend-mode:multiply;isolation:isolate"><g clip-path="url(#f)"><path d="M26.877.5a5.521,5.521,0,0,0-3.884,2.255c-6.77,8.326-19.43,26.753-19.43,48.108,0,18.615,13.169,43.924,13.169,43.924H26.877Z" transform="translate(-3.563 -0.502)" fill="#b6b8bf"/></g></g><path d="M19.345,14.7a22.917,22.917,0,0,0,10.771-2.6,101.208,101.208,0,0,0-6.624-9.285c-2.458-3.068-5.811-3.086-8.251-.053A102.267,102.267,0,0,0,8.574,12.1a22.924,22.924,0,0,0,10.771,2.6" transform="translate(12.884 0.751)" fill="#ffc41b"/><path d="M19.345,15.2A23.413,23.413,0,0,1,8.338,12.54l-.475-.254.288-.455a102.248,102.248,0,0,1,6.7-9.383A5.791,5.791,0,0,1,19.335,0a5.951,5.951,0,0,1,4.547,2.5,101.422,101.422,0,0,1,6.657,9.33l.287.455-.474.253A23.428,23.428,0,0,1,19.345,15.2ZM9.29,11.906a22.535,22.535,0,0,0,10.056,2.3,22.548,22.548,0,0,0,10.056-2.3,100.429,100.429,0,0,0-6.3-8.778A4.92,4.92,0,0,0,19.335,1a4.835,4.835,0,0,0-3.7,2.075A101.06,101.06,0,0,0,9.29,11.906Z" transform="translate(12.884 0.751)" fill="#001470"/><g transform="translate(21.458 1.258)" style="mix-blend-mode:multiply;isolation:isolate"><g clip-path="url(#g)"><path d="M18.7.545c-.045.008-.093.015-.138.025s-.088.018-.128.025-.093.02-.135.033-.088.023-.128.035-.088.025-.135.038-.085.033-.123.045a1.409,1.409,0,0,0-.135.048l-.125.053A.736.736,0,0,0,17.528.9c-.043.015-.088.038-.13.055s-.085.048-.128.068l-.125.068c-.038.025-.085.048-.125.075s-.08.05-.128.075-.083.055-.12.083-.083.058-.128.083-.08.063-.123.1-.078.058-.118.09-.083.065-.125.1-.08.063-.12.1-.083.073-.115.11-.08.07-.12.105l-.123.123c-.033.035-.073.075-.11.113s-.08.09-.123.135-.073.075-.108.113c-.05.06-.1.12-.15.183-.02.028-.048.055-.07.083-.085.105-.168.215-.258.323a.938.938,0,0,1-.065.083c-.07.085-.14.175-.205.26a2.225,2.225,0,0,0-.14.183c-.068.08-.133.165-.2.248-.05.07-.108.143-.168.215s-.12.16-.185.24-.118.16-.18.238-.128.16-.183.24l-.205.265c-.058.075-.113.15-.17.228-.075.1-.15.2-.23.3-.048.07-.1.138-.15.21-.1.128-.193.26-.293.39-.03.045-.068.09-.1.135-.135.18-.268.365-.4.553-.023.028-.045.058-.065.085-.113.16-.23.318-.343.481-.04.055-.073.11-.118.163l-.293.42c-.048.063-.09.128-.133.193-.1.135-.19.27-.288.41-.048.063-.09.133-.138.2-.1.14-.193.28-.29.425-.04.063-.088.13-.128.2-.11.15-.21.3-.313.455-.04.06-.078.115-.115.175-.12.178-.233.355-.36.533-.02.038-.043.075-.065.11-.293.445-.591.9-.878,1.364l-.01.015a22.833,22.833,0,0,0,10.509,2.6V.5L19.06.5c-.08.005-.16.015-.235.023-.045.005-.083.013-.123.018" transform="translate(-8.575 -0.504)" fill="#ffc41b"/></g></g><path d="M36.716,28.282a14.894,14.894,0,1,1-14.9-14.9,14.9,14.9,0,0,1,14.9,14.9" transform="translate(10.409 20.113)" fill="#ffc41b"/><path d="M21.82,12.886A15.4,15.4,0,1,1,10.935,17.4,15.294,15.294,0,0,1,21.82,12.886Zm0,29.794a14.395,14.395,0,1,0-10.178-4.217A14.3,14.3,0,0,0,21.82,42.68Z" transform="translate(10.409 20.113)" fill="#001470"/><g transform="translate(17.335 33.501)" style="mix-blend-mode:multiply;isolation:isolate"><g clip-path="url(#h)"><path d="M21.863,13.387H21.82a14.9,14.9,0,0,0,0,29.791h.043Z" transform="translate(-6.926 -13.386)" fill="#ffc41b"/></g></g><path d="M30.548,25.968A11.042,11.042,0,1,1,19.509,14.926,11.037,11.037,0,0,1,30.548,25.968" transform="translate(12.72 22.428)" fill="#6ea9da"/><path d="M19.509,14.426A11.542,11.542,0,1,1,7.965,25.968,11.462,11.462,0,0,1,19.509,14.426Zm0,22.083A10.542,10.542,0,1,0,8.965,25.968,10.47,10.47,0,0,0,19.509,36.509Z" transform="translate(12.72 22.428)" fill="#001470"/><g transform="translate(21.185 37.355)" style="mix-blend-mode:multiply;isolation:isolate"><g clip-path="url(#i)"><path d="M19.552,14.93l-.043,0a11.042,11.042,0,1,0,0,22.083h.043Z" transform="translate(-8.465 -14.926)" fill="#6ea9da"/></g></g><path d="M13.243,64.606c.113.693.23,1.384.365,2.077H15.3c.13-.693.248-1.384.36-2.077.31-1.925.548-3.847.731-5.774.368-3.847.526-7.691.526-11.54s-.163-7.7-.531-11.542c-.188-1.922-.42-3.847-.731-5.769q-.2-1.194-.42-2.388H13.673c-.158.8-.293,1.592-.425,2.388-.3,1.922-.548,3.847-.723,5.769-.373,3.847-.533,7.693-.536,11.542s.16,7.693.526,11.54q.27,2.891.728,5.774" transform="translate(18.015 41.464)" fill="#6ea9da"/><path d="M15.717,67.184H13.2l-.079-.4c-.15-.769-.276-1.522-.368-2.093-.31-1.971-.556-3.924-.733-5.807-.355-3.738-.528-7.528-.528-11.586,0-4.093.179-7.884.538-11.59.17-1.862.414-3.814.727-5.8.129-.773.268-1.592.429-2.407l.08-.4h2.389l.077.407c.15.8.292,1.6.423,2.4.287,1.777.527,3.674.735,5.8.353,3.694.528,7.485.533,11.59,0,4.084-.173,7.874-.528,11.588-.193,2.038-.434,3.937-.735,5.806-.13.8-.246,1.467-.363,2.09Zm-1.7-1h.864c.09-.5.182-1.036.283-1.657.3-1.846.535-3.724.727-5.741.352-3.682.523-7.441.523-11.492-.005-4.073-.178-7.833-.528-11.495-.205-2.1-.443-3.981-.727-5.736-.107-.652-.221-1.312-.342-1.967h-.736c-.126.668-.239,1.336-.345,1.97-.308,1.958-.55,3.888-.719,5.732-.356,3.677-.531,7.437-.533,11.5,0,4.026.171,7.785.523,11.492.174,1.863.418,3.8.724,5.743C13.811,64.989,13.908,65.572,14.022,66.184Z" transform="translate(18.015 41.464)" fill="#001470"/><g transform="translate(30.005 69.058)" style="mix-blend-mode:multiply;isolation:isolate"><g clip-path="url(#j)"><path d="M14.119,27.595h-.445c-.155.8-.293,1.592-.425,2.388q-.454,2.883-.723,5.769c-.37,3.847-.533,7.7-.536,11.542s.16,7.693.526,11.54q.274,2.891.728,5.774c.113.693.23,1.384.368,2.077h.508Z" transform="translate(-11.99 -27.594)" fill="#6ea9da"/></g></g></g></g></g></svg>