<svg xmlns="http://www.w3.org/2000/svg" xmlns:xlink="http://www.w3.org/1999/xlink" width="142" height="142" viewBox="0 0 142 142"><defs><filter id="a" x="0" y="0" width="142" height="142" filterUnits="userSpaceOnUse"><feOffset dy="3" input="SourceAlpha"/><feGaussianBlur stdDeviation="3" result="b"/><feFlood flood-opacity="0.161"/><feComposite operator="in" in2="b"/><feComposite in="SourceGraphic"/></filter></defs><g transform="translate(-939.332 -118)"><g transform="translate(948.719 124.387)"><g transform="matrix(1, 0, 0, 1, -9.39, -6.39)" filter="url(#a)"><circle cx="62" cy="62" r="62" transform="translate(9 6)" fill="#fff" opacity="0.45"/></g><circle cx="49" cy="49" r="49" transform="translate(12.613 12.613)" fill="#b15815"/></g><g transform="translate(977.332 155)"><path d="M2421,2386.75v49.379a5.2,5.2,0,0,0,5.2,5.2h2.75l53.125-32.064v-22.512C2480.495,2386.75,2422.5,2386.75,2421,2386.75Z" transform="translate(-2420.35 -2379.147)" fill="#efcb6b"/><path d="M2737.479,2448.072l-5.751-5.751-9.374,7.191-2.984,5.73,7.749,2.413,6.4-2.413,3.965-3.965A2.266,2.266,0,0,0,2737.479,2448.072Z" transform="translate(-2679.949 -2427.496)" fill="#72c797"/><path d="M2731.038,2475.635l-3.009,3.01v.027l-4.115,2.414-4.543-2.414,2.984-5.729,6.439-3.693,2.244,2.244A2.929,2.929,0,0,0,2731.038,2475.635Z" transform="translate(-2679.949 -2450.927)" fill="#65b096"/><path d="M2569.036,2345.394l-11.5-11.5a2.266,2.266,0,0,0-3.2,0L2533.1,2355.13v5.2l14.021,2.414,10.184-2.414,11.732-11.731A2.265,2.265,0,0,0,2569.036,2345.394Z" transform="translate(-2517.884 -2332.584)" fill="#7bd9b6"/><path d="M2599.511,2397.109l-10.8,10.8-4.671,2.413-8.508-2.413v-5.2l14.793-14.793a2.929,2.929,0,0,0,4.141,0l5.047,5.047A2.928,2.928,0,0,0,2599.511,2397.109Z" transform="translate(-2554.8 -2380.166)" fill="#72c797"/><path d="M2643.426,2461.071a3.249,3.249,0,1,1-4.595,0A3.25,3.25,0,0,1,2643.426,2461.071Z" transform="translate(-2609.048 -2442.983)" fill="#65b096"/><path d="M2520.774,2506.948v28.38a6.055,6.055,0,0,1-6.055,6.055H2461a5.2,5.2,0,0,0,5.2-5.2V2501.75h12.994l5.2,5.2Z" transform="translate(-2455.152 -2479.204)" fill="#f4e09a"/><path d="M2728.091,2703.371v4.574a1.611,1.611,0,0,1-1.611,1.611h-18.867a1.611,1.611,0,0,1-1.612-1.611v-4.574a1.611,1.611,0,0,1,1.612-1.611h18.867A1.609,1.609,0,0,1,2728.091,2703.371Z" transform="translate(-2668.316 -2653.224)" fill="#d87f57"/><path d="M2481.622,2355.336h-3.248v-19.491a.65.65,0,0,0-.65-.65h-15.509l-6.1-6.1a2.918,2.918,0,0,0-4.123,0l-6.1,6.1H2416.65a.65.65,0,0,0-.65.65v49.379a5.846,5.846,0,0,0,5.848,5.848h53.719a6.713,6.713,0,0,0,6.705-6.705v-28.38A.65.65,0,0,0,2481.622,2355.336Zm-4.548-18.842v18.842h-5.94l2.856-2.856a2.919,2.919,0,0,0,0-4.123l-5.532-5.532a2.878,2.878,0,0,0-.845-2.233l-4.1-4.1Zm-11.453,18.842,1.927-1.927a.65.65,0,0,0,0-.919,2.282,2.282,0,0,1,0-3.223.65.65,0,0,0,0-.919l-1.785-1.785a18.865,18.865,0,0,0,2.247-2.348l5.061,5.061a1.618,1.618,0,0,1,0,2.286l-3.775,3.774Zm-.776-7.854,1.368,1.367a3.588,3.588,0,0,0,0,4.058l-2.429,2.429h-6.793Zm-11.934-17.469a1.618,1.618,0,0,1,2.285,0l11.5,11.5a1.615,1.615,0,0,1,0,2.285l-11.54,11.54h-3.676l9.693-9.694a.649.649,0,0,0,0-.919,2.278,2.278,0,0,1,0-3.222.65.65,0,0,0,0-.919l-5.047-5.048a.65.65,0,0,0-.919,0,2.277,2.277,0,0,1-3.222,0,.65.65,0,0,0-.918,0l-14.6,14.6h-3.675Zm-7.4,25.322-5.007-5.007a.649.649,0,0,0-.459-.19H2438.3l13.266-13.266a3.582,3.582,0,0,0,4.058,0l4.212,4.211a3.588,3.588,0,0,0,0,4.058l-10.195,10.195Zm-23.659,34.435a4.547,4.547,0,0,1-4.548-4.548v-48.729h27.292l-13.644,13.644h-3.9a.65.65,0,0,0-.649.65v34.435A4.553,4.553,0,0,1,2421.848,2389.771Zm59.125-5.4a5.412,5.412,0,0,1-5.406,5.406h-50.048a5.84,5.84,0,0,0,2.176-4.548v-33.786h12.075l5.008,5.007a.65.65,0,0,0,.459.19h35.735Z" transform="translate(-2416 -2328.242)"/><path d="M2634.037,2456.249a3.9,3.9,0,0,0,5.513,5.513h0a3.9,3.9,0,0,0-5.513-5.513Zm4.594,4.595a2.6,2.6,0,1,1,0-3.676A2.6,2.6,0,0,1,2638.631,2460.844Z" transform="translate(-2604.713 -2438.621)"/><path d="M2722.129,2696.75h-18.868a2.264,2.264,0,0,0-2.261,2.261v4.574a2.264,2.264,0,0,0,2.261,2.261h18.868a2.263,2.263,0,0,0,2.261-2.261v-4.574A2.264,2.264,0,0,0,2722.129,2696.75Zm.961,6.835a.962.962,0,0,1-.961.961h-18.868a.963.963,0,0,1-.962-.961v-4.574a.963.963,0,0,1,.962-.961h18.868a.962.962,0,0,1,.961.961v4.574Z" transform="translate(-2663.966 -2648.865)"/><path d="M2762.893,2671.75H2746.65a.65.65,0,1,0,0,1.3h16.243a.65.65,0,1,0,0-1.3Z" transform="translate(-2703.118 -2627.113)"/><path d="M2762.893,2646.75H2746.65a.65.65,0,1,0,0,1.3h16.243a.65.65,0,0,0,0-1.3Z" transform="translate(-2703.118 -2605.362)"/></g></g></svg>