<svg xmlns="http://www.w3.org/2000/svg" xmlns:xlink="http://www.w3.org/1999/xlink" width="159.541" height="160.91" viewBox="0 0 159.541 160.91"><defs><radialGradient id="a" cx="0.076" cy="0.019" r="1.465" gradientTransform="translate(0.001)" gradientUnits="objectBoundingBox"><stop offset="0" stop-color="#f6f6f7"/><stop offset="0.477" stop-color="#f9f9fa"/><stop offset="0.715" stop-color="#fff"/></radialGradient><filter id="b" x="0" y="1.539" width="159.541" height="159.371" filterUnits="userSpaceOnUse"><feOffset dy="7" input="SourceAlpha"/><feGaussianBlur stdDeviation="2.5" result="c"/><feFlood flood-opacity="0.102"/><feComposite operator="in" in2="c"/><feComposite in="SourceGraphic"/></filter></defs><g transform="translate(-497.038 -1474)"><g transform="translate(502.668 1474)"><g transform="translate(0 0)"><path d="M341.034,2218.924a73.206,73.206,0,1,1-73.2-73.2A73.2,73.2,0,0,1,341.034,2218.924Z" transform="translate(-194.623 -2145.721)" fill="#fff"/><g transform="matrix(1, 0, 0, 1, -5.63, 0)" filter="url(#b)"><path d="M340.018,2217.816a73.2,73.2,0,1,0-73.2,73.207A72.914,72.914,0,0,0,340.018,2217.816Z" transform="translate(-187.98 -2144.61)" fill="url(#a)"/></g><g transform="translate(12.969 41.099)"><path d="M326.585,2164.488a73.214,73.214,0,0,1-126.04,72.9,72.982,72.982,0,0,0,126.04-72.9Z" transform="translate(-200.545 -2164.488)" fill="#eceef0"/></g></g></g><g transform="translate(535.955 1506.957)"><g transform="translate(0.937 1.385)"><path d="M78.965,4.874a2.5,2.5,0,0,0-2.427-2.427l-17.43-.5A2.5,2.5,0,0,0,57.27,6.212l3.142,3.142L40.545,29.227,29.107,17.79a8.121,8.121,0,0,0-10.848-.573L2.892,29.642A3.748,3.748,0,0,0,1.5,32.557V46.421a2.5,2.5,0,0,0,4.07,1.943L22.789,34.442,34.8,46.455a8.121,8.121,0,0,0,11.485,0L71.9,20.841l3.3,3.3A2.5,2.5,0,0,0,79.463,22.3Z" transform="translate(-1.5 -1.946)" fill="#22cac5"/><path d="M20.3,0A20.3,20.3,0,1,1,0,20.3,20.3,20.3,0,0,1,20.3,0Z" transform="translate(28.737 19.087)" fill="#b15815"/><circle cx="14.681" cy="14.681" r="14.681" transform="translate(34.359 24.71)" fill="#dfbba0"/><path d="M78.113,79.381A150.29,150.29,0,0,1,61.264,91.188c-6,3.6-17.623,5.86-24.17,4.879a7.468,7.468,0,0,0-3.992.519l-15.993,6.8A7.5,7.5,0,0,1,7.3,99.464L5.149,94.5a7.5,7.5,0,0,1,3.964-9.887l19.7-8.314s9.877-4.985,19.6-1.262c6.816,2.605,9.177.706,12.138.025,1.912-.437,3.573,1.512,3.73,3.436,1.368-.968,6.828-4.829,8.852-6.191a4.329,4.329,0,0,1,4.979,7.078Z" transform="translate(-2.637 -28.08)" fill="#ffccbc"/><path d="M29.9,103.094l-13.045,5.5a7.5,7.5,0,0,1-9.837-4.031l-3.532-8.5a7.5,7.5,0,0,1,4.023-9.79C12.582,84.15,18.671,81.6,20.8,80.714a1.874,1.874,0,0,1,2.455,1.025l7.653,18.929a1.874,1.874,0,0,1-1.006,2.427Z" transform="translate(-2.03 -31.453)" fill="#116562"/><path d="M38.4,103.1l-3.555,1.512-9.283-22.34c1.443-.593,2.755-1.143,3.736-1.549a1.874,1.874,0,0,1,2.455,1.025l7.653,18.929A1.874,1.874,0,0,1,38.4,103.1Z" transform="translate(-10.531 -31.454)" fill="#eceff1"/><path d="M93.719,81.735a5.787,5.787,0,0,0-.193-.985c-.733.518-1.329.937-1.672,1.182.236,2.323-3.11,4.619-4.685,5.316-1.937.883-5.911.895-8.121.62a.937.937,0,0,0-.231,1.86c2.647.317,6.806.279,9.116-.77,1.742-.769,6.17-3.567,5.786-7.223Z" transform="translate(-30.207 -31.52)" fill="#ffab91"/></g><g transform="translate(0 0.451)"><path d="M5.6,48.531,22.16,35.14l6.6,6.6a21.115,21.115,0,0,0,1.076,5.774,24.766,24.766,0,0,0-3.117,1.235l-4.195,1.773a2.8,2.8,0,0,0-3.175-.735c-2.13.885-8.219,3.436-13.291,5.56A8.449,8.449,0,0,0,1.529,66.359l3.531,8.5a8.472,8.472,0,0,0,11.066,4.535l13.048-5.5a2.816,2.816,0,0,0,1.694-2.754l.9-.381a6.54,6.54,0,0,1,3.49-.455c6.884,1.031,18.7-1.353,24.791-5A156.138,156.138,0,0,0,77,53.416,5.259,5.259,0,0,0,75.3,44.2a5.2,5.2,0,0,0-4.505.709A21.016,21.016,0,0,0,66.04,26.9l5.3-5.3,2.635,2.635a3.436,3.436,0,0,0,5.864-2.528l-.5-17.426A3.436,3.436,0,0,0,76,.949L58.577.452a3.436,3.436,0,0,0-2.528,5.864L58.528,8.8l-10.87,10.87a21.126,21.126,0,0,0-10.87,4.481l-7.58-7.58a9.04,9.04,0,0,0-12.1-.638L1.74,28.351A4.665,4.665,0,0,0,0,32V45.86a3.45,3.45,0,0,0,5.6,2.671Zm9.8,29.136a6.591,6.591,0,0,1-8.607-3.528l-3.532-8.5a6.57,6.57,0,0,1,3.52-8.565c2.874-1.2,6.068-2.543,8.689-3.639l8.559,20.594Zm13.044-5.5L25.757,73.3,17.2,52.708l2.866-1.2a.937.937,0,0,1,1.234.522L28.933,70.92a.94.94,0,0,1-.49,1.244ZM71.957,46.385c3.457-2.323,7.314,2.891,3.868,5.571A171.066,171.066,0,0,1,59.083,63.69C53.4,67.1,41.957,69.41,35.531,68.444a8.447,8.447,0,0,0-4.495.583l-.722.307L23.38,52.19l4.093-1.727c.2-.086,9.605-4.772,18.9-1.249,5.815,2.222,8.615,1.322,11.084.529.55-.177,1.067-.352,1.6-.466,1.472-.312,2.6,1.477,2.6,2.835,0,1.611-2.737,3.522-4.133,4.141-1.839.817-5.634.812-7.622.552a.937.937,0,1,0-.244,1.859c2.241.28,6.422.292,8.621-.7.052-.023,5.06-2.346,5.23-5.685,1.93-1.358,6.619-4.669,8.446-5.9ZM50.54,39.839H49.415a1.883,1.883,0,1,1,0-3.767h1.692a1.321,1.321,0,0,1,1.319,1.319.937.937,0,0,0,1.874,0A3.2,3.2,0,0,0,51.107,34.2h-.193V32.879a.937.937,0,1,0-1.874,0v1.338a3.757,3.757,0,0,0,.375,7.5H50.54a1.883,1.883,0,1,1,0,3.767h-1.69A1.321,1.321,0,0,1,47.53,44.16a.937.937,0,1,0-1.874,0,3.2,3.2,0,0,0,3.193,3.194h.191v.778c-.617-.177-1.275-.394-1.992-.668a23.168,23.168,0,0,0-9.753-1.4,13.586,13.586,0,0,1-1.062-5.283,13.744,13.744,0,1,1,27.488,0,13.59,13.59,0,0,1-2.144,7.36,3.488,3.488,0,0,0-2.936-.687c-.608.139-1.19.327-1.753.507a11.282,11.282,0,0,1-5.975.6V47.335a3.757,3.757,0,0,0-.375-7.5ZM60.515,9.457a.937.937,0,0,0,0-1.325L57.374,4.991a1.516,1.516,0,0,1-.33-1.723,1.568,1.568,0,0,1,1.479-.943l17.426.5A1.562,1.562,0,0,1,77.465,4.34l.5,17.426A1.562,1.562,0,0,1,75.3,22.915l-3.3-3.3a.937.937,0,0,0-1.325,0l-5.922,5.921a21.161,21.161,0,0,0-14.328-5.992ZM49.977,21.41A19.338,19.338,0,0,1,68.463,46.516c-1.77,1.234-3.889,2.728-5.3,3.726a5.19,5.19,0,0,0-.315-.646,15.452,15.452,0,0,0,2.751-8.82,15.618,15.618,0,1,0-31.236,0,15.444,15.444,0,0,0,1,5.474,30.383,30.383,0,0,0-3.723.734A19.366,19.366,0,0,1,49.977,21.41ZM1.874,32a2.8,2.8,0,0,1,1.043-2.187L18.285,17.384a7.172,7.172,0,0,1,9.6.507l7.487,7.487a21.186,21.186,0,0,0-6.563,13.758l-5.917-5.919a.937.937,0,0,0-1.249-.066L4.417,47.074A1.569,1.569,0,0,1,1.874,45.86Z" transform="translate(0 -0.451)"/></g></g></g></svg>