<svg xmlns="http://www.w3.org/2000/svg" width="83" height="83" viewBox="0 0 83 83"><g transform="translate(-1231.668 -1622)"><circle cx="41.5" cy="41.5" r="41.5" transform="translate(1231.668 1622)" fill="#d1ced9"/><g transform="translate(1240.168 1630.074)"><g transform="translate(7.5 7.975)"><path d="M117.013,52.53H84.51a1.5,1.5,0,0,1-1.5-1.5V9.477a1.5,1.5,0,0,1,1.5-1.5h32.5a1.5,1.5,0,0,1,1.5,1.5V51.03A1.5,1.5,0,0,1,117.013,52.53Z" transform="translate(-75.261 -7.977)" fill="#f2fbff"/><path d="M388.94,9.475V51.027a1.5,1.5,0,0,1-1.5,1.5H384.36a1.5,1.5,0,0,0,1.5-1.5V9.475a1.5,1.5,0,0,0-1.5-1.5h3.079A1.5,1.5,0,0,1,388.94,9.475Z" transform="translate(-345.688 -7.975)" fill="#dff6fd"/><g transform="translate(13.325 7.078)"><path d="M206.886,90.575h0a1.59,1.59,0,0,1-1.59-1.59V78.54a1.59,1.59,0,0,1,1.59-1.59h0a1.59,1.59,0,0,1,1.59,1.59V88.985A1.59,1.59,0,0,1,206.886,90.575Z" transform="translate(-198.324 -76.95)" fill="#8ac9fe"/><path d="M276.064,148.767h0a1.59,1.59,0,0,1-1.59-1.59v-3.79a1.59,1.59,0,0,1,1.59-1.59h0a1.59,1.59,0,0,1,1.59,1.59v3.79A1.59,1.59,0,0,1,276.064,148.767Z" transform="translate(-260.403 -135.142)" fill="#978ecb"/><path d="M138.942,117.982h0a1.59,1.59,0,0,1-1.59-1.59v-7.31a1.59,1.59,0,0,1,1.59-1.59h0a1.59,1.59,0,0,1,1.59,1.59v7.31A1.59,1.59,0,0,1,138.942,117.982Z" transform="translate(-137.352 -104.357)" fill="#fe76a8"/><path d="M345.242,117.982h0a1.59,1.59,0,0,1-1.59-1.59v-7.31a1.59,1.59,0,0,1,1.59-1.59h0a1.59,1.59,0,0,1,1.59,1.59v7.31A1.59,1.59,0,0,1,345.242,117.982Z" transform="translate(-322.482 -104.357)" fill="#97da7b"/></g><path d="M56.879,365.913H9.121A1.621,1.621,0,0,1,7.5,364.292h0a1.621,1.621,0,0,1,1.621-1.621H56.879a1.621,1.621,0,0,1,1.621,1.621h0A1.621,1.621,0,0,1,56.879,365.913Z" transform="translate(-7.5 -326.274)" fill="#e19974"/><path d="M193.725,394h3.564a2.469,2.469,0,0,1,2.333,1.662l2.73,7.9a1.3,1.3,0,0,1-1.23,1.727h-11.23a1.3,1.3,0,0,1-1.23-1.727l2.73-7.9A2.468,2.468,0,0,1,193.725,394Z" transform="translate(-170.007 -354.39)" fill="#dc8758"/><g transform="translate(1.093 23.121)"><circle cx="6.655" cy="6.655" r="6.655" fill="#ffe177"/></g><g transform="translate(36.596 23.121)"><circle cx="6.655" cy="6.655" r="6.655" fill="#ffe177"/></g><path d="M246.789,394.032h-3.079a2.459,2.459,0,0,0-.359-.027h3.081A2.434,2.434,0,0,1,246.789,394.032Z" transform="translate(-219.148 -354.392)" fill="#dc8758"/><path d="M463.391,364.286a1.622,1.622,0,0,1-1.621,1.621H458.69a1.621,1.621,0,1,0,0-3.243h3.079A1.621,1.621,0,0,1,463.391,364.286Z" transform="translate(-412.391 -326.268)" fill="#dc8758"/><path d="M250.263,405.295h-3.081a1.3,1.3,0,0,0,1.23-1.727l-2.73-7.9a2.473,2.473,0,0,0-2.333-1.662h3.081a2.434,2.434,0,0,1,.358.027,2.466,2.466,0,0,1,1.974,1.636l2.731,7.9A1.3,1.3,0,0,1,250.263,405.295Z" transform="translate(-219.148 -354.392)" fill="#d77f4a"/><g transform="translate(5.849 23.121)"><path d="M73.055,239.951a6.661,6.661,0,0,1-8.555,6.381,6.658,6.658,0,0,0,0-12.761,6.661,6.661,0,0,1,8.555,6.381Z" transform="translate(-64.5 -233.295)" fill="#ffd15b"/></g><g transform="translate(41.352 23.121)"><path d="M419.035,239.951a6.661,6.661,0,0,1-8.555,6.381,6.658,6.658,0,0,0,0-12.761,6.661,6.661,0,0,1,8.555,6.381Z" transform="translate(-410.48 -233.295)" fill="#ffd15b"/></g><path d="M246.789,394.032h-3.079a2.459,2.459,0,0,0-.359-.027h3.081A2.434,2.434,0,0,1,246.789,394.032Z" transform="translate(-219.148 -354.392)" fill="#dc8758"/></g><g transform="translate(7.5 7.975)"><g transform="translate(19.594 27.049)"><path d="M11.812.5H0A.5.5,0,0,1-.5,0,.5.5,0,0,1,0-.5H11.812a.5.5,0,0,1,.5.5A.5.5,0,0,1,11.812.5Z" transform="translate(0 0)"/><path d="M4.889.5H0A.5.5,0,0,1-.5,0,.5.5,0,0,1,0-.5H4.889a.5.5,0,0,1,.5.5A.5.5,0,0,1,4.889.5Z" transform="translate(3.461 2.781)"/></g><path d="M83.01,31.6a.5.5,0,0,1-.5-.5V9.475a2,2,0,0,1,2-2h32.5a2,2,0,0,1,2,2V27.469a.5.5,0,1,1-1,0V9.475a1,1,0,0,0-1-1H84.51a1,1,0,0,0-1,1V31.1A.5.5,0,0,1,83.01,31.6Z" transform="translate(-75.261 -7.975)"/><path d="M95.514,399.445h-11a2,2,0,0,1-2-2v-3.44a.5.5,0,0,1,1,0v3.44a1,1,0,0,0,1,1h11a.5.5,0,0,1,0,1Z" transform="translate(-75.261 -354.392)"/><path d="M318.143,399.678h-11a.5.5,0,0,1,0-1h11a1,1,0,0,0,1-1v-3.413a.5.5,0,0,1,1,0v3.413A2,2,0,0,1,318.143,399.678Z" transform="translate(-276.392 -354.626)"/><g transform="translate(13.325 7.078)"><path d="M206.886,91.075a2.093,2.093,0,0,1-2.09-2.09V78.54a2.09,2.09,0,1,1,4.181,0V88.985A2.093,2.093,0,0,1,206.886,91.075Zm0-13.625a1.092,1.092,0,0,0-1.09,1.09V88.985a1.09,1.09,0,1,0,2.181,0V78.54A1.092,1.092,0,0,0,206.886,77.45Z" transform="translate(-198.324 -76.95)"/><path d="M276.064,149.267a2.093,2.093,0,0,1-2.09-2.09v-3.79a2.09,2.09,0,0,1,4.181,0v3.79A2.093,2.093,0,0,1,276.064,149.267Zm0-6.971a1.092,1.092,0,0,0-1.09,1.09v3.79a1.09,1.09,0,1,0,2.181,0v-3.79A1.092,1.092,0,0,0,276.064,142.3Z" transform="translate(-260.403 -135.142)"/><path d="M138.942,118.482a2.093,2.093,0,0,1-2.09-2.09v-7.31a2.09,2.09,0,0,1,4.181,0v7.31a2.09,2.09,0,0,1-2.09,2.09Zm0-10.491a1.092,1.092,0,0,0-1.09,1.09v7.31a1.09,1.09,0,1,0,2.181,0v-7.31A1.092,1.092,0,0,0,138.942,107.991Z" transform="translate(-137.352 -104.357)"/><path d="M345.242,118.482a2.093,2.093,0,0,1-2.09-2.09v-7.31a2.09,2.09,0,0,1,4.181,0v7.31A2.093,2.093,0,0,1,345.242,118.482Zm0-10.491a1.092,1.092,0,0,0-1.09,1.09v7.31a1.09,1.09,0,1,0,2.181,0v-7.31A1.092,1.092,0,0,0,345.242,107.991Z" transform="translate(-322.482 -104.357)"/></g><g transform="translate(12.651 3.402)"><path/><path transform="translate(4.283)"/><path transform="translate(8.566)"/><path transform="translate(12.849)"/><path transform="translate(17.132)"/><path transform="translate(21.415)"/><path transform="translate(25.698)"/></g><path d="M56.879,366.413H22.9a.5.5,0,1,1,0-1H56.879a1.121,1.121,0,1,0,0-2.242H9.121a1.121,1.121,0,0,0,0,2.242H19.295a.5.5,0,1,1,0,1H9.121a2.121,2.121,0,0,1,0-4.242H56.879a2.121,2.121,0,1,1,0,4.242Z" transform="translate(-7.5 -326.274)"/><path d="M193.725,393.5h3.564a2.97,2.97,0,0,1,2.806,2l2.73,7.9a1.8,1.8,0,0,1-1.7,2.39h-11.23a1.8,1.8,0,0,1-1.7-2.39l2.73-7.9A2.97,2.97,0,0,1,193.725,393.5Zm7.4,11.29a.8.8,0,0,0,.758-1.063l-2.73-7.9a1.969,1.969,0,0,0-1.861-1.326h-3.564a1.969,1.969,0,0,0-1.861,1.326l-2.73,7.9a.8.8,0,0,0,.758,1.063Z" transform="translate(-170.007 -354.39)"/><g transform="translate(1.093 23.121)"><path d="M6.655-.5A7.155,7.155,0,1,1-.5,6.655,7.164,7.164,0,0,1,6.655-.5Zm0,13.311A6.155,6.155,0,1,0,.5,6.655,6.162,6.162,0,0,0,6.655,12.811Z" transform="translate(0 0)"/><g transform="translate(5.154 3.088)"><path d="M69.764,276.769a2.558,2.558,0,0,1-1.662-.477.5.5,0,1,1,.547-.837,1.672,1.672,0,0,0,1.19.313,1.035,1.035,0,0,0,1.027-.873.8.8,0,0,0-.581-.944,5.983,5.983,0,0,1-1.715-.823,1.515,1.515,0,0,1-.5-1.493A1.707,1.707,0,0,1,69.24,270.3a2.206,2.206,0,0,1,2.08.4l-.678.735.005,0a1.21,1.21,0,0,0-1.119-.181.717.717,0,0,0-.476.566.537.537,0,0,0,.135.521,5.6,5.6,0,0,0,1.431.667,1.793,1.793,0,0,1,1.234,2.053,2.046,2.046,0,0,1-2.006,1.707Z" transform="translate(-68.375 -269.945)"/><path d="M0,1.311a.5.5,0,0,1-.5-.5V0A.5.5,0,0,1,0-.5.5.5,0,0,1,.5,0V.811A.5.5,0,0,1,0,1.311Z" transform="translate(1.467 6.324)"/><path d="M0,1.252a.5.5,0,0,1-.5-.5V0A.5.5,0,0,1,0-.5.5.5,0,0,1,.5,0V.752A.5.5,0,0,1,0,1.252Z" transform="translate(1.467)"/></g></g><g transform="translate(36.596 23.121)"><path d="M6.655-.5A7.155,7.155,0,1,1-.5,6.655,7.164,7.164,0,0,1,6.655-.5Zm0,13.311A6.155,6.155,0,1,0,.5,6.655,6.162,6.162,0,0,0,6.655,12.811Z" transform="translate(0 0)"/><g transform="translate(5.154 3.088)"><path d="M415.743,276.769a2.558,2.558,0,0,1-1.662-.477.5.5,0,1,1,.547-.837,1.673,1.673,0,0,0,1.19.313,1.035,1.035,0,0,0,1.027-.873.8.8,0,0,0-.581-.944,5.984,5.984,0,0,1-1.715-.823,1.516,1.516,0,0,1-.5-1.493,1.707,1.707,0,0,1,1.171-1.338,2.206,2.206,0,0,1,2.08.4l-.678.735.005,0a1.21,1.21,0,0,0-1.119-.181.717.717,0,0,0-.476.566.537.537,0,0,0,.135.521,5.6,5.6,0,0,0,1.431.667,1.793,1.793,0,0,1,1.234,2.053,2.046,2.046,0,0,1-2.006,1.707Z" transform="translate(-414.354 -269.945)"/><path d="M0,1.311a.5.5,0,0,1-.5-.5V0A.5.5,0,0,1,0-.5.5.5,0,0,1,.5,0V.811A.5.5,0,0,1,0,1.311Z" transform="translate(1.467 6.324)"/><path d="M0,1.252a.5.5,0,0,1-.5-.5V0A.5.5,0,0,1,0-.5.5.5,0,0,1,.5,0V.752A.5.5,0,0,1,0,1.252Z" transform="translate(1.467)"/></g></g></g></g></g></svg>