<svg xmlns="http://www.w3.org/2000/svg" xmlns:xlink="http://www.w3.org/1999/xlink" width="360.646" height="330.423" viewBox="0 0 360.646 330.423"><defs><clipPath id="a"><rect width="100.172" height="50.086" fill="#b15815"/></clipPath></defs><g transform="translate(-1227.332 -721.288)"><g transform="translate(1227.332 751.451)"><path d="M149.061,0A149.06,149.06,0,1,1,0,149.06,149.061,149.061,0,0,1,149.061,0Z" transform="translate(0)" fill="#e8e7e7" opacity="0.444" style="mix-blend-mode:multiply;isolation:isolate"/><g transform="translate(58.199 61.622)"><path d="M418.263,52.159a2.026,2.026,0,1,1-2.026-1.935A1.982,1.982,0,0,1,418.263,52.159Z" transform="translate(-414.214 -50.224)" fill="#fff"/><path d="M426.708,52.159a2.026,2.026,0,1,1-2.023-1.935A1.981,1.981,0,0,1,426.708,52.159Z" transform="translate(-404.444 -50.224)" fill="#fff"/><path d="M435.154,52.159a2.026,2.026,0,1,1-2.023-1.935A1.981,1.981,0,0,1,435.154,52.159Z" transform="translate(-394.674 -50.224)" fill="#fff"/><path d="M443.6,52.159a2.026,2.026,0,1,1-2.025-1.935A1.981,1.981,0,0,1,443.6,52.159Z" transform="translate(-384.903 -50.224)" fill="#fff"/><path d="M452.047,52.159a2.026,2.026,0,1,1-2.023-1.935A1.981,1.981,0,0,1,452.047,52.159Z" transform="translate(-375.133 -50.224)" fill="#fff"/><path d="M460.493,52.159a2.026,2.026,0,1,1-2.023-1.935A1.981,1.981,0,0,1,460.493,52.159Z" transform="translate(-365.363 -50.224)" fill="#fff"/><path d="M468.94,52.159a2.026,2.026,0,1,1-2.025-1.935A1.983,1.983,0,0,1,468.94,52.159Z" transform="translate(-355.592 -50.224)" fill="#fff"/><path d="M477.386,52.159a2.026,2.026,0,1,1-2.023-1.935A1.981,1.981,0,0,1,477.386,52.159Z" transform="translate(-345.822 -50.224)" fill="#fff"/><path d="M485.832,52.159a2.026,2.026,0,1,1-2.023-1.935A1.981,1.981,0,0,1,485.832,52.159Z" transform="translate(-336.051 -50.224)" fill="#fff"/><path d="M494.279,52.159a2.026,2.026,0,1,1-2.025-1.935A1.983,1.983,0,0,1,494.279,52.159Z" transform="translate(-326.281 -50.224)" fill="#fff"/><path d="M502.725,52.159a2.026,2.026,0,1,1-2.025-1.935A1.982,1.982,0,0,1,502.725,52.159Z" transform="translate(-316.511 -50.224)" fill="#fff"/><g transform="translate(0 15.485)"><path d="M418.263,59.667a2.026,2.026,0,1,1-2.026-1.935A1.982,1.982,0,0,1,418.263,59.667Z" transform="translate(-414.214 -57.732)" fill="#fff"/><path d="M426.708,59.667a2.026,2.026,0,1,1-2.023-1.935A1.981,1.981,0,0,1,426.708,59.667Z" transform="translate(-404.444 -57.732)" fill="#fff"/><path d="M435.154,59.667a2.026,2.026,0,1,1-2.023-1.935A1.981,1.981,0,0,1,435.154,59.667Z" transform="translate(-394.674 -57.732)" fill="#fff"/><path d="M443.6,59.667a2.026,2.026,0,1,1-2.025-1.935A1.981,1.981,0,0,1,443.6,59.667Z" transform="translate(-384.903 -57.732)" fill="#fff"/><path d="M452.047,59.667a2.026,2.026,0,1,1-2.023-1.935A1.981,1.981,0,0,1,452.047,59.667Z" transform="translate(-375.133 -57.732)" fill="#fff"/><path d="M460.493,59.667a2.026,2.026,0,1,1-2.023-1.935A1.981,1.981,0,0,1,460.493,59.667Z" transform="translate(-365.363 -57.732)" fill="#fff"/><path d="M468.94,59.667a2.026,2.026,0,1,1-2.025-1.935A1.983,1.983,0,0,1,468.94,59.667Z" transform="translate(-355.592 -57.732)" fill="#fff"/><path d="M477.386,59.667a2.026,2.026,0,1,1-2.023-1.935A1.981,1.981,0,0,1,477.386,59.667Z" transform="translate(-345.822 -57.732)" fill="#fff"/><path d="M485.832,59.667a2.026,2.026,0,1,1-2.023-1.935A1.981,1.981,0,0,1,485.832,59.667Z" transform="translate(-336.051 -57.732)" fill="#fff"/><path d="M494.279,59.667a2.026,2.026,0,1,1-2.025-1.935A1.983,1.983,0,0,1,494.279,59.667Z" transform="translate(-326.281 -57.732)" fill="#fff"/><path d="M502.725,59.667a2.026,2.026,0,1,1-2.025-1.935A1.982,1.982,0,0,1,502.725,59.667Z" transform="translate(-316.511 -57.732)" fill="#fff"/></g><g transform="translate(0 30.971)"><ellipse cx="2.024" cy="1.936" rx="2.024" ry="1.936" fill="#fff"/><path d="M426.708,67.175a2.026,2.026,0,1,1-2.023-1.935A1.982,1.982,0,0,1,426.708,67.175Z" transform="translate(-404.444 -65.239)" fill="#fff"/><ellipse cx="2.024" cy="1.936" rx="2.024" ry="1.936" transform="translate(36.433)" fill="#fff"/><path d="M443.6,67.175a2.026,2.026,0,1,1-2.025-1.935A1.983,1.983,0,0,1,443.6,67.175Z" transform="translate(-384.903 -65.239)" fill="#fff"/><path d="M452.047,67.175a2.026,2.026,0,1,1-2.023-1.935A1.982,1.982,0,0,1,452.047,67.175Z" transform="translate(-375.133 -65.239)" fill="#fff"/><ellipse cx="2.024" cy="1.936" rx="2.024" ry="1.936" transform="translate(91.083)" fill="#fff"/><path d="M468.94,67.175a2.026,2.026,0,1,1-2.025-1.935A1.984,1.984,0,0,1,468.94,67.175Z" transform="translate(-355.591 -65.239)" fill="#fff"/><ellipse cx="2.024" cy="1.936" rx="2.024" ry="1.936" transform="translate(127.517)" fill="#fff"/><ellipse cx="2.024" cy="1.936" rx="2.024" ry="1.936" transform="translate(145.733)" fill="#fff"/><path d="M494.279,67.175a2.026,2.026,0,1,1-2.025-1.935A1.984,1.984,0,0,1,494.279,67.175Z" transform="translate(-326.28 -65.239)" fill="#fff"/><path d="M502.725,67.175A2.026,2.026,0,1,1,500.7,65.24,1.983,1.983,0,0,1,502.725,67.175Z" transform="translate(-316.51 -65.239)" fill="#fff"/></g><g transform="translate(0 46.455)"><ellipse cx="2.024" cy="1.936" rx="2.024" ry="1.936" transform="translate(0 0.001)" fill="#fff"/><path d="M426.708,74.684a2.026,2.026,0,1,1-2.023-1.937A1.98,1.98,0,0,1,426.708,74.684Z" transform="translate(-404.444 -72.747)" fill="#fff"/><ellipse cx="2.024" cy="1.936" rx="2.024" ry="1.936" transform="translate(36.433 0.001)" fill="#fff"/><path d="M443.6,74.684a2.026,2.026,0,1,1-2.025-1.937A1.981,1.981,0,0,1,443.6,74.684Z" transform="translate(-384.903 -72.747)" fill="#fff"/><path d="M452.047,74.684a2.026,2.026,0,1,1-2.023-1.937A1.981,1.981,0,0,1,452.047,74.684Z" transform="translate(-375.133 -72.747)" fill="#fff"/><ellipse cx="2.024" cy="1.936" rx="2.024" ry="1.936" transform="translate(91.083 0.001)" fill="#fff"/><path d="M468.94,74.684a2.026,2.026,0,1,1-2.025-1.937A1.983,1.983,0,0,1,468.94,74.684Z" transform="translate(-355.591 -72.747)" fill="#fff"/><ellipse cx="2.024" cy="1.936" rx="2.024" ry="1.936" transform="translate(127.517 0.001)" fill="#fff"/><ellipse cx="2.024" cy="1.936" rx="2.024" ry="1.936" transform="translate(145.733 0.001)" fill="#fff"/><path d="M494.279,74.684a2.026,2.026,0,1,1-2.025-1.937A1.982,1.982,0,0,1,494.279,74.684Z" transform="translate(-326.28 -72.747)" fill="#fff"/><path d="M502.725,74.684a2.026,2.026,0,1,1-2.025-1.937A1.981,1.981,0,0,1,502.725,74.684Z" transform="translate(-316.51 -72.747)" fill="#fff"/></g><g transform="translate(0 61.94)"><path d="M418.263,82.192a2.026,2.026,0,1,1-2.026-1.937A1.981,1.981,0,0,1,418.263,82.192Z" transform="translate(-414.214 -80.255)" fill="#fff"/><path d="M426.708,82.192a2.026,2.026,0,1,1-2.023-1.937A1.98,1.98,0,0,1,426.708,82.192Z" transform="translate(-404.444 -80.255)" fill="#fff"/><path d="M435.154,82.192a2.026,2.026,0,1,1-2.023-1.937A1.981,1.981,0,0,1,435.154,82.192Z" transform="translate(-394.674 -80.255)" fill="#fff"/><path d="M443.6,82.192a2.026,2.026,0,1,1-2.025-1.937A1.981,1.981,0,0,1,443.6,82.192Z" transform="translate(-384.903 -80.255)" fill="#fff"/><path d="M452.047,82.192a2.026,2.026,0,1,1-2.023-1.937A1.981,1.981,0,0,1,452.047,82.192Z" transform="translate(-375.133 -80.255)" fill="#fff"/><path d="M460.493,82.192a2.026,2.026,0,1,1-2.023-1.937A1.98,1.98,0,0,1,460.493,82.192Z" transform="translate(-365.363 -80.255)" fill="#fff"/><path d="M468.94,82.192a2.026,2.026,0,1,1-2.025-1.937A1.982,1.982,0,0,1,468.94,82.192Z" transform="translate(-355.592 -80.255)" fill="#fff"/><path d="M477.386,82.192a2.026,2.026,0,1,1-2.023-1.937A1.98,1.98,0,0,1,477.386,82.192Z" transform="translate(-345.822 -80.255)" fill="#fff"/><path d="M485.832,82.192a2.026,2.026,0,1,1-2.023-1.937A1.981,1.981,0,0,1,485.832,82.192Z" transform="translate(-336.051 -80.255)" fill="#fff"/><path d="M494.279,82.192a2.026,2.026,0,1,1-2.025-1.937A1.982,1.982,0,0,1,494.279,82.192Z" transform="translate(-326.281 -80.255)" fill="#fff"/><path d="M502.725,82.192a2.026,2.026,0,1,1-2.025-1.937A1.981,1.981,0,0,1,502.725,82.192Z" transform="translate(-316.511 -80.255)" fill="#fff"/></g><g transform="translate(0 77.425)"><ellipse cx="2.024" cy="1.936" rx="2.024" ry="1.936" transform="translate(0 0)" fill="#fff"/><path d="M426.708,89.7a2.026,2.026,0,1,1-2.023-1.937A1.98,1.98,0,0,1,426.708,89.7Z" transform="translate(-404.444 -87.763)" fill="#fff"/><ellipse cx="2.024" cy="1.936" rx="2.024" ry="1.936" transform="translate(36.433 0)" fill="#fff"/><path d="M443.6,89.7a2.026,2.026,0,1,1-2.025-1.937A1.981,1.981,0,0,1,443.6,89.7Z" transform="translate(-384.903 -87.763)" fill="#fff"/><path d="M452.047,89.7a2.026,2.026,0,1,1-2.023-1.937A1.981,1.981,0,0,1,452.047,89.7Z" transform="translate(-375.133 -87.763)" fill="#fff"/><ellipse cx="2.024" cy="1.936" rx="2.024" ry="1.936" transform="translate(91.083 0)" fill="#fff"/><path d="M468.94,89.7a2.026,2.026,0,1,1-2.025-1.937A1.983,1.983,0,0,1,468.94,89.7Z" transform="translate(-355.591 -87.763)" fill="#fff"/><ellipse cx="2.024" cy="1.936" rx="2.024" ry="1.936" transform="translate(127.517 0)" fill="#fff"/><ellipse cx="2.024" cy="1.936" rx="2.024" ry="1.936" transform="translate(145.733 0)" fill="#fff"/><path d="M494.279,89.7a2.026,2.026,0,1,1-2.025-1.937A1.982,1.982,0,0,1,494.279,89.7Z" transform="translate(-326.28 -87.763)" fill="#fff"/><path d="M502.725,89.7a2.026,2.026,0,1,1-2.025-1.937A1.981,1.981,0,0,1,502.725,89.7Z" transform="translate(-316.51 -87.763)" fill="#fff"/></g><g transform="translate(0 92.911)"><ellipse cx="2.024" cy="1.936" rx="2.024" ry="1.936" fill="#fff"/><path d="M426.708,97.206a2.026,2.026,0,1,1-2.023-1.935A1.98,1.98,0,0,1,426.708,97.206Z" transform="translate(-404.444 -95.271)" fill="#fff"/><ellipse cx="2.024" cy="1.936" rx="2.024" ry="1.936" transform="translate(36.433)" fill="#fff"/><path d="M443.6,97.206a2.026,2.026,0,1,1-2.025-1.935A1.981,1.981,0,0,1,443.6,97.206Z" transform="translate(-384.903 -95.271)" fill="#fff"/><path d="M452.047,97.206a2.026,2.026,0,1,1-2.023-1.935A1.981,1.981,0,0,1,452.047,97.206Z" transform="translate(-375.133 -95.271)" fill="#fff"/><ellipse cx="2.024" cy="1.936" rx="2.024" ry="1.936" transform="translate(91.083)" fill="#fff"/><path d="M468.94,97.206a2.026,2.026,0,1,1-2.025-1.935A1.983,1.983,0,0,1,468.94,97.206Z" transform="translate(-355.591 -95.271)" fill="#fff"/><ellipse cx="2.024" cy="1.936" rx="2.024" ry="1.936" transform="translate(127.517)" fill="#fff"/><ellipse cx="2.024" cy="1.936" rx="2.024" ry="1.936" transform="translate(145.733)" fill="#fff"/><path d="M494.279,97.206a2.026,2.026,0,1,1-2.025-1.935A1.983,1.983,0,0,1,494.279,97.206Z" transform="translate(-326.28 -95.271)" fill="#fff"/><path d="M502.725,97.206a2.026,2.026,0,1,1-2.025-1.935A1.981,1.981,0,0,1,502.725,97.206Z" transform="translate(-316.51 -95.271)" fill="#fff"/></g><g transform="translate(0 108.396)"><path d="M418.263,104.714a2.026,2.026,0,1,1-2.026-1.935A1.982,1.982,0,0,1,418.263,104.714Z" transform="translate(-414.214 -102.779)" fill="#fff"/><path d="M426.708,104.714a2.026,2.026,0,1,1-2.023-1.935A1.981,1.981,0,0,1,426.708,104.714Z" transform="translate(-404.444 -102.779)" fill="#fff"/><path d="M435.154,104.714a2.026,2.026,0,1,1-2.023-1.935A1.981,1.981,0,0,1,435.154,104.714Z" transform="translate(-394.674 -102.779)" fill="#fff"/><path d="M443.6,104.714a2.026,2.026,0,1,1-2.025-1.935A1.981,1.981,0,0,1,443.6,104.714Z" transform="translate(-384.903 -102.779)" fill="#fff"/><path d="M452.047,104.714a2.026,2.026,0,1,1-2.023-1.935A1.981,1.981,0,0,1,452.047,104.714Z" transform="translate(-375.133 -102.779)" fill="#fff"/><path d="M460.493,104.714a2.026,2.026,0,1,1-2.023-1.935A1.981,1.981,0,0,1,460.493,104.714Z" transform="translate(-365.363 -102.779)" fill="#fff"/><path d="M468.94,104.714a2.026,2.026,0,1,1-2.025-1.935A1.983,1.983,0,0,1,468.94,104.714Z" transform="translate(-355.592 -102.779)" fill="#fff"/><path d="M477.386,104.714a2.026,2.026,0,1,1-2.023-1.935A1.981,1.981,0,0,1,477.386,104.714Z" transform="translate(-345.822 -102.779)" fill="#fff"/><path d="M485.832,104.714a2.026,2.026,0,1,1-2.023-1.935A1.981,1.981,0,0,1,485.832,104.714Z" transform="translate(-336.051 -102.779)" fill="#fff"/><path d="M494.279,104.714a2.026,2.026,0,1,1-2.025-1.935A1.983,1.983,0,0,1,494.279,104.714Z" transform="translate(-326.281 -102.779)" fill="#fff"/><path d="M502.725,104.714a2.026,2.026,0,1,1-2.025-1.935A1.982,1.982,0,0,1,502.725,104.714Z" transform="translate(-316.511 -102.779)" fill="#fff"/></g><g transform="translate(0 123.882)"><ellipse cx="2.024" cy="1.936" rx="2.024" ry="1.936" fill="#fff"/><path d="M426.708,112.222a2.026,2.026,0,1,1-2.023-1.935A1.982,1.982,0,0,1,426.708,112.222Z" transform="translate(-404.444 -110.286)" fill="#fff"/><ellipse cx="2.024" cy="1.936" rx="2.024" ry="1.936" transform="translate(36.433)" fill="#fff"/><path d="M443.6,112.222a2.026,2.026,0,1,1-2.025-1.935A1.983,1.983,0,0,1,443.6,112.222Z" transform="translate(-384.903 -110.286)" fill="#fff"/><path d="M452.047,112.222a2.026,2.026,0,1,1-2.023-1.935A1.982,1.982,0,0,1,452.047,112.222Z" transform="translate(-375.133 -110.286)" fill="#fff"/><ellipse cx="2.024" cy="1.936" rx="2.024" ry="1.936" transform="translate(91.083)" fill="#fff"/><path d="M468.94,112.222a2.026,2.026,0,1,1-2.025-1.935A1.984,1.984,0,0,1,468.94,112.222Z" transform="translate(-355.591 -110.286)" fill="#fff"/><ellipse cx="2.024" cy="1.936" rx="2.024" ry="1.936" transform="translate(127.517)" fill="#fff"/><ellipse cx="2.024" cy="1.936" rx="2.024" ry="1.936" transform="translate(145.733)" fill="#fff"/><path d="M494.279,112.222a2.026,2.026,0,1,1-2.025-1.935A1.984,1.984,0,0,1,494.279,112.222Z" transform="translate(-326.28 -110.286)" fill="#fff"/><path d="M502.725,112.222a2.026,2.026,0,1,1-2.025-1.935A1.983,1.983,0,0,1,502.725,112.222Z" transform="translate(-316.51 -110.286)" fill="#fff"/></g><g transform="translate(0 139.365)"><path d="M418.263,119.731a2.026,2.026,0,1,1-2.026-1.937A1.983,1.983,0,0,1,418.263,119.731Z" transform="translate(-414.214 -117.794)" fill="#fff"/><path d="M426.708,119.731a2.026,2.026,0,1,1-2.023-1.937A1.982,1.982,0,0,1,426.708,119.731Z" transform="translate(-404.444 -117.794)" fill="#fff"/><path d="M435.154,119.731a2.026,2.026,0,1,1-2.023-1.937A1.982,1.982,0,0,1,435.154,119.731Z" transform="translate(-394.674 -117.794)" fill="#fff"/><path d="M443.6,119.731a2.026,2.026,0,1,1-2.025-1.937A1.983,1.983,0,0,1,443.6,119.731Z" transform="translate(-384.903 -117.794)" fill="#fff"/><path d="M452.047,119.731a2.026,2.026,0,1,1-2.023-1.937A1.982,1.982,0,0,1,452.047,119.731Z" transform="translate(-375.133 -117.794)" fill="#fff"/><path d="M460.493,119.731a2.026,2.026,0,1,1-2.023-1.937A1.982,1.982,0,0,1,460.493,119.731Z" transform="translate(-365.363 -117.794)" fill="#fff"/><path d="M468.94,119.731a2.026,2.026,0,1,1-2.025-1.937A1.984,1.984,0,0,1,468.94,119.731Z" transform="translate(-355.592 -117.794)" fill="#fff"/><path d="M477.386,119.731a2.026,2.026,0,1,1-2.023-1.937A1.982,1.982,0,0,1,477.386,119.731Z" transform="translate(-345.822 -117.794)" fill="#fff"/><path d="M485.832,119.731a2.026,2.026,0,1,1-2.023-1.937A1.982,1.982,0,0,1,485.832,119.731Z" transform="translate(-336.051 -117.794)" fill="#fff"/><path d="M494.279,119.731a2.026,2.026,0,1,1-2.025-1.937A1.984,1.984,0,0,1,494.279,119.731Z" transform="translate(-326.281 -117.794)" fill="#fff"/><path d="M502.725,119.731a2.026,2.026,0,1,1-2.025-1.937A1.983,1.983,0,0,1,502.725,119.731Z" transform="translate(-316.511 -117.794)" fill="#fff"/></g><g transform="translate(0 154.851)"><ellipse cx="2.024" cy="1.936" rx="2.024" ry="1.936" transform="translate(0 0.001)" fill="#fff"/><path d="M426.708,127.239a2.026,2.026,0,1,1-2.023-1.937A1.98,1.98,0,0,1,426.708,127.239Z" transform="translate(-404.444 -125.302)" fill="#fff"/><ellipse cx="2.024" cy="1.936" rx="2.024" ry="1.936" transform="translate(36.433 0.001)" fill="#fff"/><path d="M443.6,127.239a2.026,2.026,0,1,1-2.025-1.937A1.981,1.981,0,0,1,443.6,127.239Z" transform="translate(-384.903 -125.302)" fill="#fff"/><path d="M452.047,127.239a2.026,2.026,0,1,1-2.023-1.937A1.981,1.981,0,0,1,452.047,127.239Z" transform="translate(-375.133 -125.302)" fill="#fff"/><ellipse cx="2.024" cy="1.936" rx="2.024" ry="1.936" transform="translate(91.083 0.001)" fill="#fff"/><path d="M468.94,127.239a2.026,2.026,0,1,1-2.025-1.937A1.982,1.982,0,0,1,468.94,127.239Z" transform="translate(-355.591 -125.302)" fill="#fff"/><ellipse cx="2.024" cy="1.936" rx="2.024" ry="1.936" transform="translate(127.517 0.001)" fill="#fff"/><ellipse cx="2.024" cy="1.936" rx="2.024" ry="1.936" transform="translate(145.733 0.001)" fill="#fff"/><path d="M494.279,127.239a2.026,2.026,0,1,1-2.025-1.937A1.982,1.982,0,0,1,494.279,127.239Z" transform="translate(-326.28 -125.302)" fill="#fff"/><path d="M502.725,127.239A2.026,2.026,0,1,1,500.7,125.3,1.981,1.981,0,0,1,502.725,127.239Z" transform="translate(-316.51 -125.302)" fill="#fff"/></g><g transform="translate(0 170.338)"><ellipse cx="2.024" cy="1.936" rx="2.024" ry="1.936" transform="translate(0 0)" fill="#fff"/><path d="M426.708,134.747a2.026,2.026,0,1,1-2.023-1.937A1.98,1.98,0,0,1,426.708,134.747Z" transform="translate(-404.444 -132.81)" fill="#fff"/><ellipse cx="2.024" cy="1.936" rx="2.024" ry="1.936" transform="translate(36.433 0)" fill="#fff"/><path d="M443.6,134.747a2.026,2.026,0,1,1-2.025-1.937A1.981,1.981,0,0,1,443.6,134.747Z" transform="translate(-384.903 -132.81)" fill="#fff"/><path d="M452.047,134.747a2.026,2.026,0,1,1-2.023-1.937A1.981,1.981,0,0,1,452.047,134.747Z" transform="translate(-375.133 -132.81)" fill="#fff"/><ellipse cx="2.024" cy="1.936" rx="2.024" ry="1.936" transform="translate(91.083 0)" fill="#fff"/><path d="M468.94,134.747a2.026,2.026,0,1,1-2.025-1.937A1.982,1.982,0,0,1,468.94,134.747Z" transform="translate(-355.591 -132.81)" fill="#fff"/><ellipse cx="2.024" cy="1.936" rx="2.024" ry="1.936" transform="translate(127.517 0)" fill="#fff"/><ellipse cx="2.024" cy="1.936" rx="2.024" ry="1.936" transform="translate(145.733 0)" fill="#fff"/><path d="M494.279,134.747a2.026,2.026,0,1,1-2.025-1.937A1.982,1.982,0,0,1,494.279,134.747Z" transform="translate(-326.28 -132.81)" fill="#fff"/><path d="M502.725,134.747a2.026,2.026,0,1,1-2.025-1.937A1.981,1.981,0,0,1,502.725,134.747Z" transform="translate(-316.51 -132.81)" fill="#fff"/></g></g></g><g transform="translate(1249.875 755.279)"><g transform="translate(0 0)"><g transform="translate(29.05 35.826)"><path d="M159.451,55.837h-2.117a4.715,4.715,0,0,0-4.319-4.319V49.4h-.678v2.117a4.715,4.715,0,0,0-4.319,4.319H145.9v.678h2.117a4.715,4.715,0,0,0,4.319,4.319v2.117h.678V60.834a4.715,4.715,0,0,0,4.319-4.319h2.117Zm-6.437,4.319V58.378h-.678v1.779a3.979,3.979,0,0,1-3.642-3.557h1.779v-.678h-1.779a3.987,3.987,0,0,1,3.642-3.642v1.779h.678V52.28a3.837,3.837,0,0,1,3.557,3.642h-1.779V56.6h1.779A3.825,3.825,0,0,1,153.014,60.156Z" transform="translate(-60.782 -49.4)" fill="#191e23"/><path d="M317.151,266.137h-2.117a4.715,4.715,0,0,0-4.319-4.319V259.7h-.678v2.117a4.715,4.715,0,0,0-4.32,4.319H303.6v.678h2.117a4.715,4.715,0,0,0,4.32,4.319v2.117h.678v-2.117a4.715,4.715,0,0,0,4.319-4.319h2.117Zm-6.437,4.235v-1.779h-.678v1.779a3.979,3.979,0,0,1-3.642-3.557h1.779v-.678h-1.779a3.987,3.987,0,0,1,3.642-3.642v1.779h.678v-1.779a3.837,3.837,0,0,1,3.557,3.642h-1.779v.678h1.779A3.825,3.825,0,0,1,310.714,270.372Z" transform="translate(-84.917 -81.586)" fill="#191e23"/><path d="M273.551,304.537h-2.117a4.716,4.716,0,0,0-4.319-4.319V298.1h-.678v2.117a4.715,4.715,0,0,0-4.319,4.319H260v.678h2.117a4.715,4.715,0,0,0,4.319,4.319v2.117h.678v-2.117a4.716,4.716,0,0,0,4.319-4.319h2.117Zm-6.437,4.32v-1.779h-.678v1.779a3.979,3.979,0,0,1-3.642-3.557h1.779v-.678h-1.779a3.987,3.987,0,0,1,3.642-3.642v1.779h.678V300.98a3.837,3.837,0,0,1,3.557,3.642h-1.779v.678h1.779A3.825,3.825,0,0,1,267.114,308.856Z" transform="translate(-78.245 -87.464)" fill="#191e23"/><path d="M123.951,121.637h-2.117a4.715,4.715,0,0,0-4.319-4.319V115.2h-.678v2.117a4.715,4.715,0,0,0-4.319,4.319H110.4v.678h2.117a4.715,4.715,0,0,0,4.319,4.319v2.117h.678v-2.117a4.715,4.715,0,0,0,4.319-4.319h2.117Zm-6.437,4.319v-1.779h-.678v1.779a3.979,3.979,0,0,1-3.642-3.557h1.779v-.678h-1.779a3.987,3.987,0,0,1,3.642-3.642v1.779h.678V118.08a3.837,3.837,0,0,1,3.557,3.642h-1.779v.678h1.779A3.825,3.825,0,0,1,117.514,125.956Z" transform="translate(-55.348 -59.471)" fill="#191e23"/><path d="M58.951,241.337H56.834a4.715,4.715,0,0,0-4.319-4.319V234.9h-.678v2.117a4.715,4.715,0,0,0-4.319,4.319H45.4v.678h2.117a4.715,4.715,0,0,0,4.319,4.319v2.117h.678v-2.117a4.715,4.715,0,0,0,4.319-4.319h2.117Zm-6.437,4.235v-1.779h-.678v1.779a3.979,3.979,0,0,1-3.642-3.557h1.779v-.678H48.195a3.987,3.987,0,0,1,3.642-3.642v1.779h.678v-1.779a3.837,3.837,0,0,1,3.557,3.642H54.293v.678h1.779A3.824,3.824,0,0,1,52.514,245.572Z" transform="translate(-45.4 -77.791)" fill="#191e23"/></g><g transform="translate(59.371 61.489)"><g transform="translate(207.079 127.381)"><rect width="6.013" height="6.013" transform="translate(0.398 4.718) rotate(-45)" fill="#7da5cd"/><path d="M330.358,239.416l-4.658-4.658,4.658-4.658,4.658,4.658Zm-3.811-4.658,3.811,3.811,3.811-3.811-3.811-3.811Z" transform="translate(-325.7 -230.1)" fill="#191e23"/></g><g transform="translate(0 85.457)"><rect width="6.013" height="6.013" transform="translate(0.406 4.587) rotate(-45)" fill="#7da5cd"/><path d="M85.858,189.916,81.2,185.258l4.658-4.658,4.658,4.658Zm-3.811-4.743,3.811,3.811,3.811-3.811-3.811-3.811Z" transform="translate(-81.2 -180.6)" fill="#191e23"/></g><g transform="translate(125.518)"><rect width="6.013" height="6.013" transform="translate(0.505 4.697) rotate(-45)" fill="#ffb955"/><path d="M234.058,89.016,229.4,84.358l4.658-4.658,4.658,4.658Zm-3.811-4.658,3.811,3.811,3.811-3.811-3.811-3.811Z" transform="translate(-229.4 -79.7)" fill="#191e23"/></g><g transform="translate(82.069 196.154)"><rect width="6.013" height="6.013" transform="translate(0.353 4.707) rotate(-45)" fill="#ffb955"/><path d="M182.758,320.616l-4.658-4.658,4.658-4.658,4.658,4.658Zm-3.811-4.658,3.811,3.811,3.811-3.811-3.811-3.811Z" transform="translate(-178.1 -311.3)" fill="#191e23"/></g></g><g transform="translate(0 39.214)"><path d="M167.768,337.994H104.247a.847.847,0,1,1,0-1.694h63.521a.847.847,0,1,1,0,1.694Z" transform="translate(-25.227 -96.698)" fill="#191e23"/><path d="M220.768,356.794H157.247a.847.847,0,0,1,0-1.694h63.521a.847.847,0,1,1,0,1.694Z" transform="translate(-33.338 -99.575)" fill="#191e23"/><path d="M268.668,325.194H205.147a.847.847,0,1,1,0-1.694h63.521a.847.847,0,1,1,0,1.694Z" transform="translate(-40.669 -94.739)" fill="#191e23"/><path d="M75.468,222.594H11.947a.847.847,0,1,1,0-1.694H75.468a.847.847,0,1,1,0,1.694Z" transform="translate(-11.1 -79.036)" fill="#191e23"/><path d="M397.668,188.394H334.147a.847.847,0,0,1,0-1.694h63.521a.847.847,0,0,1,0,1.694Z" transform="translate(-60.413 -73.802)" fill="#191e23"/><path d="M90.694,211.494H48.347a.847.847,0,1,1,0-1.694H90.694a.847.847,0,1,1,0,1.694Z" transform="translate(-16.671 -77.337)" fill="#191e23"/><path d="M132.594,82.494H90.247a.847.847,0,1,1,0-1.694h42.347a.847.847,0,1,1,0,1.694Z" transform="translate(-23.084 -57.594)" fill="#191e23"/><path d="M165.894,97.894H123.547a.847.847,0,1,1,0-1.694h42.347a.847.847,0,1,1,0,1.694Z" transform="translate(-28.18 -59.951)" fill="#191e23"/><path d="M297.594,66.194H255.247a.847.847,0,1,1,0-1.694h42.348a.847.847,0,0,1,0,1.694Z" transform="translate(-48.337 -55.099)" fill="#191e23"/><path d="M359.094,202.094H316.747a.847.847,0,1,1,0-1.694h42.348a.847.847,0,1,1,0,1.694Z" transform="translate(-57.75 -75.898)" fill="#191e23"/><path d="M322.637,55.094h-30.49a.847.847,0,1,1,0-1.694h30.49a.847.847,0,1,1,0,1.694Z" transform="translate(-53.985 -53.4)" fill="#191e23"/></g><g transform="translate(84.61 81.731)"><g transform="translate(67.635 64.792)"><path d="M208.2,283.5a78.26,78.26,0,0,1-13.3-1.1l4.15-23.545a66.252,66.252,0,0,0,9.062.678,60.075,60.075,0,0,0,59.964-59.964c0-33.031-.508-8.893-1.44-13.212l23.122-5.759a81.3,81.3,0,0,1,.932,33.539,83.666,83.666,0,0,1-82.408,69.28h0Z" transform="translate(-191.476 -180.177)" fill="#ffb955"/><path d="M207.578,283.851h0a79.246,79.246,0,0,1-13.382-1.1h-.423l4.319-24.392h.423a54.289,54.289,0,0,0,8.978.762,59.568,59.568,0,0,0,59.541-59.541c0-32.862-.508-8.808-1.44-13.128v-.424c-.085,0,23.8-5.929,23.8-5.929v.423a79.345,79.345,0,0,1,1.016,33.709A84.051,84.051,0,0,1,207.578,283.851Zm-12.789-1.779a81.347,81.347,0,0,0,12.789,1.016v0a83.148,83.148,0,0,0,81.985-68.942A79.93,79.93,0,0,0,288.8,181.2l-22.275,5.59a60.525,60.525,0,0,1-59.032,73.261c-33.285,0-5.844-.254-8.724-.677l-3.981,22.7Z" transform="translate(-190.857 -180.1)" fill="#191e23"/></g><path d="M179.425,270.272c-39.976-7.707-67.925-41.5-67.925-82.324s36.927-83.086,82.408-83.848v23.884a60.232,60.232,0,0,0-58.524,59.964c0,32.353,20.242,53.273,48.191,58.778Z" transform="translate(-111.077 -103.677)" fill="#7da5cd"/><path d="M179.688,270.7h-.423C139.119,262.911,111,228.864,111,187.871s37.181-83.509,82.832-84.271h.423v24.731h-.423a59.91,59.91,0,0,0-58.185,59.541c0,32.1,20.157,52.85,47.853,58.355h.423L179.6,270.619Zm13.805-166.172c-45.058.932-81.561,38.282-81.561,83.425s27.611,74.023,67.163,81.815l3.981-22.7a60.547,60.547,0,0,1-48.107-59.117c0-28.542,26.255-59.371,58.524-60.388Z" transform="translate(-111 -103.6)" fill="#191e23"/><g transform="translate(85.203 0)"><path d="M268.591,172.11A60.207,60.207,0,0,0,212.1,127.984V104.1a82.928,82.928,0,0,1,79.613,62.251Z" transform="translate(-211.677 -103.677)" fill="#afb4b9"/><path d="M268.261,172.542v-.424a60.114,60.114,0,0,0-56.238-43.787H211.6V103.6h.423a83.479,83.479,0,0,1,80.037,62.5v.423c.085,0-23.8,5.929-23.8,5.929Zm-55.814-44.973a60.875,60.875,0,0,1,56.407,43.957l22.275-5.59a82.55,82.55,0,0,0-78.682-61.489v23.122Z" transform="translate(-211.6 -103.6)" fill="#191e23"/></g></g><path d="M299.093,161.7a3.4,3.4,0,0,0-3.388,3.388c0,1.863.085.932.254,1.27l-31.083,23.291a3.572,3.572,0,0,0-2.117-.762,3.4,3.4,0,0,0-3.388,3.388l-29.982,7.453a3.36,3.36,0,0,0-5.929,0l-29.982-7.453a3.388,3.388,0,0,0-6.776,0c0,1.863.085.932.254,1.27l-31.083,23.291a3.572,3.572,0,0,0-2.117-.762,3.493,3.493,0,0,0-2.964,1.779L120.81,210.4a3.388,3.388,0,0,0-6.776,0v.678L83.629,226.322a3.451,3.451,0,0,0-2.541-1.186,3.388,3.388,0,1,0,3.388,3.388v-.678L114.881,212.6a3.451,3.451,0,0,0,2.541,1.186,3.857,3.857,0,0,0,2.964-1.779l29.982,7.453a3.388,3.388,0,1,0,6.776,0c0-1.863-.085-.932-.254-1.27L187.973,194.9a3.572,3.572,0,0,0,2.117.762,3.493,3.493,0,0,0,2.964-1.779l29.982,7.453a3.388,3.388,0,0,0,6.776,0l29.982-7.453a3.493,3.493,0,0,0,2.964,1.779,3.4,3.4,0,0,0,3.388-3.388c0-1.863-.085-.932-.254-1.27l31.083-23.291a3.572,3.572,0,0,0,2.117.762,3.388,3.388,0,1,0,0-6.776Z" transform="translate(-21.293 -30.762)" fill="#191e23"/><g transform="translate(44.804 66.655)"><g transform="translate(0 146.692)"><rect width="81.477" height="51.24" rx="5.5" transform="translate(0.339 0.423)" fill="#c8cdd2"/><path d="M141.242,311.087H69.082A5.1,5.1,0,0,1,64,306.006V264.082A5.1,5.1,0,0,1,69.082,259h72.16a5.1,5.1,0,0,1,5.082,5.082v41.924A5.1,5.1,0,0,1,141.242,311.087ZM69,259.847a4.194,4.194,0,0,0-4.235,4.235v41.924A4.194,4.194,0,0,0,69,310.24h72.16a4.194,4.194,0,0,0,4.235-4.235V264.082a4.194,4.194,0,0,0-4.235-4.235H69Z" transform="translate(-64 -259)" fill="#191e23"/><g transform="translate(7.453 4.997)"><g transform="translate(10.502 24.9)"><path d="M95.779,311.3A21.288,21.288,0,0,1,85.7,308.675l5.082-8.046a11.5,11.5,0,0,0,5.082,1.186,11.346,11.346,0,0,0,10.5-7.114l9.147,2.625a19.491,19.491,0,0,1-2.033,4.235,20.67,20.67,0,0,1-17.617,9.74Z" transform="translate(-85.277 -294.361)" fill="#ffb955"/><path d="M95.7,311.493a21.694,21.694,0,0,1-10.248-2.625L85.2,308.7l5.336-8.554.254.169a10.872,10.872,0,0,0,15.076-5.759V294.3c.085,0,9.825,2.795,9.825,2.795v.339a23.085,23.085,0,0,1-2.2,4.319,21.064,21.064,0,0,1-17.871,9.909Zm-9.571-3.049A20.115,20.115,0,0,0,95.7,310.9a20.383,20.383,0,0,0,17.362-9.57,18.23,18.23,0,0,0,1.863-3.9l-8.469-2.456a11.668,11.668,0,0,1-10.672,7.114c-4.658,0-3.388-.423-4.912-1.1l-4.743,7.538Z" transform="translate(-85.2 -294.3)" fill="#191e23"/></g><g transform="translate(0 0.085)"><path d="M81.993,302.974A20.092,20.092,0,0,1,73.1,285.95,20.985,20.985,0,0,1,92.749,265.2v9.486a11.286,11.286,0,0,0-10.163,11.18c0,5.759,1.609,6.776,4.4,8.893L81.908,302.8Z" transform="translate(-72.846 -265.031)" fill="#7da5cd"/><path d="M82.032,303.452l-.254-.169A20.3,20.3,0,0,1,72.8,286a21.27,21.27,0,0,1,19.988-21h.339v10.079h-.254A10.949,10.949,0,0,0,82.963,286c0,5.674,1.609,6.606,4.235,8.639l.254.169-5.336,8.639Zm10.417-37.859A20.709,20.709,0,0,0,73.393,286c0,10.587,2.964,12.7,8.469,16.6l4.743-7.538a11.567,11.567,0,0,1,5.844-20.5v-8.978Z" transform="translate(-72.8 -265)" fill="#191e23"/></g><g transform="translate(21.851)"><path d="M108.979,288.083a8.246,8.246,0,0,0,.169-2.033A11.38,11.38,0,0,0,98.9,274.786V265.3a20.871,20.871,0,0,1,19.226,25.493l-9.147-2.626Z" transform="translate(-98.646 -264.961)" fill="#fff"/><path d="M118.249,291.071l-9.74-2.795v-.254a8.354,8.354,0,0,0,.254-2.033,10.955,10.955,0,0,0-9.909-10.926H98.6V264.9h.339a20.186,20.186,0,0,1,13.3,5.675,20.581,20.581,0,0,1,6.183,20.157v.339Zm-8.978-3.3,8.47,2.456a20.36,20.36,0,0,0-18.548-24.646v8.893a11.558,11.558,0,0,1,10.248,11.519c0,5.929,0,1.27-.169,1.863Z" transform="translate(-98.6 -264.9)" fill="#191e23"/></g></g><g transform="translate(54.459 7.877)"><path d="M149.135,270.841H129.57a1.27,1.27,0,0,1,0-2.541h19.565a1.27,1.27,0,1,1,0,2.541Z" transform="translate(-128.3 -268.3)" fill="#191e23"/><path d="M149.135,275.841H129.57a1.27,1.27,0,0,1,0-2.541h19.565a1.27,1.27,0,1,1,0,2.541Z" transform="translate(-128.3 -269.065)" fill="#191e23"/><path d="M149.135,280.841H129.57a1.27,1.27,0,1,1,0-2.541h19.565a1.27,1.27,0,1,1,0,2.541Z" transform="translate(-128.3 -269.83)" fill="#191e23"/><path d="M149.135,285.841H129.57a1.27,1.27,0,0,1,0-2.541h19.565a1.27,1.27,0,1,1,0,2.541Z" transform="translate(-128.3 -270.596)" fill="#191e23"/><path d="M149.135,295.841H129.57a1.27,1.27,0,0,1,0-2.541h19.565a1.27,1.27,0,1,1,0,2.541Z" transform="translate(-128.3 -272.126)" fill="#191e23"/><path d="M149.135,300.841H129.57a1.27,1.27,0,0,1,0-2.541h19.565a1.27,1.27,0,0,1,0,2.541Z" transform="translate(-128.3 -272.891)" fill="#191e23"/><path d="M149.135,305.841H129.57a1.27,1.27,0,0,1,0-2.541h19.565a1.27,1.27,0,1,1,0,2.541Z" transform="translate(-128.3 -273.657)" fill="#191e23"/><path d="M149.135,310.841H129.57a1.27,1.27,0,0,1,0-2.541h19.565a1.27,1.27,0,1,1,0,2.541Z" transform="translate(-128.3 -274.422)" fill="#191e23"/></g></g><g transform="translate(166.002)"><rect width="81.477" height="51.24" rx="5.5" transform="translate(0.339 0.423)" fill="#7da5cd"/><path d="M337.242,137.887h-72.16A5.1,5.1,0,0,1,260,132.806V90.882a5.1,5.1,0,0,1,5.082-5.082h72.16a5.1,5.1,0,0,1,5.082,5.082v41.924A5.1,5.1,0,0,1,337.242,137.887ZM265,86.647a4.194,4.194,0,0,0-4.235,4.235v41.924A4.194,4.194,0,0,0,265,137.04h72.16a4.194,4.194,0,0,0,4.235-4.235V90.882a4.194,4.194,0,0,0-4.235-4.235Z" transform="translate(-260 -85.8)" fill="#191e23"/><g transform="translate(5.844 18.633)"><g transform="translate(0 14.398)"><path d="M269.417,139.259a2.1,2.1,0,0,1-2.117-2.117v-9.825a2.117,2.117,0,1,1,4.235,0v9.825A2.1,2.1,0,0,1,269.417,139.259Z" transform="translate(-266.961 -124.861)" fill="#ff8c96"/><path d="M269.356,139.537a2.458,2.458,0,0,1-2.456-2.456v-9.825a2.456,2.456,0,0,1,4.912,0v9.825A2.458,2.458,0,0,1,269.356,139.537Zm0-14.059a1.789,1.789,0,0,0-1.779,1.779v9.825a1.789,1.789,0,0,0,1.779,1.779,1.848,1.848,0,0,0,1.779-1.779v-9.825a1.789,1.789,0,0,0-1.779-1.779Z" transform="translate(-266.9 -124.8)" fill="#191e23"/></g><g transform="translate(8.469 17.786)"><path d="M279.417,139.872a2.1,2.1,0,0,1-2.117-2.117v-6.437a2.117,2.117,0,1,1,4.235,0v6.437A2.1,2.1,0,0,1,279.417,139.872Z" transform="translate(-276.961 -128.861)" fill="#ffb955"/><path d="M279.356,140.149a2.458,2.458,0,0,1-2.456-2.456v-6.437a2.456,2.456,0,0,1,4.912,0v6.437A2.458,2.458,0,0,1,279.356,140.149Zm0-10.672a1.789,1.789,0,0,0-1.779,1.779v6.437a1.789,1.789,0,0,0,1.779,1.779,1.848,1.848,0,0,0,1.779-1.779v-6.437A1.789,1.789,0,0,0,279.356,129.478Z" transform="translate(-276.9 -128.8)" fill="#191e23"/></g><g transform="translate(16.939 10.163)"><path d="M289.417,138.494a2.1,2.1,0,0,1-2.117-2.117V122.317a2.117,2.117,0,0,1,4.235,0v14.059A2.1,2.1,0,0,1,289.417,138.494Z" transform="translate(-286.961 -119.861)" fill="#ff8c96"/><path d="M289.356,138.772a2.458,2.458,0,0,1-2.456-2.456V122.256a2.456,2.456,0,0,1,4.912,0v14.059A2.458,2.458,0,0,1,289.356,138.772Zm0-18.294a1.789,1.789,0,0,0-1.779,1.779v14.059a1.789,1.789,0,0,0,1.779,1.779,1.848,1.848,0,0,0,1.779-1.779V122.256A1.789,1.789,0,0,0,289.356,120.478Z" transform="translate(-286.9 -119.8)" fill="#191e23"/></g><g transform="translate(25.408 13.551)"><path d="M299.417,139.106a2.1,2.1,0,0,1-2.117-2.117V126.317a2.117,2.117,0,1,1,4.235,0v10.672A2.1,2.1,0,0,1,299.417,139.106Z" transform="translate(-296.961 -123.861)" fill="#ffb955"/><path d="M299.356,139.384a2.458,2.458,0,0,1-2.456-2.456V126.256a2.456,2.456,0,0,1,4.912,0v10.672A2.458,2.458,0,0,1,299.356,139.384Zm0-14.906a1.789,1.789,0,0,0-1.779,1.779v10.672a1.789,1.789,0,0,0,1.779,1.779,1.848,1.848,0,0,0,1.779-1.779V126.256A1.789,1.789,0,0,0,299.356,124.478Z" transform="translate(-296.9 -123.8)" fill="#191e23"/></g><g transform="translate(33.878 7.623)"><path d="M309.417,138.035a2.1,2.1,0,0,1-2.117-2.117v-16.6a2.117,2.117,0,1,1,4.235,0v16.6A2.1,2.1,0,0,1,309.417,138.035Z" transform="translate(-306.961 -116.861)" fill="#ff8c96"/><path d="M309.356,138.313a2.458,2.458,0,0,1-2.456-2.456v-16.6a2.456,2.456,0,1,1,4.912,0v16.6A2.458,2.458,0,0,1,309.356,138.313Zm0-20.835a1.789,1.789,0,0,0-1.779,1.779v16.6a1.789,1.789,0,0,0,1.779,1.779,1.848,1.848,0,0,0,1.779-1.779v-16.6A1.789,1.789,0,0,0,309.356,117.478Z" transform="translate(-306.9 -116.8)" fill="#191e23"/></g><g transform="translate(42.347)"><path d="M319.417,136.658a2.1,2.1,0,0,1-2.117-2.117V110.317a2.117,2.117,0,0,1,4.235,0V134.54A2.1,2.1,0,0,1,319.417,136.658Z" transform="translate(-316.961 -107.861)" fill="#ffb955"/><path d="M319.356,136.935a2.458,2.458,0,0,1-2.456-2.456V110.256a2.456,2.456,0,0,1,4.912,0v24.223A2.458,2.458,0,0,1,319.356,136.935Zm0-28.458a1.789,1.789,0,0,0-1.779,1.779v24.223a1.789,1.789,0,0,0,1.779,1.779,1.848,1.848,0,0,0,1.779-1.779V110.256A1.789,1.789,0,0,0,319.356,108.478Z" transform="translate(-316.9 -107.8)" fill="#191e23"/></g></g><g transform="translate(4.489 4.235)"><path d="M293.193,112.78l-7.538-6.522-9.57,6.522-8.385-6.691.593-.678,7.792,6.352,9.57-6.606,7.538,6.606,7.284-5.336L312.08,93.3l.593.593-11.688,13.212Z" transform="translate(-265.667 -91.183)" fill="#191e23"/><g transform="translate(44.295)"><path d="M322.065,93.333a2.033,2.033,0,1,1-2.033-2.033A2.061,2.061,0,0,1,322.065,93.333Z" transform="translate(-317.661 -90.877)" fill="#fff"/><path d="M319.971,95.543a2.367,2.367,0,0,1-2.372-2.371,2.371,2.371,0,1,1,2.372,2.371Zm0-3.981a1.694,1.694,0,1,0,1.694,1.694A1.7,1.7,0,0,0,319.971,91.562Z" transform="translate(-317.6 -90.8)" fill="#191e23"/></g><g transform="translate(32.692 13.128)"><path d="M308.365,108.833a2.033,2.033,0,1,1-2.033-2.033A2.061,2.061,0,0,1,308.365,108.833Z" transform="translate(-303.961 -106.377)" fill="#fff"/><path d="M306.271,111.043a2.367,2.367,0,0,1-2.371-2.371,2.371,2.371,0,1,1,2.371,2.371Zm0-3.981a1.694,1.694,0,1,0,1.694,1.694A1.7,1.7,0,0,0,306.271,107.062Z" transform="translate(-303.9 -106.3)" fill="#191e23"/></g><g transform="translate(25.154 18.718)"><path d="M299.465,115.333a2.033,2.033,0,1,1-2.033-2.033A2.061,2.061,0,0,1,299.465,115.333Z" transform="translate(-295.061 -112.961)" fill="#fff"/><path d="M297.371,117.643A2.367,2.367,0,0,1,295,115.271a2.371,2.371,0,1,1,2.371,2.371Zm0-4.065a1.694,1.694,0,1,0,1.694,1.694A1.7,1.7,0,0,0,297.371,113.578Z" transform="translate(-295 -112.9)" fill="#191e23"/></g><g transform="translate(17.617 12.111)"><path d="M290.565,107.633a2.033,2.033,0,1,1-2.033-2.033A2.061,2.061,0,0,1,290.565,107.633Z" transform="translate(-286.161 -105.177)" fill="#fff"/><path d="M288.471,109.843a2.367,2.367,0,0,1-2.371-2.371,2.371,2.371,0,1,1,2.371,2.371Zm0-3.981a1.694,1.694,0,1,0,1.694,1.694A1.7,1.7,0,0,0,288.471,105.862Z" transform="translate(-286.1 -105.1)" fill="#191e23"/></g><g transform="translate(8.046 18.718)"><path d="M279.265,115.333a2.033,2.033,0,1,1-2.033-2.033A2.061,2.061,0,0,1,279.265,115.333Z" transform="translate(-274.861 -112.961)" fill="#fff"/><path d="M277.172,117.643a2.367,2.367,0,0,1-2.372-2.371,2.371,2.371,0,1,1,2.372,2.371Zm0-4.065a1.694,1.694,0,1,0,1.694,1.694A1.7,1.7,0,0,0,277.172,113.578Z" transform="translate(-274.8 -112.9)" fill="#191e23"/></g><g transform="translate(0 12.111)"><path d="M269.665,107.633a2.033,2.033,0,1,1-2.033-2.033A2.061,2.061,0,0,1,269.665,107.633Z" transform="translate(-265.346 -105.177)" fill="#fff"/><path d="M267.671,109.843a2.367,2.367,0,0,1-2.371-2.371,2.371,2.371,0,1,1,2.371,2.371Zm0-3.981a1.694,1.694,0,1,0,1.694,1.694A1.7,1.7,0,0,0,267.671,105.862Z" transform="translate(-265.3 -105.1)" fill="#191e23"/></g></g><g transform="translate(56.746 7.877)"><path d="M347.835,97.641H328.27a1.27,1.27,0,1,1,0-2.541h19.565a1.27,1.27,0,1,1,0,2.541Z" transform="translate(-327 -95.1)" fill="#fff"/><path d="M347.835,102.641H328.27a1.27,1.27,0,1,1,0-2.541h19.565a1.27,1.27,0,1,1,0,2.541Z" transform="translate(-327 -95.865)" fill="#fff"/><path d="M347.835,107.641H328.27a1.27,1.27,0,1,1,0-2.541h19.565a1.27,1.27,0,1,1,0,2.541Z" transform="translate(-327 -96.631)" fill="#fff"/><path d="M347.835,112.641H328.27a1.27,1.27,0,1,1,0-2.541h19.565a1.27,1.27,0,1,1,0,2.541Z" transform="translate(-327 -97.396)" fill="#fff"/><path d="M347.835,122.541H328.27a1.27,1.27,0,1,1,0-2.541h19.565a1.27,1.27,0,1,1,0,2.541Z" transform="translate(-327 -98.911)" fill="#fff"/><path d="M347.835,127.541H328.27a1.27,1.27,0,1,1,0-2.541h19.565a1.27,1.27,0,1,1,0,2.541Z" transform="translate(-327 -99.676)" fill="#fff"/><path d="M347.835,132.541H328.27a1.27,1.27,0,1,1,0-2.541h19.565a1.27,1.27,0,1,1,0,2.541Z" transform="translate(-327 -100.441)" fill="#fff"/><path d="M347.835,137.541H328.27a1.27,1.27,0,1,1,0-2.541h19.565a1.27,1.27,0,1,1,0,2.541Z" transform="translate(-327 -101.207)" fill="#fff"/></g></g></g><g transform="translate(140.932)"><circle cx="27.526" cy="27.526" r="27.526" transform="translate(0.423 0.423)" fill="#ffb955"/><path d="M205.449,63A27.949,27.949,0,1,1,233.4,35.049,27.977,27.977,0,0,1,205.449,63Zm0-55.052a27.1,27.1,0,1,0,27.1,27.1,27.182,27.182,0,0,0-27.1-27.1Z" transform="translate(-177.5 -7.1)" fill="#191e23"/><g transform="translate(3.811 3.811)"><path d="M206.215,59.529a23.715,23.715,0,1,1,23.715-23.715A23.784,23.784,0,0,1,206.215,59.529Z" transform="translate(-182.077 -11.677)" fill="#ffb955"/><path d="M206.138,59.876a24.138,24.138,0,1,1,24.138-24.138A24.182,24.182,0,0,1,206.138,59.876Zm0-47.429a23.291,23.291,0,1,0,23.291,23.291,23.278,23.278,0,0,0-23.291-23.291Z" transform="translate(-182 -11.6)" fill="#191e23"/></g><path d="M219.883,42.606a7.33,7.33,0,0,1-2.541,5.929q-2.541,2.16-7.623,2.287v3.727h-2.287V50.907a11.754,11.754,0,0,1-7.03-2.117c-1.694-1.355-2.795-3.811-3.3-6.522h5.42a4.058,4.058,0,0,0,1.609,2.964,5.646,5.646,0,0,0,3.388,1.355V38.372a.844.844,0,0,1-.339-.085h-.339a16.256,16.256,0,0,1-5.166-1.863,7.556,7.556,0,0,1-2.71-2.71,8.374,8.374,0,0,1-.932-3.981,6.5,6.5,0,0,1,2.456-5.42c1.609-1.27,3.981-1.948,7.03-2.117V19.4H209.8v2.795a11.594,11.594,0,0,1,4.573.847,6.687,6.687,0,0,1,2.964,2.287,15.184,15.184,0,0,1,1.863,4.658h-5.59a3.838,3.838,0,0,0-1.27-2.456,4.073,4.073,0,0,0-2.626-1.27v7.453h.254A34.654,34.654,0,0,1,213.7,34.73a9.455,9.455,0,0,1,4.658,2.964,7.9,7.9,0,0,1,1.524,4.912Zm-12.45-16.431c-2.626.169-3.9,1.355-3.9,3.388s.085,1.1.339,1.525a2.692,2.692,0,0,0,.932,1.016,20.113,20.113,0,0,0,2.626,1.1Zm7.03,16.516A3.359,3.359,0,0,0,214.124,41a2.753,2.753,0,0,0-1.1-1.1,16.873,16.873,0,0,0-3.134-1.1V46.5c3.134-.169,4.658-1.525,4.658-3.811Z" transform="translate(-180.5 -8.983)" fill="#191e23"/></g><g transform="translate(5.675 61.404)"><path d="M60.647,101.274A21.174,21.174,0,1,1,39.474,80.1,21.181,21.181,0,0,1,60.647,101.274Z" transform="translate(-17.877 -79.677)" fill="#ffb955"/><path d="M39.4,122.794a21.6,21.6,0,1,1,21.6-21.6A21.579,21.579,0,0,1,39.4,122.794Zm0-42.347a20.75,20.75,0,1,0,20.75,20.75A20.784,20.784,0,0,0,39.4,80.447Z" transform="translate(-17.8 -79.6)" fill="#191e23"/><g transform="translate(2.964 3.049)"><path d="M40.009,120.119a18.209,18.209,0,1,1,18.209-18.209,18.236,18.236,0,0,1-18.209,18.209Z" transform="translate(-21.377 -83.277)" fill="#ffb955"/><path d="M39.933,120.466a18.633,18.633,0,1,1,18.633-18.633A18.633,18.633,0,0,1,39.933,120.466Zm0-36.5a17.786,17.786,0,1,0,17.786,17.786A17.784,17.784,0,0,0,39.933,83.962Z" transform="translate(-21.3 -83.2)" fill="#191e23"/></g><path d="M50.532,107.086a5.761,5.761,0,0,1-1.948,4.574,9.593,9.593,0,0,1-5.844,1.779v2.88H40.961v-2.795a9.8,9.8,0,0,1-5.42-1.609,8.805,8.805,0,0,1-2.541-5h4.15a3.5,3.5,0,0,0,1.186,2.287,4.12,4.12,0,0,0,2.626,1.016v-6.352h-.508a13.209,13.209,0,0,1-3.981-1.44,4.886,4.886,0,0,1-2.033-2.117,5.819,5.819,0,0,1-.762-3.049,4.856,4.856,0,0,1,1.863-4.15,8.967,8.967,0,0,1,5.42-1.609V89.3H42.74v2.2a8.585,8.585,0,0,1,3.557.678,5.972,5.972,0,0,1,2.287,1.779,12.893,12.893,0,0,1,1.44,3.557H45.7a3.52,3.52,0,0,0-.932-1.863,3.06,3.06,0,0,0-2.033-.932V100.4h.169a12.618,12.618,0,0,1,2.88.847,6.86,6.86,0,0,1,3.557,2.287,6.194,6.194,0,0,1,1.186,3.811Zm-9.571-12.62c-2.033.169-3.049,1.016-3.049,2.626s0,.847.254,1.186a1.662,1.662,0,0,0,.762.762,14.667,14.667,0,0,0,2.033.847Zm5.336,12.7a3.225,3.225,0,0,0-.254-1.355,2.692,2.692,0,0,0-.847-.847,9.417,9.417,0,0,0-2.456-.847v5.929c2.371-.169,3.557-1.186,3.557-2.964Z" transform="translate(-20.126 -81.085)" fill="#191e23"/><g transform="translate(33.539 35.487)"><circle cx="15.245" cy="15.245" r="15.245" transform="translate(0.423 0.423)" fill="#ffb955"/><path d="M73.069,152.837a15.669,15.669,0,1,1,15.669-15.669A15.687,15.687,0,0,1,73.069,152.837Zm0-30.49A14.822,14.822,0,1,0,87.89,137.169,14.893,14.893,0,0,0,73.069,122.347Z" transform="translate(-57.4 -121.5)" fill="#191e23"/><g transform="translate(2.117 2.117)"><path d="M73.528,150.755a13.128,13.128,0,1,1,13.128-13.128A13.139,13.139,0,0,1,73.528,150.755Z" transform="translate(-59.977 -124.077)" fill="#ffb955"/><path d="M73.451,151.1A13.551,13.551,0,1,1,87,137.551,13.591,13.591,0,0,1,73.451,151.1Zm0-26.255a12.7,12.7,0,1,0,12.7,12.7A12.687,12.687,0,0,0,73.451,124.847Z" transform="translate(-59.9 -124)" fill="#191e23"/></g><path d="M81.1,141.389a4.049,4.049,0,0,1-1.44,3.3,7.185,7.185,0,0,1-4.235,1.27V148h-1.27v-2.033a5.943,5.943,0,0,1-3.9-1.186,6.506,6.506,0,0,1-1.863-3.642h2.964a2.918,2.918,0,0,0,.847,1.694,3.127,3.127,0,0,0,1.863.762v-4.574h-.339A8.642,8.642,0,0,1,70.856,138a5.227,5.227,0,0,1-1.525-1.525,4.455,4.455,0,0,1-.508-2.2,3.439,3.439,0,0,1,1.355-2.964,7.083,7.083,0,0,1,3.9-1.186V128.6h1.27v1.525a5.656,5.656,0,0,1,2.541.508A3.033,3.033,0,0,1,79.5,131.9a7.052,7.052,0,0,1,1.016,2.626H77.462a2.3,2.3,0,0,0-.678-1.355,2.552,2.552,0,0,0-1.44-.678v4.15h.169a7.9,7.9,0,0,1,2.033.593,4.379,4.379,0,0,1,2.541,1.694,4.149,4.149,0,0,1,.847,2.71Zm-6.945-9.147c-1.44.085-2.2.762-2.2,1.863s0,.593.169.847a1.139,1.139,0,0,0,.508.593,6.631,6.631,0,0,0,1.44.593v-3.9Zm3.9,9.232a1.537,1.537,0,0,0-.169-.932,1.978,1.978,0,0,0-.593-.593,8.148,8.148,0,0,0-1.779-.593v4.319c1.694-.085,2.541-.847,2.541-2.117Z" transform="translate(-59.084 -122.587)" fill="#191e23"/></g></g><g transform="translate(241.127 211.822)"><g transform="translate(0 26.679)"><path d="M338.647,310.374A21.174,21.174,0,1,1,317.474,289.2,21.182,21.182,0,0,1,338.647,310.374Z" transform="translate(-295.877 -288.777)" fill="#ffb955"/><path d="M317.4,331.894a21.6,21.6,0,1,1,21.6-21.6A21.579,21.579,0,0,1,317.4,331.894Zm0-42.348a20.75,20.75,0,1,0,20.75,20.75A20.784,20.784,0,0,0,317.4,289.547Z" transform="translate(-295.8 -288.7)" fill="#191e23"/><g transform="translate(2.964 3.049)"><path d="M318.009,329.219a18.209,18.209,0,1,1,18.209-18.209A18.236,18.236,0,0,1,318.009,329.219Z" transform="translate(-299.377 -292.377)" fill="#ffb955"/><path d="M317.933,329.566a18.633,18.633,0,1,1,18.633-18.633A18.633,18.633,0,0,1,317.933,329.566Zm0-36.5a17.786,17.786,0,1,0,17.786,17.786A17.784,17.784,0,0,0,317.933,293.062Z" transform="translate(-299.3 -292.3)" fill="#191e23"/></g><path d="M328.532,316.286a5.761,5.761,0,0,1-1.948,4.573,9.593,9.593,0,0,1-5.844,1.779v2.88h-1.779v-2.795a9.8,9.8,0,0,1-5.42-1.609,8.806,8.806,0,0,1-2.541-5h4.15a3.5,3.5,0,0,0,1.186,2.287,4.12,4.12,0,0,0,2.626,1.016v-6.352h-.508a13.212,13.212,0,0,1-3.981-1.44,4.886,4.886,0,0,1-2.033-2.117,5.819,5.819,0,0,1-.762-3.049,4.856,4.856,0,0,1,1.863-4.15,8.967,8.967,0,0,1,5.42-1.609v-2.2h1.779v2.2a8.585,8.585,0,0,1,3.557.678,5.973,5.973,0,0,1,2.287,1.779,12.894,12.894,0,0,1,1.44,3.557H323.7a3.52,3.52,0,0,0-.932-1.863,3.06,3.06,0,0,0-2.033-.932V309.6h.169a12.619,12.619,0,0,1,2.88.847,6.86,6.86,0,0,1,3.557,2.287,6.2,6.2,0,0,1,1.186,3.811Zm-9.571-12.7c-2.033.169-3.049,1.016-3.049,2.626s0,.847.254,1.186a1.661,1.661,0,0,0,.762.762,14.664,14.664,0,0,0,2.033.847Zm5.336,12.7a3.227,3.227,0,0,0-.254-1.355,2.691,2.691,0,0,0-.847-.847,9.417,9.417,0,0,0-2.456-.847v5.929c2.371-.169,3.557-1.186,3.557-2.964Z" transform="translate(-298.126 -290.2)" fill="#191e23"/></g><g transform="translate(33.031)"><circle cx="15.245" cy="15.245" r="15.245" transform="translate(0.423 0.423)" fill="#ffb955"/><path d="M350.469,288.537a15.669,15.669,0,1,1,15.669-15.669A15.687,15.687,0,0,1,350.469,288.537Zm0-30.49a14.822,14.822,0,1,0,14.822,14.822A14.893,14.893,0,0,0,350.469,258.047Z" transform="translate(-334.8 -257.2)" fill="#191e23"/><g transform="translate(2.117 2.117)"><path d="M350.928,286.455a13.128,13.128,0,1,1,13.128-13.128A13.139,13.139,0,0,1,350.928,286.455Z" transform="translate(-337.376 -259.777)" fill="#ffb955"/><path d="M350.851,286.8A13.551,13.551,0,1,1,364.4,273.251,13.591,13.591,0,0,1,350.851,286.8Zm0-26.255a12.7,12.7,0,1,0,12.7,12.7A12.687,12.687,0,0,0,350.851,260.547Z" transform="translate(-337.3 -259.7)" fill="#191e23"/></g><path d="M358.5,277.089a4.049,4.049,0,0,1-1.44,3.3,7.185,7.185,0,0,1-4.235,1.27V283.7h-1.27v-2.033a5.943,5.943,0,0,1-3.9-1.186,6.506,6.506,0,0,1-1.863-3.642h2.964a2.918,2.918,0,0,0,.847,1.694,3.126,3.126,0,0,0,1.863.762v-4.573h-.339a8.641,8.641,0,0,1-2.879-1.016,5.228,5.228,0,0,1-1.525-1.525,4.455,4.455,0,0,1-.508-2.2,3.439,3.439,0,0,1,1.355-2.964,7.084,7.084,0,0,1,3.9-1.186V264.3h1.27v1.525a5.656,5.656,0,0,1,2.541.508,3.032,3.032,0,0,1,1.609,1.27,7.053,7.053,0,0,1,1.016,2.626h-3.049a2.075,2.075,0,0,0-.677-1.355,2.552,2.552,0,0,0-1.44-.678v4.15h.169a7.9,7.9,0,0,1,2.033.593,4.379,4.379,0,0,1,2.541,1.694,4.149,4.149,0,0,1,.847,2.71Zm-6.945-9.062c-1.44.085-2.2.762-2.2,1.863s0,.593.169.847a1.139,1.139,0,0,0,.508.593,6.639,6.639,0,0,0,1.44.593v-3.9Zm3.9,9.147a1.537,1.537,0,0,0-.169-.932,1.979,1.979,0,0,0-.593-.593,8.151,8.151,0,0,0-1.779-.593v4.319c1.694-.085,2.541-.847,2.541-2.117Z" transform="translate(-336.483 -258.287)" fill="#191e23"/></g></g></g></g><g transform="translate(1300.715 821.459) rotate(-90)"><g transform="translate(0)" clip-path="url(#a)"><path d="M76.9,50.086a26.818,26.818,0,0,0-53.636,0H0a50.086,50.086,0,0,1,100.172,0Z" transform="translate(0 0)" fill="#b15815"/></g></g></g></svg>