<svg xmlns="http://www.w3.org/2000/svg" width="83" height="83" viewBox="0 0 83 83"><g transform="translate(11209.592 9978)"><circle cx="41.5" cy="41.5" r="41.5" transform="translate(-11209.592 -9978)" fill="#d1ced9"/><g transform="translate(-11196.722 -10018.036)"><g transform="translate(0.882 61.015)"><g transform="translate(0 17.409)"><path d="M4.5,224.391H14.9a.5.5,0,0,1,.5.5v23.8H4v-23.8a.5.5,0,0,1,.5-.5Z" transform="translate(-4 -224.391)" fill="#deddff" fill-rule="evenodd"/></g><g transform="translate(9.296 17.409)"><path d="M89.225,224.391h1.6a.5.5,0,0,1,.5.5v23.8h-2.1Z" transform="translate(-89.225 -224.391)" fill="#c6c6f7" fill-rule="evenodd"/></g><g transform="translate(10.652 3.892)"><path d="M102.717,100.465h22.207a1.062,1.062,0,0,1,1.059,1.056v36.766H101.658V101.521A1.061,1.061,0,0,1,102.717,100.465Z" transform="translate(-101.658 -100.465)" fill="#deddff" fill-rule="evenodd"/></g><g transform="translate(14.176 8.066)"><path d="M134.842,138.735h4.992a.878.878,0,0,1,.874.874V144.6a.878.878,0,0,1-.874.874h-4.992a.878.878,0,0,1-.874-.874v-4.992A.878.878,0,0,1,134.842,138.735Z" transform="translate(-133.968 -138.735)" fill="#3bbdf3" fill-rule="evenodd"/></g><g transform="translate(24.714 8.066)"><path d="M231.448,138.735h4.992a.878.878,0,0,1,.874.874V144.6a.878.878,0,0,1-.874.874h-4.992a.878.878,0,0,1-.874-.874v-4.992A.878.878,0,0,1,231.448,138.735Z" transform="translate(-230.574 -138.735)" fill="#3bbdf3" fill-rule="evenodd"/></g><g transform="translate(14.176 17.939)"><path d="M134.842,229.246h4.992a.875.875,0,0,1,.874.871v4.992a.878.878,0,0,1-.874.874h-4.992a.878.878,0,0,1-.874-.874v-4.992A.875.875,0,0,1,134.842,229.246Z" transform="translate(-133.968 -229.246)" fill="#3bbdf3" fill-rule="evenodd"/></g><g transform="translate(24.714 17.939)"><path d="M231.448,229.246h4.992a.875.875,0,0,1,.874.871v4.992a.878.878,0,0,1-.874.874h-4.992a.878.878,0,0,1-.874-.874v-4.992A.875.875,0,0,1,231.448,229.246Z" transform="translate(-230.574 -229.246)" fill="#3bbdf3" fill-rule="evenodd"/></g><g transform="translate(17.548 28.562)"><path d="M165.932,326.634h8.422a1.06,1.06,0,0,1,1.056,1.059v12.094H164.876V327.693A1.06,1.06,0,0,1,165.932,326.634Z" transform="translate(-164.876 -326.634)" fill="#575b82" fill-rule="evenodd"/></g><g transform="translate(13.391 0)"><path d="M127.723,64.783h16.936a.963.963,0,0,1,.959.959v2.933H126.767V65.742A.961.961,0,0,1,127.723,64.783Z" transform="translate(-126.767 -64.783)" fill="#c6c6f7" fill-rule="evenodd"/></g><g transform="translate(28.056 12.703)"><path d="M274.671,208.16A13.46,13.46,0,1,0,261.212,194.7,13.484,13.484,0,0,0,274.671,208.16Z" transform="translate(-261.212 -181.24)" fill="#ecebff" fill-rule="evenodd"/></g><g transform="translate(33.304 12.703)"><path d="M309.326,184.037a13.472,13.472,0,0,1,16.421,0l-2.792,2.792a9.568,9.568,0,0,0-10.84,0Z" transform="translate(-309.326 -181.246)" fill="#00d696" fill-rule="evenodd"/></g><g transform="translate(28.054 17.954)"><path d="M263.991,245.8a13.464,13.464,0,0,1,0-16.421l2.789,2.789a9.567,9.567,0,0,0,0,10.84Z" transform="translate(-261.198 -229.381)" fill="#5170ed" fill-rule="evenodd"/></g><g transform="translate(33.304 34.042)"><path d="M325.747,379.669a13.472,13.472,0,0,1-16.421,0l2.789-2.789a9.578,9.578,0,0,0,10.84,0Z" transform="translate(-309.326 -376.88)" fill="#ff5ba8" fill-rule="evenodd"/></g><g transform="translate(49.392 17.954)"><path d="M459.614,229.381a13.459,13.459,0,0,1,0,16.418l-2.789-2.789a9.568,9.568,0,0,0,0-10.84Z" transform="translate(-456.825 -229.381)" fill="#8399fe" fill-rule="evenodd"/></g><g transform="translate(34.589 14.5)"><path d="M334.961,200l-1.506,1.506a9.568,9.568,0,0,0-10.84,0l-1.5-1.506a11.657,11.657,0,0,1,13.85,0Z" transform="translate(-321.111 -197.718)" fill="#00c78b" fill-rule="evenodd"/></g><g transform="translate(29.853 19.236)"><path d="M279.967,241.14l1.506,1.506a9.568,9.568,0,0,0,0,10.84l-1.506,1.506a11.673,11.673,0,0,1,0-13.853Z" transform="translate(-277.69 -241.14)" fill="#4a68e0" fill-rule="evenodd"/></g><g transform="translate(34.589 34.042)"><path d="M321.112,378.382l1.5-1.5a9.578,9.578,0,0,0,10.84,0l1.506,1.5a11.657,11.657,0,0,1-13.85,0Z" transform="translate(-321.112 -376.879)" fill="#ed4593" fill-rule="evenodd"/></g><g transform="translate(49.392 19.236)"><path d="M458.33,254.992l-1.506-1.506a9.568,9.568,0,0,0,0-10.84l1.506-1.506a11.673,11.673,0,0,1,0,13.853Z" transform="translate(-456.824 -241.139)" fill="#728bf1" fill-rule="evenodd"/></g><g transform="translate(35.31 19.96)"><path d="M333.924,260.179a6.2,6.2,0,1,0-6.2-6.2A6.216,6.216,0,0,0,333.924,260.179Z" transform="translate(-327.72 -247.774)" fill="#ffca28" fill-rule="evenodd"/></g><g transform="translate(35.31 19.96)"><path d="M334.495,260.156a6.2,6.2,0,0,1,0-12.355c-.188-.018-.379-.027-.571-.027a6.2,6.2,0,1,0,0,12.405C334.115,260.179,334.307,260.171,334.495,260.156Z" transform="translate(-327.72 -247.774)" fill="#fcb73e" fill-rule="evenodd"/></g><g transform="translate(14.176 8.066)"><path d="M134.98,144.6v-4.992a.878.878,0,0,1,.874-.874h-1.012a.878.878,0,0,0-.874.874V144.6a.878.878,0,0,0,.874.874h1.012A.878.878,0,0,1,134.98,144.6Z" transform="translate(-133.968 -138.735)" fill="#1aaceb" fill-rule="evenodd"/></g><g transform="translate(24.714 8.066)"><path d="M231.586,144.6v-4.992a.878.878,0,0,1,.874-.874h-1.012a.878.878,0,0,0-.874.874V144.6a.878.878,0,0,0,.874.874h1.012A.878.878,0,0,1,231.586,144.6Z" transform="translate(-230.574 -138.735)" fill="#1aaceb" fill-rule="evenodd"/></g><g transform="translate(14.176 17.939)"><path d="M134.98,235.109v-4.992a.875.875,0,0,1,.874-.871h-1.012a.875.875,0,0,0-.874.871v4.992a.878.878,0,0,0,.874.874h1.012A.878.878,0,0,1,134.98,235.109Z" transform="translate(-133.968 -229.246)" fill="#1aaceb" fill-rule="evenodd"/></g><g transform="translate(14.176 17.939)"><path d="M134.98,235.109v-4.992a.875.875,0,0,1,.874-.871h-1.012a.875.875,0,0,0-.874.871v4.992a.878.878,0,0,0,.874.874h1.012A.878.878,0,0,1,134.98,235.109Z" transform="translate(-133.968 -229.246)" fill="#1aaceb" fill-rule="evenodd"/></g><g transform="translate(24.714 17.939)"><path d="M231.586,235.109v-4.992a.875.875,0,0,1,.874-.871h-1.012a.875.875,0,0,0-.874.871v4.992a.878.878,0,0,0,.874.874h1.012A.878.878,0,0,1,231.586,235.109Z" transform="translate(-230.574 -229.246)" fill="#1aaceb" fill-rule="evenodd"/></g><g transform="translate(17.548 28.562)"><path d="M166.567,339.787V327.693a1.061,1.061,0,0,1,1.056-1.059h-1.692a1.06,1.06,0,0,0-1.056,1.059v12.094h1.692Z" transform="translate(-164.875 -326.634)" fill="#4a4d71" fill-rule="evenodd"/></g><g transform="translate(13.391 0)"><path d="M128.906,68.676V65.743a.963.963,0,0,1,.959-.959h-2.142a.96.96,0,0,0-.956.959v2.933Z" transform="translate(-126.767 -64.784)" fill="#b7b7f0" fill-rule="evenodd"/></g></g><path d="M35.765,101.755H29.672V94.831a.718.718,0,0,0-1.435,0v6.924h-8.97V90.528a.327.327,0,0,1,.325-.328H27.06a.718.718,0,1,0,0-1.435H19.592a1.764,1.764,0,0,0-1.761,1.764v11.227H12.456v-35.6a.331.331,0,0,1,.328-.325H34.719a.331.331,0,0,1,.328.325v6.009a.718.718,0,0,0,1.435,0V66.159A1.764,1.764,0,0,0,34.719,64.4h-.941V62.219a1.665,1.665,0,0,0-1.662-1.665H15.388a1.665,1.665,0,0,0-1.662,1.665V64.4h-.941a1.764,1.764,0,0,0-1.764,1.761v11.59H1.709A1.212,1.212,0,0,0,.5,78.961v23.512a.718.718,0,0,0,.718.718H35.765a.718.718,0,1,0,0-1.435Zm-20.6-39.536a.231.231,0,0,1,.227-.23H32.116a.231.231,0,0,1,.227.23V64.4H15.162ZM1.935,79.185h9.086v22.571H1.935ZM22.594,70.1a1.582,1.582,0,0,0-1.581-1.581H16.083A1.582,1.582,0,0,0,14.5,70.1v4.931a1.582,1.582,0,0,0,1.581,1.581h4.931a1.582,1.582,0,0,0,1.581-1.581Zm-1.435,4.931a.149.149,0,0,1-.145.145H16.083a.149.149,0,0,1-.145-.145V70.1a.149.149,0,0,1,.145-.145h4.931a.149.149,0,0,1,.145.145Zm5.332,1.581h4.931A1.582,1.582,0,0,0,33,75.033V70.1a1.582,1.582,0,0,0-1.581-1.581H26.491A1.582,1.582,0,0,0,24.91,70.1v4.931A1.582,1.582,0,0,0,26.491,76.613ZM26.345,70.1a.149.149,0,0,1,.145-.145h4.931a.149.149,0,0,1,.145.145v4.931a.149.149,0,0,1-.145.145H26.491a.149.149,0,0,1-.145-.145Zm-5.332,8.168H16.083A1.582,1.582,0,0,0,14.5,79.85v4.931a1.582,1.582,0,0,0,1.581,1.581h4.931a1.582,1.582,0,0,0,1.581-1.581V79.85A1.582,1.582,0,0,0,21.014,78.269Zm.145,6.511a.149.149,0,0,1-.145.145H16.083a.149.149,0,0,1-.145-.145V79.85a.149.149,0,0,1,.145-.145h4.931a.149.149,0,0,1,.145.145Zm5.186-4.931v4.931a.149.149,0,0,0,.145.145h.7a.718.718,0,0,1,0,1.435h-.7a1.582,1.582,0,0,1-1.581-1.581V79.85a1.582,1.582,0,0,1,1.581-1.581h2.961a.718.718,0,1,1,0,1.435H26.491a.149.149,0,0,0-.145.145ZM33.4,76.529a.717.717,0,0,0,.208.553l2.754,2.757a.717.717,0,0,0,.915.083,8.756,8.756,0,0,1,9.892,0,.717.717,0,0,0,.915-.083l2.757-2.757a.718.718,0,0,0-.069-1.076,14,14,0,0,0-17.1,0,.719.719,0,0,0-.278.522Zm15.832.135-1.751,1.751a10.212,10.212,0,0,0-10.511,0l-1.749-1.751a12.57,12.57,0,0,1,14.012,0ZM31.637,95.937l.046,0a.718.718,0,0,0,.507-.21l2.757-2.754a.718.718,0,0,0,.084-.915,8.757,8.757,0,0,1,0-9.892.718.718,0,0,0-.083-.915L32.193,78.5a.718.718,0,0,0-1.076.069,14,14,0,0,0,0,17.093.718.718,0,0,0,.522.278Zm.138-15.829,1.749,1.749a10.212,10.212,0,0,0,0,10.512l-1.751,1.749A12.564,12.564,0,0,1,31.774,80.108Zm16.307,14.28a.718.718,0,0,0-.914-.083,8.761,8.761,0,0,1-9.892,0,.718.718,0,0,0-.915.084L33.6,97.142a.718.718,0,0,0,.069,1.075,14,14,0,0,0,17.1,0,.718.718,0,0,0,.069-1.076ZM35.215,97.561l1.749-1.751a10.218,10.218,0,0,0,10.512,0l1.751,1.749a12.568,12.568,0,0,1-14.012,0Zm18.11-18.995A.718.718,0,0,0,52.25,78.5L49.5,81.252a.718.718,0,0,0-.083.915,8.756,8.756,0,0,1,0,9.892.718.718,0,0,0,.083.915l2.754,2.754a.718.718,0,0,0,.507.21l.046,0a.718.718,0,0,0,.522-.278A14,14,0,0,0,53.325,78.566Zm-.657,15.551L50.92,92.369a10.212,10.212,0,0,0,0-10.512l1.749-1.749a12.564,12.564,0,0,1,0,14.009Zm-10.447.154a7.158,7.158,0,1,0-7.159-7.157A7.165,7.165,0,0,0,42.221,94.271Zm0-12.881A5.723,5.723,0,1,1,36.5,87.114,5.729,5.729,0,0,1,42.221,81.39ZM41.5,87.8v1.266H40.379a.718.718,0,1,0,0,1.435H41.5v.392a.718.718,0,1,0,1.435,0V90.46a2.019,2.019,0,0,0,0-4.027V85.167H44.09a.718.718,0,0,0,0-1.435H42.939v-.4a.718.718,0,0,0-1.435,0v.432a2.019,2.019,0,0,0,0,4.027Zm1.868.65a.631.631,0,0,1-.433.527V87.92A.629.629,0,0,1,43.372,88.445ZM41.5,85.255v1.053a.536.536,0,0,1,0-1.053ZM4.173,82.09a.718.718,0,0,1,.718-.718H8.066a.718.718,0,1,1,0,1.435H4.89A.718.718,0,0,1,4.173,82.09Zm4.611,4.117a.718.718,0,0,1-.718.718H4.89a.718.718,0,1,1,0-1.435H8.066A.718.718,0,0,1,8.784,86.208Zm0,4.117a.718.718,0,0,1-.718.718H4.89a.718.718,0,1,1,0-1.435H8.066A.718.718,0,0,1,8.784,90.325Zm0,4.117a.718.718,0,0,1-.718.718H4.89a.718.718,0,1,1,0-1.435H8.066A.718.718,0,0,1,8.784,94.442Z"/></g></g></svg>