<svg xmlns="http://www.w3.org/2000/svg" width="295" height="141.27" viewBox="0 0 295 141.27"><g transform="translate(-14.6 -8.5)"><g transform="translate(14.6 8.5)"><g transform="translate(150.506 0)"><g transform="translate(50.05 79.927)"><path d="M474.87,240.648h-93.9a.293.293,0,0,1-.274-.274.259.259,0,0,1,.274-.274h93.9a.293.293,0,0,1,.274.274A.259.259,0,0,1,474.87,240.648Z" transform="translate(-380.7 -193.152)" fill="#d4d8f3"/><path d="M474.87,219.248h-93.9a.294.294,0,0,1-.274-.274.259.259,0,0,1,.274-.274h93.9a.293.293,0,0,1,.274.274A.259.259,0,0,1,474.87,219.248Z" transform="translate(-380.7 -183.475)" fill="#d4d8f3"/><path d="M474.87,197.748h-93.9a.293.293,0,0,1-.274-.274.259.259,0,0,1,.274-.274h93.9a.293.293,0,0,1,.274.274A.259.259,0,0,1,474.87,197.748Z" transform="translate(-380.7 -173.753)" fill="#d4d8f3"/><path d="M474.87,176.348h-93.9a.294.294,0,0,1-.274-.274.259.259,0,0,1,.274-.274h93.9a.293.293,0,0,1,.274.274A.259.259,0,0,1,474.87,176.348Z" transform="translate(-380.7 -164.077)" fill="#d4d8f3"/><path d="M530.974,213.619a.293.293,0,0,1-.274-.274V154.674a.293.293,0,0,1,.274-.274.259.259,0,0,1,.274.274v58.671A.293.293,0,0,1,530.974,213.619Z" transform="translate(-448.527 -154.4)" fill="#d4d8f3"/><path d="M509.574,213.619a.293.293,0,0,1-.274-.274V154.674a.293.293,0,0,1,.274-.274.259.259,0,0,1,.274.274v58.671A.293.293,0,0,1,509.574,213.619Z" transform="translate(-438.851 -154.4)" fill="#d4d8f3"/><path d="M488.074,213.619a.293.293,0,0,1-.274-.274V154.674a.293.293,0,0,1,.274-.274.259.259,0,0,1,.274.274v58.671A.293.293,0,0,1,488.074,213.619Z" transform="translate(-429.129 -154.4)" fill="#d4d8f3"/><path d="M466.674,213.619a.294.294,0,0,1-.274-.274V154.674a.294.294,0,0,1,.274-.274.259.259,0,0,1,.274.274v58.671A.294.294,0,0,1,466.674,213.619Z" transform="translate(-419.452 -154.4)" fill="#d4d8f3"/><path d="M445.274,213.619a.293.293,0,0,1-.274-.274V154.674a.293.293,0,0,1,.274-.274.259.259,0,0,1,.274.274v58.671A.293.293,0,0,1,445.274,213.619Z" transform="translate(-409.775 -154.4)" fill="#d4d8f3"/><path d="M423.774,213.619a.293.293,0,0,1-.274-.274V154.674a.293.293,0,0,1,.274-.274.259.259,0,0,1,.274.274v58.671A.293.293,0,0,1,423.774,213.619Z" transform="translate(-400.053 -154.4)" fill="#d4d8f3"/><path d="M402.374,213.619a.293.293,0,0,1-.274-.274V154.674a.293.293,0,0,1,.274-.274.259.259,0,0,1,.274.274v58.671A.294.294,0,0,1,402.374,213.619Z" transform="translate(-390.377 -154.4)" fill="#d4d8f3"/><g transform="translate(1.808 5.478)"><g transform="translate(0.547 0)"><path d="M431.235,206.532c-1.041-.219-2.027-.493-3.068-.712h-.055c-4.711-1.205-10.628-2.082-14.9,1.37-2.246,1.808-3.342,4.273-4.437,6.629-.219.438-.383.877-.6,1.315a1036.723,1036.723,0,0,0-.11.329c-.055.164-.164.274-.219.438,0,.11-.11.164-.11.274a.787.787,0,0,1-.11.164h0c0,.055-.11.164-.11.219a439.836,439.836,0,0,0-.11.219.17.17,0,0,1-.055.11c0,.055-.11.164-.11.219a2198.568,2198.568,0,0,1-.11.219v.055c0,.055-.055.11-.11.164h0l-.055.055a.961.961,0,0,1-.219.274h0a.17.17,0,0,1-.055.11l-.11.11h0l-.11.11-.11.11h0a8.947,8.947,0,0,1-7.286,2.3,9.929,9.929,0,0,1-1.7-.274,13.286,13.286,0,0,1-2.684-.986,24.574,24.574,0,0,1-6.355-4.6A1.976,1.976,0,0,0,385.6,217.6a33.185,33.185,0,0,0,4.93,3.89c.6.383,1.15.712,1.753,1.041a17.989,17.989,0,0,0,3.78,1.479,1.016,1.016,0,0,1,.383.11,14.65,14.65,0,0,0,5.752.329,6.174,6.174,0,0,0,.986-.164,11.93,11.93,0,0,0,6.081-3.232,11.556,11.556,0,0,0,1.041-1.26.788.788,0,0,1,.11-.164h0a.788.788,0,0,1,.11-.164v-.11a2199.057,2199.057,0,0,0,.11-.219.17.17,0,0,1,.055-.11,921.706,921.706,0,0,0,.219-.329.79.79,0,0,1,.11-.164h0a.787.787,0,0,1,.11-.164s0-.11.055-.11a.27.27,0,0,1,.055-.164.788.788,0,0,1,.11-.164v-.164h0v-.11c0-.055.055-.11.11-.219,0-.055.055-.11.11-.164v-.055a2199.088,2199.088,0,0,0,.219-.438,733.029,733.029,0,0,0,.219-.438,11.713,11.713,0,0,0,.548-1.205c.931-2.027,1.808-4,3.342-5.2,2.9-2.356,7.615-1.589,11.449-.6h.055l2.63.657a32.906,32.906,0,0,0,3.944.657,20.208,20.208,0,0,1,1.643-3.835,22.88,22.88,0,0,1-4.163-.548Z" transform="translate(-384.999 -182.647)" fill="#116562"/><path d="M499.638,164.619l1.917,3.287c-.274.055-.548.164-.822.219-3.506,1.041-7.176,2.191-10.025,4.766A23.22,23.22,0,0,0,486,179.9c-.11.219-.219.438-.329.712-.055.164-.164.329-.219.493a.17.17,0,0,1-.055.11c0,.055-.055.11-.11.219,0,.055-.055.11-.11.219-.164.274-.274.548-.438.877v.11h0c0,.055-.055.11-.11.164a8.856,8.856,0,0,1-.548.986,10.736,10.736,0,0,1-3.78,4.163,8.819,8.819,0,0,1-4.656.986A24.469,24.469,0,0,0,474,192.777h.6a13.153,13.153,0,0,0,7.615-1.424c2.9-1.589,4.6-4.218,6.026-6.957,0-.11.11-.164.11-.274s.11-.164.11-.274.11-.164.11-.274.11-.164.11-.274c.164-.329.329-.657.493-1.041l.493-.986a2.935,2.935,0,0,0,.274-.6h0a17.117,17.117,0,0,1,3.4-4.93c2.191-1.972,5.2-2.9,8.491-3.889.548-.164,1.15-.329,1.753-.548h0l2.027,3.451,5.807-10.354-11.888.11Z" transform="translate(-425.243 -164.4)" fill="#116562"/><path d="M411.034,223.157a12.954,12.954,0,0,1-2.246,3.451h0a11.53,11.53,0,0,0-1.37-.11,9.249,9.249,0,0,0-5.916,2.41,12.573,12.573,0,0,0-1.479,1.479c-.548.6-1.041,1.315-1.534,1.972a54.3,54.3,0,0,0-3.4,6.355,1.9,1.9,0,0,1-1.534,1.1,2.428,2.428,0,0,1-1.1-.164,1.956,1.956,0,0,1-.931-2.63,60.673,60.673,0,0,1,3.232-6.19,25.448,25.448,0,0,1,2.3-3.123l.11-.11a14.283,14.283,0,0,1,10.354-5.095,13.119,13.119,0,0,1,3.616.548Z" transform="translate(-387.861 -190.672)" fill="#22cac5"/><path d="M466.292,192.479c-.11.219-.219.438-.329.712-.055.164-.164.329-.219.493,0,.11-.11.219-.164.329,0,.055-.055.11-.11.219-.164.274-.274.548-.438.876a.271.271,0,0,1-.055.164c0,.055-.055.11-.11.164a8.855,8.855,0,0,1-.548.986,9.134,9.134,0,0,0-4.821,1.205,10.483,10.483,0,0,0-3.616,3.944,24.465,24.465,0,0,0-1.643,3.835c-.493,1.424-.877,2.958-1.315,4.437-.164.548-.274,1.1-.438,1.643a12.3,12.3,0,0,1-3.013,5.862,8.458,8.458,0,0,1-4.711,2.246,11.637,11.637,0,0,1-2.41.055,17.177,17.177,0,0,1-6.9-2.191c-.822-.438-1.643-.931-2.41-1.424-.931-.548-1.808-1.1-2.739-1.589a.79.79,0,0,1,.11-.164c0-.055.11-.164.164-.219v-.055c.055-.11.11-.164.164-.274,0-.055.11-.164.164-.219a2304.951,2304.951,0,0,0,.219-.329h0a.789.789,0,0,1,.11-.164s0-.11.055-.11a.552.552,0,0,0,.055-.164,922.1,922.1,0,0,1,.219-.329h0c0-.11.11-.164.164-.274,0-.055.055-.11.11-.164v-.055c.055-.164.164-.274.219-.438a.415.415,0,0,1,.11-.219.415.415,0,0,1,.11-.219c.931.493,1.863,1.041,2.794,1.589a24.616,24.616,0,0,0,2.3,1.315c2.9,1.589,7.122,2.684,9.368.493a9.284,9.284,0,0,0,1.972-4.109c.164-.548.274-1.041.438-1.643.383-1.37.712-2.739,1.15-4.109a30.653,30.653,0,0,1,1.424-3.725,14.457,14.457,0,0,1,5.752-6.793,13.307,13.307,0,0,1,8.765-1.589Z" transform="translate(-405.483 -177.03)" fill="#22cac5"/><path d="M523.547,202.582l-9.532-7.067-.438,3.725c-1.643-.657-3.287-1.424-4.876-2.246-.329-.164-.712-.329-1.041-.493a33.858,33.858,0,0,0-5.862-2.3h0a2.023,2.023,0,0,0-.274.6l-.493.986c-.164.329-.329.657-.493,1.041,0,.11-.109.164-.109.274s-.11.164-.11.274-.11.164-.11.274-.11.164-.11.274a36.481,36.481,0,0,1,5.971,2.3c.329.164.657.329,1.041.493,1.972.931,4,1.917,6.135,2.739l-.438,3.944,10.9-4.711Z" transform="translate(-437.045 -177.875)" fill="#22cac5"/></g><path d="M473.936,212.92h0a.1.1,0,0,1-.055-.164,21.848,21.848,0,0,1,1.643-3.89c0-.055.109-.055.164,0,.055,0,.055.11,0,.164a23.631,23.631,0,0,0-1.643,3.835.191.191,0,0,1-.11.055Z" transform="translate(-424.632 -184.488)" fill="#27191c"/><path d="M391.341,230.946h0a18.468,18.468,0,0,1-1.753-1.041,36.268,36.268,0,0,1-4.93-3.89,2.172,2.172,0,0,1-.657-1.479,2.068,2.068,0,0,1,.548-1.479,2.172,2.172,0,0,1,1.479-.657,2.068,2.068,0,0,1,1.479.548,24.638,24.638,0,0,0,6.355,4.547c.055,0,.055.11,0,.164,0,.055-.11.055-.164,0a24.758,24.758,0,0,1-6.409-4.6,1.727,1.727,0,0,0-1.315-.493,1.75,1.75,0,0,0-1.315.6,1.727,1.727,0,0,0-.493,1.315,1.75,1.75,0,0,0,.6,1.315,36,36,0,0,0,4.876,3.89c.6.383,1.15.712,1.753,1.041.055,0,.055.11,0,.164a.191.191,0,0,1-.11.055Z" transform="translate(-384 -190.627)" fill="#27191c"/><path d="M408.3,228.194a17.788,17.788,0,0,1-3.78-.438.792.792,0,0,1-.384-.11c-.055,0-.11-.055-.055-.164,0-.055.055-.11.164-.055a1.393,1.393,0,0,1,.383.11,14.536,14.536,0,0,0,5.752.329,6.173,6.173,0,0,0,.986-.164,11.58,11.58,0,0,0,6.026-3.232,7.965,7.965,0,0,0,1.041-1.26h0c0-.055.055-.11.11-.164h0c0-.055.055-.11.11-.164h0a1.2,1.2,0,0,1,.164-.274v-.11c.11,0,.11-.11.164-.164A1152.735,1152.735,0,0,1,419.2,222h0a.788.788,0,0,1,.11-.164s0-.11.055-.11a.27.27,0,0,1,.055-.164l.11-.164a.27.27,0,0,1,.055-.164h0c0-.164.11-.219.164-.329h0c0-.11,0-.11.055-.164h0a2.149,2.149,0,0,1,.219-.493,1256.709,1256.709,0,0,0,.219-.438c.164-.383.383-.767.548-1.15v-.11c.986-2.082,1.863-4,3.4-5.259,2.958-2.41,7.724-1.589,11.5-.657h.055c.767.219,1.7.438,2.575.657a.11.11,0,1,1,0,.219c-.931-.219-1.863-.438-2.63-.6h-.055c-3.78-.931-8.436-1.753-11.34.6-1.479,1.205-2.356,3.123-3.287,5.149v.11a10.955,10.955,0,0,0-.548,1.15,2198.506,2198.506,0,0,1-.219.438c-.055.164-.164.274-.219.438h0c0,.11,0,.164-.055.219h0c0,.164-.11.219-.164.329h0c0,.11,0,.164-.11.219l-.11.164a.789.789,0,0,1-.11.164s0,.11-.055.11a.789.789,0,0,1-.11.164h0c0,.055-.055.11-.11.164,0,.055-.055.11-.11.164a.788.788,0,0,1-.11.164v.11a.962.962,0,0,0-.219.274h0v.055a.787.787,0,0,1-.11.164h0a.788.788,0,0,1-.11.164h0a12.037,12.037,0,0,1-1.1,1.26,12.177,12.177,0,0,1-6.136,3.287l-.986.164a12.643,12.643,0,0,1-2.027.164Z" transform="translate(-393.07 -185.793)" fill="#27191c"/><path d="M410.805,221.207h-1.1a.11.11,0,0,1,0-.219,8.988,8.988,0,0,0,7.231-2.246h0c0-.055,0-.11.055-.11h0c0-.055.11-.11.11-.164h0v-.055a.17.17,0,0,1,.055-.11h.055c0-.11,0-.164.055-.164,0,0,.055-.11.11-.11,0,0,.055-.11.11-.11l.055-.055h0c0-.11.11-.164.11-.219v-.055a2200.651,2200.651,0,0,0,.11-.219,732.761,732.761,0,0,0,.11-.219v-.11c.11,0,.11-.055.11-.11v-.11q.164-.082.164-.164h0v-.055h0c0-.055.055-.11.11-.164v-.11a1.137,1.137,0,0,0,.329-.548l.164-.274c.219-.438.383-.822.6-1.26h0c1.1-2.41,2.246-4.876,4.492-6.683,4.328-3.506,10.244-2.575,15.01-1.424h.055c.986.274,2.027.548,3.068.767a.11.11,0,0,1,0,.219c-1.041-.219-2.082-.493-3.068-.712h-.055c-4.656-1.15-10.573-2.082-14.791,1.37-2.191,1.753-3.342,4.218-4.383,6.574h0c-.219.493-.383.876-.6,1.315l-.164.274a5.062,5.062,0,0,0-.274.548v.11c-.11,0-.11.11-.164.164h0c0,.11-.055.164-.11.274v.11c-.11,0-.11.055-.11.11v.11c-.11,0-.11.055-.11.11a2202.371,2202.371,0,0,0-.11.219.17.17,0,0,1-.055.11v.055c0,.055-.055.11-.11.164h-.11c0-.055.11,0,.11,0h0v.055s-.055.11-.11.11c0,0-.055.11-.11.11a.17.17,0,0,1-.055.11h-.055c0,.11,0,.164-.055.164h0v.055s-.11.11-.11.164h0l-.055.055h0a8.726,8.726,0,0,1-6.3,2.41Z" transform="translate(-395.576 -182.805)" fill="#27191c"/><path d="M475.791,192.941H473.6v-.164a21.857,21.857,0,0,1,1.643-3.889h0a.054.054,0,0,1,.055-.055,8.873,8.873,0,0,0,4.547-.986,9.541,9.541,0,0,0,3.725-4.109c.164-.329.329-.6.548-.986,0-.055.055-.11.11-.164h0v-.11c.11-.219.274-.493.438-.876l.822-1.7a22.565,22.565,0,0,1,4.711-7.012c2.849-2.63,6.519-3.725,10.08-4.821h.274a1.64,1.64,0,0,1,.438-.219l-1.972-3.287,12.271-.164-6.026,10.682-2.082-3.506c-.548.164-1.1.329-1.589.493h-.055c-3.232.986-6.3,1.917-8.436,3.89a16.776,16.776,0,0,0-3.342,4.876h0c-.11.164-.164.383-.274.548-.164.274-.274.548-.438.876l-.109.219c-.164.329-.329.657-.493.931,0,.055-.055.11-.11.164l-.164.329c0,.11-.11.164-.11.274s-.11.164-.11.274c-1.37,2.684-3.068,5.369-6.081,7.012a12.684,12.684,0,0,1-6.245,1.479Zm-1.808-.329h.438a12.7,12.7,0,0,0,7.505-1.424c2.958-1.643,4.6-4.328,5.971-6.957,0-.11.11-.164.11-.274s.11-.164.11-.274l.164-.329c0-.055.055-.11.11-.164.164-.329.329-.657.493-.931l.11-.219c.164-.274.274-.548.438-.876.11-.164.164-.383.274-.548h0a16.18,16.18,0,0,1,3.4-4.93c2.191-2.027,5.259-2.958,8.491-3.944h.055c.548-.164,1.1-.383,1.7-.548h.11c0,.055,1.917,3.342,1.917,3.342l5.642-9.97-11.449.11,1.917,3.232h-.164a2.291,2.291,0,0,1-.548.219H500.5c-3.506,1.15-7.122,2.246-9.97,4.821a22.325,22.325,0,0,0-4.711,6.957l-.822,1.7c-.164.329-.329.6-.438.876v.11h0c0,.055-.055.11-.11.164-.164.329-.383.657-.548.986a10.235,10.235,0,0,1-3.835,4.163,8.671,8.671,0,0,1-4.6.986,21.816,21.816,0,0,0-1.534,3.67Z" transform="translate(-424.516 -164.4)" fill="#27191c"/><path d="M393.1,239.885a1.607,1.607,0,0,1-.876-.219,2.1,2.1,0,0,1-.986-2.794h0a60.668,60.668,0,0,1,3.232-6.19,24.449,24.449,0,0,1,2.356-3.123l.11-.11a14.353,14.353,0,0,1,10.354-5.149h0a12.541,12.541,0,0,1,3.67.6h.11l-.055.164a12.71,12.71,0,0,1-2.246,3.506h-.055a11.533,11.533,0,0,0-1.37-.11h0a9.2,9.2,0,0,0-5.807,2.356,18.165,18.165,0,0,0-1.479,1.424,18.835,18.835,0,0,0-1.534,1.972,54.309,54.309,0,0,0-3.4,6.355,2.109,2.109,0,0,1-1.589,1.205h-.274Zm14.134-17.311c-3.616,0-7.286,1.863-10.189,5.04l-.11.11a20.034,20.034,0,0,0-2.3,3.123,59.9,59.9,0,0,0-3.232,6.136h0a1.953,1.953,0,0,0,.877,2.52,1.75,1.75,0,0,0,1.041.164,2,2,0,0,0,1.424-1.041,55.055,55.055,0,0,1,3.4-6.409,15.089,15.089,0,0,1,1.534-2.027,12.97,12.97,0,0,1,1.534-1.479,9.407,9.407,0,0,1,6.026-2.41,5.335,5.335,0,0,1,1.315.11h0a11.969,11.969,0,0,0,2.136-3.342,12.932,12.932,0,0,0-3.451-.548h0Z" transform="translate(-387.179 -190.581)" fill="#27191c"/><path d="M443.148,219.7h-.931a17.679,17.679,0,0,1-6.957-2.191c-.822-.438-1.643-.931-2.41-1.424-.876-.548-1.808-1.1-2.739-1.589H430c0-.055.11-.164.11-.164a.787.787,0,0,1,.11-.164c0-.055.11-.164.164-.219h0a1.2,1.2,0,0,1,.164-.274c0-.055.11-.164.164-.219a.787.787,0,0,1,.11-.164h0a.2.2,0,0,1,.055-.164h0c0-.055.055-.11.11-.164,0,0,0-.11.055-.11a.271.271,0,0,1,.055-.164l.11-.164a.27.27,0,0,1,.055-.164h0c0-.164.11-.219.164-.329,0-.055.055-.11.11-.164h0a2.146,2.146,0,0,1,.219-.493,2199.088,2199.088,0,0,1,.219-.438v-.11l.164.055c.931.493,1.863,1.041,2.794,1.589h0a24.627,24.627,0,0,0,2.3,1.315c2.9,1.589,7.012,2.63,9.2.493a9.005,9.005,0,0,0,1.917-4.054c.164-.548.329-1.1.438-1.643h0c.383-1.37.712-2.739,1.15-4.109a32.475,32.475,0,0,1,1.424-3.78,14.556,14.556,0,0,1,5.807-6.848,13.987,13.987,0,0,1,8.875-1.643h.164l-.822,1.643c0,.055-.055.11-.11.219-.164.329-.329.6-.438.877a.271.271,0,0,1-.055.164c0,.055-.055.11-.11.164-.164.329-.384.657-.548.986h0a.054.054,0,0,1-.055.055,9.237,9.237,0,0,0-4.711,1.15,9.884,9.884,0,0,0-3.561,3.889,23.627,23.627,0,0,0-1.643,3.835c-.493,1.424-.877,2.958-1.315,4.437h0c-.164.6-.274,1.15-.438,1.643a12.474,12.474,0,0,1-3.013,5.916,8.332,8.332,0,0,1-4.766,2.3,13.432,13.432,0,0,1-1.479.11Zm-12.819-5.369c.876.438,1.753.986,2.63,1.534.767.493,1.589.931,2.41,1.424a17.71,17.71,0,0,0,6.848,2.136,16.51,16.51,0,0,0,2.356-.055,7.961,7.961,0,0,0,4.656-2.246,12.52,12.52,0,0,0,2.958-5.807c.164-.548.274-1.1.438-1.643h0c.383-1.534.822-3.068,1.315-4.492a21.847,21.847,0,0,1,1.643-3.889,10.054,10.054,0,0,1,3.67-4,9.07,9.07,0,0,1,4.766-1.205c.164-.274.329-.6.493-.931,0-.055.055-.11.11-.164a.27.27,0,0,1,.055-.164c.11-.219.274-.493.438-.877,0-.055.055-.11.11-.219l.657-1.37a13.771,13.771,0,0,0-8.546,1.589,14.338,14.338,0,0,0-5.7,6.738,31.393,31.393,0,0,0-1.424,3.725c-.438,1.37-.822,2.739-1.15,4.054h0c-.164.548-.274,1.1-.438,1.643a9.193,9.193,0,0,1-1.972,4.163,5.025,5.025,0,0,1-3.506,1.26,13,13,0,0,1-5.971-1.753l-2.3-1.315h0c-.876-.548-1.753-1.041-2.684-1.534a.17.17,0,0,1-.055.11.415.415,0,0,1-.11.219c-.055.164-.164.274-.219.438h0v.055c0,.055-.055.11-.11.164,0,.11-.11.164-.164.274h0c0,.11,0,.164-.11.219l-.11.164a.788.788,0,0,1-.11.164s0,.11-.055.11a.789.789,0,0,1-.11.164h0s0,.11-.055.11h0c0,.055-.055.11-.11.164,0,.055-.11.164-.164.219-.055.11-.11.164-.164.274h0v.055c0,.055-.11.164-.164.219h0Z" transform="translate(-404.8 -176.918)" fill="#27191c"/><path d="M512.355,207.412l.493-4.054c-2.082-.767-4.109-1.753-6.026-2.684-.329-.164-.657-.329-1.041-.493a31.181,31.181,0,0,0-5.916-2.246H499.7l.055-.164c0-.055.109-.164.109-.219,0-.11.11-.164.11-.274l.164-.329c0-.055.055-.11.11-.164.164-.329.329-.657.493-.931l.11-.219c.164-.274.274-.548.438-.876.11-.164.164-.383.274-.548v-.11h.164a39.647,39.647,0,0,1,5.862,2.356c.274.11.493.274.767.383l.274.11c1.534.767,3.123,1.534,4.711,2.136l.438-3.78,9.861,7.286-11.23,4.876Zm-12.326-9.7a40.531,40.531,0,0,1,5.862,2.246c.329.164.657.329,1.041.493,1.972.931,4,1.917,6.081,2.739h.11l-.438,3.889,10.518-4.547-9.2-6.848-.438,3.67H513.4c-1.643-.712-3.287-1.534-4.876-2.3l-.274-.11c-.274-.11-.493-.274-.767-.383a44.825,44.825,0,0,0-5.752-2.3c-.11.164-.164.329-.274.493-.164.274-.274.548-.438.876l-.109.219c-.164.329-.329.657-.493.931,0,.055-.055.11-.11.164l-.164.329c0,.11-.11.164-.11.274a.17.17,0,0,1-.055.11Z" transform="translate(-436.318 -177.83)" fill="#27191c"/></g></g><g transform="translate(21.016 12.162)"><g transform="translate(0.164 0.11)"><path d="M437.156,168.3a27.366,27.366,0,0,1-8.656,2.9l2.137,24.6a51.242,51.242,0,0,0,18.845-6.136L437.21,168.3Z" transform="translate(-373.444 -93.03)" fill="#838ee8"/><path d="M440.269,33.8,434.9,57.9a26.9,26.9,0,0,1,19.283,25.857c0,12.271-2.575,13.2-6.848,17.968L464.647,119.2a51.688,51.688,0,0,0-24.378-85.35Z" transform="translate(-376.338 -32.211)" fill="#dfbba0"/><path d="M379.166,55.552a25.773,25.773,0,0,1,5.04.493l5.369-24.1A50.065,50.065,0,0,0,379.166,30.9a51.551,51.551,0,0,0,0,103.1c28.267,0,2.41,0,3.561-.11l-2.137-24.6h-1.479a26.9,26.9,0,0,1,0-53.8Z" transform="translate(-328 -30.9)" fill="#d2f5f4"/><path d="M451.651,161a28.065,28.065,0,0,1-3.451,2.739L460.471,185.1a49.439,49.439,0,0,0,8.436-6.629L451.6,161Z" transform="translate(-382.352 -89.729)" fill="#3897e9"/></g><path d="M430.436,195.82,428.3,171h.11a26.071,26.071,0,0,0,8.656-2.9h.11l12.381,21.529h-.11a49.34,49.34,0,0,1-18.845,6.19h-.164Zm-1.917-24.652,2.082,24.378a50.378,50.378,0,0,0,18.571-6.026L437.01,168.374a27.745,27.745,0,0,1-8.491,2.849Z" transform="translate(-373.19 -92.83)" fill="#27191c"/><path d="M464.511,119.279l-17.475-17.64h.055A26.971,26.971,0,0,0,434.71,57.923h-.11L440.023,33.6h.11a49.65,49.65,0,0,1,15.339,6.9,50.732,50.732,0,0,1,12.162,11.285A51.659,51.659,0,0,1,478.59,83.671a51.608,51.608,0,0,1-14.024,35.5v.11Zm-17.147-17.695,17.147,17.366a51.6,51.6,0,0,0-24.268-85.076l-5.314,23.885a25.77,25.77,0,0,1,7.615,3.67,28.33,28.33,0,0,1,6.136,5.862,26.805,26.805,0,0,1,5.478,16.38,28.471,28.471,0,0,1-6.793,17.968Z" transform="translate(-376.038 -32.011)" fill="#27191c"/><path d="M379.03,134.018a50.7,50.7,0,0,1-19.941-4.054,51.651,51.651,0,0,1-27.336-27.5A51.835,51.835,0,0,1,342.765,45.82,50.108,50.108,0,0,1,359.09,34.754,50.7,50.7,0,0,1,379.03,30.7c6.9,0,7.012.383,10.409,1.041h.11l-5.423,24.323h-.11a25.221,25.221,0,0,0-4.985-.493,26.789,26.789,0,0,0,0,53.577h1.534l2.137,24.816h-.11c-1.205.11-2.41.11-3.561.11Zm0-103.1c-28.158,0-51.057,23.063-51.057,51.44s22.9,51.44,51.057,51.44,2.3,0,3.451-.11L380.4,109.312h-1.37a27.008,27.008,0,0,1,0-54.015c14.736,0,3.342.164,4.93.438l5.314-23.83a49.249,49.249,0,0,0-10.244-1.041Z" transform="translate(-327.7 -30.7)" fill="#27191c"/><path d="M460.281,185.178,447.9,163.594h.11a33.457,33.457,0,0,0,3.451-2.794h.055c0-.055,17.475,17.585,17.475,17.585h-.11a45.18,45.18,0,0,1-8.491,6.683h-.11Zm-12.052-21.529,12.162,21.2a52.5,52.5,0,0,0,8.272-6.464l-17.147-17.311a38.386,38.386,0,0,1-3.287,2.63Z" transform="translate(-382.052 -89.529)" fill="#27191c"/></g><g transform="translate(0 39.943)"><g transform="translate(0.377 4.321)"><path d="M332.827,252.72c-.219.438-1.26.6-2.136.548a7.057,7.057,0,0,1-3.616-1.753,13.28,13.28,0,0,1-2.958-4.109,21.275,21.275,0,0,1-1.479-3.78v-.164a.251.251,0,0,0-.274-.219h0a.3.3,0,0,0-.274.164l-2.246,4.383a.376.376,0,0,1-.493.164l-.931-.438c-.11,0-.164-.11-.219-.219v-.274l3.013-5.916a10.922,10.922,0,0,1,2.191-2.958c.11-.11.219-.055.329,0,.055,0,.164.164.164.274a12.858,12.858,0,0,0,.931,6.519l.164.493a15.688,15.688,0,0,0,3.4,5.369,1.765,1.765,0,0,0,1.37.383,2.1,2.1,0,0,0,1.37-.712h0l1.479,1.479c.274.329.329.6.219.822Z" transform="translate(-302.765 -156.578)" fill="#201144"/><path d="M335.725,249.257a2.1,2.1,0,0,1-1.26.6,1.836,1.836,0,0,1-1.205-.329,16.869,16.869,0,0,1-3.342-5.314,3.786,3.786,0,0,0-.164-.438,12.979,12.979,0,0,1-.931-6.409c0-.11,0-.274-.055-.329l.274-.548.219-.493,6.026,2.958a5.057,5.057,0,0,1-.274.438,13.016,13.016,0,0,0-1.205,3.013,6.831,6.831,0,0,0,1.917,6.793Z" transform="translate(-307.526 -155.635)" fill="#ffcec7"/><path d="M308.722,255.094c0,.493-.876,1.1-1.7,1.424a6.811,6.811,0,0,1-4.054,0,12.3,12.3,0,0,1-4.492-2.356,18.334,18.334,0,0,1-2.958-2.739l-.11-.11c-.055-.11-.219-.11-.329-.11s-.219.164-.219.274v4.93a.423.423,0,0,1-.438.383h-1.041c-.11,0-.219,0-.274-.11a.418.418,0,0,1-.11-.274V249.78a12.059,12.059,0,0,1,.712-3.616c0-.11.164-.164.274-.164h0c.11,0,.219,0,.274.164a12.586,12.586,0,0,0,3.725,5.423,2.383,2.383,0,0,0,.383.329,15.229,15.229,0,0,0,5.478,3.287,1.885,1.885,0,0,0,1.424-.274,2,2,0,0,0,.931-1.26h0c.548.164,1.589.548,1.972.712s.548.383.548.657Z" transform="translate(-291.37 -160.157)" fill="#201144"/><path d="M306.923,252.584a1.849,1.849,0,0,1-.822,1.1,1.753,1.753,0,0,1-1.26.219,16.146,16.146,0,0,1-5.369-3.287,2.387,2.387,0,0,1-.384-.329,13.517,13.517,0,0,1-3.67-5.314.364.364,0,0,0-.219-.274v-1.1h6.738v.493a15.512,15.512,0,0,0,.274,3.232,6.914,6.914,0,0,0,4.766,5.259Z" transform="translate(-292.365 -159.072)" fill="#ffcec7"/><path d="M295.3,243.7h6.738v.493h-6.683V243.7Z" transform="translate(-292.41 -159.117)" fill="#ff9a95"/><path d="M335.4,239.013a5.046,5.046,0,0,1-.274.438l-6.026-2.958.219-.493,6.026,2.958Z" transform="translate(-307.694 -155.635)" fill="#ff9a95"/><path d="M323.6,187.918l-4,15.777c0,.164-.164.329-.329.438a.933.933,0,0,1-.548,0l-6.3-3.068-.657-.329-1.15-.548c-.11,0-.164-.11-.164-.219V188.959a16.25,16.25,0,0,0-1.479-6.026l-1.37-2.849-.986-8.765a.107.107,0,0,0-.11-.11c-.055,0-.11,0-.11.11l-.767,5.149h0l-.164,1.041-4.054,27.227a.251.251,0,0,1-.274.219H291.5a.259.259,0,0,1-.274-.274L290.4,158.5c.11.11,12.107,1.205,12.107,1.205h3.287c2.3,0,4.711,0,7.012-.219a1.735,1.735,0,0,0,.876-.219h.055c.11,0,.164-.11.219-.164l9.149,22.3a10.577,10.577,0,0,1,.493,6.629Z" transform="translate(-290.195 -120.591)" fill="#116562"/><path d="M315.655,91a4.225,4.225,0,0,0-1.7-1.7,33.423,33.423,0,0,1-4.273,2.575s-.548-1.041-1.424-.931h0a.728.728,0,0,0-.438.164,1.664,1.664,0,0,0-.712.657h0a.779.779,0,0,1-.11.329v.219a1.144,1.144,0,0,0,.438.877,1.934,1.934,0,0,0,1.37.383h0a1.159,1.159,0,0,0,.164.383h0a7.229,7.229,0,0,1,.493,3.616h0a3.87,3.87,0,0,1-.822,1.808c.383.383,2.136,2.246,3.616,1.917a2.513,2.513,0,0,0,1.753-1.917l-.11-.986-.164-1.26h.11c.055,0,.11-.055.164-.11a.789.789,0,0,0,.164-.11,3.178,3.178,0,0,0,1.424-2.356l.219-2.958a1.7,1.7,0,0,0-.329-.712Z" transform="translate(-297.701 -89.3)" fill="#ffcec7"/><path d="M316,99.574c0,.164.219.329.438.383.274.164.822.274.986.11h0a.925.925,0,0,0,.164-.548h0c0-.055,0-.055-.164-.11h-.055a3.207,3.207,0,0,1-.712-.11h-.383a.284.284,0,0,0-.219.11v.164Z" transform="translate(-301.77 -93.822)" fill="#ff9a95"/><path d="M314.336,103.083a.428.428,0,0,0,.219.219,13.855,13.855,0,0,0,1.205.712,13.384,13.384,0,0,0,1.315.548.78.78,0,0,1,.219.11v-.164l-.11-1.041h-.055a1.6,1.6,0,0,1-.493-.11.779.779,0,0,1-.329-.11,9.641,9.641,0,0,0-1.643-.548.521.521,0,0,0-.383.11.336.336,0,0,0,.055.329Z" transform="translate(-300.983 -95.359)" fill="#ff9a95"/><path d="M292.549,121.064a1.741,1.741,0,0,0,.164.493h0a19.373,19.373,0,0,0,3.67,5.971c.438.493.767.877,1.1,1.205a.415.415,0,0,0,.219.11h.274l8.272-4.163c.11,0,.164-.11.164-.219v-.274a28.082,28.082,0,0,1-2.794-8.217c0-.055,0-.11.11-.11.055,0,.11,0,.11.11a27.253,27.253,0,0,0,2.794,8.162c.055.164.11.274,0,.438,0,.164-.164.274-.274.329l-.712.383v.11c0,.11.055.164.11.274.11.164.164.329.274.493a9.519,9.519,0,0,0,.6.986,16.283,16.283,0,0,0,1.479,1.917,35.3,35.3,0,0,0,3.506,3.506,43.543,43.543,0,0,0,3.506,2.794,4.229,4.229,0,0,0-.11-.822c-.055-.6-.164-1.205-.219-1.753a37.28,37.28,0,0,1-.055-5.04c0-.877.11-1.808.164-2.684,0-.657.11-1.26.11-1.917v-.986h0a36.382,36.382,0,0,0-.11-4.383,10.91,10.91,0,0,0-5.423-8.327,16.5,16.5,0,0,0-1.7-.877h0a3.779,3.779,0,0,0-.548-.219,2.758,2.758,0,0,1-1.917,2.027h-.329c-1.589,0-3.287-1.753-3.561-2.082-4.383.438-7.286,2.191-8.765,5.259a9.862,9.862,0,0,0-.274,7.56Z" transform="translate(-290.81 -97.891)" fill="#22cac5"/><path d="M324.555,109.855h0c6.848,3.725,6.738,10.573,6.519,12.874.876.11,1.753.164,2.191.219a.3.3,0,0,0,.274-.164l.274-.877,2.356-8.108v-.274c0-.11-.11-.164-.219-.164-2.3-.548-7.669-2.191-11.449-3.561Z" transform="translate(-305.614 -98.57)" fill="#22cac5"/><path d="M386.134,122.155a3.128,3.128,0,0,1-.383.438,1.766,1.766,0,0,1-1.15.329l.11-.822h1.37Z" transform="translate(-332.79 -104.132)" fill="#ffcec7"/><path d="M385.577,120.405c0,.11,0,.219-.11.274s-.055,0-.11.055h0a1.565,1.565,0,0,1-.877.055h-.055a3.881,3.881,0,0,1-.767-.055,1.517,1.517,0,0,1-.493-.055H383a.743.743,0,0,1-.6-.383h0v-.274a.17.17,0,0,1,.055-.11.817.817,0,0,1,.438-.164,3.238,3.238,0,0,1,1.26,0h0a2.33,2.33,0,0,1,.6.11h0a.883.883,0,0,1,.493.164.661.661,0,0,1,.383.493Z" transform="translate(-331.795 -103.039)" fill="#ffcec7"/><path d="M365.289,96.053l-1.1,7.286a.778.778,0,0,0-.329.11,2.986,2.986,0,0,0-.931.548l1.041-7.067a1.231,1.231,0,0,0-1.205-1.424H343.322a1.287,1.287,0,0,0-1.26,1.1l-1.424,9.532-1.479,9.97v.274a1.231,1.231,0,0,0,1.205,1.424h18.954a1.787,1.787,0,0,0,1.808-1.589l1.041-7.012a2.561,2.561,0,0,0,.548.274h.164a.932.932,0,0,1,.383.055l-.11.931-1.041,7.176a1.641,1.641,0,0,1-1.589,1.37H339.378a1.57,1.57,0,0,1-1.205-.548,1.586,1.586,0,0,1-.383-1.315l.164-1.1h0v-.11l1.479-10.189v-.11h0l1.479-9.97A1.641,1.641,0,0,1,342.5,94.3h21.146a1.57,1.57,0,0,1,1.205.548,1.586,1.586,0,0,1,.383,1.315Z" transform="translate(-311.617 -91.561)" fill="#dfbba0"/><path d="M386.122,118.086a1.181,1.181,0,0,1-.876.219h-.164a1.517,1.517,0,0,1-.493-.055h-.164a1.394,1.394,0,0,1-.384-.11h-.219a.2.2,0,0,1-.164-.055,1.2,1.2,0,0,1-.274-.219c-.055-.164,0-.274.164-.383a2.936,2.936,0,0,1,1.041-.383h.6a1.57,1.57,0,0,1,1.205.548c.164.219,0,.493-.219.657Z" transform="translate(-332.231 -101.871)" fill="#ffcec7"/><path d="M386.5,114.411c0,.274-.383.548-.493.6a2.59,2.59,0,0,1-1.041.329h-1.1c-.11,0-.219,0-.274-.164v-.219a.285.285,0,0,1,.11-.219.983.983,0,0,1,.383-.274.271.271,0,0,0,.164-.055l.329-.164h0a.33.33,0,0,0,.219-.055h0a2.751,2.751,0,0,1,1.15-.11c.383,0,.548.164.548.329Z" transform="translate(-332.338 -100.496)" fill="#ffcec7"/><path d="M385.71,111.548a2.9,2.9,0,0,1-.548.657,2.22,2.22,0,0,1-.493.274s-.11,0-.11.055h0a.2.2,0,0,0-.164.055h0a.778.778,0,0,0-.329.11h-.219c-.11,0-.493,0-.548-.164v-.219c.11-.548.548-.931,1.315-1.205.11,0,.274-.11.383-.11h.329a.812.812,0,0,1,.383.055c.055,0,.11.11.164.164a.7.7,0,0,1-.055.329Z" transform="translate(-332.202 -99.112)" fill="#ffcec7"/><path d="M382.864,116.636a.737.737,0,0,0,.384.329.271.271,0,0,1,.164.055,1.206,1.206,0,0,0-.438.055c-.11,0-.219,0-.274.11l.383-2.684h.383a.962.962,0,0,0-.274.219l-.164.329v.329c0,.164.164.274.384.329a.466.466,0,0,0-.274.164.49.49,0,0,0-.219.657Z" transform="translate(-331.931 -100.695)" fill="#5b71d8"/><path d="M365.062,97.905l-1.1,7.4h0a.973.973,0,0,0-.219.548v.383s0,.11.055.11l-.438,2.958h0a.787.787,0,0,1-.11.164.761.761,0,0,0,0,.493h0l-1.041,7.231a1.641,1.641,0,0,1-1.589,1.37H341.67a1,1,0,0,1-.767-.329.917.917,0,0,1-.219-.822v-.329l1.534-9.915,1.424-9.587a1.018,1.018,0,0,1,1.041-.876H364.13a1,1,0,0,1,.767.329.917.917,0,0,1,.219.822Z" transform="translate(-312.923 -92.646)" fill="#fff"/><g transform="translate(29.568 7.834)"><path d="M376.391,117.953H374.2l1.972-14.353h2.191Z" transform="translate(-357.656 -103.6)" fill="#7b3d0e"/><path d="M368.891,119.762H366.7l1.643-12.162h2.191Z" transform="translate(-354.265 -105.409)" fill="#7b3d0e"/><path d="M361.291,121.615H359.1l1.37-9.916h2.191Z" transform="translate(-350.828 -107.263)" fill="#7b3d0e"/><path d="M353.791,123.243H351.6l1.1-7.943h2.136Z" transform="translate(-347.437 -108.891)" fill="#7b3d0e"/><path d="M346.849,121.3l-.657,4.656H344l.657-4.656Z" transform="translate(-344 -111.604)" fill="#7b3d0e"/></g><path d="M304.81,143.149c.11.164.164.274.274.438,2.739,4.054,8.382,7.4,12.709,9.477.164.055.274.164.438.219.11,0,.164.11.274.11.493.219.931.438,1.424.657.219.11.383.164.6.274a2.381,2.381,0,0,1-.329-.383v-.164h.164a8.428,8.428,0,0,0,.657.712h0a4.936,4.936,0,0,0,.548.493h0a7.842,7.842,0,0,0,.822.6,13.027,13.027,0,0,0,2.246,1.26,5.79,5.79,0,0,0,1.041.329h.164a.17.17,0,0,1,.11.055c.11.11.164.219.274.329a5.455,5.455,0,0,0,.548.6c.329.383.712.822,1.041,1.205.11.11.274.329.493.329.11,0,.11-.11.164-.164v-.274a5.98,5.98,0,0,0-.329-.6,2.262,2.262,0,0,0-.383-.6c-.274-.383-.548-.767-.876-1.15-.055-.11-.164-.164-.219-.274-.11-.11,0-.274.164-.164.657.6,1.315,1.15,1.972,1.753.164.164.329.274.493.438.055.055.164.11.219.164.055,0,.164.11.219.11.11,0,.219,0,.274-.164a.6.6,0,0,0-.164-.493,3.547,3.547,0,0,0-.438-.493l-.493-.493h0c-.438-.438-.822-.877-1.26-1.26l-.6-.6c-.11-.11,0-.274.164-.164.548.548,1.15,1.1,1.7,1.643a.756.756,0,0,1,.164.219h0a3.034,3.034,0,0,1,.438.329h0a4.819,4.819,0,0,0,.548.329h.274c.055,0,.11,0,.164-.11h0v-.11h0v-.11h0a2.743,2.743,0,0,0-.383-.438,21.749,21.749,0,0,0-1.589-1.589l-.986-.822v-.164h.164a5.824,5.824,0,0,1,.6.493h0a4.8,4.8,0,0,0,1.205.548,3.839,3.839,0,0,0,.767.164,1.39,1.39,0,0,0,.657-.11c.055,0,.11-.11.164-.164v-.274a.531.531,0,0,0-.383-.438,3.8,3.8,0,0,0-.712-.274c-.274-.055-.548-.164-.822-.219-.329-.11-.6-.164-.931-.274a1.046,1.046,0,0,1-.438-.164.329.329,0,0,1-.219-.055h-.493c-.11,0-.219-.11-.329-.11-.219-.11-.438-.164-.657-.274a8.741,8.741,0,0,1-1.26-.548c-.438-.219-.931-.383-1.424-.6a1.1,1.1,0,0,1-.438-.219c-.11-.055-.164-.11-.274-.164-.329-.219-.6-.438-.931-.657-.11-.055-.164-.11-.274-.164-.164-.11-.383-.274-.548-.383h0c-1.1-.822-2.191-1.7-3.287-2.575a42.514,42.514,0,0,1-3.561-3.451,18.437,18.437,0,0,1-2.575-3.561.415.415,0,0,0-.11-.219.17.17,0,0,0-.055-.11.415.415,0,0,0-.11-.219v-.11h0l-6.574,3.287Z" transform="translate(-296.661 -112.361)" fill="#ffcec7"/><path d="M290.23,149.628a1.144,1.144,0,0,0,.548.438h0a6.332,6.332,0,0,0,1.753.438h.438l4.273.657c2.739.438,5.588.877,8.382,1.15a41.285,41.285,0,0,0,4.93.329,3.637,3.637,0,0,1,.712.055h-.11c-4.547-2.191-10.518-5.752-13.148-10.025l-.548.274a2.377,2.377,0,0,0-.274.055h-.164a.625.625,0,0,1-.329-.164,17.835,17.835,0,0,1-5.2-3.835l-1.26,8a1.206,1.206,0,0,1-.055.438,3.005,3.005,0,0,0,.11,2.191Z" transform="translate(-290.025 -111.773)" fill="#22cac5"/><path d="M304.9,142.787c.11.164.164.274.274.438l6.519-3.287a.17.17,0,0,0-.055-.11.415.415,0,0,0-.11-.219v-.11h0l-6.574,3.287Z" transform="translate(-296.751 -112)" fill="#ff9a95"/></g><g transform="translate(0 1.746)"><path d="M316.8,139h0v.164c0,.11.11.164.11.274a2.219,2.219,0,0,0,.274.493,9.523,9.523,0,0,0,.6.986,16.284,16.284,0,0,0,1.479,1.917c1.1,1.26,2.3,2.41,3.506,3.561a41.587,41.587,0,0,0,3.89,3.068,12.026,12.026,0,0,0,1.37.931,2.573,2.573,0,0,0,.493.329,3.782,3.782,0,0,0,.438.164,1.945,1.945,0,0,1,.493.219,3.8,3.8,0,0,0,.712.274c.274.11.548.274.876.383.438.164.877.329,1.26.493a.779.779,0,0,1,.329.11h.274a.116.116,0,0,0,.164-.164.578.578,0,0,0-.274-.11c-.11,0-.219-.11-.329-.11-.219-.055-.438-.164-.657-.219a8.738,8.738,0,0,1-1.26-.548c-.493-.219-.931-.383-1.424-.6a1.1,1.1,0,0,1-.438-.219c-.11-.055-.164-.11-.274-.164l-1.15-.822q-1.972-1.4-3.78-2.958A42.5,42.5,0,0,1,319.923,143a15.889,15.889,0,0,1-2.684-3.89.415.415,0,0,0-.11-.219v-.11s0-.11-.055-.11a.116.116,0,1,0-.164.164h0Z" transform="translate(-301.755 -109.033)" fill="#27191c"/><path d="M348.333,169.242c.11.055.219.164.329.219.055,0,.11.055.164.11h.164c.11,0,.164.055.274.11h.219a.47.47,0,0,0,.383-.329.736.736,0,0,0-.11-.493h0V168.8s-.055-.11-.109-.11c-.055-.055-.11-.164-.219-.219a16.135,16.135,0,0,0-1.643-1.7,8.013,8.013,0,0,0-1.041-.876h-.164c-.055,0,0,.11,0,.164.6.493,1.15.986,1.7,1.479a10.512,10.512,0,0,1,.767.822c.11.164.274.274.383.438a.17.17,0,0,0,.055.11h0c0,.055.11.164.11.219v.219c0,.055,0,.11-.11.11h-.438a4.086,4.086,0,0,1-.657-.383h-.164v.164h.11Z" transform="translate(-315.21 -121.362)" fill="#27191c"/><path d="M345.47,167.835c.548.548,1.15,1.1,1.7,1.643a.755.755,0,0,1,.164.219.116.116,0,0,0,.164-.164c-.438-.438-.822-.877-1.26-1.26l-.6-.6a.116.116,0,0,0-.164.164Z" transform="translate(-314.703 -122.147)" fill="#27191c"/><path d="M346.3,163.783a.781.781,0,0,1,.219.11.329.329,0,0,1,.219.055c.11,0,.274.11.383.11.274.11.548.164.822.274a4.564,4.564,0,0,0,.822.219,2.711,2.711,0,0,1,.712.219,1.193,1.193,0,0,1,.493.383.408.408,0,0,1-.055.493.7.7,0,0,1-.548.219,1.741,1.741,0,0,1-.767-.11,5.389,5.389,0,0,1-.877-.274,1.823,1.823,0,0,1-.548-.329c-.11-.055-.219.11-.11.219h.11s.11.055.11.11c.055.055.164.11.219.219l.438.438.876.877a3.015,3.015,0,0,1,.384.493l.11.11h0V168h-.329a2.558,2.558,0,0,1-.548-.274c-.164-.11-.384-.274-.548-.383h-.164v.164a1.968,1.968,0,0,0,.548.383,4.82,4.82,0,0,0,.548.329c.11,0,.219.11.274.11h.219A.47.47,0,0,0,349.7,168v-.548h0V167.4a.787.787,0,0,0-.11-.164c-.055-.11-.164-.164-.219-.274-.274-.329-.6-.657-.877-.986a9.376,9.376,0,0,0-1.1-.986h0l-.055-.055c-.11-.055-.219.11-.11.219a2.222,2.222,0,0,0,.493.274l.822.329a2,2,0,0,0,1.589,0,.629.629,0,0,0,.329-.6.674.674,0,0,0-.383-.6,2.076,2.076,0,0,0-.712-.329c-.274-.055-.548-.164-.822-.219-.657-.219-1.315-.383-1.972-.6h-.164c-.055,0,0,.11,0,.164h0Z" transform="translate(-315.095 -120.232)" fill="#27191c"/><path d="M341.8,168.551c.274.274.548.6.822.931a.676.676,0,0,1,.219.438c0,.11,0,.164-.055.219l-.055.055h-.164c-.055,0-.164-.11-.219-.164-.164-.164-.329-.274-.493-.438-.329-.274-.657-.548-.986-.876-.383-.329-.712-.657-1.1-.986-.11-.11-.274,0-.164.164a10.1,10.1,0,0,1,1.643,2.356c0,.11.11.219.164.329,0,.11.055.219,0,.274a.175.175,0,0,1-.164.164.494.494,0,0,1-.274-.055c-.11-.055-.164-.164-.219-.219-.11-.11-.164-.219-.274-.329a5.463,5.463,0,0,0-.548-.6c-.384-.383-.712-.822-1.041-1.205a.054.054,0,0,0-.055-.055h-.164a.33.33,0,0,1-.219-.055,2.087,2.087,0,0,1-.548-.164,12.424,12.424,0,0,1-2.246-1.15,9.325,9.325,0,0,1-2.082-1.808c-.055-.11-.164-.164-.219-.274H333.2v.164a8.934,8.934,0,0,0,2.136,1.917,11.694,11.694,0,0,0,2.3,1.26,7.76,7.76,0,0,0,1.205.383h0c.383.438.767.877,1.1,1.26.164.219.383.438.548.657.11.11.164.219.274.329l.274.274a.507.507,0,0,0,.657-.11c.164-.219.055-.493,0-.712-.219-.438-.438-.876-.712-1.315a12.875,12.875,0,0,0-1.041-1.37l-.164.164c.712.6,1.37,1.205,2.082,1.863a2.145,2.145,0,0,0,.548.438.973.973,0,0,0,.548.219h.11a.2.2,0,0,0,.164-.11c.055-.055.11-.164.164-.219a.618.618,0,0,0-.164-.6,4.937,4.937,0,0,0-.493-.548c-.164-.164-.329-.383-.493-.548a.116.116,0,1,0-.164.164h0Z" transform="translate(-309.171 -121.001)" fill="#27191c"/><path d="M315.216,97.583c-.055,0-.11,0-.11-.11l-.274-2.246h.055l.055-.055h0c.055,0,.11-.055.164-.11a.787.787,0,0,0,.164-.11A3.177,3.177,0,0,0,316.7,92.6l.274-3.944a3.682,3.682,0,0,0-.657-2.356h0a3.48,3.48,0,0,0-1.7-1.26h-.438a.7.7,0,0,1-.329-.055h-1.589a.2.2,0,0,0-.164.055h-.055a1130.663,1130.663,0,0,1-.329.11c-.11,0-.164.11-.219.11s-.164.11-.219.164a.789.789,0,0,0-.164.11c-.11.11-.219.164-.274.274l-.219.219a4.36,4.36,0,0,0-1.1,2.684.11.11,0,1,1-.219,0,5.029,5.029,0,0,1,1.15-2.849c.055-.11.164-.164.219-.274l.274-.274a.789.789,0,0,0,.164-.11c.055-.055.164-.11.219-.164.055,0,.164-.11.219-.164.055,0,.11-.055.164-.11a.271.271,0,0,0,.164-.055h.11a.2.2,0,0,0,.164-.055h.274a.414.414,0,0,0,.219-.055h1.205a1.07,1.07,0,0,1,.383.055h.274a.2.2,0,0,1,.164.055,3.623,3.623,0,0,1,1.808,1.315v.11a3.41,3.41,0,0,1,.767,2.465l-.274,3.944a3.075,3.075,0,0,1-1.534,2.52c-.055,0-.109.055-.164.11-.055,0-.11.055-.219.11h0l.219,2.082c0,.055,0,.11-.11.11h0Z" transform="translate(-298.364 -84.6)" fill="#27191c"/><path d="M316.97,100.17a2.159,2.159,0,0,1-.822-.219h0a1.057,1.057,0,0,1-.548-.548.932.932,0,0,1,.055-.383.555.555,0,0,1,.383-.219h.383a1.865,1.865,0,0,1,.767.11h.055a.332.332,0,0,1,.383.274v.055a1.554,1.554,0,0,1-.219.712h0a.622.622,0,0,1-.438.164Zm-.712-.438c.274.164.822.274.986.11h0a1.057,1.057,0,0,0,.164-.548h0c0-.055,0-.055-.164-.11h-.055a3.205,3.205,0,0,1-.712-.11h-.329a.285.285,0,0,0-.219.11v.164c0,.164.219.329.438.383Z" transform="translate(-301.213 -91.021)" fill="#27191c"/><path d="M308.463,95.168a2.109,2.109,0,0,1-1.315-.438,1.626,1.626,0,0,1-.548-1.041v-.274a1.016,1.016,0,0,1,.11-.383h0a1.731,1.731,0,0,1,.767-.767,1.057,1.057,0,0,1,.548-.164c.055,0,.11,0,.11.11,0,.055,0,.11-.11.11a.884.884,0,0,0-.493.164,1.665,1.665,0,0,0-.712.657h0a.779.779,0,0,1-.11.329v.219a1.144,1.144,0,0,0,.438.877,1.934,1.934,0,0,0,1.37.383c.055,0,.11,0,.11.11,0,.055,0,.11-.11.11h-.055Z" transform="translate(-297.143 -87.991)" fill="#27191c"/><path d="M307.836,94.656h0a.1.1,0,0,1-.055-.164c.219-.548.822-.493,1.1-.493.055,0,.11,0,.11.11s0,.11-.11.11c-.438,0-.767,0-.876.383a.191.191,0,0,1-.11.055Z" transform="translate(-297.667 -88.849)" fill="#27191c"/><path d="M309,95.067h0a.823.823,0,0,1-.6-.657c0-.055,0-.11.11-.11.055,0,.11,0,.11.11a.582.582,0,0,0,.438.493c.055,0,.11.055.11.164,0,0-.055.11-.11.11Z" transform="translate(-297.957 -88.986)" fill="#27191c"/><path d="M317.863,96.215h0a.818.818,0,0,1-.383-.164s-.055-.11,0-.164c0,0,.11-.055.164,0,.11.055.164.11.274.11.055,0,.164,0,.164-.055a.6.6,0,0,0-.055-.274l-.329-.6V94.9h.164l.329.6c0,.11.164.274.055.438a.367.367,0,0,1-.384.219Z" transform="translate(-302.052 -89.257)" fill="#27191c"/><path d="M309.71,103.271h-.11v-.164a3.39,3.39,0,0,0,.877-1.808,6.577,6.577,0,0,0-.6-3.835.123.123,0,0,1,.219-.11,6.721,6.721,0,0,1,.6,4,3.307,3.307,0,0,1-.931,1.917h-.055Z" transform="translate(-298.499 -90.343)" fill="#27191c"/><path d="M320.835,157.023h0a6.206,6.206,0,0,1-1.1-.493c-.548-.219-1.1-.493-1.7-.767-.164-.055-.274-.164-.438-.219-4.6-2.246-10.573-5.807-13.2-10.135v-.11h.164c2.575,4.273,8.546,7.834,13.093,10.025.164.055.274.164.438.219.548.274,1.15.548,1.7.767.383.164.767.329,1.1.493a.1.1,0,0,1,.055.164.191.191,0,0,1-.11.055Z" transform="translate(-296.148 -112.048)" fill="#27191c"/><path d="M297.813,128.936h-.11a1.161,1.161,0,0,1-.383-.164c-.329-.329-.712-.712-1.15-1.205a20.988,20.988,0,0,1-3.725-5.971h0c-.055-.219-.11-.383-.164-.548a10.127,10.127,0,0,1,.274-7.724c1.534-3.177,4.492-4.93,8.984-5.423.055,0,.11,0,.11.11,0,.055,0,.11-.11.11-4.437.438-7.341,2.191-8.82,5.259a9.863,9.863,0,0,0-.274,7.56,1.741,1.741,0,0,0,.164.493h0a19.374,19.374,0,0,0,3.67,5.971c.438.493.767.877,1.1,1.205a.415.415,0,0,0,.219.11h.274l8.272-4.163c.11,0,.164-.11.164-.219v-.274a28.081,28.081,0,0,1-2.794-8.217c0-.055,0-.11.11-.11.055,0,.11,0,.11.11a27.253,27.253,0,0,0,2.794,8.162c.055.164.11.274,0,.438,0,.164-.164.274-.274.329l-8.272,4.163c-.11,0-.219.055-.329.055Z" transform="translate(-290.383 -95.136)" fill="#27191c"/><path d="M336.363,133.783h0a3.368,3.368,0,0,1-.712-.055,6.709,6.709,0,0,1-1.041-.11.11.11,0,1,1,0-.219,6.712,6.712,0,0,1,1.041.11,3.123,3.123,0,0,1,.712.055.11.11,0,1,1,0,.219Z" transform="translate(-309.759 -106.667)" fill="#27191c"/><path d="M331.385,111.844h0c-3.123-.931-7.779-2.41-10.573-3.451h0c-.219-.11-.493-.164-.657-.274h0a.191.191,0,0,1-.055-.11c0-.055,0-.11.11-.11h0c.164.055.383.164.657.274h0c2.849,1.1,7.45,2.575,10.573,3.451.055,0,.11.055.055.164A.191.191,0,0,1,331.385,111.844Z" transform="translate(-303.247 -95.136)" fill="#27191c"/><path d="M313.161,110.082c-1.7,0-3.451-2.027-3.561-2.136v-.164h.164s2.027,2.356,3.67,2.027c.767-.164,1.37-.822,1.753-1.972a.122.122,0,1,1,.219.11c-.438,1.26-1.1,1.972-1.917,2.136h-.329Z" transform="translate(-298.499 -95.072)" fill="#27191c"/><path d="M311.5,150.04h0a2.248,2.248,0,0,1-.6-.055c-.329,0-.6-.055-.767-.055-1.479,0-3.123-.164-4.93-.329-2.794-.274-5.642-.767-8.382-1.205-1.37-.219-2.849-.438-4.273-.657h-.438a5.447,5.447,0,0,1-1.863-.438,1.188,1.188,0,0,1-.6-.548,3.166,3.166,0,0,1-.164-2.356c0-.164.055-.274.055-.438l1.753-11.449a.107.107,0,0,1,.11-.11c.055,0,.11,0,.11.11h0l-1.753,11.449a1.206,1.206,0,0,1-.055.438,3,3,0,0,0,.11,2.191,1.144,1.144,0,0,0,.548.438,6.333,6.333,0,0,0,1.753.438h.438l4.273.657c2.739.438,5.588.876,8.382,1.15a41.289,41.289,0,0,0,4.93.329,4.478,4.478,0,0,1,.767.055,1.863,1.863,0,0,1,.548.055.11.11,0,0,1,0,.219Z" transform="translate(-289.337 -106.214)" fill="#27191c"/><path d="M328,135.491c-.055,0-.11,0-.11-.11,0-.329-.11-.712-.11-1.041-.055-.6-.164-1.205-.219-1.753a37.264,37.264,0,0,1-.055-5.04c0-.876.11-1.808.164-2.684,0-.657.11-1.26.11-1.917v-.986a36.389,36.389,0,0,0-.11-4.383,10.91,10.91,0,0,0-5.423-8.327,17.428,17.428,0,0,0-1.753-.877h0c-.219-.11-.438-.164-.657-.274a.122.122,0,1,1,.11-.219,6.146,6.146,0,0,1,.712.274,17.434,17.434,0,0,1,1.753.877,11.18,11.18,0,0,1,5.533,8.491,37,37,0,0,1,.11,4.437v.986c0,.657-.055,1.315-.11,1.917-.055.877-.11,1.808-.164,2.684a36.448,36.448,0,0,0,.055,4.985,9.023,9.023,0,0,0,.219,1.753c0,.329.11.712.11,1.041h0c0,.055,0,.11-.11.11h0Z" transform="translate(-303.093 -95.117)" fill="#27191c"/><path d="M360.345,118.854H339.2a1.662,1.662,0,0,1-1.37-.657,1.991,1.991,0,0,1-.438-1.479l3.177-21.529a1.876,1.876,0,0,1,1.808-1.589h21.146a1.662,1.662,0,0,1,1.37.657,1.991,1.991,0,0,1,.438,1.479l-1.1,7.341a.11.11,0,1,1-.219,0l1.1-7.341a1.7,1.7,0,0,0-.383-1.315,1.759,1.759,0,0,0-1.205-.548H342.377a1.6,1.6,0,0,0-1.589,1.37l-3.177,21.529a1.7,1.7,0,0,0,.383,1.315,1.759,1.759,0,0,0,1.205.548h21.146a1.6,1.6,0,0,0,1.589-1.37l1.205-8.162a.11.11,0,0,1,.219,0l-1.205,8.162a1.876,1.876,0,0,1-1.808,1.589Z" transform="translate(-311.062 -88.67)" fill="#27191c"/><path d="M360.448,118.7H341.494a1.17,1.17,0,0,1-.931-.438,1.305,1.305,0,0,1-.274-.986v-.164l2.9-19.612a1.34,1.34,0,0,1,1.26-1.1H363.9a1.17,1.17,0,0,1,.931.438,1.305,1.305,0,0,1,.274.986l-1.1,7.45a.11.11,0,1,1-.219,0l1.1-7.45a1.11,1.11,0,0,0-.219-.822,1.081,1.081,0,0,0-.767-.329H344.452a1.106,1.106,0,0,0-1.041.877l-2.9,19.776a1.11,1.11,0,0,0,.219.822,1.082,1.082,0,0,0,.767.329h18.954a1.6,1.6,0,0,0,1.589-1.37l1.1-7.286a.11.11,0,0,1,.219,0l-1.1,7.286A1.876,1.876,0,0,1,360.448,118.7Z" transform="translate(-312.37 -89.936)" fill="#27191c"/><path d="M382.21,117.387h0a.118.118,0,0,1-.11-.11l.438-3.068a.11.11,0,1,1,.219,0l-.438,3.068A.118.118,0,0,1,382.21,117.387Z" transform="translate(-331.283 -97.939)" fill="#27191c"/><path d="M384.474,122.94h-.164c-.055,0-.11,0-.11-.11,0-.055,0-.11.11-.11a1.765,1.765,0,0,0,1.26-.329,4.1,4.1,0,0,0,.6-.712s.11-.055.164,0c0,0,.055.11,0,.164a4.419,4.419,0,0,1-.657.767,1.756,1.756,0,0,1-1.205.383Z" transform="translate(-332.232 -101.356)" fill="#27191c"/><path d="M384.6,120.821h-.383a6.14,6.14,0,0,1-1.315-.164h-.164a1.268,1.268,0,0,1-.767-.548.76.76,0,0,1,0-.493.8.8,0,0,1,.657-.383,5,5,0,0,1,1.808,0,1.342,1.342,0,0,1,.657.219.921.921,0,0,1,.493.712.552.552,0,0,1-.164.493,1.32,1.32,0,0,1-.822.219ZM383.39,119.4a3.369,3.369,0,0,0-.767.055.547.547,0,0,0-.493.274V120a.9.9,0,0,0,.6.383h.164c.438.11.931.11,1.26.164h.055a1.877,1.877,0,0,0,.986-.164.419.419,0,0,0,.11-.274.585.585,0,0,0-.383-.493,1.1,1.1,0,0,0-.6-.164,6.1,6.1,0,0,0-.931-.11Z" transform="translate(-331.204 -100.223)" fill="#27191c"/><path d="M385.156,118.344h-.11a4.257,4.257,0,0,1-.876-.11,1.016,1.016,0,0,1-.384-.11h-.219a.415.415,0,0,1-.219-.11,1.026,1.026,0,0,1-.383-.329.527.527,0,0,1,.219-.657,2.718,2.718,0,0,1,1.753-.438,1.593,1.593,0,0,1,1.37.657.717.717,0,0,1-.274.931,1.655,1.655,0,0,1-.877.274Zm-1.589-.548h.055a.271.271,0,0,1,.164.055c.164,0,.274.11.383.11a4.258,4.258,0,0,0,.877.11,1.494,1.494,0,0,0,.877-.219c.164-.11.383-.438.219-.657a1.778,1.778,0,0,0-1.205-.548,2.853,2.853,0,0,0-1.643.438.321.321,0,0,0-.164.383c0,.11.11.164.274.219a.2.2,0,0,1,.164.055h0Z" transform="translate(-331.654 -99.061)" fill="#27191c"/><path d="M383.9,115.58h-.164a.477.477,0,0,1-.438-.329v-.329a.474.474,0,0,1,.164-.329.852.852,0,0,1,.438-.329s.11,0,.11-.055a2.671,2.671,0,0,1,.383-.164.414.414,0,0,0,.219-.055,3.194,3.194,0,0,1,1.26-.11c.493.055.767.219.767.548s-.383.657-.6.767a2.388,2.388,0,0,1-1.15.383H383.9Zm1.534-1.589a2.129,2.129,0,0,0-.822.11.2.2,0,0,0-.164.055c-.11,0-.219.11-.329.164a.271.271,0,0,0-.164.055.983.983,0,0,0-.383.274c0,.055-.11.164-.11.219h0v.219c0,.11.164.164.274.164h1.1a1.954,1.954,0,0,0,1.041-.329c.11-.055.493-.329.493-.6,0-.164-.164-.274-.548-.329h-.329Zm-2.082.877Z" transform="translate(-331.825 -97.831)" fill="#27191c"/><path d="M383.4,112.88a.58.58,0,0,1-.6-.329v-.383c.11-.6.6-1.041,1.479-1.37.164,0,.274-.11.438-.11a2.21,2.21,0,0,1,.822.055.66.66,0,0,1,.274.274,1.516,1.516,0,0,1-.055.493,6.934,6.934,0,0,1-.6.712l-.493.329a3.542,3.542,0,0,1-.712.219h-.438Zm.383-.164Zm1.26-1.808h-.329a1.016,1.016,0,0,0-.383.11c-.767.274-1.205.657-1.315,1.205v.219c.055.219.438.164.548.164h.219a1.342,1.342,0,0,0,.657-.219,2.222,2.222,0,0,0,.493-.274,2.069,2.069,0,0,0,.548-.657.362.362,0,0,0,.055-.329q0-.082-.164-.164a.813.813,0,0,0-.383-.055Z" transform="translate(-331.599 -96.391)" fill="#27191c"/><path d="M331.567,208.974a.522.522,0,0,1-.384-.11l-.548-.274-7.505-3.725a.559.559,0,0,1-.274-.438V193.416a14.739,14.739,0,0,0-1.479-5.916l-3.177-6.464.767-5.2a.11.11,0,0,1,.219,0l-.767,5.149,3.123,6.409a13.538,13.538,0,0,1,1.424,6.026v11.011a.428.428,0,0,0,.219.219l8.108,3.944a.5.5,0,0,0,.548,0,.477.477,0,0,0,.329-.438l4-15.777a10.577,10.577,0,0,0-.493-6.629l-7.012-16.982a.122.122,0,0,1,.219-.11l7.012,16.982a11.092,11.092,0,0,1,.493,6.793l-4,15.777a.79.79,0,0,1-.493.6c-.11,0-.219.055-.384.055Z" transform="translate(-302.388 -122.583)" fill="#27191c"/><path d="M346.8,206.269h0c-.055,0-.11-.055-.055-.164a11.276,11.276,0,0,0-.548-7.341.122.122,0,1,1,.219-.11,11.424,11.424,0,0,1,.6,7.505s-.055.11-.11.11Z" transform="translate(-315.049 -136.149)" fill="#27191c"/><path d="M344.464,207.637h0c-.055,0-.11-.055-.055-.164a6.214,6.214,0,0,0-.11-4.109.122.122,0,1,1,.219-.11,7.123,7.123,0,0,1,.164,4.273.191.191,0,0,1-.11.055Z" transform="translate(-314.19 -138.229)" fill="#27191c"/><path d="M300.9,205.029H291.26a.491.491,0,0,1-.493-.493L290,158.41c0-.055,0-.11.11-.11h0c.055,0,.11,0,.11.11l.767,46.126a.259.259,0,0,0,.274.274H300.9a.364.364,0,0,0,.274-.219l4.054-27.227.164-1.041a.11.11,0,1,1,.219,0l-.164,1.041-4.054,27.227a.483.483,0,0,1-.493.438Z" transform="translate(-289.637 -117.926)" fill="#27191c"/><path d="M335.752,249.141H335.7a6.772,6.772,0,0,1-2.027-6.848,10.647,10.647,0,0,1,1.479-3.451l-6.026-2.958-.493,1.041c0,.055-.11.055-.164,0-.055,0-.055-.11,0-.164l.6-1.26,6.519,3.177v.11A8.713,8.713,0,0,0,334,242.293a6.455,6.455,0,0,0,1.917,6.629v.164h-.11Z" transform="translate(-307.012 -152.834)" fill="#27191c"/><path d="M330.948,253.25h-.438a7.333,7.333,0,0,1-3.78-1.808,12.825,12.825,0,0,1-3.013-4.163,21.657,21.657,0,0,1-1.479-3.835v-.164h-.11l-2.246,4.383a.622.622,0,0,1-.822.274l-.931-.438h0a.579.579,0,0,1-.329-.383v-.493l3.013-5.916A10.54,10.54,0,0,1,323,237.692a.421.421,0,0,1,.548-.055.654.654,0,0,1,.274.493,12.53,12.53,0,0,0,.931,6.409c.055.164.11.274.164.438a16.871,16.871,0,0,0,3.342,5.314,1.567,1.567,0,0,0,1.205.329,1.871,1.871,0,0,0,1.315-.712v-.11a1.2,1.2,0,0,1,.274.164c.384.383,1.205,1.205,1.479,1.534a1.03,1.03,0,0,1,.274,1.041c-.274.493-1.1.657-1.917.657Zm-8.875-10.3h0a.364.364,0,0,1,.274.219v.164a17.767,17.767,0,0,0,1.479,3.78,13.708,13.708,0,0,0,2.958,4.109,6.781,6.781,0,0,0,3.616,1.753c.877.055,1.917-.055,2.137-.548.11-.219,0-.493-.219-.822a12.514,12.514,0,0,0-1.479-1.479h0a2.162,2.162,0,0,1-1.37.657,2.353,2.353,0,0,1-1.37-.383,16.3,16.3,0,0,1-3.4-5.369l-.164-.493a13.481,13.481,0,0,1-.931-6.519.253.253,0,0,0-.164-.274c-.055,0-.219-.055-.329,0a10.922,10.922,0,0,0-2.191,2.958l-3.013,5.916c0,.11-.055.219,0,.274,0,.11.11.164.219.219h0l.931.438a.361.361,0,0,0,.493-.164l2.246-4.383c0-.11.164-.164.274-.164Z" transform="translate(-302.207 -153.766)" fill="#27191c"/><path d="M307,252.5h0a6.821,6.821,0,0,1-4.821-5.259,12,12,0,0,1-.219-3.725h-6.738v1.205c0,.055,0,.11-.11.11-.055,0-.11,0-.11-.11V243.3h7.231v.11a11.533,11.533,0,0,0,.164,3.78,6.431,6.431,0,0,0,4.711,5.095c.055,0,.11.055.055.164a.191.191,0,0,1-.11.055Z" transform="translate(-291.898 -156.361)" fill="#27191c"/><path d="M294.343,256.93H293.3a.565.565,0,0,1-.6-.6V249.7a11.728,11.728,0,0,1,.712-3.67.494.494,0,0,1,.931,0,12.146,12.146,0,0,0,3.67,5.314,2.389,2.389,0,0,0,.383.329,17.2,17.2,0,0,0,5.369,3.287,1.753,1.753,0,0,0,1.26-.219,1.949,1.949,0,0,0,.876-1.205v-.11l.274.11a19.6,19.6,0,0,1,1.972.712c.493.219.712.493.712.822,0,.657-.986,1.315-1.808,1.643a6.744,6.744,0,0,1-4.163,0,12.473,12.473,0,0,1-4.547-2.41,19.03,19.03,0,0,1-3.013-2.794l-.11-.11h-.055v4.985a.658.658,0,0,1-.657.6Zm-.493-11.066c-.11,0-.219,0-.274.164a10.532,10.532,0,0,0-.657,3.616v6.629c-.055.11,0,.219,0,.274a.419.419,0,0,0,.274.11h1.041a.374.374,0,0,0,.383-.383v-4.93c0-.11.11-.219.274-.274.11,0,.274,0,.329.11l.11.11a18.335,18.335,0,0,0,2.958,2.739,12.3,12.3,0,0,0,4.492,2.356,7.35,7.35,0,0,0,4.054,0c.822-.329,1.7-.877,1.7-1.424,0-.219-.164-.438-.548-.657a19.588,19.588,0,0,0-1.972-.712h0a2.271,2.271,0,0,1-.931,1.205,1.885,1.885,0,0,1-1.424.274,16.552,16.552,0,0,1-5.478-3.342,2.385,2.385,0,0,1-.384-.329,13.081,13.081,0,0,1-3.725-5.423c0-.11-.164-.164-.274-.164h0Z" transform="translate(-290.858 -157.447)" fill="#27191c"/></g><g transform="translate(1.678)"><path d="M320.3,94.138a.491.491,0,0,0,.493.493c.11,0,.274,0,.329-.11.055-.055.11-.164.164-.219v-.11a.493.493,0,1,0-.986,0Z" transform="translate(-305.016 -86.969)" fill="#27191c"/><path d="M314.793,93.1a.493.493,0,1,0,.493.493A.491.491,0,0,0,314.793,93.1Z" transform="translate(-302.303 -86.698)" fill="#27191c"/><path d="M292.4,135.9a18.832,18.832,0,0,0,5.643,4.109v-.11a.3.3,0,0,1-.274-.164c-.383-.383-.767-.822-1.15-1.205a19.74,19.74,0,0,1-3.67-5.971V132.5c-.164,1.1-.329,2.246-.493,3.342Z" transform="translate(-292.4 -104.514)" fill="#27191c"/><path d="M324.5,109.9v.11a10.988,10.988,0,0,1,5.478,8.436,29.279,29.279,0,0,1,.11,4.383,6.715,6.715,0,0,1,1.041.11C331.348,120.747,331.567,113.625,324.5,109.9Z" transform="translate(-306.915 -94.294)" fill="#27191c"/><path d="M305.089,84.857c1.424-2.465,4.547-4.547,8.108-2.794,2.575,1.26,2.3,4.492,1.972,6.19h0c.438,1.863.712,3.725.986,5.643a6.04,6.04,0,0,0,.11.986c0,.11.11.767,0,.822H316.1a22.3,22.3,0,0,1-2.739-.712,1.016,1.016,0,0,1-.384-.11l-.11-1.041h.11c.055,0,.11-.055.219-.11.055,0,.11-.055.164-.11a3.452,3.452,0,0,0,1.479-2.465l.11-1.534V88.8h0v-.219h0a3.72,3.72,0,0,0-.384-1.1,4.225,4.225,0,0,0-1.7-1.7,33.424,33.424,0,0,1-4.273,2.575s-.6-1.1-1.479-.931a2.038,2.038,0,0,0-1.15.767h0a1.981,1.981,0,0,1-.219.274h.11V88.8a1.7,1.7,0,0,0,1.972,1.37.27.27,0,0,0,.055.164v-.11c.548,1.15,1.479,3.013,1.972,3.89a.23.23,0,0,1-.274.329l-1.424-.438c-4.218-1.424-4.273-6.683-2.849-9.149Z" transform="translate(-297.858 -81.413)" fill="#27191c"/><path d="M320.263,190.894,318.4,187l.657-4.383.219-.822Z" transform="translate(-304.157 -126.806)" fill="#27191c"/></g></g><g transform="translate(99.299 7.505)"><g transform="translate(0.164 0.164)"><rect width="39.881" height="43.058" rx="5.2" fill="#fff"/><g transform="translate(4.711 4.547)"><path d="M520.86,71.162A15.062,15.062,0,0,1,507,80.31V65.3Z" transform="translate(-491.935 -46.4)" fill="#116562"/><path d="M524.193,38.415,511.1,45.81V30.8A15.061,15.061,0,0,1,524.193,38.415Z" transform="translate(-493.789 -30.8)" fill="#22cac5"/><path d="M494.565,57.522l-14.134,5.149a14.557,14.557,0,0,1-.931-5.149,14.964,14.964,0,0,1,3.342-9.422Z" transform="translate(-479.5 -38.623)" fill="#898888"/><path d="M497.323,37.9V52.91L485.6,43.488A15.008,15.008,0,0,1,497.323,37.9Z" transform="translate(-482.258 -34.01)" fill="#898888"/><path d="M495.334,65.3V80.31A15.109,15.109,0,0,1,481.2,70.449Z" transform="translate(-480.269 -46.4)" fill="#178d89"/><path d="M521.965,59.2a14.951,14.951,0,0,1-1.205,5.862L506.9,59.2l13.093-7.4A14.774,14.774,0,0,1,521.965,59.2Z" transform="translate(-491.89 -40.296)" fill="#a6eae8"/></g></g><path d="M507.8,65.532H473.558a2.946,2.946,0,0,1-2.958-2.958V25.158a2.946,2.946,0,0,1,2.958-2.958H507.8a2.946,2.946,0,0,1,2.958,2.958V62.574A2.946,2.946,0,0,1,507.8,65.532ZM473.558,22.474a2.747,2.747,0,0,0-2.739,2.739V62.629a2.747,2.747,0,0,0,2.739,2.739H507.8a2.747,2.747,0,0,0,2.739-2.739V25.158a2.747,2.747,0,0,0-2.739-2.739H473.558Z" transform="translate(-470.6 -22.2)" fill="#27191c"/></g><g transform="translate(9.786)"><g transform="translate(0.11 0.219)"><path d="M345.309,69.5H308.55a1.157,1.157,0,0,1-1.15-1.15h0a1.157,1.157,0,0,1,1.15-1.15h36.759a1.157,1.157,0,0,1,1.15,1.15h0A1.157,1.157,0,0,1,345.309,69.5Z" transform="translate(-307.4 -35.262)" fill="#d4d8f3"/><rect width="7.341" height="3.944" transform="translate(2.301 27.993)" fill="#22cac5"/><rect width="7.341" height="12.764" transform="translate(11.34 19.174)" fill="#e8faf9"/><rect width="7.341" height="10.463" transform="translate(20.379 21.474)" fill="#178d89"/><rect width="7.341" height="21.201" transform="translate(29.418 10.737)" fill="#116562"/><path d="M342.577,16.9l-.219-8-6.793,4.163,2.3,1.315-4.985,9.149-8.217-4.821L314.2,30.046l1.972,1.808,8.984-9.751,8.71,5.095,6.355-11.559Z" transform="translate(-310.475 -8.9)" fill="#22cac5"/></g><path d="M345.219,69.52H308.46a1.26,1.26,0,1,1,0-2.52h36.759a1.26,1.26,0,0,1,0,2.52Zm-36.759-2.3a1.04,1.04,0,0,0-1.041,1.041A1.078,1.078,0,0,0,308.46,69.3h36.759a1.04,1.04,0,0,0,1.041-1.041,1.078,1.078,0,0,0-1.041-1.041Z" transform="translate(-307.2 -34.953)" fill="#27191c"/><path d="M319.06,63.963H311.5V59.8h7.56Zm-7.341-.219h7.122V60.019h-7.122Z" transform="translate(-309.144 -31.697)" fill="#27191c"/><path d="M335.56,56.683H328V43.7h7.56Zm-7.4-.219h7.122V43.919h-7.122Z" transform="translate(-316.605 -24.417)" fill="#27191c"/><path d="M351.96,58.582H344.4V47.9h7.56Zm-7.341-.219h7.122V48.119h-7.122Z" transform="translate(-324.021 -26.316)" fill="#27191c"/><path d="M368.46,49.72H360.9V28.3h7.56V49.72Zm-7.341-.219h7.122V28.519h-7.122V49.446Z" transform="translate(-331.482 -17.453)" fill="#27191c"/><path d="M316.036,31.837,313.9,29.865l10.573-11.5,8.217,4.821,4.93-8.984-2.41-1.315L342.387,8.5l.219,8.382-2.41-1.315-6.355,11.559-8.765-5.149-8.984,9.751Zm-1.808-1.972,1.808,1.643,8.984-9.751,8.71,5.095,6.355-11.559,2.246,1.26-.164-7.615L335.7,12.883l2.246,1.26L332.8,23.51l-8.217-4.821-10.3,11.175Z" transform="translate(-310.23 -8.5)" fill="#27191c"/></g></g><g transform="translate(0 6.409)"><g transform="translate(4.109 1.15)"><g transform="translate(0.219 0.219)"><path d="M22.5,145.8v65.683H37.62V145.8H22.5Zm11.833,11.888H25.677v-8.656h8.656Z" transform="translate(-22.5 -78.364)" fill="#a6eae8"/><rect width="8.217" height="8.217" transform="translate(3.396 70.888)" fill="#178d89"/><path d="M77.9,125.5v76.8H93.02V125.5Zm11.888,11.888H81.132v-8.656h8.656Z" transform="translate(-47.551 -69.184)" fill="#a6eae8"/><rect width="8.217" height="8.217" transform="translate(33.8 59.767)" fill="#178d89"/><path d="M133.4,73.6V178.836h15.12V73.6Zm11.888,11.888h-8.656V76.832h8.656Z" transform="translate(-72.647 -45.716)" fill="#a6eae8"/><rect width="8.217" height="8.217" transform="translate(64.204 31.335)" fill="#178d89"/><path d="M188.9,58V171.782h15.12V58Zm11.833,11.888h-8.656V61.232h8.656Z" transform="translate(-97.743 -38.662)" fill="#a6eae8"/><rect width="8.217" height="8.217" transform="translate(94.553 22.789)" fill="#178d89"/><path d="M244.4,22.7V155.874h15.12V22.7Zm11.833,11.833h-8.655V25.877h8.655Z" transform="translate(-122.839 -22.7)" fill="#a6eae8"/><rect width="8.217" height="8.217" transform="translate(124.957 3.396)" fill="#178d89"/></g><path d="M37.6,211.622H22.1V145.5H37.6Zm-15.284-.274H37.384V145.664H22.319Z" transform="translate(-22.1 -78.009)" fill="#27191c"/><path d="M36.956,160.355H28.3V151.7h8.656Zm-8.436-.219h8.217v-8.217H28.519Z" transform="translate(-24.904 -80.812)" fill="#27191c"/><path d="M93.1,202.442H77.6V125.2H93.1Zm-15.339-.274H92.829V125.419H77.764v76.8Z" transform="translate(-47.196 -68.83)" fill="#27191c"/><path d="M92.456,140.056H83.8V131.4h8.656Zm-8.436-.219h8.217v-8.217H84.019Z" transform="translate(-50 -71.633)" fill="#27191c"/><path d="M148.6,178.929H133.1V73.2h15.5V178.929Zm-15.339-.274h15.065V73.419H133.264Z" transform="translate(-72.292 -45.316)" fill="#27191c"/><path d="M147.956,88.156H139.3V79.5h8.656Zm-8.436-.219h8.217V79.719h-8.217Z" transform="translate(-75.096 -48.165)" fill="#27191c"/><path d="M204,171.875H188.5V57.6H204V171.875Zm-15.284-.274h15.065V57.819H188.719Z" transform="translate(-97.343 -38.262)" fill="#27191c"/><path d="M203.456,72.556H194.8V63.9h8.656Zm-8.436-.219h8.217V64.119h-8.217Z" transform="translate(-100.192 -41.111)" fill="#27191c"/><path d="M259.5,155.913H244V22.3h15.5V155.913Zm-15.284-.274h15.065V22.519H244.219v133.12Z" transform="translate(-122.439 -22.3)" fill="#27191c"/><path d="M258.855,37.156H250.2V28.5h8.656Zm-8.436-.219h8.217V28.719h-8.217Z" transform="translate(-125.243 -25.104)" fill="#27191c"/><path d="M35.567,104.067a.707.707,0,0,1-.712-.493.769.769,0,0,1,.438-.986l30.24-11.066,30.4-28.486,30.842-8.546,29.911-19.283a.752.752,0,0,1,.822,1.26L127.436,55.913,96.7,64.459,66.354,92.891,35.84,104.067h-.274Z" transform="translate(-27.842 -28.084)" fill="#116562"/></g><g transform="translate(0.383 94.663)"><g transform="translate(0.11 0.055)"><rect width="39.607" height="38.785" rx="4.4" transform="translate(0 1.15)" fill="#178d89"/><path d="M55.107,260.6v-1.1a2.432,2.432,0,0,1-2.41,2.41H17.91a2.432,2.432,0,0,1-2.41-2.41v1.1a2.432,2.432,0,0,0,2.41,2.41H52.7A2.432,2.432,0,0,0,55.107,260.6Z" transform="translate(-15.5 -223.125)" fill="#116562"/><path d="M55.107,195.51v1.1a2.432,2.432,0,0,0-2.41-2.41H17.91a2.432,2.432,0,0,0-2.41,2.41v-1.1a2.432,2.432,0,0,1,2.41-2.41H52.7A2.432,2.432,0,0,1,55.107,195.51Z" transform="translate(-15.5 -193.1)" fill="#116562"/></g><path d="M52.606,235.994H17.82a2.549,2.549,0,0,1-2.52-2.52V199.51c0-.055,0-.11.11-.11s.11,0,.11.11v33.965a2.315,2.315,0,0,0,2.3,2.3H52.606a2.315,2.315,0,0,0,2.3-2.3V199.51c0-.055,0-.11.11-.11s.11,0,.11.11v33.965a2.549,2.549,0,0,1-2.52,2.52Z" transform="translate(-15.3 -195.894)" fill="#27191c"/><path d="M55.017,196.725c-.055,0-.11,0-.11-.11v-1.1a2.315,2.315,0,0,0-2.3-2.3H17.82a2.315,2.315,0,0,0-2.3,2.3v1.1c0,.055,0,.11-.11.11s-.11,0-.11-.11v-1.1A2.549,2.549,0,0,1,17.82,193H52.606a2.549,2.549,0,0,1,2.52,2.52v1.1C55.126,196.67,55.126,196.725,55.017,196.725Z" transform="translate(-15.3 -193)" fill="#27191c"/><g transform="translate(10.039 3.561)"><g transform="translate(0.115 0.055)"><rect width="6.464" height="6.464" rx="3.232" transform="translate(5.897 26.295)" fill="#fff"/><path d="M51.017,202.394q-2.3-2.794-7.4-2.794c-3.4,0-5.643.986-7.4,3.013a10.844,10.844,0,0,0-2.3,4.547,3.073,3.073,0,0,0,2.575,3.78h0a3.135,3.135,0,0,0,3.451-2.356c.493-2.082,1.589-3.068,3.287-3.068s1.424.274,1.972.822a3.229,3.229,0,0,1,.877,2.41,5.98,5.98,0,0,1-.712,3.013,13.425,13.425,0,0,1-2.52,3.013,12.589,12.589,0,0,0-1.917,2.246c-.986,1.534-.931,3.451-.931,5.2h0a2.9,2.9,0,1,0,5.807.055h0a6.489,6.489,0,0,1,.11-1.424,3.135,3.135,0,0,1,1.1-1.424c.493-.493.986-.931,1.534-1.424a17.782,17.782,0,0,0,3.725-4.273,9.954,9.954,0,0,0,1.1-4.821,10.972,10.972,0,0,0-2.3-6.464Z" transform="translate(-33.835 -199.6)" fill="#fff"/></g><path d="M47.642,254.083a3.32,3.32,0,0,1-3.342-3.342h0a3.342,3.342,0,0,1,6.683,0h0A3.32,3.32,0,0,1,47.642,254.083Zm0-6.464a3.121,3.121,0,0,0-3.123,3.123h0a3.121,3.121,0,0,0,3.123,3.123,3.087,3.087,0,0,0,3.123-3.123h0A3.121,3.121,0,0,0,47.642,247.619Z" transform="translate(-38.453 -221.16)" fill="#27191c"/><path d="M42.815,225.193A3.04,3.04,0,0,1,39.8,222.18v-.219c0-1.7,0-3.616.986-5.095a13.259,13.259,0,0,1,1.917-2.246,12.916,12.916,0,0,0,2.465-3.013,6.208,6.208,0,0,0,.657-2.958,2.8,2.8,0,0,0-.822-2.3,2.837,2.837,0,0,0-1.917-.767c-1.643,0-2.684.986-3.177,3.013a3.2,3.2,0,0,1-3.561,2.465h0a3.25,3.25,0,0,1-2.191-1.37,3.291,3.291,0,0,1-.438-2.575,10.845,10.845,0,0,1,2.3-4.547,9.427,9.427,0,0,1,7.505-3.068c3.232,0,5.916.931,7.45,2.794h0a10.03,10.03,0,0,1,2.356,6.519,8.789,8.789,0,0,1-1.1,4.876,17.688,17.688,0,0,1-3.725,4.328c-.493.438-1.041.931-1.534,1.424h-.055a4.557,4.557,0,0,0-.986,1.37,3.371,3.371,0,0,0-.11,1.041v.383a3.04,3.04,0,0,1-3.013,3.013Zm.329-19.831a3.036,3.036,0,0,1,2.082.822,3.156,3.156,0,0,1,.877,2.465,6.191,6.191,0,0,1-.712,3.068,13.489,13.489,0,0,1-2.52,3.068,12.5,12.5,0,0,0-1.917,2.191c-.931,1.424-.931,3.287-.931,4.985v.219a2.794,2.794,0,0,0,5.588.055V221.8a3.727,3.727,0,0,1,.11-1.1,3.32,3.32,0,0,1,1.041-1.424h.055a19.194,19.194,0,0,1,1.534-1.479,17.389,17.389,0,0,0,3.67-4.273,9.583,9.583,0,0,0,1.1-4.766,10.547,10.547,0,0,0-2.3-6.355h0c-1.534-1.808-3.944-2.739-7.286-2.739s-5.588.986-7.341,2.958a10.547,10.547,0,0,0-2.246,4.492,2.956,2.956,0,0,0,.438,2.356,2.9,2.9,0,0,0,2.082,1.26h0a3.01,3.01,0,0,0,3.342-2.3c.493-2.136,1.643-3.177,3.4-3.177Z" transform="translate(-33.626 -199.5)" fill="#27191c"/></g></g><g transform="translate(105.071 94.663)"><g transform="translate(0.055 0.055)"><rect width="39.607" height="38.785" rx="4.4" transform="translate(0 1.15)" fill="#178d89"/><path d="M246.207,260.6v-1.1a2.432,2.432,0,0,1-2.41,2.41H209.01a2.432,2.432,0,0,1-2.41-2.41v1.1a2.432,2.432,0,0,0,2.41,2.41H243.8A2.432,2.432,0,0,0,246.207,260.6Z" transform="translate(-206.545 -223.125)" fill="#116562"/><path d="M246.207,195.51v1.1a2.432,2.432,0,0,0-2.41-2.41H209.01a2.432,2.432,0,0,0-2.41,2.41v-1.1a2.432,2.432,0,0,1,2.41-2.41H243.8A2.432,2.432,0,0,1,246.207,195.51Z" transform="translate(-206.545 -193.1)" fill="#116562"/></g><path d="M243.706,235.994H208.92a2.549,2.549,0,0,1-2.52-2.52V199.51c0-.055,0-.11.11-.11s.11,0,.11.11v33.965a2.315,2.315,0,0,0,2.3,2.3h34.786a2.315,2.315,0,0,0,2.3-2.3V199.51c0-.055,0-.11.11-.11s.11,0,.11.11v33.965a2.549,2.549,0,0,1-2.52,2.52Z" transform="translate(-206.4 -195.894)" fill="#27191c"/><path d="M246.117,196.725c-.055,0-.11,0-.11-.11v-1.1a2.315,2.315,0,0,0-2.3-2.3H208.92a2.315,2.315,0,0,0-2.3,2.3v1.1c0,.055,0,.11-.11.11s-.11,0-.11-.11v-1.1a2.549,2.549,0,0,1,2.52-2.52h34.786a2.549,2.549,0,0,1,2.52,2.52v1.1C246.226,196.67,246.226,196.725,246.117,196.725Z" transform="translate(-206.4 -193)" fill="#27191c"/><g transform="translate(10.039 3.561)"><g transform="translate(0.115 0.055)"><rect width="6.464" height="6.464" rx="3.232" transform="translate(5.842 26.295)" fill="#fff"/><path d="M242.117,202.394q-2.3-2.794-7.4-2.794c-3.4,0-5.643.986-7.4,3.013a10.844,10.844,0,0,0-2.3,4.547,3.074,3.074,0,0,0,2.575,3.78h0a3.135,3.135,0,0,0,3.451-2.356c.493-2.082,1.589-3.068,3.287-3.068s1.424.274,1.972.822a3.229,3.229,0,0,1,.876,2.41,5.98,5.98,0,0,1-.712,3.013,13.424,13.424,0,0,1-2.52,3.013,12.589,12.589,0,0,0-1.917,2.246c-.986,1.534-.931,3.451-.931,5.2h0a2.9,2.9,0,1,0,5.807.055h0a6.489,6.489,0,0,1,.11-1.424,3.135,3.135,0,0,1,1.1-1.424c.493-.493.986-.931,1.534-1.424a17.783,17.783,0,0,0,3.725-4.273,9.954,9.954,0,0,0,1.1-4.821,10.972,10.972,0,0,0-2.3-6.464Z" transform="translate(-224.935 -199.6)" fill="#fff"/></g><path d="M238.742,254.083a3.32,3.32,0,0,1-3.342-3.342h0a3.342,3.342,0,0,1,6.683,0h0A3.32,3.32,0,0,1,238.742,254.083Zm0-6.464a3.121,3.121,0,0,0-3.123,3.123h0a3.121,3.121,0,0,0,3.123,3.123,3.087,3.087,0,0,0,3.123-3.123h0A3.121,3.121,0,0,0,238.742,247.619Z" transform="translate(-229.553 -221.16)" fill="#27191c"/><path d="M233.915,225.193a3.04,3.04,0,0,1-3.013-3.013v-.219c0-1.7,0-3.616.986-5.095a13.259,13.259,0,0,1,1.917-2.246,12.916,12.916,0,0,0,2.465-3.013,6.208,6.208,0,0,0,.657-2.958,2.8,2.8,0,0,0-.822-2.3,2.837,2.837,0,0,0-1.917-.767c-1.643,0-2.684.986-3.177,3.013a3.2,3.2,0,0,1-3.561,2.465h0a3.25,3.25,0,0,1-2.191-1.37,3.291,3.291,0,0,1-.438-2.575,10.845,10.845,0,0,1,2.3-4.547,9.427,9.427,0,0,1,7.505-3.068c3.232,0,5.916.931,7.45,2.794h0a10.031,10.031,0,0,1,2.356,6.519,8.789,8.789,0,0,1-1.1,4.876,17.688,17.688,0,0,1-3.725,4.328c-.493.438-1.041.931-1.534,1.424h-.055a4.557,4.557,0,0,0-.986,1.37,3.37,3.37,0,0,0-.11,1.041v.383a3.04,3.04,0,0,1-3.013,3.013Zm.329-19.831a3.036,3.036,0,0,1,2.082.822,3.156,3.156,0,0,1,.876,2.465,6.191,6.191,0,0,1-.712,3.068,13.488,13.488,0,0,1-2.52,3.068,12.5,12.5,0,0,0-1.917,2.191c-.931,1.424-.931,3.287-.931,4.985v.219a2.794,2.794,0,0,0,5.588.055V221.8a3.727,3.727,0,0,1,.11-1.1,3.32,3.32,0,0,1,1.041-1.424h.055a19.188,19.188,0,0,1,1.534-1.479,17.387,17.387,0,0,0,3.67-4.273,9.583,9.583,0,0,0,1.1-4.766,10.547,10.547,0,0,0-2.3-6.355h0c-1.534-1.808-3.944-2.739-7.286-2.739s-5.588.986-7.341,2.958a10.546,10.546,0,0,0-2.246,4.492,2.956,2.956,0,0,0,.438,2.356,2.9,2.9,0,0,0,2.082,1.26h0a3.01,3.01,0,0,0,3.342-2.3c.493-2.136,1.643-3.177,3.4-3.177Z" transform="translate(-224.726 -199.5)" fill="#27191c"/></g></g><g transform="translate(52.35 33.324)"><g transform="translate(0.241 1.792)"><g transform="translate(21.036 90.992)"><rect width="16.161" height="0.548" transform="translate(0 7.067)" fill="#aeddff"/><rect width="16.161" height="0.548" transform="translate(0 7.834)" fill="#3895ea"/><path d="M149,254.422h7.45a.9.9,0,0,0-.931-.822h-5.588A.947.947,0,0,0,149,254.422Z" transform="translate(-149 -251.847)" fill="#aeddff"/><path d="M149.5,250.6v1.643a1.053,1.053,0,0,1,.657-.219h5.588a.873.873,0,0,1,.657.219l.219-1.643H149.5Z" transform="translate(-149.226 -250.49)" fill="#ffcec7"/><path d="M156.641,251.057H149.3V250.4h7.4Z" transform="translate(-149.136 -250.4)" fill="#ff9a95"/><path d="M172.6,255.229V257.2a.329.329,0,1,0,.657,0v-1.972a.329.329,0,1,0-.657,0Z" transform="translate(-159.672 -252.435)" fill="#fff"/><path d="M168.9,255.229V257.2a.329.329,0,1,0,.657,0v-1.972a.329.329,0,1,0-.657,0Z" transform="translate(-157.998 -252.435)" fill="#fff"/><g transform="translate(0 2.465)"><path d="M165.3,255.229V257.2a.329.329,0,1,0,.657,0v-1.972a.329.329,0,1,0-.657,0Z" transform="translate(-156.371 -254.9)" fill="#fff"/><path d="M149,255.6v4h16.161a2.129,2.129,0,0,0-.11-.822,3.924,3.924,0,0,0-1.1-1.972,4.387,4.387,0,0,0-1.15-.822v1.534a.549.549,0,0,1-.548.548.589.589,0,0,1-.548-.548v-1.863h-.822v1.917a.549.549,0,0,1-.548.548.589.589,0,0,1-.548-.548v-1.917h-.877v1.917a.549.549,0,0,1-.548.548.589.589,0,0,1-.548-.548v-1.917h-8.656Z" transform="translate(-149 -255.217)" fill="#116562"/></g><circle cx="1.15" cy="1.15" r="1.15" transform="translate(3.561 3.342)" fill="#fff"/><path d="M151.291,259.682h13.86a4.228,4.228,0,0,1,.11.822H149.1v-2.9a2.306,2.306,0,0,1,2.246,2.082Z" transform="translate(-149.045 -253.656)" fill="#fff"/></g><g transform="translate(0.219 90.992)"><rect width="16.161" height="0.548" transform="translate(0 7.067)" fill="#aeddff"/><rect width="16.161" height="0.548" transform="translate(0 7.834)" fill="#3895ea"/><path d="M111,254.422h7.45a.9.9,0,0,0-.931-.822h-5.588A.947.947,0,0,0,111,254.422Z" transform="translate(-111 -251.847)" fill="#aeddff"/><path d="M111.5,250.6v1.643a1.053,1.053,0,0,1,.657-.219h5.588a.873.873,0,0,1,.657.219l.219-1.643H111.5Z" transform="translate(-111.226 -250.49)" fill="#ffcec7"/><path d="M118.586,251.057H111.3V250.4h7.341Z" transform="translate(-111.136 -250.4)" fill="#ff9a95"/><path d="M134.5,255.229V257.2a.329.329,0,1,0,.657,0v-1.972a.329.329,0,1,0-.657,0Z" transform="translate(-121.626 -252.435)" fill="#fff"/><path d="M130.9,255.229V257.2a.329.329,0,1,0,.657,0v-1.972a.329.329,0,1,0-.657,0Z" transform="translate(-119.998 -252.435)" fill="#fff"/><g transform="translate(0 2.465)"><path d="M127.2,255.229V257.2a.329.329,0,1,0,.657,0v-1.972a.329.329,0,1,0-.657,0Z" transform="translate(-118.325 -254.9)" fill="#116562"/><path d="M111,255.6v4h16.161a2.129,2.129,0,0,0-.11-.822,3.924,3.924,0,0,0-1.1-1.972,4.387,4.387,0,0,0-1.15-.822v1.534a.549.549,0,0,1-.548.548.589.589,0,0,1-.548-.548v-1.863h-.822v1.917a.549.549,0,0,1-.548.548.589.589,0,0,1-.548-.548v-1.917h-.877v1.917a.549.549,0,0,1-.548.548.589.589,0,0,1-.548-.548v-1.917h-8.656Z" transform="translate(-111 -255.217)" fill="#116562"/></g><circle cx="1.15" cy="1.15" r="1.15" transform="translate(3.506 3.342)" fill="#fff"/><path d="M113.191,259.682h13.86a4.228,4.228,0,0,1,.11.822H111v-2.9a2.306,2.306,0,0,1,2.246,2.082Z" transform="translate(-111 -253.656)" fill="#fff"/></g><g transform="translate(24.926)"><path d="M179.874,129.649a21.474,21.474,0,1,1,21.474-21.474A21.509,21.509,0,0,1,179.874,129.649Zm0-40.21a18.735,18.735,0,1,0,18.735,18.735A18.727,18.727,0,0,0,179.874,89.439Z" transform="translate(-157.14 -85.385)" fill="#dfbba0"/><path d="M196.365,92.627a22.675,22.675,0,0,0-10.956-7.341,22.228,22.228,0,0,0-6.574-.986A22.748,22.748,0,0,0,156.1,107.034c0,12.545,1.424,9.258,4.163,13.148a23.21,23.21,0,0,0,8.272,7.176,22.737,22.737,0,0,0,33.033-20.269c0-12.545-1.863-10.409-5.2-14.462Zm-17.53,35.389a20.927,20.927,0,1,1,20.927-20.927A20.925,20.925,0,0,1,178.834,128.016Z" transform="translate(-156.1 -84.3)" fill="#dfbba0"/><path d="M180.507,88.1a20.707,20.707,0,1,0,20.708,20.707A20.726,20.726,0,0,0,180.507,88.1Zm0,40.21a19.5,19.5,0,1,1,19.5-19.5A19.545,19.545,0,0,1,180.507,128.31Z" transform="translate(-157.773 -86.018)" fill="#dfbba0"/><path d="M181.683,90.7a19.283,19.283,0,1,0,19.283,19.283A19.312,19.312,0,0,0,181.683,90.7Z" transform="translate(-158.949 -87.194)" fill="#7b3d0e"/><path d="M198.982,120.661a5.525,5.525,0,0,1-1.424,3.944A6,6,0,0,1,194,126.414h-.055v1.7h-4.656v-1.7h-.055a6.366,6.366,0,0,1-3.561-1.863,5.584,5.584,0,0,1-1.37-3.944v-1.972h5.259v2.191c0,.822.219,1.7,1.972,1.7s1.972-.931,1.972-1.7a2.55,2.55,0,0,0-.438-1.534,5.246,5.246,0,0,0-1.205-1.26,20.322,20.322,0,0,0-2.136-1.424,29.767,29.767,0,0,1-2.739-1.808,8.576,8.576,0,0,1-1.863-2.082,6.247,6.247,0,0,1,.6-6.9,6.547,6.547,0,0,1,3.506-1.863h.055V102.2h4.656v1.7H194a6.884,6.884,0,0,1,3.561,1.808,5.5,5.5,0,0,1,1.37,3.944v1.15h-5.259v-1.37a1.717,1.717,0,0,0-.438-1.315,2.715,2.715,0,0,0-2.958,0,1.8,1.8,0,0,0-.438,1.315,2.8,2.8,0,0,0,.438,1.534,5.245,5.245,0,0,0,1.205,1.26,20.317,20.317,0,0,0,2.136,1.424,29.763,29.763,0,0,1,2.739,1.808,5.349,5.349,0,0,1,.986.931,4.387,4.387,0,0,1,.822,1.15,6,6,0,0,1,.767,3.013Z" transform="translate(-168.852 -92.394)" fill="#fff"/></g><path d="M157.01,246.2l-.329,1.917a.251.251,0,0,1-.274.219h-7.669a.347.347,0,0,1-.329-.274l-.11-1.863h8.71Z" transform="translate(-127.647 -157.508)" fill="#fff"/><path d="M119.529,246.2l-.657,1.917a.412.412,0,0,1-.383.274h-7.615a.219.219,0,0,1-.219-.11c0-.055-.055-.11-.055-.219l.219-1.863h8.71Z" transform="translate(-110.6 -157.508)" fill="#fff"/><path d="M140.636,109.505a3.741,3.741,0,0,1-2.575,1.753c-1.643.219-3.616-.712-5.862-2.849a13.467,13.467,0,0,1,1.534-.11,6.242,6.242,0,0,0,3.78,1.808c1.1,0,.383,0,.6-.055a2.594,2.594,0,0,0,1.589-1.205c.274.164.493.329.767.493.055,0,.11.11.164.11h0Z" transform="translate(-120.367 -95.152)" fill="#fff"/><path d="M180.711,146.461a.2.2,0,0,0,.055.164c.6.219,1.205.438,1.808.712.219.11.438.164.657.274h0c.329.164.712.329,1.041.493.219.11.438.219.493.493a.219.219,0,0,1-.11.219h-.274a1.016,1.016,0,0,1-.383-.11,1.046,1.046,0,0,1-.438-.164c-.329-.11-.6-.219-.931-.329h0c-.6-.219-1.205-.383-1.808-.6a.33.33,0,0,1-.219-.055h-.055a.122.122,0,1,0-.11.219h0a8.024,8.024,0,0,1,1.534.767c.164.11.274.164.438.274h0a.17.17,0,0,1,.11.055c.055,0,.164.11.219.164.164.11.274.219.438.329.11.11.274.219.383.329a.345.345,0,0,1,0,.329H183.4a.329.329,0,0,1-.219-.055,2.559,2.559,0,0,1-.548-.274,10.214,10.214,0,0,1-1.1-.548c-.055,0-.11-.055-.219-.11-.164-.11-.329-.164-.493-.274-.11,0-.164-.11-.274-.11h-.055a.17.17,0,0,1-.11-.055h-.11a1.6,1.6,0,0,0-.493.11h-.548a9.611,9.611,0,0,1-2.191-.164h-.164a1.289,1.289,0,0,1-.438-.11.418.418,0,0,1-.274-.11.2.2,0,0,1-.164-.055l.274-3.889h2.356c.822,0,1.643-.055,2.41-.11.822-.055,1.589-.164,2.356-.274.329,0,.767-.055.986.219,0,.055.11.11.11.219v.219c0,.11-.164.219-.274.274a1.947,1.947,0,0,1-.493.219c-.164,0-.383.11-.548.11h-1.534v.11h.219a.418.418,0,0,1,.274.11l.493.164h.11c.383.164.767.329,1.1.493.164.11.383.164.548.274a1.193,1.193,0,0,1,.438.274.265.265,0,0,1,0,.383.659.659,0,0,1-.438.11,2.667,2.667,0,0,1-.657-.055.7.7,0,0,1-.329-.055h-.274c-.11,0-.219-.11-.329-.164-.6-.274-1.26-.493-1.863-.767a.415.415,0,0,1-.219-.11.2.2,0,0,0-.164.055Z" transform="translate(-140.173 -111.292)" fill="#ffcec7"/><path d="M140.791,88.647a4.285,4.285,0,0,1-3.342-.329c-1.643-.712-2.465-.6-3.068.329a4.269,4.269,0,0,0-.712,1.917h-.11a1.457,1.457,0,0,0-1.26,1.37,1.17,1.17,0,0,0,.438.931,1.492,1.492,0,0,0,1.1.383h.329c.11,0,.11,0,.219.274h0c.164.383.329.822.548,1.26h0c.055.164.712,1.753-.931,4.109,1.589,1.37,3.013,1.917,4.109,1.7a2.448,2.448,0,0,0,1.479-1.15l-.383-2.575h.055a3.44,3.44,0,0,0,1.863-2.849l.11-3.561A8.718,8.718,0,0,0,140.791,88.647Zm-7.012,3.013a1.689,1.689,0,0,0-.548.055h0a.594.594,0,0,0,.438.438.118.118,0,0,1,.11.11s-.055.11-.11.11h0a.861.861,0,0,1-.6-.548.383.383,0,0,0-.11.219.191.191,0,0,1-.11.055h0a.1.1,0,0,1-.055-.164,1.057,1.057,0,0,1,1.1-.548h0c.055,0,.11,0,.11.11,0,.055,0,.11-.11.11Zm3.78.712s.11-.055.164,0c.11,0,.164.11.274.11.055,0,.164,0,.164-.11a.6.6,0,0,0-.055-.274l-.329-.6v-.164h.164l.329.6a.59.59,0,0,1,.11.438.367.367,0,0,1-.383.219h0a.818.818,0,0,1-.383-.164s-.055-.11,0-.164Zm-1.26-.986a.493.493,0,1,1,.493-.493A.491.491,0,0,1,136.3,91.386Zm2.684,2.684a1.7,1.7,0,0,1-.986.767h-.11a.765.765,0,0,1-.493-.164,1.338,1.338,0,0,1-.438-.986.219.219,0,0,1,.11-.219c.055-.055.164-.11.219-.055l1.589.274c.11,0,.164.055.219.164v.274Zm.657-2.52a.493.493,0,1,1,.493-.493A.491.491,0,0,1,139.641,91.55Z" transform="translate(-120.412 -85.908)" fill="#ffcec7"/><path d="M142.585,103.785l.164,1.205a.78.78,0,0,1-.219-.11,6.423,6.423,0,0,1-1.315-.493,5.519,5.519,0,0,1-1.26-.657.428.428,0,0,1-.219-.219.362.362,0,0,1-.055-.329c.055-.164.219-.164.383-.11.712.11,1.315.383,1.972.548.164,0,.329.055.493.055h.055Z" transform="translate(-123.74 -92.774)" fill="#ff9a95"/><path d="M142.843,98.774a1.641,1.641,0,0,1-.822.657.59.59,0,0,1-.438-.11,1.165,1.165,0,0,1-.383-.822h0l1.589.274h.055Z" transform="translate(-124.437 -90.721)" fill="#ff9a95"/><path d="M177.25,145l-.274,4.163a1.29,1.29,0,0,1-.438-.11.418.418,0,0,1-.274-.11.2.2,0,0,1-.164-.055l.274-3.89h.931Z" transform="translate(-140.218 -111.747)" fill="#ff9a95"/><path d="M148.884,128.048l-.329,4.821a.471.471,0,0,1-.438.438q-2.3.082-4.273.164h-5.478a35.386,35.386,0,0,1-5.04-.383h0a14.026,14.026,0,0,1-1.479-.274h0a26.265,26.265,0,0,1-4.054-1.15c-2.63-1.041-8.984-4.054-11.23-9.313h0a10.55,10.55,0,0,1-.767-3.342,9.861,9.861,0,0,1,4.328-8.765,13.751,13.751,0,0,1,4.547-1.643c2.082,2.027,4,3.068,5.643,3.068h.548a3.749,3.749,0,0,0,2.684-1.808h0a.17.17,0,0,1,.11.055l.11.11c.329.274.657.548.986.877l.11.11.11.11.11.11.11.11s.11.11.11.164l.11.11s.055.11.11.11l.11.11c.11.11.164.219.274.329a11.49,11.49,0,0,1,1.643,3.123v.11h0v.11c.11.274.164.548.274.822h0c0,.6-.055,1.26-.055,1.863a22.163,22.163,0,0,0,.657,5.369c-7.067-3.013-11.559-5.807-12.874-8.162,0,0-.11-.055-.164,0,0,0-.055.11,0,.164,1.808,3.123,8.546,6.409,13.86,8.6,4.218,1.753,8,3.013,9.422,3.506a.6.6,0,0,1,.383.548Z" transform="translate(-112.947 -95.288)" fill="#22cac5"/><path d="M139.284,148.376a1.665,1.665,0,0,1-.877,1.534,2.888,2.888,0,0,1-.822.274,13.353,13.353,0,0,1-2.958,0c-.6,0-1.15-.055-1.753-.055-1.26,0-2.575.055-3.78.164l-3.177.164c-.822,0-1.7,0-2.52.055-2.41.055-4.876.164-7.341,0a1.1,1.1,0,0,1-.6-.164h0a.971.971,0,0,1-.657-1.041l1.041-12.107c4.054,7.176,12.983,9.313,19.886,9.587.712,0,2.575,0,3.342-.055h.274v1.643Z" transform="translate(-112.495 -108.22)" fill="#22cac5"/><path d="M153.456,112.772a24.858,24.858,0,0,0-.657,2.9,15.25,15.25,0,0,0-4-4.876c1.1.548,2.136,1.041,3.068,1.424A13.527,13.527,0,0,0,153.456,112.772Z" transform="translate(-127.873 -96.283)" fill="#22cac5"/><path d="M142.919,190.756l-2.63,16.654h-8.71l-.877-17.585a1.39,1.39,0,0,0-.11-.657l-1.917-6.848-.274-9.587h0c0-.055,0-.11-.11-.11-.055,0-.11,0-.11.11a6.364,6.364,0,0,1-.055.712c-.11,1.26-.329,3.177-.6,5.369h0c-.11.767-.164,1.37-.219,1.972a81.146,81.146,0,0,1-1.753,10.628l-5.533,16H111.2l1.972-19.064v-.931l.712-26.076c.164,0,.329.11.548.11.986.055,2.027.11,3.013.11,1.424,0,2.9,0,4.328-.11.822,0,1.7,0,2.52-.055,1.041,0,2.136-.11,3.177-.164,1.26-.055,2.52-.164,3.78-.164.548,0,1.15,0,1.753.055a13.85,13.85,0,0,0,3.013,0,1.783,1.783,0,0,0,.767-.219l5.7,21.858a17.921,17.921,0,0,1,.493,8Z" transform="translate(-110.871 -118.937)" fill="#116562"/></g><g transform="translate(0 1.682)"><path d="M152.255,111.868h0a15.486,15.486,0,0,1-1.7-.6,36.018,36.018,0,0,1-3.67-1.753h0a.17.17,0,0,1-.11-.055h0a5.987,5.987,0,0,0-.822-.438H145.9v-.11h0c0-.055,0-.11.11-.11h.055a5.985,5.985,0,0,1,.822.438h0s.11.055.11.11h0a36.011,36.011,0,0,0,3.67,1.753c.548.219,1.1.383,1.7.6.055,0,.11.055.055.164a.191.191,0,0,1-.11.055Z" transform="translate(-126.321 -95.269)" fill="#27191c"/><g transform="translate(21.058 90.992)"><path d="M149.21,252.446c-.055,0-.11,0-.11-.11V250.2h7.615l-.274,2.136a.11.11,0,1,1-.219,0l.219-1.863h-7.122v1.917c0,.055,0,.11-.11.11Z" transform="translate(-148.826 -250.2)" fill="#27191c"/><path d="M165.254,263.886H148.6V262.9h16.654Zm-16.435-.219H164.98v-.548H148.819Z" transform="translate(-148.6 -255.943)" fill="#27191c"/><path d="M165.254,265.386H148.6V264.4h16.654Zm-16.435-.274H164.98v-.548H148.819Z" transform="translate(-148.6 -256.621)" fill="#27191c"/><path d="M171.405,255.474h0c-.219,0-.493-.055-.712-.055h-.383c-.055,0-.11,0-.11-.11s0-.11.11-.11h.383a3.617,3.617,0,0,1,.767.055.11.11,0,0,1,0,.219Z" transform="translate(-158.367 -252.461)" fill="#27191c"/><path d="M165.254,259.637H148.6V255.2h9.039c.055,0,.11,0,.11.11s0,.11-.11.11h-8.765v4h16.161a3.949,3.949,0,0,0-1.205-2.794,4.25,4.25,0,0,0-1.315-.877.122.122,0,0,1,.11-.219,4.667,4.667,0,0,1,1.37.931,4.309,4.309,0,0,1,1.26,3.068v.11Z" transform="translate(-148.6 -252.461)" fill="#27191c"/><path d="M167.705,255.419h-1.1c-.055,0-.11,0-.11-.11s0-.11.11-.11h1.1c.055,0,.11,0,.11.11S167.815,255.419,167.705,255.419Z" transform="translate(-156.694 -252.461)" fill="#27191c"/><path d="M156.543,254.515H148.6v-.11a1.216,1.216,0,0,1,1.205-1.205h5.588a1.216,1.216,0,0,1,1.205,1.205v.11Zm-7.724-.274h7.45a.9.9,0,0,0-.931-.822H149.75A.947.947,0,0,0,148.819,254.241Z" transform="translate(-148.6 -251.557)" fill="#27191c"/><path d="M172.748,257.568a.549.549,0,0,1-.548-.548v-1.972a.549.549,0,0,1,.548-.548.589.589,0,0,1,.548.548v1.972A.549.549,0,0,1,172.748,257.568Zm0-2.9a.354.354,0,0,0-.329.329v1.972a.329.329,0,0,0,.657,0v-1.972A.353.353,0,0,0,172.748,254.664Z" transform="translate(-159.272 -252.144)" fill="#27191c"/><path d="M169.048,257.568a.549.549,0,0,1-.548-.548v-1.972a.549.549,0,0,1,.548-.548.589.589,0,0,1,.548.548v1.972A.549.549,0,0,1,169.048,257.568Zm0-2.9a.353.353,0,0,0-.329.329v1.972a.329.329,0,0,0,.657,0v-1.972A.353.353,0,0,0,169.048,254.664Z" transform="translate(-157.598 -252.144)" fill="#27191c"/><path d="M165.448,257.568a.549.549,0,0,1-.548-.548v-1.972a.549.549,0,0,1,.548-.548.589.589,0,0,1,.548.548v1.972A.549.549,0,0,1,165.448,257.568Zm0-2.9a.353.353,0,0,0-.329.329v1.972a.329.329,0,0,0,.657,0v-1.972A.353.353,0,0,0,165.448,254.664Z" transform="translate(-155.971 -252.144)" fill="#27191c"/></g><path d="M156.939,246.019H148.01c-.055,0-.11,0-.11-.11s0-.11.11-.11h8.929c.055,0,.11,0,.11.11S157.049,246.019,156.939,246.019Z" transform="translate(-127.226 -157.218)" fill="#27191c"/><g transform="translate(0.186 90.992)"><path d="M111.21,252.446c-.055,0-.11,0-.11-.11V250.2h7.615l-.274,2.136a.11.11,0,1,1-.219,0l.219-1.863h-7.122v1.917c0,.055,0,.11-.11.11Z" transform="translate(-110.771 -250.2)" fill="#27191c"/><path d="M127.154,263.886H110.5V262.9h16.654Zm-16.38-.219h16.161v-.548H110.774Z" transform="translate(-110.5 -255.943)" fill="#27191c"/><path d="M127.154,265.386H110.5V264.4h16.654Zm-16.38-.274h16.161v-.548H110.774Z" transform="translate(-110.5 -256.621)" fill="#27191c"/><path d="M133.305,255.474h0c-.219,0-.493-.055-.712-.055h-.383c-.055,0-.11,0-.11-.11s0-.11.11-.11h.383a3.617,3.617,0,0,1,.767.055.11.11,0,0,1,0,.219Z" transform="translate(-120.267 -252.461)" fill="#27191c"/><path d="M127.154,259.637H110.5V255.2h9.039c.055,0,.11,0,.11.11s0,.11-.11.11h-8.765v4h16.161a3.949,3.949,0,0,0-1.205-2.794,4.25,4.25,0,0,0-1.315-.877.122.122,0,1,1,.11-.219,4.667,4.667,0,0,1,1.37.931,4.309,4.309,0,0,1,1.26,3.068v.11Z" transform="translate(-110.5 -252.461)" fill="#27191c"/><path d="M129.705,255.419h-1.1c-.055,0-.11,0-.11-.11s0-.11.11-.11h1.1c.055,0,.11,0,.11.11S129.815,255.419,129.705,255.419Z" transform="translate(-118.639 -252.461)" fill="#27191c"/><path d="M118.543,254.515H110.6v-.11a1.216,1.216,0,0,1,1.205-1.205h5.588a1.216,1.216,0,0,1,1.205,1.205v.11Zm-7.724-.274h7.45a.9.9,0,0,0-.931-.822H111.75a.947.947,0,0,0-.931.822Z" transform="translate(-110.545 -251.557)" fill="#27191c"/><path d="M134.648,257.568a.549.549,0,0,1-.548-.548v-1.972a.549.549,0,0,1,.548-.548.589.589,0,0,1,.548.548v1.972A.549.549,0,0,1,134.648,257.568Zm0-2.9a.353.353,0,0,0-.329.329v1.972a.329.329,0,0,0,.657,0v-1.972A.353.353,0,0,0,134.648,254.664Z" transform="translate(-121.172 -252.144)" fill="#27191c"/><path d="M131.048,257.568a.549.549,0,0,1-.548-.548v-1.972a.549.549,0,0,1,.548-.548.589.589,0,0,1,.548.548v1.972A.549.549,0,0,1,131.048,257.568Zm0-2.9a.353.353,0,0,0-.329.329v1.972a.329.329,0,0,0,.657,0v-1.972A.353.353,0,0,0,131.048,254.664Z" transform="translate(-119.544 -252.144)" fill="#27191c"/><path d="M127.348,257.568a.549.549,0,0,1-.548-.548v-1.972a.549.549,0,0,1,.548-.548.589.589,0,0,1,.548.548v1.972A.549.549,0,0,1,127.348,257.568Zm0-2.9a.353.353,0,0,0-.329.329v1.972a.329.329,0,0,0,.657,0v-1.972A.353.353,0,0,0,127.348,254.664Z" transform="translate(-117.871 -252.144)" fill="#27191c"/></g><path d="M119.694,246.019H110.71c-.055,0-.11,0-.11-.11s0-.11.11-.11h8.984c.055,0,.11,0,.11.11S119.8,246.019,119.694,246.019Z" transform="translate(-110.359 -157.218)" fill="#27191c"/><path d="M152.971,209.813H145.3a.583.583,0,0,1-.548-.493l-.11-2.027-.877-17.694a1.179,1.179,0,0,0-.11-.6L140.7,178.588h0c0-.055,0-.11.11-.11s.11,0,.11.11l2.958,10.354a2.748,2.748,0,0,1,.11.657l.877,17.694.11,2.027a.307.307,0,0,0,.329.274h7.669a.364.364,0,0,0,.274-.219l3.013-18.79a17.97,17.97,0,0,0-.493-8l-5.7-22.022a.122.122,0,1,1,.219-.11l5.7,22.022a18.213,18.213,0,0,1,.493,8.053l-3.013,18.79a.483.483,0,0,1-.493.438Z" transform="translate(-123.97 -118.602)" fill="#27191c"/><path d="M118.29,210.22h-7.615a.5.5,0,0,1-.383-.164.339.339,0,0,1-.11-.383l2.191-21.146v-.877l.712-26.24c0-.055,0-.11.11-.11.055,0,.11,0,.11.11l-.712,26.24v.931L110.4,209.727a.329.329,0,0,0,.055.219c0,.055.11.11.219.11h7.615a.412.412,0,0,0,.383-.274l6.245-18.078a81.151,81.151,0,0,0,1.753-10.628c.11-.712.164-1.424.219-1.972h0c.274-2.191.493-4.163.6-5.369a4,4,0,0,1,.055-.712.11.11,0,0,1,.219,0,6.364,6.364,0,0,1-.055.712c-.11,1.26-.329,3.177-.6,5.369h0c-.055.548-.164,1.26-.219,1.972a91.394,91.394,0,0,1-1.753,10.682l-6.245,18.133a.641.641,0,0,1-.6.438Z" transform="translate(-110.161 -119.009)" fill="#27191c"/><path d="M139.515,98.148c-.055,0-.11,0-.11-.11l-.438-2.63h.055a3.44,3.44,0,0,0,1.863-2.849l.11-3.944a3.6,3.6,0,0,0-2.575-3.506,3.55,3.55,0,0,0-3.835.986,4.6,4.6,0,0,0-1.205,2.958v.11h-.11a1.35,1.35,0,1,0,.274,2.684h.329c.11,0,.11,0,.219.274h0c.164.383.329.822.548,1.26v.164h-.164c-.219-.438-.383-.931-.548-1.315h0v-.11h-.274a1.66,1.66,0,0,1-1.753-1.534,1.624,1.624,0,0,1,1.315-1.534,4.551,4.551,0,0,1,1.26-3.068,3.937,3.937,0,0,1,6.793,2.739l-.11,3.944a3.483,3.483,0,0,1-1.917,2.958l.383,2.465c0,.055,0,.11-.11.11h0Z" transform="translate(-119.991 -84.398)" fill="#27191c"/><path d="M133.136,95.112h0a.1.1,0,0,1-.055-.164,1.057,1.057,0,0,1,1.1-.548c.055,0,.11,0,.11.11,0,.055,0,.11-.11.11-.438,0-.767.055-.877.383a.191.191,0,0,1-.11.055Z" transform="translate(-120.515 -88.757)" fill="#27191c"/><path d="M134.257,95.567h0a.816.816,0,0,1-.657-.657c0-.055,0-.11.11-.11.055,0,.11,0,.11.11a.582.582,0,0,0,.438.493.118.118,0,0,1,.11.11s-.055.11-.11.11Z" transform="translate(-120.76 -88.938)" fill="#27191c"/><path d="M142.463,95.57h0a.818.818,0,0,1-.383-.164s-.055-.11,0-.164c0,0,.11-.055.164,0,.11,0,.164.11.274.11.055,0,.164,0,.164-.11a.6.6,0,0,0-.055-.274l-.329-.6V94.2h.164l.329.6a.59.59,0,0,1,.11.438.367.367,0,0,1-.383.219Z" transform="translate(-124.583 -88.667)" fill="#27191c"/><g transform="translate(35.914 32.759)"><path d="M183.963,151.87h0c.767.383,1.479.712,2.246,1.1.164.11.383.164.548.274a.639.639,0,0,0,.548,0,.373.373,0,0,0,.219-.438c0-.164-.164-.329-.274-.438-.329-.274-.657-.548-1.041-.822a.17.17,0,0,0,.055.11.175.175,0,0,0-.164-.164c-.055,0-.11-.11-.219-.11a1.373,1.373,0,0,0-.383-.219c-.274-.164-.548-.274-.822-.438-.164-.055-.329-.164-.493-.219a.122.122,0,1,0-.11.219,14.2,14.2,0,0,1,1.589.767c.164.11.274.164.438.274a.17.17,0,0,0-.055-.11c0,.055,0,.11.11.11a.17.17,0,0,1,.11.055c.055,0,.164.11.219.164.164.11.274.219.438.329.11.11.274.219.383.329a.345.345,0,0,1,0,.329h-.164a.329.329,0,0,1-.219-.055,5.072,5.072,0,0,1-.548-.274,10.218,10.218,0,0,1-1.1-.548,2.937,2.937,0,0,0-.6-.274c-.11,0-.219-.11-.329-.164a.271.271,0,0,1-.164-.055.552.552,0,0,0-.164-.055h.055c-.11-.055-.219.11-.11.219h0Z" transform="translate(-179.426 -146.884)" fill="#27191c"/><path d="M181.351,152.777c-.164-.11-.329-.164-.493-.274-.11,0-.164-.11-.274-.11a.17.17,0,0,1-.11-.055h-.164a2.412,2.412,0,0,0-.548.11h-.548a9.611,9.611,0,0,1-2.191-.164,2.47,2.47,0,0,1-.6-.164.419.419,0,0,1-.274-.11c-.11,0-.164-.055-.274-.11-.164,0-.219.164-.055.219a.2.2,0,0,1,.164.055.329.329,0,0,1,.219.055c.164,0,.274.11.438.11.274.055.6.11.877.164a5.318,5.318,0,0,0,1.863,0,2.055,2.055,0,0,0,.548-.055h.329a7.757,7.757,0,0,0,.986.438h.164v-.164h0Z" transform="translate(-175.719 -147.517)" fill="#27191c"/><path d="M184.3,149.724l.986.329.986.329.986.329a1.742,1.742,0,0,1,.493.164c.11,0,.274.11.438.11h.383c.11,0,.219-.164.274-.274v-.383a1.452,1.452,0,0,0-.274-.329,3.145,3.145,0,0,1-.383-.219,3.255,3.255,0,0,1-.438-.219,1.1,1.1,0,0,1-.438-.219c-.164-.055-.274-.11-.438-.164-.6-.274-1.26-.493-1.863-.767a.415.415,0,0,1-.219-.11.122.122,0,0,0-.11.219c.6.219,1.205.438,1.808.712.6.219,1.15.493,1.753.767.219.11.438.219.493.493a.219.219,0,0,1-.11.219h-.274a1.016,1.016,0,0,1-.383-.11,1.046,1.046,0,0,1-.438-.164c-.329-.11-.6-.219-.931-.329-.6-.219-1.205-.383-1.863-.6a.329.329,0,0,1-.219-.055.122.122,0,0,0-.11.219h0Z" transform="translate(-179.599 -145.89)" fill="#27191c"/><path d="M176.1,144.819h1.315a.11.11,0,1,0,0-.219H176.1c-.438,0-.164.219,0,.219Z" transform="translate(-175.786 -144.217)" fill="#27191c"/><path d="M181.831,145.6c.219,0,.383.055.6.055h.657a3.206,3.206,0,0,0,1.205-.274.812.812,0,0,0,.6-.712.825.825,0,0,0-.767-.767h-.6a2.247,2.247,0,0,0-.6.055c-.438,0-.822.11-1.26.11-.822.055-1.7.11-2.52.164H176.3a.11.11,0,1,0,0,.219h2.465c.822,0,1.643-.055,2.41-.11.822-.055,1.589-.164,2.356-.274.329,0,.767-.055.986.219,0,.055.11.11.11.219v.219c0,.11-.164.219-.274.274a1.948,1.948,0,0,1-.493.219c-.164,0-.383.11-.548.11a4.434,4.434,0,0,1-1.205,0h-.274a.2.2,0,0,0-.164.055.27.27,0,0,0,.055.164h0Z" transform="translate(-175.925 -143.9)" fill="#27191c"/><path d="M187.988,148.791h.219a.7.7,0,0,1,.329.055,2.75,2.75,0,0,1,.657.11,1.18,1.18,0,0,0,.6-.11.479.479,0,0,0,.274-.493c0-.219-.219-.383-.383-.493a2.56,2.56,0,0,0-.548-.274,11.729,11.729,0,0,0-1.205-.548c-.219-.11-.438-.164-.657-.274-.11,0-.219-.11-.329-.11a.2.2,0,0,1-.164-.055h-.11c-.164,0-.219.164-.055.219h.219a.418.418,0,0,1,.274.11,5.68,5.68,0,0,1,.548.219c.383.164.767.329,1.1.493.164.11.383.164.548.274a1.193,1.193,0,0,1,.438.274.265.265,0,0,1,0,.383.659.659,0,0,1-.438.11,2.667,2.667,0,0,1-.657-.055.7.7,0,0,1-.329-.055h-.274a.122.122,0,1,0-.11.219h0Z" transform="translate(-180.602 -145.121)" fill="#27191c"/></g><path d="M157.21,154.319c-.055,0-.11,0-.11-.11s0-.11.11-.11h0c.055,0,.11,0,.11.11S157.319,154.319,157.21,154.319Z" transform="translate(-131.386 -115.753)" fill="#27191c"/><path d="M151.388,116.46s-.11,0-.11-.055c-.11-.274-.164-.548-.274-.822v-.055h0v-.164a11.491,11.491,0,0,0-1.643-3.123c-.11-.11-.164-.219-.274-.329l-.11-.11s-.055-.11-.11-.11l-.11-.11s-.11-.11-.11-.164l-.11-.11-.11-.11s-.055-.11-.11-.11l-.11-.11c-.329-.329-.657-.6-.986-.877l-.11-.11a.17.17,0,0,1-.11-.055c-.055-.055-.164-.11-.219-.164-.055,0-.11-.11-.164-.11a7.141,7.141,0,0,0-.822-.548h0v-.11h0c0-.055,0-.11.11-.11h.055c.274.164.6.383.877.548.055,0,.11.11.164.11.055.055.164.11.219.164a.17.17,0,0,1,.11.055l.11.11c.329.274.712.6.986.877l.11.11.11.11.11.11.11.11s.11.11.11.164l.11.11s.055.11.11.11l.11.11c.11.11.164.219.274.329a10.378,10.378,0,0,1,1.643,3.177v.11h0v.11a4.822,4.822,0,0,1,.274.822.2.2,0,0,1-.055.164h0Z" transform="translate(-126.276 -95.314)" fill="#27191c"/><path d="M118.786,149.158a27.2,27.2,0,0,1-3.013-.11,1.517,1.517,0,0,1-.712-.164,1.186,1.186,0,0,1-.767-1.26L115.5,133.71a.11.11,0,0,1,.219,0l-1.205,13.915a.971.971,0,0,0,.657,1.041c.164.055.383.11.6.164,2.41.164,4.93.055,7.341,0,.822,0,1.7,0,2.52-.055,1.041,0,2.136-.11,3.177-.164,1.26-.055,2.52-.164,3.78-.164.548,0,1.15,0,1.753.055a17.779,17.779,0,0,0,2.958,0,1.813,1.813,0,0,0,1.753-1.808V144.94c0-.055,0-.11.11-.11.055,0,.11,0,.11.11v1.808a2,2,0,0,1-1.917,2.027,13.848,13.848,0,0,1-3.013,0c-.548,0-1.15-.055-1.753-.055-1.26,0-2.575.055-3.78.164l-3.177.164c-.822,0-1.7,0-2.52.055-1.424,0-2.849.11-4.328.11Z" transform="translate(-112.027 -106.483)" fill="#27191c"/><path d="M139.748,133.438h-1.753a30.743,30.743,0,0,1-10.737-1.863,27.4,27.4,0,0,1-6.574-3.67,14.725,14.725,0,0,1-4.821-5.807,9.557,9.557,0,0,1-.767-3.451,10.14,10.14,0,0,1,4.437-8.984,13.611,13.611,0,0,1,6.519-1.863c.055,0,.11,0,.11.11,0,.055,0,.11-.11.11a12.385,12.385,0,0,0-6.355,1.808,9.742,9.742,0,0,0-4.328,8.765,7.853,7.853,0,0,0,.767,3.342c2.246,5.259,8.6,8.272,11.23,9.368a31.284,31.284,0,0,0,10.628,1.808h4.766c1.534,0,3.177-.11,5.04-.164a.471.471,0,0,0,.438-.438l.329-4.821a.544.544,0,0,0-.383-.548c-1.424-.493-5.259-1.753-9.422-3.506-5.314-2.191-12.052-5.478-13.86-8.6v-.164h.164c1.424,2.41,6.136,5.369,13.75,8.491,4.218,1.753,8,3.013,9.422,3.451a.843.843,0,0,1,.548.822l-.329,4.821a.756.756,0,0,1-.657.657c-1.808.11-3.451.164-5.04.164h-3.013Z" transform="translate(-112.39 -94.817)" fill="#27191c"/><path d="M135.035,104.773h-.055s-.055-.11,0-.164c1.7-2.3.986-3.944.986-3.944a.123.123,0,0,1,.219-.11c0,.055.767,1.753-.986,4.218h-.164Z" transform="translate(-121.373 -91.516)" fill="#27191c"/><path d="M141.731,99.406a.765.765,0,0,1-.493-.164,1.338,1.338,0,0,1-.438-.986c0-.11,0-.164.11-.219.055-.055.164-.11.219-.055l1.589.274c.11,0,.164.055.219.164v.274a1.7,1.7,0,0,1-.986.767h-.11Zm-.712-1.205h0a1.165,1.165,0,0,0,.383.822.426.426,0,0,0,.438.11c.329,0,.657-.438.822-.657h0l-1.589-.274h-.055Z" transform="translate(-124.015 -90.367)" fill="#27191c"/><path d="M138.78,109.927a6.064,6.064,0,0,1-3.78-1.863V107.9h.164c1.643,1.424,3.068,2.027,4.163,1.753a2.264,2.264,0,0,0,1.479-1.205.122.122,0,1,1,.219.11,2.626,2.626,0,0,1-1.643,1.315C139.218,109.872,139,109.927,138.78,109.927Z" transform="translate(-121.393 -94.862)" fill="#27191c"/><path d="M137.3,111.432c-1.643,0-3.561-1.041-5.7-3.068V108.2h.164c2.3,2.191,4.328,3.232,6.026,2.958a3.83,3.83,0,0,0,2.63-1.808s.11-.055.164,0c0,0,.055.11,0,.164a3.852,3.852,0,0,1-2.794,1.917h-.548Z" transform="translate(-119.855 -94.998)" fill="#27191c"/><path d="M187.91,152.3c-.055,0-.11,0-.11-.11h0v-.383a.11.11,0,1,1,.219,0v.383c0,.055-.055.11-.164.11Z" transform="translate(-145.268 -114.668)" fill="#27191c"/><path d="M188.31,147.248h0a.118.118,0,0,1-.11-.11v-.329c0-.055.11-.11.164-.11a.118.118,0,0,1,.11.11v.329C188.474,147.193,188.419,147.248,188.31,147.248Z" transform="translate(-145.449 -112.407)" fill="#27191c"/><path d="M165,210.169h0c-.055,0-.11-.055-.055-.164a11.275,11.275,0,0,0-.548-7.341.122.122,0,1,1,.219-.11,11.424,11.424,0,0,1,.6,7.505s-.055.11-.11.11Z" transform="translate(-134.687 -137.638)" fill="#27191c"/><path d="M162.664,211.437h0c-.055,0-.11-.055-.055-.164a6.214,6.214,0,0,0-.11-4.109.122.122,0,0,1,.219-.11,7.123,7.123,0,0,1,.164,4.273.191.191,0,0,1-.11.055Z" transform="translate(-133.828 -139.673)" fill="#27191c"/><path d="M178.608,130.007a23.466,23.466,0,0,1-10.409-2.465,24.492,24.492,0,0,1-6.464-4.876V122.5h.164a22.17,22.17,0,0,0,6.409,4.821,22.737,22.737,0,0,0,33.033-20.269c0-12.545-1.863-10.409-5.2-14.462a22.675,22.675,0,0,0-10.956-7.341,22.229,22.229,0,0,0-6.574-.986,22.945,22.945,0,0,0-21.858,16.38,20.429,20.429,0,0,0-.657,3.177l-.164,1.315h0c0,.6-.055,1.26-.055,1.863a23.514,23.514,0,0,0,.657,5.533c0,.055,0,.11-.11.164-.055,0-.11,0-.164-.11A23.632,23.632,0,0,1,155.6,107a8.963,8.963,0,0,1,.055-1.863h0a13.242,13.242,0,0,1,.164-1.37,20.534,20.534,0,0,1,.712-3.177,23.238,23.238,0,0,1,8.162-11.833A22.645,22.645,0,0,1,178.608,84.1c5.095,0,4.492.329,6.629.986a22.221,22.221,0,0,1,11.066,7.4,23.033,23.033,0,0,1-17.8,37.635Z" transform="translate(-130.708 -84.1)" fill="#27191c"/></g><g transform="translate(3.473)"><path d="M140.052,85.286a14.178,14.178,0,0,1,0,3.287,7.538,7.538,0,0,0-.548-3.013,4.285,4.285,0,0,1-3.342-.329c-1.643-.712-2.465-.6-3.068.329a4.269,4.269,0,0,0-.712,1.917c-1.7-.329-2.246,3.068.548,2.739a10.153,10.153,0,0,1,.822,1.917,2.619,2.619,0,0,1-.11,1.26s-7.122-3.013-2.794-9.861c1.917-3.013,3.835-2.63,5.533-2.246,2.191.438,3.4,1.1,4.218.877.438-.11.822-.493.876-.274a3.191,3.191,0,0,1-.876,2.9,3.546,3.546,0,0,1-.493.438Z" transform="translate(-122.357 -81.03)" fill="#27191c"/><path d="M145.686,93.293a.493.493,0,1,1-.493-.493A.491.491,0,0,1,145.686,93.293Z" transform="translate(-129.252 -86.352)" fill="#27191c"/><path d="M139.686,92.993a.493.493,0,1,1-.493-.493A.491.491,0,0,1,139.686,92.993Z" transform="translate(-126.538 -86.216)" fill="#27191c"/><path d="M116.664,134.6a16.031,16.031,0,0,0,4.6,5.423,31.313,31.313,0,0,0,6.629,3.561c2.3,1.041,9.861,2.027,12.216,1.972,0,0-2.794.11-3.725.055-6.957-.274-15.887-2.356-19.886-9.642Z" transform="translate(-116.5 -105.253)" fill="#27191c"/><path d="M152.321,115.3l-.164,1.315h0c-.11-.329-.164-.6-.274-.877v-.219a11.678,11.678,0,0,0-1.643-3.177c-.11-.11-.164-.219-.274-.329l-.11-.11s-.055-.11-.11-.11l-.11-.11s-.11-.11-.11-.164l-.11-.11-.11-.11s-.055-.11-.11-.11l-.11-.11c-.329-.329-.657-.6-.986-.877l-.11-.11a.17.17,0,0,1-.11-.055c-.055-.055-.164-.11-.219-.164-.055,0-.11-.11-.164-.11V109.6h0s.055,0,.164.11h0a14.91,14.91,0,0,1,4.766,5.533Z" transform="translate(-130.518 -93.949)" fill="#27191c"/><path d="M141.722,182.6l.329,10.08-.274-.877-.877-3.068h0c.274-2.356.493-4.383.6-5.369l.164-.712Z" transform="translate(-127.533 -126.958)" fill="#27191c"/></g></g><g transform="translate(0.11 0.11)"><path d="M203.667,33.763h-.274v-.329a3.846,3.846,0,0,0-3.835-3.835,3.166,3.166,0,0,0-3.342,1.972,3.732,3.732,0,0,0-1.534.383,4.026,4.026,0,0,0-1.643-.383,3.813,3.813,0,0,0-3.78,3.506,3.432,3.432,0,0,0-1.479-.329,3.8,3.8,0,0,0-3.78,3.4h23.392c0-.219.055-.438.055-.657a3.846,3.846,0,0,0-3.835-3.835Z" transform="translate(-91.309 -24.56)" fill="#fff"/><path d="M104.7,27.631h0v-.383a2.315,2.315,0,0,0-2.3-2.3h-.329v-.329A4.185,4.185,0,0,0,97.849,20.4,3.889,3.889,0,0,0,93.8,23.358a2.97,2.97,0,0,0-1.37-.329,2.923,2.923,0,0,0-2.9,2.9c0,1.589,0,.548.11.822a2.581,2.581,0,0,0-.931-.219,2.315,2.315,0,0,0-2.3,2.3c0,1.26.055.657.164.931H107a2.323,2.323,0,0,0-2.3-2.136Z" transform="translate(-47.176 -20.4)" fill="#fff"/><path d="M38.52,66.015a5.746,5.746,0,0,0-3.068.877A4.241,4.241,0,0,0,31.728,64.7a4.639,4.639,0,0,0-4.163,3.287,5.474,5.474,0,0,0-10.08,2.794A4.784,4.784,0,0,0,14.8,75.109v.438H43.177a5.85,5.85,0,0,0-4.6-9.477Z" transform="translate(-14.8 -40.432)" fill="#fff"/></g><path d="M207.511,38.265H183.9v-.11a3.959,3.959,0,0,1,3.89-3.506c1.972,0,.931.11,1.424.274a3.957,3.957,0,0,1,3.89-3.451c1.972,0,1.1.11,1.643.329a3.262,3.262,0,0,1,1.479-.329,4,4,0,0,1,3.4-1.972,3.928,3.928,0,0,1,3.944,3.944v.164h.164a3.928,3.928,0,0,1,3.944,3.944c0,2.191,0,.438-.055.657v.11Zm-23.392-.219h23.173V37.5a3.729,3.729,0,0,0-3.725-3.725h-.383V33.39a3.729,3.729,0,0,0-3.725-3.725,3.03,3.03,0,0,0-3.232,1.917h0a.054.054,0,0,1-.055.055,3.616,3.616,0,0,0-1.479.329h0a3.93,3.93,0,0,0-1.589-.329,3.7,3.7,0,0,0-3.67,3.4V35.2l-.164-.055a3.245,3.245,0,0,0-1.479-.274A3.715,3.715,0,0,0,184.119,38.046Z" transform="translate(-91.155 -24.405)" fill="#27191c"/><path d="M106.972,29.787H86.319a3.938,3.938,0,0,1-.219-1.041,2.432,2.432,0,0,1,2.41-2.41c1.315,0,.548,0,.767.11,0-.219-.055-.438-.055-.6a3,3,0,0,1,3.013-3.013c1.643,0,.931.11,1.315.329A4.362,4.362,0,0,1,97.659,20.2a4.692,4.692,0,0,1,4.328,4.328v.219h.164a2.432,2.432,0,0,1,2.41,2.41v.274a2.34,2.34,0,0,1,2.3,2.246v.11Zm-20.488-.219H106.7a2.235,2.235,0,0,0-2.191-1.917h-.164v-.493a2.2,2.2,0,0,0-2.191-2.191h-.438v-.438A4.139,4.139,0,0,0,97.6,20.419a3.753,3.753,0,0,0-3.944,2.9v.11l-.164-.055a2.753,2.753,0,0,0-1.315-.329,2.806,2.806,0,0,0-2.794,2.794c0,1.534,0,.548.11.767v.219c.055,0-.164-.11-.164-.11a2.579,2.579,0,0,0-.877-.219,2.2,2.2,0,0,0-2.191,2.191c0,1.205,0,.548.164.822Z" transform="translate(-46.931 -20.2)" fill="#27191c"/><path d="M43.141,75.466H14.6v-.548a4.953,4.953,0,0,1,2.684-4.383,5.507,5.507,0,0,1,1.7-3.78,5.422,5.422,0,0,1,3.89-1.589,6.044,6.044,0,0,1,4.547,2.356A4.356,4.356,0,0,1,31.637,64.4a3.928,3.928,0,0,1,3.78,2.136,6.006,6.006,0,0,1,9.039,5.149c0,3.287-.438,2.63-1.26,3.67h0Zm-28.322-.219H43.032a5.661,5.661,0,0,0,1.205-3.506,5.751,5.751,0,0,0-5.752-5.752c-3.177,0-2.136.274-3.013.877h-.11c0,.055-.055,0-.055,0a4.148,4.148,0,0,0-3.616-2.136,4.582,4.582,0,0,0-4.054,3.177v.274c-.055,0-.219-.219-.219-.219A5.391,5.391,0,0,0,17.5,70.7h0a.191.191,0,0,1-.055.11,4.755,4.755,0,0,0-2.63,4.218v.219Z" transform="translate(-14.6 -40.186)" fill="#27191c"/></g></g></g></svg>