<svg xmlns="http://www.w3.org/2000/svg" xmlns:xlink="http://www.w3.org/1999/xlink" width="140" height="140" viewBox="0 0 140 140"><defs><filter id="a" x="0" y="0" width="140" height="140" filterUnits="userSpaceOnUse"><feOffset dy="3" input="SourceAlpha"/><feGaussianBlur stdDeviation="3" result="b"/><feFlood flood-opacity="0.161"/><feComposite operator="in" in2="b"/><feComposite in="SourceGraphic"/></filter></defs><g transform="translate(-612.668 -1359.64)"><g transform="translate(316.86 -2257.411)"><g transform="matrix(1, 0, 0, 1, 295.81, 3617.05)" filter="url(#a)"><circle cx="61" cy="61" r="61" transform="translate(9 6)" fill="#fff" opacity="0.45"/></g><circle cx="49" cy="49" r="49" transform="translate(316.808 3635.051)" fill="#fff"/></g><g transform="translate(646.035 1393.33)"><path d="M96.54,54.943a5.318,5.318,0,1,1-5.318,5.318A5.317,5.317,0,0,1,96.54,54.943Z" transform="translate(-73.754 -45.016)" fill="#f7b84e" fill-rule="evenodd"/><path d="M106.66,55.255a5.318,5.318,0,0,1,0,10.563,5.318,5.318,0,0,1,0-10.563Z" transform="translate(-83.249 -45.292)" fill="#ffcb5b" fill-rule="evenodd"/><path d="M269.465,113.478h6.1v16.368h-6.1Z" transform="translate(-231.268 -96.743)" fill="#3cb54b"/><path d="M190.094,141.06h6.1v13.16h-6.1Z" transform="translate(-161.127 -121.118)" fill="#ffcb5b"/><path d="M348.835,85.9h6.1v19.576h-6.1Z" transform="translate(-301.407 -72.37)" fill="#11bef7"/><path d="M110.724,168.641h6.1v9.953h-6.1Z" transform="translate(-90.988 -145.491)" fill="#ee2b39"/><path d="M88.727,254.077h38.907v2.779H88.727Z" transform="translate(-71.549 -220.991)" fill="#3589c9"/><g transform="translate(8.452 26.794)"><path d="M288.176,233.255h-9.583l-.333-2.327c.369-2.225-.284-3.62.119-5.463a12.818,12.818,0,0,1,3.56-6.135c3.016-3.185,6.959-4.085,9.758-7.029,1.457-1.533,2.842-.653,3.112.92l.089-.056c3.537-3.851,3.821-6.415,5.621-11.044.468-1.21,1.071-2.225,1.886-2.14,3.468.363-.224,12.537-2.123,17.294-1.549,3.88-4.3,5.505-7.408,8.169-2.505,2.143-2.426,3.831-2.318,5.482l-.158,2.327h-2.222Z" transform="translate(-247.477 -199.976)" fill="#e2b698" fill-rule="evenodd"/><path d="M278.468,232.371l-.208-1.444c.369-2.225-.284-3.62.119-5.463a12.818,12.818,0,0,1,3.56-6.135c3.016-3.181,6.959-4.085,9.758-7.029,1.457-1.533,2.842-.653,3.112.92l.089-.056c3.537-3.851,3.821-6.415,5.621-11.044.468-1.21,1.071-2.225,1.886-2.14a1.321,1.321,0,0,1,.237.049c1.253,2.993-1.638,12.333-3.244,16.361-1.549,3.88-4.3,5.505-7.411,8.166-2.9,2.486-2.96,4.526-3.181,7.813H278.468Z" transform="translate(-247.476 -199.975)" fill="#efc9ae" fill-rule="evenodd"/><path d="M267.9,465.1h12.3a1.382,1.382,0,0,0,1.378-1.378v-2.492a1.384,1.384,0,0,0-1.378-1.381H267.9a1.387,1.387,0,0,0-1.381,1.381v2.492A1.384,1.384,0,0,0,267.9,465.1Z" transform="translate(-237.115 -429.621)" fill="#00ade6" fill-rule="evenodd"/><path d="M267.9,465.1h10.378a1.382,1.382,0,0,0,1.381-1.378v-2.492a1.382,1.382,0,0,0-1.381-1.378l-10.378,0a1.387,1.387,0,0,0-1.381,1.381v2.492A1.384,1.384,0,0,0,267.9,465.1Z" transform="translate(-237.115 -429.621)" fill="#11bef7" fill-rule="evenodd"/><path d="M29.36,233.255h9.583l.333-2.327c-.369-2.225.284-3.62-.122-5.463A12.78,12.78,0,0,0,35.6,219.33c-3.02-3.185-6.959-4.085-9.758-7.029-1.46-1.533-2.845-.653-3.112.92l-.089-.056c-3.537-3.851-3.821-6.415-5.621-11.044-.468-1.21-1.075-2.225-1.886-2.14-3.468.363.224,12.537,2.123,17.294,1.549,3.88,4.3,5.505,7.408,8.169,2.5,2.143,2.426,3.831,2.318,5.482l.155,2.327H29.36Z" transform="translate(-13.702 -199.976)" fill="#e2b698" fill-rule="evenodd"/><path d="M45.778,232.371l.208-1.444c-.369-2.225.284-3.62-.122-5.463a12.78,12.78,0,0,0-3.557-6.135c-3.02-3.181-6.959-4.085-9.758-7.029-1.46-1.533-2.845-.653-3.112.92l-.089-.056c-3.537-3.851-3.821-6.415-5.621-11.044-.468-1.21-1.075-2.225-1.886-2.14a1.357,1.357,0,0,0-.241.049c-1.253,2.993,1.638,12.333,3.247,16.361,1.549,3.88,4.3,5.505,7.408,8.166,2.9,2.486,2.964,4.526,3.185,7.813H45.778Z" transform="translate(-20.411 -199.975)" fill="#efc9ae" fill-rule="evenodd"/><path d="M129.675,465.1h-12.3A1.384,1.384,0,0,1,116,463.718v-2.492a1.387,1.387,0,0,1,1.381-1.381h12.3a1.384,1.384,0,0,1,1.378,1.381v2.492A1.382,1.382,0,0,1,129.675,465.1Z" transform="translate(-104.1 -429.621)" fill="#00ade6" fill-rule="evenodd"/><path d="M144.253,465.1H133.872a1.382,1.382,0,0,1-1.378-1.378v-2.492a1.382,1.382,0,0,1,1.378-1.378l10.381,0a1.384,1.384,0,0,1,1.378,1.381v2.492A1.382,1.382,0,0,1,144.253,465.1Z" transform="translate(-118.679 -429.621)" fill="#11bef7" fill-rule="evenodd"/></g><path d="M110.724,168.641h1.6v9.953h-1.6Z" transform="translate(-90.988 -145.491)" fill="#cd212d"/><path d="M190.094,141.06h1.6v13.16h-1.6Z" transform="translate(-161.127 -121.118)" fill="#f7b84e"/><path d="M269.465,113.478h1.6v16.368h-1.6Z" transform="translate(-231.268 -96.743)" fill="#32a13f"/><path d="M348.835,85.9h1.6v19.576h-1.6Z" transform="translate(-301.407 -72.37)" fill="#00ade6"/><path d="M64.962,26.738a1.954,1.954,0,0,0-1.508-.984c-1.545-.156-2.319,1.832-2.611,2.582-.4,1.032-.72,1.941-1.028,2.819a19.921,19.921,0,0,1-3.778,7.235,2.473,2.473,0,0,0-.605-.69c-.757-.578-2.013-.727-3.266.591a19.2,19.2,0,0,1-4.538,3.242,21.789,21.789,0,0,0-5.22,3.784,13.519,13.519,0,0,0-3.733,6.466,9.138,9.138,0,0,0-.088,2.8c.036.471.073.954.067,1.47a2.08,2.08,0,0,0-1.495,1.992v2.492a2.079,2.079,0,0,0,2.077,2.077h12.3a2.081,2.081,0,0,0,2.08-2.077V58.048A2.079,2.079,0,0,0,52.2,56.083c.052-1.037.414-2.189,2.106-3.638.575-.492,1.14-.951,1.687-1.394,2.462-2,4.588-3.721,5.915-7.047,1.392-3.487,4.941-14.144,3.055-17.265ZM52.214,60.54a.681.681,0,0,1-.682.679h-12.3a.68.68,0,0,1-.679-.679V58.048a.68.68,0,0,1,.679-.679h12.3a.682.682,0,0,1,.682.679Zm8.394-17.056c-1.192,2.988-3.092,4.529-5.5,6.479-.554.449-1.127.914-1.716,1.418a6.257,6.257,0,0,0-2.589,4.589H40.051c0-.532-.034-1.019-.071-1.493a7.8,7.8,0,0,1,.06-2.4,12.2,12.2,0,0,1,3.381-5.8,20.7,20.7,0,0,1,4.906-3.536,20.552,20.552,0,0,0,4.851-3.489c.312-.328.91-.821,1.4-.443A2.579,2.579,0,0,1,54.624,42a16.441,16.441,0,0,1-5.242,4.362.7.7,0,0,0,.694,1.213c1.977-1.131,4.667-3.08,5.743-4.85a4.672,4.672,0,0,0,.7-2.758,20.89,20.89,0,0,0,4.616-8.345c.3-.868.619-1.766,1.012-2.775.661-1.7,1.118-1.7,1.165-1.7a.561.561,0,0,1,.454.316c1.256,2.079-1.07,10.794-3.157,16.024Zm-26,12.571c-.008-.521.03-1.006.066-1.48a9.173,9.173,0,0,0-.087-2.792,13.543,13.543,0,0,0-3.733-6.467,21.789,21.789,0,0,0-5.22-3.783A19.2,19.2,0,0,1,21.1,38.291c-1.253-1.317-2.509-1.169-3.266-.591a2.475,2.475,0,0,0-.605.69,19.939,19.939,0,0,1-3.783-7.248c-.307-.875-.624-1.779-1.022-2.807-.292-.749-1.066-2.736-2.613-2.581a1.955,1.955,0,0,0-1.507.985C6.416,29.862,9.964,40.517,11.356,44c1.326,3.324,3.452,5.048,5.914,7.044.549.445,1.116.9,1.692,1.4,1.688,1.445,2.051,2.6,2.1,3.638a2.079,2.079,0,0,0-1.413,1.966v2.492a2.079,2.079,0,0,0,2.077,2.077h12.3a2.079,2.079,0,0,0,2.077-2.077V58.048a2.08,2.08,0,0,0-1.5-1.993ZM19.87,51.382c-.59-.5-1.165-.971-1.72-1.421-2.4-1.95-4.3-3.49-5.5-6.476C10.567,38.256,8.242,29.541,9.5,27.462a.561.561,0,0,1,.454-.317c.048-.005.505,0,1.167,1.7.39,1.005.7,1.9,1.006,2.763a20.911,20.911,0,0,0,4.622,8.358,4.672,4.672,0,0,0,.7,2.758c1.07,1.766,3.762,3.716,5.743,4.85a.7.7,0,0,0,.694-1.213A16.407,16.407,0,0,1,18.642,42a2.58,2.58,0,0,1,.039-3.186c.5-.378,1.093.115,1.4.443a20.552,20.552,0,0,0,4.852,3.489,20.7,20.7,0,0,1,4.906,3.535,12.222,12.222,0,0,1,3.381,5.8,7.832,7.832,0,0,1,.059,2.387c-.037.478-.073.967-.071,1.5H22.458a6.266,6.266,0,0,0-2.588-4.589Zm14.839,9.158a.68.68,0,0,1-.679.679H21.73a.68.68,0,0,1-.679-.679V58.048a.68.68,0,0,1,.679-.679h12.3a.68.68,0,0,1,.679.679v2.492ZM22.788,20.914A6.018,6.018,0,1,0,16.772,14.9,6.023,6.023,0,0,0,22.788,20.914Zm0-10.638A4.62,4.62,0,1,1,18.17,14.9,4.626,4.626,0,0,1,22.788,10.276Zm.847,5.786c0-.364-.076-.452-.949-.646-.727-.161-1.945-.431-1.945-1.86a1.885,1.885,0,0,1,1.348-1.751v-.244a.7.7,0,0,1,1.4,0v.244a1.885,1.885,0,0,1,1.348,1.751.7.7,0,0,1-1.4,0c0-.252-.3-.465-.649-.465s-.649.213-.649.465c0,.23,0,.307.849.495.765.169,2.045.453,2.045,2.01A2.071,2.071,0,0,1,23.487,18v.233a.7.7,0,0,1-1.4,0V18a2.071,2.071,0,0,1-1.549-1.937.7.7,0,0,1,1.4,0c0,.347.389.64.85.64s.847-.293.847-.64Zm7.195-1.151a.7.7,0,0,1,.563-.812A48.3,48.3,0,0,0,51.012,5.744l-.587.079a.7.7,0,1,1-.186-1.385l3.182-.427A.727.727,0,0,1,53.544,4a.713.713,0,0,1,.1.011.7.7,0,0,1,.414.24h0l0,.006h0a.7.7,0,0,1,.154.466.708.708,0,0,1-.013.107.7.7,0,0,1-.049.155L52.9,7.938a.7.7,0,0,1-1.284-.552l.219-.509a49.706,49.706,0,0,1-20.189,8.6.7.7,0,0,1-.812-.563ZM17.177,36.218H56.085a.7.7,0,0,0,.7-.7V32.74a.7.7,0,0,0-.7-.7H54.225V13.177a.7.7,0,0,0-.7-.7h-6.1a.7.7,0,0,0-.7.7V32.041H44.995V16.385a.7.7,0,0,0-.7-.7H38.2a.7.7,0,0,0-.7.7V32.041H35.764V19.592a.7.7,0,0,0-.7-.7h-6.1a.7.7,0,0,0-.7.7V32.041H26.536V22.8a.7.7,0,0,0-.7-.7h-6.1a.7.7,0,0,0-.7.7v9.241H17.177a.7.7,0,0,0-.7.7v2.779a.7.7,0,0,0,.7.7ZM48.127,13.876h4.7V32.041h-4.7ZM38.9,17.084h4.7V32.041H38.9Zm-9.231,3.208h4.7V32.041h-4.7ZM20.438,23.5h4.7v8.542h-4.7Zm-2.562,9.94H19.6a.7.7,0,0,0,.134.013.708.708,0,0,0,.134-.013H25.7a.7.7,0,0,0,.134.013.708.708,0,0,0,.134-.013h2.864a.7.7,0,0,0,.134.013.708.708,0,0,0,.134-.013h5.827a.7.7,0,0,0,.134.013.708.708,0,0,0,.134-.013h2.867a.7.7,0,0,0,.134.013.708.708,0,0,0,.134-.013h5.827a.7.7,0,0,0,.134.013.708.708,0,0,0,.134-.013h2.864a.7.7,0,0,0,.134.013.708.708,0,0,0,.134-.013h5.83a.7.7,0,0,0,.134.013.708.708,0,0,0,.134-.013h1.725V34.82H17.876V33.438Z" fill="#231f20"/></g></g></svg>