<svg xmlns="http://www.w3.org/2000/svg" width="60" height="60" viewBox="0 0 60 60"><g transform="translate(-2 -2)"><path d="M9,23H37V45H9Z" transform="translate(0 0)" fill="#d8d7da"/><path d="M37,23H61V61H37Z" transform="translate(0 0)" fill="#dfbba0"/><path d="M57,31V53a4,4,0,0,0-4,4H45a4,4,0,0,0-4-4V31a4,4,0,0,0,4-4h8A4,4,0,0,0,57,31Z" transform="translate(0 0)" fill="#b15815"/><circle cx="4" cy="4" r="4" transform="translate(45 38)" fill="#efddcf"/><path d="M49,19H3L26,3Z" transform="translate(0 0)" fill="#22cac5"/><path d="M47,19v4H5V19H47Z" transform="translate(0 0)" fill="#a6eae8"/><path d="M37,49v4H3V49H37Z" transform="translate(0 0)" fill="#898888"/><path d="M37,45v4H5V45H37Z" transform="translate(0 0)" fill="#a6eae8"/><path d="M30,41v4H22V41h8Z" transform="translate(0 0)" fill="#116562"/><path d="M30,23v4H22V23Z" transform="translate(0 0)" fill="#178d89"/><path d="M23,27h6V41H23Z" transform="translate(0 0)" fill="#fee9ab"/><circle cx="3" cy="3" r="3" transform="translate(23 9)" fill="#b2fa09"/><path d="M16,41v4H8V41h8Z" transform="translate(0 0)" fill="#116562"/><path d="M16,23v4H8V23Z" transform="translate(0 0)" fill="#178d89"/><path d="M9,27h6V41H9Z" transform="translate(0 0)" fill="#fee9ab"/><path d="M26,16a4,4,0,1,0-4-4A4,4,0,0,0,26,16Zm0-6a2,2,0,1,1-2,2A2,2,0,0,1,26,10Z" transform="translate(0 0)"/><path d="M61,22H48V20h1a1,1,0,0,0,.571-1.821l-23-16a1,1,0,0,0-1.142,0l-23,16A1,1,0,0,0,3,20H4v3a1,1,0,0,0,1,1H7v3a1,1,0,0,0,1,1V40a1,1,0,0,0-1,1v3H5a1,1,0,0,0-1,1v3H3a1,1,0,0,0-1,1v4a1,1,0,0,0,1,1H36v7a1,1,0,0,0,1,1H61a1,1,0,0,0,1-1V23A1,1,0,0,0,61,22ZM26,4.218,45.812,18H40V16H38v2H36V16H34v2H32V16H30v2H22V16H20v2H18V16H16v2H14V16H12v2H6.188ZM15,24v2H9V24Zm13,4V40H24V28ZM23,42h6v2H23Zm7-2V28a1,1,0,0,0,1-1V24h5V44H31V41A1,1,0,0,0,30,40ZM29,26H23V24h6Zm-7,2V40a1,1,0,0,0-1,1v3H17V41a1,1,0,0,0-1-1V28a1,1,0,0,0,1-1V24h4v3A1,1,0,0,0,22,28ZM10,28h4V40H10ZM9,42h6v2H9ZM6,46H36v2H6ZM4,52V50H36v2ZM6,22V20H46v2ZM60,60H38V24H60Z"/><path d="M41,54a3,3,0,0,1,3,3,1,1,0,0,0,1,1h8a1,1,0,0,0,1-1,3,3,0,0,1,3-3,1,1,0,0,0,1-1V31a1,1,0,0,0-1-1,3,3,0,0,1-3-3,1,1,0,0,0-1-1H45a1,1,0,0,0-1,1,3,3,0,0,1-3,3,1,1,0,0,0-1,1V53A1,1,0,0,0,41,54Zm1-22.1A5.013,5.013,0,0,0,45.9,28h6.2A5.013,5.013,0,0,0,56,31.9V52.1A5.013,5.013,0,0,0,52.1,56H45.9A5.013,5.013,0,0,0,42,52.1Z" transform="translate(0 0)"/><path d="M49,47a5,5,0,1,0-5-5,5,5,0,0,0,5,5Zm0-8a3,3,0,1,1-3,3A3,3,0,0,1,49,39Z" transform="translate(0 0)"/></g></svg>