<svg xmlns="http://www.w3.org/2000/svg" width="65.052" height="65.133" viewBox="0 0 65.052 65.133"><g transform="translate(-28.27 -22.28)"><g transform="translate(29.201 23.265)"><path d="M215.76,345.6a103.266,103.266,0,0,0,11.522-8.61,3.487,3.487,0,0,1,4.791.637,3.02,3.02,0,0,1-.688,4.433l-7.373,5.109A14.9,14.9,0,0,1,215.76,345.6Z" transform="translate(-190.374 -293.204)" fill="#a6eae8" fill-rule="evenodd"/><path d="M244.45,337.1c6.537-3.724,11.033-7.95,15.259-11.6a3.49,3.49,0,0,1,4.795.637,3.069,3.069,0,0,1,.581,1.138c-.056.035-.111.076-.167.111l-11.594,8.157C251.31,337.362,247.612,337.657,244.45,337.1Z" transform="translate(-215.037 -283.33)" fill="#a6eae8" fill-rule="evenodd"/><path d="M160.354,29.3a24,24,0,1,1-24.454,24,24.232,24.232,0,0,1,24.454-24Z" transform="translate(-121.723 -29.3)" fill="#b3b4b4" fill-rule="evenodd"/><path d="M207.127,74.54A23.555,23.555,0,0,1,210.2,86.2a24.23,24.23,0,0,1-24.454,24,24.606,24.606,0,0,1-17.232-6.97,23.535,23.535,0,0,1-3.075-11.659,24.233,24.233,0,0,1,24.454-24,24.6,24.6,0,0,1,17.232,6.97Z" transform="translate(-147.117 -62.198)" fill="#e6e6e6" fill-rule="evenodd"/><path d="M224.958,250.261a24.785,24.785,0,0,1-33.318.055v-2.178a10.145,10.145,0,0,1,10.117-10.117h13.086a10.145,10.145,0,0,1,10.115,10.117Z" transform="translate(-169.639 -208.723)" fill="#7b3d0e" fill-rule="evenodd"/><path d="M257.533,254.475a24.926,24.926,0,0,1-20.6.024v-15.76a10.04,10.04,0,0,1,3.76-.728h.744v9.31h11.594v-9.31a10.441,10.441,0,0,1,4.5.728v15.736Z" transform="translate(-208.572 -208.715)" fill="#fdb641" fill-rule="evenodd"/><path d="M266.228,167.32h.688v4.5a8.473,8.473,0,0,1-16.946,0v-4.5h16.258Z" transform="translate(-219.782 -147.947)" fill="#e8faf9" fill-rule="evenodd"/><path d="M254.849,70.857a9.478,9.478,0,0,1,6.927,8.872c-.036,0-.072,0-.108,0h-18.73c-.035,0-.072,0-.108,0a9.482,9.482,0,0,1,6.927-8.872v-3.2a.566.566,0,0,1,.564-.564h3.962a.566.566,0,0,1,.564.564v3.2Z" transform="translate(-213.644 -61.786)" fill="#b15815" fill-rule="evenodd"/><path d="M231.316,157.11h18.733a2.007,2.007,0,0,1,0,4.014H231.316a2.007,2.007,0,0,1,0-4.014Z" transform="translate(-202.022 -139.17)" fill="#178d89" fill-rule="evenodd"/><path d="M265.51,132.629v1.058a.3.3,0,0,0,.3.3h.425a.3.3,0,0,0,.3-.3v-1.058a.3.3,0,0,0-.3-.3h-.425A.3.3,0,0,0,265.51,132.629Zm5.817.187v.688a.488.488,0,0,1-.486.486h-2.785a.488.488,0,0,1-.486-.486v-.688a.485.485,0,0,1,.486-.486h2.785A.487.487,0,0,1,271.327,132.816Z" transform="translate(-233.141 -117.868)" fill="#fdb641" fill-rule="evenodd"/><path d="M247.013,278.191h1.058a.3.3,0,0,0,.3-.3v-.43a.3.3,0,0,0-.3-.3h-1.058a.3.3,0,0,0-.3.3v.43A.306.306,0,0,0,247.013,278.191Zm.187-5.821h.688a.488.488,0,0,1,.486.486v2.785a.489.489,0,0,1-.486.49H247.2a.489.489,0,0,1-.49-.49v-2.785A.489.489,0,0,1,247.2,272.37Z" transform="translate(-216.98 -238.252)" fill="#fff2b0" fill-rule="evenodd"/><path d="M84.034,326.048l11.594-8.161c3.541-2.447,8.463-.9,5.459,1.978-3.748,3.593-12.641,13.631-19.516,16.11-9.347,3.1-15.788-1.878-23.192-1.887L47.52,332.824l.191-10.715c13.194-1.249,14.32,1.329,21.956-5.209,1.663-1.425,3.071-3.955,5.331-2.884,2.7,1.286-1.464,6.278-4.242,8.256-5.5,3.923,8.551,8.041,13.278,3.777Z" transform="translate(-45.749 -273.831)" fill="#22cac5" fill-rule="evenodd"/><path d="M88.178,326.053,99.772,317.9a6.475,6.475,0,0,1,4.786-1.114c-4.647,4.368-14.507,13.225-20.69,15.458-8.586,2.555-13.177-2.746-20.579-2.75l-10.95-1.034.111-6.394c12.633-1.119,13.838,1.282,21.358-5.153,1.663-1.425,3.071-3.955,5.331-2.884,2.7,1.286-1.464,6.278-4.242,8.256-5.5,3.922,8.552,8.04,13.28,3.772Z" transform="translate(-49.892 -273.839)" fill="#e8faf9" fill-rule="evenodd"/><path d="M37.005,350.41H40.67a2.112,2.112,0,0,1,2.105,2.105V365.4A2.112,2.112,0,0,1,40.67,367.5H37.005A2.112,2.112,0,0,1,34.9,365.4V352.514a2.112,2.112,0,0,1,2.105-2.1Z" transform="translate(-34.9 -305.338)" fill="#116562" fill-rule="evenodd"/><path d="M38.84,350.41H37.005a2.036,2.036,0,0,0-2.105,1.945v13.2a2.036,2.036,0,0,0,2.105,1.945H38.84Z" transform="translate(-34.9 -305.338)" fill="#178d89" fill-rule="evenodd"/></g><path d="M31.354,67.353h3.665a3.1,3.1,0,0,1,3.075,2.809c.685-.015,1.333-.024,1.938-.035,4.938-.076,7.042-.108,11.511-3.713A24.687,24.687,0,0,1,49.9,29.594a25.752,25.752,0,0,1,35.957,0,24.642,24.642,0,0,1,4.918,28.56,25.1,25.1,0,0,1-5.626,7.452,2.315,2.315,0,0,1,1.34,1.815,3.208,3.208,0,0,1-1.221,2.585c-.672.644-1.516,1.5-2.483,2.483C78.322,77.029,71.248,84.222,65.4,86.332l-.048.015c-6.144,2.03-11.006.752-15.677-.481A31.186,31.186,0,0,0,41.882,84.5a.914.914,0,0,1-.111-.008v0L38.02,84.06a3.1,3.1,0,0,1-3,2.347H31.354a3.09,3.09,0,0,1-3.084-3.088V70.441a3.094,3.094,0,0,1,3.084-3.088Zm6.753,4.767v9.974l3.856.449a32.6,32.6,0,0,1,8.217,1.429c4.4,1.158,8.98,2.364,14.57.514,5.411-1.954,12.3-8.952,16.639-13.368.983-1,1.835-1.865,2.522-2.522.466-.445.648-.768.629-.974s-.529-.386-.776-.442a5.474,5.474,0,0,0-4.071.947L68.146,76.251a8.384,8.384,0,0,1-4.134,1.815,16.853,16.853,0,0,1-7.712-.6c-1.763-.577-3.951-1.7-4.249-3.5-.171-1.043.295-2.089,1.635-3.044a15.924,15.924,0,0,0,2.833-2.665,7.784,7.784,0,0,0,1.87-3.3c.028-.326-.044-.477-.31-.6-1.488-.7-2.873,1.544-4.273,2.741C48.1,71.942,45.94,72,40.055,72.085c-.6.011-1.244.02-1.948.035Zm-3.088-2.8H31.354a1.127,1.127,0,0,0-1.122,1.121v12.88a1.132,1.132,0,0,0,1.122,1.126h3.665a1.129,1.129,0,0,0,1.122-1.126V70.441A1.125,1.125,0,0,0,35.019,69.32Zm18.028-4.214c1.086-1.082,2.164-2.459,3.576-2.828v-7.4a9.159,9.159,0,0,0-4.392,7.8v1.743Zm5.543-2.682c2.03.78,2.1,2.59,1.245,4.389A10.881,10.881,0,0,1,58.809,68.5a23.968,23.968,0,0,0,15.747.839l2.674-1.878V53.981a8.736,8.736,0,0,0-2.379-.425c-.052.06-.108.115-.163.171v8.145a.98.98,0,0,1-.983.983H62.112a.982.982,0,0,1-.983-.983V53.727c-.056-.056-.111-.115-.167-.175a8.967,8.967,0,0,0-2.371.425v8.447Zm-1.082,7.66a18.117,18.117,0,0,1-2.682,2.423c-1.086.772-1.091,1.273-.182,1.974q2.6-1.7,5.09-3.541c-.761-.254-1.5-.536-2.225-.855ZM66.7,74.9l.295-.239L70.63,72.1l-1.277.1-1.93.035c-1.169.926-2.395,1.85-3.693,2.75q-.95.663-1.969,1.312A8.37,8.37,0,0,0,66.7,74.9Zm12.492-8.774a7.937,7.937,0,0,1,3.485-1l.911-.764v-1.69a9.154,9.154,0,0,0-4.4-7.8ZM71.437,33.734v1.822a.98.98,0,1,1-1.961,0v-6H66.345v6a.983.983,0,1,1-1.965,0V33.732A8.509,8.509,0,0,0,59.5,40.221H76.316A8.515,8.515,0,0,0,71.437,33.734Zm6.875,6.676a2.992,2.992,0,0,1-.947,5.794v.935a9.409,9.409,0,0,1-1.182,4.576A11.151,11.151,0,0,1,85.55,62.421a22.7,22.7,0,0,0-1.067-31.429,23.811,23.811,0,0,0-33.207,0,22.7,22.7,0,0,0-1.006,31.492,11.138,11.138,0,0,1,9.362-10.77,9.406,9.406,0,0,1-1.178-4.576V46.2a2.992,2.992,0,0,1-2.021-5.1,2.954,2.954,0,0,1,1.074-.692,10.463,10.463,0,0,1,6.871-8.79V29.134a1.558,1.558,0,0,1,1.548-1.548h3.962a1.558,1.558,0,0,1,1.548,1.548v2.487a10.463,10.463,0,0,1,6.876,8.788ZM75.4,46.2H60.42v.935a7.49,7.49,0,0,0,14.981,0V46.2ZM58.542,42.188a1.024,1.024,0,0,0,0,2.048H77.275a1.024,1.024,0,0,0,0-2.048Zm14.18,13.09a9.465,9.465,0,0,1-9.629,0v5.61h9.629ZM64.5,72.029l-2.392-.43c-1.787,1.373-3.581,2.654-5.455,3.9l.1.036a13.343,13.343,0,0,0,1.735.466c1.477-.855,2.845-1.731,4.127-2.622.651-.451,1.276-.905,1.881-1.355Z" transform="translate(0 0)"/></g></svg>