<svg xmlns="http://www.w3.org/2000/svg" width="295" height="161.41" viewBox="0 0 295 161.41"><g transform="translate(-1020 -3515.28)"><path d="M285.721,488.158c4.294-9.872,15.239-40.9,5.093-82.393-10.235-41.861-35.982-51.9-63.75-53.455-17.865-1-41.382-.643-56.835-9.662C84.162,292.42-52.409,366.7,20.867,488.158Z" transform="translate(1020 3188.531)" fill="#e8e7e7"/><g transform="translate(1072.238 3515.494)"><g transform="translate(10.3 4.4)"><g transform="translate(0 15.938)"><g transform="translate(0.176 0.235)"><path d="M179.511,203.2v5.764a3.163,3.163,0,0,1-3.176,3.176H13.776a3.163,3.163,0,0,1-3.176-3.176V203.2H179.452Z" transform="translate(-10.6 -102.453)" fill="#fff"/><path d="M176.335,31.9H13.776A3.163,3.163,0,0,0,10.6,35.076V132.47H179.452V35.076a3.163,3.163,0,0,0-3.176-3.176Zm-81.28,99.335a2,2,0,1,1,2-2A1.983,1.983,0,0,1,95.056,131.235ZM172.807,126H17.3V38.369h155.5Z" transform="translate(-10.6 -31.9)" fill="#178d89"/><rect width="155.09" height="87.22" transform="translate(6.94 6.646)" fill="#ececec"/><circle cx="1.823" cy="1.823" r="1.823" transform="translate(82.373 98.811) rotate(-80.8)" fill="#fff"/><rect width="23.231" height="10.763" transform="translate(72.869 109.922)" fill="#838ee8"/><path d="M164,254.952H98.6l2.117-5.352h61.224Z" transform="translate(-46.844 -121.564)" fill="#fff"/><path d="M161.5,244.44H113.1a36.427,36.427,0,0,0,12.527-6.94h23.349A36.428,36.428,0,0,0,161.5,244.44Z" transform="translate(-52.817 -116.58)" fill="#d4d8f3"/><rect width="65.518" height="6.822" transform="translate(51.697 133.623)" fill="#d4d8f3"/></g><path d="M175.977,141.716H13.888a3.6,3.6,0,0,1-3.588-3.588V35.088A3.6,3.6,0,0,1,13.888,31.5H176.035a3.6,3.6,0,0,1,3.588,3.588V138.069a3.6,3.6,0,0,1-3.588,3.588ZM13.888,31.735a3.351,3.351,0,0,0-3.352,3.352V138.069a3.351,3.351,0,0,0,3.352,3.352H176.035a3.351,3.351,0,0,0,3.352-3.352V35.088a3.351,3.351,0,0,0-3.352-3.352H13.888Z" transform="translate(-10.3 -31.5)" fill="#27191c"/><path d="M177.561,130.549H22V42.8H177.561v87.69Zm-155.325-.294H177.267V43.094H22.235Z" transform="translate(-15.119 -36.154)" fill="#27191c"/><path d="M179.446,203.135H10.418a.118.118,0,1,1,0-.235H179.505a.118.118,0,1,1,0,.235Z" transform="translate(-10.3 -102.094)" fill="#27191c"/><path d="M152.758,198.017a2.058,2.058,0,1,1,2.058-2.058A2.084,2.084,0,0,1,152.758,198.017Zm0-3.823a1.769,1.769,0,0,0-1.764,1.764,1.764,1.764,0,1,0,1.764-1.764Z" transform="translate(-68.126 -98.388)" fill="#27191c"/><path d="M157.8,229.733H134.1V218.618a.118.118,0,0,1,.235,0V229.5h23.172v-10.88a.118.118,0,0,1,.235,0v11.116Z" transform="translate(-61.289 -108.519)" fill="#27191c"/><path d="M111.718,244.51c-.059,0-.118,0-.118-.118,0-.059,0-.118.118-.176a35.85,35.85,0,0,0,13.174-7.116h.176v.176a36.333,36.333,0,0,1-13.292,7.175h0Z" transform="translate(-52.022 -116.18)" fill="#27191c"/><path d="M187.373,244.533h0a35.994,35.994,0,0,1-13.292-7.175s-.059-.118,0-.176c0,0,.118-.059.176,0a36.192,36.192,0,0,0,13.174,7.116c.059,0,.118.118.118.176a.127.127,0,0,1-.118.118Z" transform="translate(-77.746 -116.203)" fill="#27191c"/><path d="M164.106,255.023H98l2.294-5.823h61.519Zm-65.694-.235h65.341l-2.058-5.293H100.529l-2.058,5.293Z" transform="translate(-46.421 -121.164)" fill="#27191c"/><path d="M164.088,265.893H98.1V258.6h65.988Zm-65.694-.235h65.459v-6.763H98.394Z" transform="translate(-46.462 -125.035)" fill="#27191c"/></g><g transform="translate(22.937)"><path d="M58.2,4.7a8.685,8.685,0,0,0-8.7,8.7V20.58H66.967V13.4h0a8.685,8.685,0,0,0-8.7-8.7Z" transform="translate(-49.382 -4.524)" fill="#22cac5"/><path d="M67,20.574H49.3V13.281a8.881,8.881,0,0,1,17.762,0v7.293Zm-17.467-.235H66.709V13.222a8.534,8.534,0,0,0-8.587-8.469,8.635,8.635,0,0,0-8.587,8.587v7Zm17.35-7Z" transform="translate(-49.3 -4.4)" fill="#22cac5"/><g transform="translate(8.822 0.059)"><g transform="translate(0 0.176)"><path d="M93.6,207h80.221a.745.745,0,0,0,.353-.059H175a.29.29,0,0,0,.176-.059.216.216,0,0,0,.176-.059c.059,0,.118-.059.235-.118l.235-.118c.059,0,.118-.059.176-.118h0c.059,0,.118-.059.176-.118a8.48,8.48,0,0,0,4.293-7.41V187h-78.81v12.174a8.313,8.313,0,0,1-8.057,8.293h0Z" transform="translate(-76.368 -79.843)" fill="#22cac5"/><path d="M89.59,111.487h0v12.174a8.313,8.313,0,0,1-8.057,8.293H81.3A8.3,8.3,0,0,1,73,123.779V111.546h0V15.974C73,8.74,69.123,4.8,64.3,4.8h86.691a8.722,8.722,0,0,1,8.7,8.7v97.983H89.59Z" transform="translate(-64.3 -4.8)" fill="#fff"/><path d="M164.157,23.9v5.822H88.7V23.9Z" transform="translate(-74.35 -12.667)" fill="#a6eae8"/><rect width="75.516" height="1.059" transform="translate(14.35 20.761)" fill="#a6eae8"/><path d="M99.58,48.3h64.577v1.059H88.7V48.3Z" transform="translate(-74.35 -22.716)" fill="#a6eae8"/><rect width="75.516" height="1.059" transform="translate(14.35 30.348)" fill="#a6eae8"/><rect width="75.516" height="1.059" transform="translate(14.35 35.111)" fill="#a6eae8"/><path d="M99.58,72.6h64.577v1.059H88.7V72.6Z" transform="translate(-74.35 -32.725)" fill="#a6eae8"/><rect width="75.516" height="1.059" transform="translate(14.35 44.639)" fill="#a6eae8"/><rect width="75.516" height="1.059" transform="translate(14.35 49.403)" fill="#a6eae8"/><path d="M99.58,96.9h64.577v1.117H88.7V96.959H99.58Z" transform="translate(-74.35 -42.733)" fill="#a6eae8"/><rect width="75.516" height="1.059" transform="translate(14.35 58.99)" fill="#a6eae8"/><rect width="75.516" height="1.059" transform="translate(14.35 63.753)" fill="#a6eae8"/><path d="M99.58,121.3h64.577v1.059H88.7V121.3Z" transform="translate(-74.35 -52.783)" fill="#a6eae8"/><path d="M190.79,160.974l-2.411-.412-2.411-.412a10.108,10.108,0,0,1-2.294-.588,6.876,6.876,0,0,0-1.176-.353h-.706a.216.216,0,0,0-.176.059.209.209,0,0,0-.176.118,1.031,1.031,0,0,0-.294.235,1.877,1.877,0,0,1-.412.353,1.09,1.09,0,0,1-.412.118,1.564,1.564,0,0,1-.941-.353c-.353-.176-.647-.47-1.059-.647a2.108,2.108,0,0,0-.647-.235,3.351,3.351,0,0,0-.765.059c-.118,0-.235.118-.353.176a.29.29,0,0,0-.176.059h-.412l-.059-.059-.235-.235a5.091,5.091,0,0,0-.588-.412,1.628,1.628,0,0,0-.765-.176,1.143,1.143,0,0,0-.765.176,2.3,2.3,0,0,0-.588.471,1.876,1.876,0,0,1-.412.353c-.059,0-.118.059-.176.118a.216.216,0,0,0-.176.059h-.47a1.384,1.384,0,0,1-.471-.118c-.176-.059-.294-.176-.471-.235-.294-.235-.588-.47-.941-.765a.182.182,0,0,1-.118-.059l.118-.235.235-.588a28321.709,28321.709,0,0,1,.471-1.176,26.591,26.591,0,0,0,1.294-4.705c.176-.765.294-1.588.471-2.353.118-.823.235-1.588.412-2.411-.176.765-.353,1.588-.529,2.353s-.353,1.588-.588,2.353-.412,1.529-.647,2.294-.529,1.529-.823,2.235c-.059.176-.176.353-.235.529s-.176.353-.235.529l-.235.529v.176a.592.592,0,0,1-.176-.059h-.059l-.059-.059-.294-.176a9,9,0,0,0-2.411-.823,11.969,11.969,0,0,0-2.529-.118,17.545,17.545,0,0,0-2.47.235c-.823.118-1.588.235-2.411.353a11.224,11.224,0,0,0-2.411.647,10.971,10.971,0,0,0-1.176.588,12.918,12.918,0,0,0-1.059.823,5.074,5.074,0,0,0-1.353,2.294,3.546,3.546,0,0,0-.059,1.353,3.433,3.433,0,0,0,.471,1.294,3.57,3.57,0,0,0,.412.588l.235.235.235.235a4.474,4.474,0,0,0,1.117.706,10.137,10.137,0,0,0,1.235.412,4.587,4.587,0,0,0,1.294.176h1.294a8.929,8.929,0,0,0,1.235-.176l1.235-.353a9.808,9.808,0,0,0,1.176-.47c.353-.176.765-.412,1.117-.588.353-.235.706-.471,1-.706a16.468,16.468,0,0,0,3.411-3.588,10.228,10.228,0,0,0,.647-1.059c.118-.176.176-.353.294-.529h0c.294.235.588.47.941.706a5.174,5.174,0,0,0,.588.353,1.566,1.566,0,0,0,.706.176h.765a.836.836,0,0,0,.353-.118c.118,0,.235-.118.353-.235l.471-.471a1.56,1.56,0,0,1,.353-.294.836.836,0,0,1,.353-.118.56.56,0,0,1,.412.118,1.787,1.787,0,0,1,.412.294c.059,0,.118.118.176.176l.118.118a.848.848,0,0,1,.176.118,1.352,1.352,0,0,0,.823.118,1.246,1.246,0,0,0,.412-.176.847.847,0,0,0,.176-.118c.118,0,.294-.059.412,0a.782.782,0,0,1,.471.176,8.85,8.85,0,0,1,1,.588c.176.118.412.176.588.294a2.951,2.951,0,0,0,.706.118,1.027,1.027,0,0,0,.706-.235,1.679,1.679,0,0,0,.471-.412.6.6,0,0,1,.412-.235h.471a4.511,4.511,0,0,1,1.117.294,15.908,15.908,0,0,0,2.411.471c.823.118,1.588.176,2.411.294l2.411.294,2.411.294-2.352-.412Zm-22.231-1.706c-.235.353-.412.647-.647,1a13.708,13.708,0,0,1-3.352,3.294c-.294.235-.647.412-1,.647l-1.059.529a10.095,10.095,0,0,1-2.176.706c-.353.059-.765.118-1.117.176H158.09a3.693,3.693,0,0,1-1.117-.176l-1.059-.353a5.078,5.078,0,0,1-.941-.588l-.176-.176-.176-.176a1.787,1.787,0,0,1-.294-.412v-.118c-.059,0-.118-.118-.118-.118a.446.446,0,0,0-.118-.235.353.353,0,0,0-.059-.235V162.8a1.918,1.918,0,0,1,0-1,4.385,4.385,0,0,1,1.059-1.823,3.426,3.426,0,0,1,.882-.647,5.215,5.215,0,0,1,1-.471,9.627,9.627,0,0,1,2.235-.588c.765-.118,1.588-.235,2.352-.353s1.588-.176,2.353-.235a14.614,14.614,0,0,1,2.294.118,9.277,9.277,0,0,1,2.176.647l.235.118h.059v.059h.118v.118c-.118.176-.176.353-.294.529Z" transform="translate(-100.806 -63.285)" fill="#626161"/></g><path d="M172,206.761H93.6v-.294a8.135,8.135,0,0,0,7.94-8.116V186H180.7v12.057a8.623,8.623,0,0,1-4.352,7.528c-.059,0-.118.059-.176.118h0a.847.847,0,0,0-.176.118c-.059,0-.118.059-.235.118-.059,0-.118.059-.235.118a.216.216,0,0,0-.176.059.29.29,0,0,0-.176.059h-.235a.29.29,0,0,0-.176.059h-.353c-.118,0-.235.059-.353.059h-1.823Zm-76.457-.294H173.7a.836.836,0,0,0,.353-.118h.294a.29.29,0,0,0,.176-.059h.235a.29.29,0,0,0,.176-.059.216.216,0,0,0,.176-.059c.059,0,.118-.059.235-.118.059,0,.118-.059.235-.118a.847.847,0,0,0,.176-.118h0c.059,0,.118-.059.176-.118a8.45,8.45,0,0,0,4.235-7.293V186.588h-78.4v12.057a8.176,8.176,0,0,1-2.411,5.881,8.447,8.447,0,0,1-3.882,2.294Z" transform="translate(-76.368 -79.254)" fill="#27191c"/><path d="M81.3,132.007a8.563,8.563,0,0,1-5.94-2.411,8.232,8.232,0,0,1-2.47-5.881v-9.351h0V15.792c0-6.587-3.47-11-8.587-11V4.5h86.867a8.837,8.837,0,0,1,8.7,8.881V111.54H89.707V123.6a8.176,8.176,0,0,1-2.411,5.881,8.265,8.265,0,0,1-5.764,2.529Zm-8.116-20.761h0V123.6a8.12,8.12,0,0,0,8.116,8.057h.235a8.1,8.1,0,0,0,7.94-8.116V111.187h70.164V13.322a8.584,8.584,0,0,0-8.528-8.587l-.176.176V4.735H66.476a7.61,7.61,0,0,1,4.117,2.647,12.771,12.771,0,0,1,2.588,8.351v95.513Z" transform="translate(-64.3 -4.5)" fill="#27191c"/></g></g><g transform="translate(77.104 73.105)"><g transform="translate(0.176 0.176)"><circle cx="7.352" cy="7.352" r="7.352" fill="#116562"/><path d="M155.451,136.929l-2.235-1.529-2.411,3.411-2.117-1.47-1.588,2.176,4.293,3.058,1.588-2.176h0Z" transform="translate(-143.924 -131.636)" fill="#fff"/></g><path d="M148.928,143.756a7.528,7.528,0,1,1,7.528-7.528A7.543,7.543,0,0,1,148.928,143.756Zm0-14.7a7.234,7.234,0,1,0,7.234,7.234A7.229,7.229,0,0,0,148.928,129.053Z" transform="translate(-141.4 -128.7)" fill="#27191c"/></g><g transform="translate(112.412 31.877)"><g transform="translate(0.135 0.118)"><path d="M248.554,72.409a66.79,66.79,0,0,0-.412-7.058,37.247,37.247,0,0,1-8.7-.706,43.186,43.186,0,0,1-7.293-2.235A45.045,45.045,0,0,1,225.323,59a45.044,45.044,0,0,1-6.822,3.411,43.189,43.189,0,0,1-7.293,2.235,31.839,31.839,0,0,1-8.7.706c0,.353-.353,3.117-.412,7.058A87.678,87.678,0,0,0,203.268,88.7c2,11.116,7.41,25.231,22.114,29.348,14.7-4.117,20.114-18.232,22.114-29.348a82.857,82.857,0,0,0,1.176-16.291Zm-2.882,16.056a46.59,46.59,0,0,1-6.293,17.115,26.378,26.378,0,0,1-6.058,6.646,24.6,24.6,0,0,1-8.116,4.117h0a25.183,25.183,0,0,1-8.116-4.117,25.449,25.449,0,0,1-4.705-4.705h0a16.166,16.166,0,0,1-1.353-1.941,46.192,46.192,0,0,1-6.293-17.115,90.6,90.6,0,0,1-.941-21.408h.059A41.821,41.821,0,0,0,219.5,63.705a56.957,56.957,0,0,0,5.646-2.764h0a46.2,46.2,0,0,0,5.646,2.764,42.094,42.094,0,0,0,15.644,3.352h.059a87.448,87.448,0,0,1-.941,21.408Z" transform="translate(-201.835 -58.882)" fill="#fff"/><path d="M245.207,139.711a26.714,26.714,0,0,1-4.646,4.646,24.31,24.31,0,0,1-8.057,4.117,24.31,24.31,0,0,1-8.057-4.117,26.717,26.717,0,0,1-4.646-4.646l2.411-2.411a22.8,22.8,0,0,0,4.705,5.293,19.887,19.887,0,0,0,5.528,3.176h0a19.083,19.083,0,0,0,5.528-3.176,21.657,21.657,0,0,0,4.705-5.293l2.411,2.411Z" transform="translate(-209.134 -91.132)" fill="#22cac5"/><path d="M246.89,89.866a45.882,45.882,0,0,1-6.293,17.056,21.83,21.83,0,0,1-1.353,1.882l-2.411-2.411.353-.529c2.647-4.235,4.529-9.7,5.7-16.291a90.107,90.107,0,0,0,1.117-16.644h0a27.754,27.754,0,0,1-6.469-.412c-3.294-.647-7.822-2.235-10.939-6.175h0c-3.058,4-7.646,5.587-10.88,6.175a24.329,24.329,0,0,1-6.469.412h0a85.486,85.486,0,0,0,1.117,16.644,44.9,44.9,0,0,0,5.7,16.291l.353.529-2.411,2.411c-.471-.588-.882-1.235-1.353-1.882a45.881,45.881,0,0,1-6.293-17.056,90,90,0,0,1-.941-21.349,41.551,41.551,0,0,0,15.644-3.352,46.194,46.194,0,0,0,5.646-2.764,46.2,46.2,0,0,0,5.646,2.764,42.157,42.157,0,0,0,15.7,3.352,86.875,86.875,0,0,1-.941,21.349Z" transform="translate(-203.112 -60.283)" fill="#116562"/><path d="M245.574,92.414c-1.117,6.587-3,12.057-5.646,16.232l-.353.529a24.376,24.376,0,0,1-4.705,5.293,19.082,19.082,0,0,1-5.528,3.176,19.887,19.887,0,0,1-5.528-3.176,21.658,21.658,0,0,1-4.705-5.293l-.353-.529c-2.647-4.235-4.529-9.7-5.646-16.232a94.347,94.347,0,0,1-1.117-16.526,26.49,26.49,0,0,0,6.411-.412,21.029,21.029,0,0,0,5.7-1.941,15.536,15.536,0,0,0,5.234-4.235,14.865,14.865,0,0,0,5.234,4.235,21.743,21.743,0,0,0,5.7,1.941,23.562,23.562,0,0,0,6.411.412,83.846,83.846,0,0,1-1.117,16.526Z" transform="translate(-205.913 -63.125)" fill="#f1f4fd"/><g transform="translate(13.901 16.526)"><path d="M244.238,96.369a9.373,9.373,0,0,1-3.176,7.058,9.5,9.5,0,0,1-6.293,2.411,9.5,9.5,0,0,1-9.469-9.469,9.469,9.469,0,1,1,18.938,0Z" transform="translate(-225.3 -86.9)" fill="#d4d8f3"/><path d="M243.286,111.128a9.5,9.5,0,0,1-6.293,2.411,9.323,9.323,0,0,1-6.293-2.411,6.346,6.346,0,0,1,12.586,0Z" transform="translate(-227.524 -94.602)" fill="#178d89"/><path d="M239.3,99.5a3,3,0,1,1,3-3A3.012,3.012,0,0,1,239.3,99.5Z" transform="translate(-229.831 -89.618)" fill="#22cac5"/></g><g opacity="0.1"><path d="M225.034,58.8v59.225c-28.466-8-22.937-52.814-22.937-52.814C214.389,65.858,225.034,58.8,225.034,58.8Z" transform="translate(-201.664 -58.8)" fill="#27191c"/></g></g><path d="M224.94,118.06h0a27.1,27.1,0,0,1-15.7-11.7c-3.117-4.705-5.293-10.7-6.587-17.82a88.2,88.2,0,0,1-.765-23.466v-.118H202a38.464,38.464,0,0,0,16-2.941,42.825,42.825,0,0,0,6.822-3.411h.118a42.826,42.826,0,0,0,6.822,3.411,38.464,38.464,0,0,0,16,2.941h.118v.118a91.127,91.127,0,0,1-.765,23.466,46.559,46.559,0,0,1-6.587,17.82A26.822,26.822,0,0,1,224.822,118h0ZM202.179,65.246a90.5,90.5,0,0,0,.765,23.231c2,11.057,7.41,25.172,22,29.289,14.644-4.117,20.055-18.173,22-29.289a87.636,87.636,0,0,0,.765-23.231h-1.47a39.964,39.964,0,0,1-14.527-3,46.522,46.522,0,0,1-6.822-3.411,43.258,43.258,0,0,1-6.822,3.411,39.153,39.153,0,0,1-16,3Z" transform="translate(-201.435 -58.6)" fill="#27191c"/><path d="M226.235,117.72h0a24.6,24.6,0,0,1-8.116-4.117,26.377,26.377,0,0,1-6.058-6.646,46.59,46.59,0,0,1-6.293-17.115,90.6,90.6,0,0,1-.941-21.408v-.118H205a42.094,42.094,0,0,0,15.644-3.352,46.2,46.2,0,0,0,5.646-2.764h.118a46.2,46.2,0,0,0,5.646,2.764A41.551,41.551,0,0,0,247.7,68.317h.176v.118a84.519,84.519,0,0,1-.941,21.408c-1.235,6.881-3.352,12.645-6.293,17.115a26.376,26.376,0,0,1-6.058,6.646,25.184,25.184,0,0,1-8.116,4.117h-.235ZM205.062,68.493A85.9,85.9,0,0,0,206,89.725,46.278,46.278,0,0,0,212.3,106.78a28.141,28.141,0,0,0,6,6.587,24.466,24.466,0,0,0,8,4.058,24.466,24.466,0,0,0,8-4.058,25.9,25.9,0,0,0,6-6.587,45.882,45.882,0,0,0,6.293-17.056,85.9,85.9,0,0,0,.941-21.232,42.094,42.094,0,0,1-15.644-3.352,49.09,49.09,0,0,1-5.587-2.764,49.093,49.093,0,0,1-5.587,2.764,41.821,41.821,0,0,1-15.644,3.352Z" transform="translate(-202.73 -60.083)" fill="#27191c"/><path d="M229.116,117.715h0a20.868,20.868,0,0,1-5.587-3.176,22.771,22.771,0,0,1-5.117-5.881,44.894,44.894,0,0,1-5.7-16.291,90.4,90.4,0,0,1-1.117-16.644V75.6h.176a27.229,27.229,0,0,0,6.411-.412c3.294-.647,7.822-2.235,10.88-6.175l.118-.118.118.118c3.058,3.94,7.587,5.528,10.88,6.175a23.906,23.906,0,0,0,6.411.412h.118v.118a85.487,85.487,0,0,1-1.117,16.644,44.9,44.9,0,0,1-5.7,16.291,22.771,22.771,0,0,1-5.117,5.881,19.4,19.4,0,0,1-5.587,3.176h-.059ZM211.883,75.781A83.289,83.289,0,0,0,213,92.249q1.676,9.881,5.646,16.232A23.438,23.438,0,0,0,223.7,114.3a20.937,20.937,0,0,0,5.47,3.117,20.935,20.935,0,0,0,5.47-3.117,23.438,23.438,0,0,0,5.058-5.822c2.647-4.176,4.529-9.645,5.646-16.232a93.392,93.392,0,0,0,1.117-16.468,28.964,28.964,0,0,1-6.352-.412c-3.294-.647-7.822-2.235-10.939-6.117a17.82,17.82,0,0,1-10.939,6.117A25.482,25.482,0,0,1,211.883,75.781Z" transform="translate(-205.611 -62.842)" fill="#27191c"/><path d="M261.288,139.747h-.118l-2.47-2.47V137.1h.176l2.47,2.47v.176h-.059Z" transform="translate(-225.02 -90.932)" fill="#27191c"/><path d="M219.718,139.747H219.6v-.176l2.47-2.47h.176c.059,0,0,.118,0,.176l-2.47,2.47h-.118Z" transform="translate(-208.916 -90.932)" fill="#27191c"/></g><g transform="translate(0.036 20.164)"><g transform="translate(0.258 0.127)"><g transform="translate(24.937 126.331)"><rect width="19.173" height="0.647" transform="translate(0 8.351)" fill="#aeddff"/><rect width="19.173" height="0.647" transform="translate(0 9.292)" fill="#3895ea"/><path d="M53.2,258.2h8.822a1.1,1.1,0,0,0-1.117-1H54.317A1.1,1.1,0,0,0,53.2,258.2Z" transform="translate(-53.2 -255.142)" fill="#aeddff"/><path d="M53.7,253.9v1.941a1.351,1.351,0,0,1,.823-.235H61.11a1.915,1.915,0,0,1,.823.235l.235-1.941Z" transform="translate(-53.406 -253.782)" fill="#ffcec7"/><path d="M62.146,254.465H53.5V253.7h8.763Z" transform="translate(-53.324 -253.7)" fill="#ff9a95"/><path d="M79.1,259.012v2.352a.412.412,0,0,0,.823,0v-2.352a.412.412,0,1,0-.823,0Z" transform="translate(-63.867 -255.718)" fill="#fff"/><path d="M75.1,259.012v2.352a.412.412,0,0,0,.823,0v-2.352a.412.412,0,1,0-.823,0Z" transform="translate(-62.22 -255.718)" fill="#fff"/><g transform="translate(0 2.882)"><path d="M71.1,259.012v2.352a.412.412,0,0,0,.823,0v-2.352a.412.412,0,1,0-.823,0Z" transform="translate(-60.572 -258.6)" fill="#fff"/><path d="M53.2,259.4v4.764H72.373a2.438,2.438,0,0,0-.118-.941,4.67,4.67,0,0,0-1.294-2.353,5.1,5.1,0,0,0-1.353-.941v1.823a.647.647,0,0,1-1.294,0v-2.235h-1v2.294a.647.647,0,0,1-1.294,0v-2.294h-1v2.294a.647.647,0,0,1-1.294,0v-2.294H53.435Z" transform="translate(-53.2 -258.929)" fill="#3895ea"/></g><circle cx="1.412" cy="1.412" r="1.412" transform="translate(4.117 3.882)" fill="#fff"/><path d="M55.847,264.029H72.255a5.148,5.148,0,0,1,.118.941H53.2V261.5a2.685,2.685,0,0,1,2.647,2.47Z" transform="translate(-53.2 -256.913)" fill="#fff"/></g><g transform="translate(0.235 126.331)"><rect width="19.173" height="0.647" transform="translate(0 8.351)" fill="#aeddff"/><rect width="19.173" height="0.647" transform="translate(0 9.292)" fill="#3895ea"/><g transform="translate(0.059)"><path d="M11.3,258.2h8.822a1.1,1.1,0,0,0-1.117-1H12.417A1.1,1.1,0,0,0,11.3,258.2Z" transform="translate(-11.3 -255.142)" fill="#aeddff"/><path d="M11.8,253.9v1.941a1.351,1.351,0,0,1,.823-.235H19.21a1.915,1.915,0,0,1,.823.235l.235-1.941H11.8Z" transform="translate(-11.506 -253.782)" fill="#ffcec7"/><path d="M20.246,254.465H11.6V253.7h8.7Z" transform="translate(-11.424 -253.7)" fill="#ff9a95"/></g><path d="M37.2,259.012v2.352a.412.412,0,0,0,.823,0v-2.352a.412.412,0,1,0-.823,0Z" transform="translate(-21.909 -255.718)" fill="#fff"/><path d="M33.2,259.012v2.352a.412.412,0,0,0,.823,0v-2.352a.412.412,0,1,0-.823,0Z" transform="translate(-20.261 -255.718)" fill="#fff"/><g transform="translate(0 2.882)"><path d="M29.2,259.012v2.352a.412.412,0,0,0,.823,0v-2.352a.412.412,0,1,0-.823,0Z" transform="translate(-18.614 -258.6)" fill="#fff"/><path d="M11.2,259.4v4.764H30.373a2.438,2.438,0,0,0-.118-.941,4.67,4.67,0,0,0-1.294-2.353,5.1,5.1,0,0,0-1.353-.941v1.823a.647.647,0,0,1-1.294,0v-2.235h-1v2.294a.647.647,0,0,1-1.294,0v-2.294h-1v2.294a.647.647,0,0,1-1.294,0v-2.294H11.2Z" transform="translate(-11.2 -258.929)" fill="#3895ea"/></g><circle cx="1.412" cy="1.412" r="1.412" transform="translate(4.176 3.882)" fill="#fff"/><path d="M13.847,264.029H30.255a5.147,5.147,0,0,1,.118.941H11.2V261.5a2.685,2.685,0,0,1,2.647,2.47Z" transform="translate(-11.2 -256.913)" fill="#fff"/></g><path d="M52.5,249.1l.118,2.235a.38.38,0,0,0,.353.353h9.116a.278.278,0,0,0,.294-.294l.353-2.294H52.5Z" transform="translate(-27.975 -125.475)" fill="#fff"/><path d="M10.8,251.276c0,.118,0,.176.059.235a.305.305,0,0,0,.235.118h9.057a.466.466,0,0,0,.471-.294l.765-2.235H11.035l-.235,2.235Z" transform="translate(-10.8 -125.475)" fill="#fff"/><path d="M34.7,97.076c2.647,2.47,4.94,3.588,6.94,3.352a4.269,4.269,0,0,0,3-2.058h0c-.059,0-.118-.118-.235-.176-.294-.176-.588-.412-.882-.588h0a2.8,2.8,0,0,1-1.882,1.412c-.235,0-.471.059-.706.059-1.294,0-2.764-.706-4.47-2.176-.588,0-1.176.059-1.764.118Z" transform="translate(-20.644 -62.788)" fill="#fff"/><path d="M114.5,113.941h.235a2.013,2.013,0,0,0,2-.941h-2.117v1Z" transform="translate(-53.511 -69.42)" fill="#ffcec7"/><path d="M36.17,77.772h.118a4.759,4.759,0,0,1,.882-2.235c.706-1.117,1.706-1.235,3.646-.412a5.224,5.224,0,0,0,3.94.353,9.1,9.1,0,0,1,.529,2.117l-.118,4.176a3.91,3.91,0,0,1-2.235,3.294h-.118l.471,3.117h0a2.827,2.827,0,0,1-1.764,1.353c-1.294.294-2.941-.353-4.823-2,2-2.764,1.176-4.705,1.117-4.882h0c-.235-.529-.47-1.059-.647-1.529h0c-.118-.294-.118-.294-.235-.294h-.412A1.719,1.719,0,0,1,34.7,79.242a1.638,1.638,0,0,1,1.47-1.588Z" transform="translate(-20.644 -53.599)" fill="#ffcec7"/><path d="M46.335,92.1l.176,1.412a.993.993,0,0,1-.294-.118c-.529-.176-1.059-.353-1.588-.588a11.557,11.557,0,0,1-1.47-.765.459.459,0,0,1-.235-.235c-.059-.118-.176-.294-.059-.412.059-.176.294-.176.412-.118.823.118,1.529.529,2.353.706a2.089,2.089,0,0,1,.588.118h.176a.182.182,0,0,0-.118.059Z" transform="translate(-23.986 -60.457)" fill="#ff9a95"/><path d="M44.5,86.2a1.346,1.346,0,0,0,.471,1,.949.949,0,0,0,.529.176c.412,0,.765-.529,1-.823h0l-1.882-.294h0Z" transform="translate(-24.68 -58.381)" fill="#ff9a95"/><path d="M16.12,144.468h0a1.566,1.566,0,0,0,.706.176c2.882.176,5.822.059,8.646,0,1,0,2-.059,3-.059,1.235,0,2.529-.118,3.764-.176,1.47-.059,3-.176,4.529-.176a12.088,12.088,0,0,1,2.058.118,17.686,17.686,0,0,0,3.529,0,2.219,2.219,0,0,0,.941-.294h0a2.053,2.053,0,0,0,1.059-1.823v-1.941h-.294c-.941,0-3.176.118-4,.059C31.882,140.057,21.3,137.528,16.532,129L15.3,143.292a1.187,1.187,0,0,0,.765,1.235Z" transform="translate(-12.65 -76.009)" fill="#9fd3fb"/><path d="M16.255,109.651a10.656,10.656,0,0,0,.882,4h0c2.647,6.234,10.175,9.822,13.292,11.057a28.229,28.229,0,0,0,4.823,1.411h0c.588.118,1.176.235,1.764.294h0c2.235.294,4.293.412,5.94.471H48.6c1.823,0,3.764-.118,5.94-.235.294,0,.471-.235.529-.529l.353-5.7a.637.637,0,0,0-.471-.647c-1.706-.529-6.117-2.058-11.057-4.058H43.78c-6.293-2.588-14.292-6.469-16.409-10.175v-.176h.176c1.647,2.882,7.234,6.352,16.174,10.057a3.618,3.618,0,0,0-.059-.765v-.235h0a4.54,4.54,0,0,0-.118-.882v-.294a34.936,34.936,0,0,0-1.764-7.881v-.118a14.1,14.1,0,0,0-1.941-3.705,2.558,2.558,0,0,0-.353-.412l-.118-.118a.846.846,0,0,0-.118-.176s-.059-.118-.118-.118l-.176-.176-.118-.118-.118-.118s-.118-.118-.118-.176l-.118-.118c-.353-.353-.765-.706-1.176-1.059h0a.182.182,0,0,0-.059-.118l-.118-.118h0a4.741,4.741,0,0,1-3.176,2.176H33.37c-1.941,0-4.176-1.235-6.646-3.588a15.823,15.823,0,0,0-5.352,1.941c-3.294,1.941-5.293,6-5.176,10.351Z" transform="translate(-13.021 -62.953)" fill="#9fd3fb"/><path d="M52.9,99.659c2.058,1.588,6.764,6.175,7.41,15.468h0A45.226,45.226,0,0,0,79.366,111.6l.647-8.293c-.882.118-1.764.235-2.941.294q-2.382.176-4.764.176a52.472,52.472,0,0,1-6.822-.412,40.2,40.2,0,0,1-8.94-2.058A28.147,28.147,0,0,1,52.9,99.6Z" transform="translate(-28.14 -63.9)" fill="#9fd3fb"/><path d="M11.3,210.173H21.71l6.528-18.879c.529-1.588,1.235-5.94,2.058-12.586.118-.823.235-1.706.294-2.294h0c.294-2.588.588-4.881.765-6.352.059-.529.118-.823.118-.823,0-.059.059-.118.176-.118.059,0,.118.059.118.176h0l.353,11.351,2.294,8.116a2.979,2.979,0,0,1,.118.765l1.059,20.82H45.882L49,190.647a22.416,22.416,0,0,0-.588-9.469l-6.7-25.878a4.407,4.407,0,0,1-.941.235,14.646,14.646,0,0,1-3.588,0c-.706,0-1.353-.118-2.058-.118-1.47,0-3,.118-4.47.176-1.235.059-2.529.176-3.764.176-1,0-2,0-3,.059-1.706,0-3.411.118-5.117.118a31.485,31.485,0,0,1-3.588-.118,1.266,1.266,0,0,1-.647-.118l-.823,30.877v1.059l-2.353,22.584Z" transform="translate(-11.006 -86.842)" fill="#116562"/><g transform="translate(37.814)"><rect width="75.046" height="12.233" transform="translate(1.132 92.788) rotate(-78.9)" fill="#b15815"/><path d="M88.214,199.053l-1,5.234a6.139,6.139,0,0,1-7.175,4.823,3.593,3.593,0,0,1-.765-.176,6.354,6.354,0,0,1-1.764-.941,6.064,6.064,0,0,1-2.294-6.058l1-5.234,9,1.764,3,.588Z" transform="translate(-75.096 -103.893)" fill="#ff7bac"/><path d="M89.9,200.288l-1,5.234a6.139,6.139,0,0,1-7.175,4.823,3.592,3.592,0,0,1-.765-.176,6.354,6.354,0,0,1-1.764-.941c2.058-.118,6.175-1.411,7.7-9.528Z" transform="translate(-76.786 -105.129)" fill="#ef5996"/><path d="M106.062,74.2l3.764.765L95.3,148.6l-3-.647Z" transform="translate(-82.182 -53.439)" fill="#dca000"/><path d="M95.232,72.206,91.468,71.5,77,145.134l3.058.529Z" transform="translate(-75.88 -52.327)" fill="#dca000"/><path d="M89.939,191.153,89,195.8l-2.764-.529L77,193.446l.941-4.646,8.94,1.706h0Z" transform="translate(-75.88 -100.639)" fill="#fff"/><path d="M96.24,192.347l-.941,4.646-2.764-.529-.235-.118.882-4.646h0Z" transform="translate(-82.182 -101.834)" fill="#ececec"/><path d="M116.635,46.722l-3.235-.647,3.117-7.175Z" transform="translate(-90.872 -38.9)" fill="#27191c"/><path d="M111.657,38.9l.47,5.587,1.529,15.938-3.764-.765L101.6,58.073Z" transform="translate(-86.012 -38.9)" fill="#ffcec7"/><path d="M117.482,47.988l1.529,15.938-3.764-.765L114.6,47.4Z" transform="translate(-91.366 -42.401)" fill="#ff9a95"/><path d="M112.3,45.958l4.47.882-.706-7.94h-.059Z" transform="translate(-90.419 -38.9)" fill="#27191c"/></g><path d="M83,141.717a.216.216,0,0,1,.176.059c.118,0,.176.059.294.118h.118a1.108,1.108,0,0,1,.47.118,4.587,4.587,0,0,0,1.294.176A13.307,13.307,0,0,0,88,142.07h.294c.118,0,.235.118.353.176l.706.353h.059c.412.176.823.412,1.176.588h.059a3.152,3.152,0,0,0,.647.294c.118,0,.176.118.294.118h.235A.225.225,0,0,0,92,143.3c0-.176-.235-.294-.353-.412a5.14,5.14,0,0,0-.588-.471c-.118-.059-.176-.176-.294-.235,0,0-.118-.059-.118-.118h-.059a7.91,7.91,0,0,0-1.823-1c-.176-.059-.294-.118-.471-.176h0c-.059,0-.118-.118-.118-.176s.118-.118.176-.118h.059l1.059.353c.353.118.706.235,1.117.353a.354.354,0,0,1,.235.059h0c.294.118.529.176.823.294l1.059.353a.96.96,0,0,0,.412,0c.118,0,.176-.059.235-.176v-.353c-.059-.118-.176-.176-.294-.294-.176-.059-.294-.176-.47-.235s-.353-.176-.529-.235a.446.446,0,0,1-.235-.118h-.176a2.088,2.088,0,0,1-.529-.235c-.706-.294-1.412-.588-2.117-.823-.118,0-.176-.059-.294-.118-.059,0-.118-.118-.118-.176s.118-.118.176-.118c.765.294,1.47.588,2.235.882a6.1,6.1,0,0,0,.588.235h.353a.746.746,0,0,1,.353.059,2.952,2.952,0,0,1,.706.118h.588q.088,0,.176-.176v-.235c-.059-.176-.294-.294-.471-.412a3.151,3.151,0,0,0-.647-.294,12.585,12.585,0,0,0-1.294-.588c-.118,0-.176-.059-.294-.118h0c-.176-.059-.294-.118-.471-.176-.118,0-.235-.118-.353-.118a.216.216,0,0,1-.176-.059H89.94a.081.081,0,0,1,0-.118h.118a5.669,5.669,0,0,0,1.412,0,1.163,1.163,0,0,0,.647-.118,2.65,2.65,0,0,0,.647-.176,1.055,1.055,0,0,0,.412-.294s.118-.118.118-.176v-.235a.5.5,0,0,0-.353-.412,1.163,1.163,0,0,0-.647-.118,2.862,2.862,0,0,0-.706.059H91.41a1.3,1.3,0,0,0-.471.059c-.471,0-.941.118-1.412.118-.941.059-1.882.118-2.882.176H83.529l-.294,4.587Z" transform="translate(-40.537 -79.14)" fill="#ffcec7"/><path d="M82.959,142.087a.216.216,0,0,1,.176.059c.118,0,.176.059.294.118h.118l.294-4.764h-.647l-.294,4.587Z" transform="translate(-40.496 -79.51)" fill="#ff9a95"/><path d="M112.7,111.065a1.171,1.171,0,0,0,.706.471h.235a14.478,14.478,0,0,0,1.529.118h.118a2.752,2.752,0,0,0,1-.118h0a.182.182,0,0,0,.118-.059.5.5,0,0,0,.118-.353.676.676,0,0,0-.471-.588c-.176-.059-.353-.118-.588-.176a2.864,2.864,0,0,1-.706-.059h-.353a3.437,3.437,0,0,0-1.117.118.847.847,0,0,0-.588.353v.353Z" transform="translate(-52.769 -68.307)" fill="#ffcec7"/><path d="M113.643,108.117c0,.118.176.235.294.294a.445.445,0,0,1,.235.059h.059a.216.216,0,0,1,.176.059,1.385,1.385,0,0,1,.471.118h.941a2.031,2.031,0,0,0,1.059-.294c.235-.176.412-.529.235-.765a1.988,1.988,0,0,0-1.47-.588h-.706a3.079,3.079,0,0,0-1.176.471c-.176.176-.235.294-.176.471Z" transform="translate(-53.125 -66.948)" fill="#ffcec7"/><path d="M113.9,105.594c0,.176.235.176.294.235h1.294a2.371,2.371,0,0,0,1.235-.471c.118-.118.588-.412.588-.706q0-.265-.706-.353h-.294a3.424,3.424,0,0,0-1.117.176h0a.446.446,0,0,0-.235.118l-.353.176a.847.847,0,0,0-.176.118,1.2,1.2,0,0,0-.412.353c0,.059-.118.176-.118.294v.059Z" transform="translate(-53.264 -65.836)" fill="#ffcec7"/><path d="M113.259,102.782h0c.118.235.529.176.647.176h.235a1.09,1.09,0,0,0,.412-.118h0a.446.446,0,0,0,.235-.118h0a.29.29,0,0,0,.176-.059l.529-.353a4.442,4.442,0,0,0,.647-.823c.059-.118.118-.294,0-.353q0-.088-.176-.176c-.118,0-.235-.059-.353-.059H115.2c-.176,0-.294.118-.471.176a6.9,6.9,0,0,0-.647.294h0a1.733,1.733,0,0,0-.882,1.176v.294Z" transform="translate(-52.975 -64.436)" fill="#ffcec7"/></g><g transform="translate(24.901 126.281)"><path d="M53.418,256.047a.126.126,0,0,1-.118-.118V253.4h9L62,255.87c0,.059-.059.118-.176.118-.059,0-.118-.059-.118-.176l.235-2.176H53.476v2.235a.126.126,0,0,1-.118.118Z" transform="translate(-52.947 -253.4)" fill="#27191c"/><path d="M72.4,268.676H52.7V267.5H72.4Zm-19.408-.294H72.167v-.647H52.994v.647Z" transform="translate(-52.7 -259.207)" fill="#27191c"/><path d="M72.4,270.176H52.7V269H72.4Zm-19.408-.235H72.167v-.647H52.994v.647Z" transform="translate(-52.7 -259.825)" fill="#27191c"/><path d="M77.953,259.294h0c-.294,0-.529-.059-.823-.059h-.412a.118.118,0,0,1,0-.235h.412a4.454,4.454,0,0,1,.882.059c.059,0,.118.059.118.176a.127.127,0,0,1-.118.118Z" transform="translate(-62.544 -255.706)" fill="#27191c"/><path d="M72.4,264.193H52.7V258.9H63.345a.118.118,0,0,1,0,.235H52.935V263.9H72.108a4.838,4.838,0,0,0-3-4.352.132.132,0,0,1,.118-.235,5.244,5.244,0,0,1,3.176,4.764v.118Z" transform="translate(-52.7 -255.665)" fill="#27191c"/><path d="M73.912,259.235H72.618a.118.118,0,0,1,0-.235h1.294a.118.118,0,0,1,0,.235Z" transform="translate(-60.855 -255.706)" fill="#27191c"/><path d="M62.11,258.329H52.7v-.118a1.431,1.431,0,0,1,1.412-1.412H60.7a1.431,1.431,0,0,1,1.412,1.412Zm-9.116-.294h8.822a1.1,1.1,0,0,0-1.117-1H54.112A1.1,1.1,0,0,0,52.994,258.035Z" transform="translate(-52.7 -254.8)" fill="#27191c"/><path d="M79.347,261.846a.653.653,0,0,1-.647-.647v-2.353a.647.647,0,1,1,1.294,0V261.2A.653.653,0,0,1,79.347,261.846Zm0-3.411a.4.4,0,0,0-.412.412V261.2a.412.412,0,0,0,.823,0v-2.353A.4.4,0,0,0,79.347,258.435Z" transform="translate(-63.409 -255.377)" fill="#27191c"/><path d="M75.347,261.846a.653.653,0,0,1-.647-.647v-2.353a.647.647,0,1,1,1.294,0V261.2A.653.653,0,0,1,75.347,261.846Zm0-3.411a.4.4,0,0,0-.412.412V261.2a.412.412,0,0,0,.823,0v-2.353A.4.4,0,0,0,75.347,258.435Z" transform="translate(-61.761 -255.377)" fill="#27191c"/><path d="M71.347,261.846a.653.653,0,0,1-.647-.647v-2.353a.647.647,0,1,1,1.294,0V261.2A.653.653,0,0,1,71.347,261.846Zm0-3.411a.4.4,0,0,0-.412.412V261.2a.412.412,0,0,0,.823,0v-2.353A.4.4,0,0,0,71.347,258.435Z" transform="translate(-60.114 -255.377)" fill="#27191c"/></g><g transform="translate(0.258 126.281)"><path d="M11.518,256.047a.126.126,0,0,1-.118-.118V253.4h9l-.294,2.47c0,.059-.059.118-.176.118-.059,0-.118-.059-.118-.176l.235-2.176H11.576v2.235a.126.126,0,0,1-.118.118Z" transform="translate(-11.047 -253.4)" fill="#27191c"/><path d="M30.5,268.676H10.8V267.5H30.5Zm-19.467-.294H30.208v-.647H11.035Z" transform="translate(-10.8 -259.207)" fill="#27191c"/><path d="M30.5,270.176H10.8V269H30.5Zm-19.467-.235H30.208v-.647H11.035Z" transform="translate(-10.8 -259.825)" fill="#27191c"/><path d="M36.053,259.294h0c-.294,0-.529-.059-.823-.059h-.412a.118.118,0,0,1,0-.235h.412a4.454,4.454,0,0,1,.882.059c.059,0,.118.059.118.176a.127.127,0,0,1-.118.118Z" transform="translate(-20.644 -255.706)" fill="#27191c"/><path d="M30.5,264.193H10.8V258.9H21.445a.118.118,0,0,1,0,.235H11.035V263.9H30.208a4.838,4.838,0,0,0-3-4.352.132.132,0,0,1,.118-.235,5.244,5.244,0,0,1,3.176,4.764v.118Z" transform="translate(-10.8 -255.665)" fill="#27191c"/><path d="M31.912,259.235H30.618a.118.118,0,0,1,0-.235h1.294a.118.118,0,0,1,0,.235Z" transform="translate(-18.914 -255.706)" fill="#27191c"/><path d="M20.21,258.329H10.8v-.118a1.431,1.431,0,0,1,1.412-1.412H18.8a1.431,1.431,0,0,1,1.412,1.412v.118Zm-9.116-.294h8.822a1.1,1.1,0,0,0-1.117-1H12.212A1.1,1.1,0,0,0,11.094,258.035Z" transform="translate(-10.8 -254.8)" fill="#27191c"/><path d="M37.447,261.846a.653.653,0,0,1-.647-.647v-2.353a.647.647,0,1,1,1.294,0V261.2A.653.653,0,0,1,37.447,261.846Zm0-3.411a.4.4,0,0,0-.412.412V261.2a.412.412,0,0,0,.823,0v-2.353A.4.4,0,0,0,37.447,258.435Z" transform="translate(-21.509 -255.377)" fill="#27191c"/><path d="M33.447,261.846a.653.653,0,0,1-.647-.647v-2.353a.647.647,0,1,1,1.294,0V261.2A.653.653,0,0,1,33.447,261.846Zm0-3.411a.4.4,0,0,0-.412.412V261.2a.412.412,0,0,0,.823,0v-2.353A.4.4,0,0,0,33.447,258.435Z" transform="translate(-19.861 -255.377)" fill="#27191c"/><path d="M29.347,261.846a.653.653,0,0,1-.647-.647v-2.353a.647.647,0,1,1,1.294,0V261.2A.653.653,0,0,1,29.347,261.846Zm0-3.411a.4.4,0,0,0-.412.412V261.2a.412.412,0,0,0,.823,0v-2.353A.4.4,0,0,0,29.347,258.435Z" transform="translate(-18.172 -255.377)" fill="#27191c"/></g><g transform="translate(42.497 57.352)"><path d="M91.739,145.106h0c.882.412,1.764.882,2.647,1.294a5.727,5.727,0,0,0,.647.294.82.82,0,0,0,.647,0,.618.618,0,0,0,.294-.529.676.676,0,0,0-.353-.529c-.412-.353-.823-.647-1.235-.941a.182.182,0,0,0,.059.118c0-.118-.118-.176-.235-.235-.059,0-.176-.118-.235-.176-.176-.118-.294-.176-.471-.294a7.659,7.659,0,0,0-1-.471c-.176-.059-.412-.176-.588-.235-.059,0-.176,0-.176.118,0,.059,0,.118.118.176a11.246,11.246,0,0,1,1.882.941l.529.353a.182.182,0,0,0-.059-.118c0,.059.059.118.118.176,0,0,.118.059.118.118.118.059.176.118.294.176.176.118.353.294.529.412a1.374,1.374,0,0,1,.412.412c.059.118.118.294,0,.412h-.235a.53.53,0,0,1-.294-.059c-.235-.118-.412-.176-.647-.294-.412-.235-.823-.412-1.294-.647l-.706-.353c-.118,0-.235-.118-.353-.176a.29.29,0,0,1-.176-.059.592.592,0,0,0-.176-.059h.059c-.176-.059-.294.118-.118.235h0Z" transform="translate(-86.339 -139.165)" fill="#27191c"/><path d="M89.312,146.241c-.176-.118-.412-.176-.588-.294a.5.5,0,0,1-.294-.176s-.118,0-.118-.059c-.059,0-.118-.059-.176,0a2.5,2.5,0,0,0-.647.118,2.412,2.412,0,0,0-.647.059,13.353,13.353,0,0,1-2.647-.176,3.1,3.1,0,0,1-.706-.176,14336.433,14336.433,0,0,1-.706-.235c-.176,0-.235.235-.059.235a1869.293,1869.293,0,0,0,.47.118c.176,0,.353.118.529.118a6.63,6.63,0,0,0,1.059.176,8.99,8.99,0,0,0,2.176.059,2.413,2.413,0,0,0,.647-.059h.471c.353.176.765.353,1.117.529h.176V146.3h0Z" transform="translate(-82.619 -139.948)" fill="#27191c"/><path d="M92.018,142.706c.353.118.765.235,1.117.353s.765.235,1.117.353.765.235,1.117.353c.176.059.353.118.588.176.176,0,.294.118.471.176H96.9c.176,0,.294-.176.353-.353v-.471a.53.53,0,0,0-.353-.353,1.475,1.475,0,0,0-.412-.235c-.176-.059-.353-.176-.529-.235s-.353-.176-.529-.235-.353-.176-.529-.235c-.706-.294-1.47-.588-2.235-.882-.118,0-.176-.059-.294-.118-.059,0-.176,0-.176.118,0,.059,0,.118.118.176.706.294,1.412.529,2.117.823s1.353.588,2.058.882c.235.118.529.235.588.529,0,.118,0,.235-.118.294-.118,0-.235.059-.294,0a1.384,1.384,0,0,1-.471-.118l-.529-.176c-.353-.118-.706-.235-1.117-.353-.706-.235-1.47-.471-2.176-.706a.324.324,0,0,1-.294-.118c-.059,0-.176,0-.176.118,0,.059,0,.118.118.176h0Z" transform="translate(-86.441 -138.177)" fill="#27191c"/><path d="M83.1,137.294h1.588a.148.148,0,0,0,0-.294H83.1c-.529,0-.176.294,0,.294Z" transform="translate(-82.704 -136.529)" fill="#27191c"/><path d="M89.836,138.2c.235,0,.471.059.706.059h.765a4.043,4.043,0,0,0,1.411-.294,1.173,1.173,0,0,0,.765-.882,1,1,0,0,0-.882-.882h-.765a2.954,2.954,0,0,0-.706.118c-.471.059-1,.118-1.47.176a25.649,25.649,0,0,1-3,.176H83.307a.148.148,0,0,0,0,.294h2.882a23.692,23.692,0,0,0,2.882-.176c.941-.059,1.882-.176,2.823-.294.412,0,.882-.059,1.176.235a.446.446,0,0,1,.118.235v.235c0,.118-.176.235-.294.353a2.089,2.089,0,0,1-.529.235,3.036,3.036,0,0,1-.647.118,5.666,5.666,0,0,1-1.412,0h-.294c-.059,0-.118,0-.176.118,0,.059,0,.176.118.176h-.118Z" transform="translate(-82.848 -136.2)" fill="#27191c"/><path d="M96.231,141.788h.294a.746.746,0,0,1,.353.059,3.441,3.441,0,0,1,.765.118,1.492,1.492,0,0,0,.706-.118.515.515,0,0,0,.294-.588c0-.235-.235-.412-.412-.529-.235-.118-.412-.235-.647-.353a15.056,15.056,0,0,0-1.412-.647,4.612,4.612,0,0,0-.823-.294,1.245,1.245,0,0,1-.412-.176.445.445,0,0,1-.235-.059h-.118c-.176,0-.235.235-.059.235h.059a.216.216,0,0,1,.176.059.836.836,0,0,1,.353.118c.235.059.471.176.706.235a13.463,13.463,0,0,1,1.353.588,3.154,3.154,0,0,0,.647.294c.176.118.412.176.529.353a.306.306,0,0,1,0,.47.791.791,0,0,1-.529.118,1.737,1.737,0,0,1-.765-.118,1.148,1.148,0,0,1-.412-.059h-.294c-.059,0-.176,0-.176.118,0,.059,0,.118.118.176h0Z" transform="translate(-87.479 -137.436)" fill="#27191c"/></g><path d="M70.867,103.111a52.472,52.472,0,0,1-6.822-.412,40.2,40.2,0,0,1-8.94-2.058,46.664,46.664,0,0,1-4.352-2.058h0l-.118-.059a.29.29,0,0,1-.176-.059c-.353-.176-.647-.353-1-.529H49.4v-.118h0a.127.127,0,0,1,.118-.118h.059a5.214,5.214,0,0,0,1,.471.29.29,0,0,1,.176.059h.059a48.238,48.238,0,0,0,4.352,2.117,35.988,35.988,0,0,0,8.881,2.058,57.928,57.928,0,0,0,11.527.235h.471c.059,0,.118,0,.118.118,0,.059,0,.118-.118.118h-.471q-2.382.176-4.764.176Z" transform="translate(-26.44 -62.991)" fill="#27191c"/><path d="M66.2,124.853H64.553a8.687,8.687,0,0,1-1.235-.059.118.118,0,1,1,0-.235,8.687,8.687,0,0,1,1.235.059A45.773,45.773,0,0,0,79.844,122.5a.132.132,0,1,1,.118.235A44.824,44.824,0,0,1,66.2,124.911Z" transform="translate(-32.124 -73.206)" fill="#27191c"/><path d="M62.7,248.935H52.118a.118.118,0,0,1,0-.235H62.7a.118.118,0,0,1,0,.235Z" transform="translate(-27.511 -125.183)" fill="#27191c"/><path d="M21.563,248.935H10.918a.118.118,0,0,1,0-.235H21.563a.118.118,0,0,1,0,.235Z" transform="translate(-10.542 -125.183)" fill="#27191c"/><path d="M70.328,183.63c-.059,0-.118,0-.118-.118a16.92,16.92,0,0,0-.647-2.882L62.8,154.576c0-.059,0-.118.118-.176.059,0,.118,0,.176.118l6.764,26.054a25.359,25.359,0,0,1,.647,2.882c0,.059,0,.118-.118.176h-.059Z" transform="translate(-31.959 -86.344)" fill="#27191c"/><path d="M58.527,227.952H49.411a.641.641,0,0,1-.647-.588l-.118-2.353-1.059-20.937a1.492,1.492,0,0,0-.118-.706L44,191.076h0c0-.118.059-.176.118-.176s.118,0,.118.118l3.47,12.292a3.442,3.442,0,0,1,.118.765l1.059,20.937L49,227.364a.379.379,0,0,0,.353.353h9.116a.278.278,0,0,0,.294-.294l3.529-22.29c.118-.647.176-1.353.235-2a.118.118,0,1,1,.235,0,12.265,12.265,0,0,1-.235,2.058L59,227.482a.534.534,0,0,1-.588.47Z" transform="translate(-24.216 -101.377)" fill="#27191c"/><path d="M19.97,213.29H10.913a.534.534,0,0,1-.412-.176.457.457,0,0,1-.118-.471l2.588-25.054V186.53l.823-31.112a.118.118,0,0,1,.235,0l-.823,31.053v1.059l-2.588,25.054c0,.118,0,.176.059.235a.306.306,0,0,0,.235.118H19.97a.466.466,0,0,0,.471-.294l7.41-21.408c.529-1.588,1.235-5.94,2.058-12.586.118-.882.235-1.706.294-2.294h0c.294-2.588.588-4.881.765-6.352.059-.529.118-.823.118-.823,0-.059.059-.118.176-.118.059,0,.118.059.118.176a4.24,4.24,0,0,1-.118.823c-.176,1.47-.412,3.764-.765,6.352h0c-.059.647-.176,1.47-.294,2.353-.588,4.646-1.412,10.645-2.117,12.645l-7.41,21.408A.764.764,0,0,1,19.97,213.29Z" transform="translate(-10.361 -86.715)" fill="#27191c"/><path d="M43.34,86.888c-.059,0-.118,0-.118-.118l-.471-3.117h.118A4.205,4.205,0,0,0,45.1,80.3l.118-4.705a4.306,4.306,0,0,0-3.058-4.176A4.173,4.173,0,0,0,37.635,72.6a5.135,5.135,0,0,0-1.412,3.529v.118h-.118a1.684,1.684,0,0,0-1.47,1.588,1.448,1.448,0,0,0,.529,1.117,2.055,2.055,0,0,0,1.294.471h.412c.118,0,.118,0,.235.294h0c.176.471.412,1,.647,1.529,0,.059,0,.176-.059.176s-.176,0-.176-.059c-.235-.529-.471-1.059-.647-1.529h0v-.118h-.353a2.259,2.259,0,0,1-1.47-.529,1.734,1.734,0,0,1-.647-1.294,1.88,1.88,0,0,1,1.588-1.823,5.63,5.63,0,0,1,1.47-3.588,4.712,4.712,0,0,1,8.116,3.235l-.118,4.705a4.213,4.213,0,0,1-2.294,3.529l.471,2.882c0,.059,0,.118-.118.176h0Z" transform="translate(-20.262 -52.003)" fill="#27191c"/><path d="M35.742,82.523h0a.113.113,0,0,1-.059-.176c.235-.647.941-.647,1.294-.647h0a.126.126,0,0,1,.118.118c0,.059,0,.118-.118.118-.529,0-.882.118-1,.471a.205.205,0,0,1-.118.059Z" transform="translate(-20.78 -56.401)" fill="#27191c"/><path d="M36.965,82.941h0a1.015,1.015,0,0,1-.765-.765c0-.059,0-.118.118-.176.059,0,.118,0,.176.118a.569.569,0,0,0,.529.529c.059,0,.118.059.118.176a.126.126,0,0,1-.118.118Z" transform="translate(-21.003 -56.525)" fill="#27191c"/><path d="M45.94,83.129h0a1.123,1.123,0,0,1-.471-.176c-.059,0-.059-.118,0-.176,0-.059.118-.059.176,0a.836.836,0,0,0,.353.118.235.235,0,0,0,.235-.118.38.38,0,0,0-.118-.294l-.412-.706V81.6h.176l.412.706a.715.715,0,0,1,.118.529A.524.524,0,0,1,45.94,83.129Z" transform="translate(-24.803 -56.36)" fill="#27191c"/><path d="M57.751,115.691c-.059,0-.118,0-.118-.118a5.8,5.8,0,0,0-.118-1v-.294a3.471,3.471,0,0,0-.118-.823v-.294a34.937,34.937,0,0,0-1.764-7.881v-.118a14.1,14.1,0,0,0-1.941-3.705,2.557,2.557,0,0,0-.353-.412h0s-.059-.118-.118-.118c0,0-.118-.118-.118-.176,0,0-.059-.118-.118-.118,0-.059-.118-.118-.176-.176l-.118-.118-.118-.118s-.118-.118-.118-.176l-.118-.118c-.353-.353-.765-.706-1.176-1.059h0a.182.182,0,0,0-.059-.118l-.118-.118c-.118-.059-.176-.118-.294-.176-.059,0-.118-.118-.235-.176a9.579,9.579,0,0,0-1-.647H49.4v-.118h0a.126.126,0,0,1,.118-.118h.059c.353.235.706.412,1,.647.059,0,.118.118.235.176s.176.118.294.176l.118.118.059.059h0c.412.353.823.706,1.176,1.059l.118.118.176.176.118.118.118.118.176.176s.059.118.118.118c0,0,.118.118.118.176l.118.118h0c.118.118.235.294.353.412a15.648,15.648,0,0,1,2,3.764v.118a34.772,34.772,0,0,1,1.764,7.94v.294a4.614,4.614,0,0,1,.118.823v.294a6.549,6.549,0,0,0,.118,1c0,.059,0,.118-.118.118h0Z" transform="translate(-26.44 -62.868)" fill="#27191c"/><path d="M20.248,143.408c-1.176,0-2.411,0-3.588-.118a1.879,1.879,0,0,1-.823-.176,1.469,1.469,0,0,1-.941-1.529l1.47-16.468a.118.118,0,1,1,.235,0l-1.47,16.468a1.187,1.187,0,0,0,.765,1.235A1.566,1.566,0,0,0,16.6,143c2.882.176,5.822.059,8.646,0,1,0,2-.059,3-.059,1.235,0,2.529-.118,3.764-.176,1.47-.059,3-.176,4.529-.176a11.751,11.751,0,0,1,2.058.118,17.684,17.684,0,0,0,3.529,0,2.134,2.134,0,0,0,2.058-2.117v-2.058c0-.059,0-.118.118-.118.059,0,.118,0,.118.118v2.117a2.4,2.4,0,0,1-2.294,2.411,14.646,14.646,0,0,1-3.588,0c-.706,0-1.353-.118-2.058-.118-1.529,0-3,.118-4.47.176-1.235.059-2.529.176-3.764.176-1,0-2,0-3,.059-1.706,0-3.411.118-5.117.118Z" transform="translate(-12.226 -74.235)" fill="#27191c"/><path d="M44.927,126.789H42.809a37.368,37.368,0,0,1-12.7-2.176,32.5,32.5,0,0,1-7.763-4.352,18.044,18.044,0,0,1-5.7-6.881,11.034,11.034,0,0,1-.941-4.058c-.118-4.47,1.941-8.646,5.293-10.645a14.963,14.963,0,0,1,7.7-2.176c.059,0,.118,0,.118.118,0,.059,0,.118-.118.118a14.35,14.35,0,0,0-7.528,2.176c-3.294,1.941-5.293,6-5.176,10.351a10.656,10.656,0,0,0,.882,4c2.647,6.234,10.175,9.822,13.292,11.057,4.411,1.764,9.292,2.058,12.586,2.176h5.7c1.823,0,3.764-.118,5.94-.235.294,0,.471-.235.529-.529l.353-5.7a.637.637,0,0,0-.471-.647c-1.706-.529-6.175-2.058-11.174-4.117-6.293-2.588-14.292-6.469-16.409-10.175v-.176H27.4c1.647,2.882,7.293,6.352,16.291,10.057,5,2.058,9.469,3.588,11.174,4.117a.954.954,0,0,1,.647.941l-.353,5.7a.778.778,0,0,1-.765.765c-2.176.118-4.117.176-5.94.235H44.868Z" transform="translate(-12.556 -62.497)" fill="#27191c"/><path d="M37.828,93.458h-.059c-.059,0-.059-.118,0-.176,2-2.764,1.176-4.646,1.117-4.705,0-.059,0-.176.059-.176s.176,0,.176.059.941,2.058-1.176,4.94h-.118Z" transform="translate(-21.631 -59.161)" fill="#27191c"/><path d="M45.217,87.289a.755.755,0,0,1-.588-.235,1.664,1.664,0,0,1-.529-1.176c0-.118,0-.176.118-.235a.259.259,0,0,1,.294-.059l1.882.294c.118,0,.176.118.235.176v.294a2.176,2.176,0,0,1-1.176.882h-.118Zm-.823-1.412h0a1.45,1.45,0,0,0,.471,1,.949.949,0,0,0,.529.176c.412,0,.765-.529,1-.823h0l-1.882-.294h0Z" transform="translate(-24.257 -57.99)" fill="#27191c"/><path d="M42.251,99.034c-1.294,0-2.764-.765-4.47-2.176,0,0-.059-.118,0-.176,0,0,.118-.059.176,0,1.941,1.706,3.588,2.353,4.94,2.058a2.819,2.819,0,0,0,1.764-1.412.132.132,0,0,1,.235.118,3.219,3.219,0,0,1-1.941,1.588c-.235,0-.471.059-.706.059Z" transform="translate(-21.644 -62.561)" fill="#27191c"/><path d="M40.8,100.723c-1.941,0-4.235-1.235-6.7-3.646V96.9h.176c2.705,2.647,5.117,3.823,7.116,3.529a4.227,4.227,0,0,0,3.058-2.176c0-.059.118-.059.176,0,.059,0,.059.118,0,.176a4.7,4.7,0,0,1-3.294,2.294H40.8Z" transform="translate(-20.138 -62.662)" fill="#27191c"/><g transform="translate(59.807 36.245)"><path d="M114.553,114.039h-.235a.118.118,0,0,1,0-.235h.353a2.033,2.033,0,0,0,1.529-.412,4.441,4.441,0,0,0,.647-.823c0-.059.118-.059.176,0,.059,0,.059.118,0,.176a5.617,5.617,0,0,1-.706.941,2.517,2.517,0,0,1-1.706.47h-.118Z" transform="translate(-112.936 -105.342)" fill="#27191c"/><path d="M115.2,111.725h-.353a7.235,7.235,0,0,1-1.529-.118h-.235a1.455,1.455,0,0,1-.941-.588.532.532,0,0,1,0-.588,1.121,1.121,0,0,1,.765-.529,5.326,5.326,0,0,1,2.176-.059,1.35,1.35,0,0,1,.823.235.947.947,0,0,1,.588.823.711.711,0,0,1-.176.588c-.235.294-.765.294-1.117.294Zm-1.117-1.706a3.437,3.437,0,0,0-1.117.118.847.847,0,0,0-.588.353v.353a1.171,1.171,0,0,0,.706.471h.235a14.481,14.481,0,0,0,1.529.118h.118c.353,0,.941,0,1.176-.235a.5.5,0,0,0,.118-.353.676.676,0,0,0-.471-.588,1.566,1.566,0,0,0-.706-.176c-.353,0-.647-.059-.941-.059Z" transform="translate(-112.05 -104.203)" fill="#27191c"/><path d="M115.9,108.87h-.059a3.256,3.256,0,0,1-1.059-.118,1.818,1.818,0,0,1-.471-.118h-.235a.235.235,0,0,1-.235-.118.988.988,0,0,1-.471-.412.754.754,0,0,1,.235-.823,3.143,3.143,0,0,1,2.058-.588,2.262,2.262,0,0,1,1.706.706.923.923,0,0,1-.294,1.117,1.81,1.81,0,0,1-1.117.353Zm-.353-1.941a3.208,3.208,0,0,0-1.823.588c-.176.176-.235.294-.176.471,0,.118.176.235.294.294a.445.445,0,0,1,.235.059h.235a1.385,1.385,0,0,1,.471.118,5.178,5.178,0,0,0,1,.118,2.031,2.031,0,0,0,1.059-.294c.235-.176.412-.529.235-.765a1.988,1.988,0,0,0-1.47-.588Z" transform="translate(-112.574 -102.936)" fill="#27191c"/><path d="M114.147,105.819h-.118a.515.515,0,0,1-.529-.412V105a.419.419,0,0,1,.176-.353,1.281,1.281,0,0,1,.529-.412.847.847,0,0,0,.176-.118c.118-.059.294-.176.412-.235a.446.446,0,0,0,.235-.118,3.329,3.329,0,0,1,1.529-.176c.588,0,.941.235.941.588,0,.412-.412.765-.647.941a2.829,2.829,0,0,1-1.353.471h-.647c-.176,0-.353.059-.529.059Zm2-2a3.424,3.424,0,0,0-1.117.176.445.445,0,0,0-.235.059,1.474,1.474,0,0,0-.412.235.846.846,0,0,0-.176.118,1.2,1.2,0,0,0-.412.353c0,.059-.118.176-.118.294h0v.294c0,.176.235.176.294.235h1.294a2.371,2.371,0,0,0,1.235-.471c.118-.118.588-.412.588-.706q0-.265-.706-.353h-.294ZM113.618,105Z" transform="translate(-112.647 -101.65)" fill="#27191c"/><path d="M113.529,103.01c-.353,0-.588-.118-.647-.353a.961.961,0,0,1,0-.412c.118-.706.647-1.294,1.706-1.706l.529-.176a2.526,2.526,0,0,1,.941,0,.373.373,0,0,1,.294.353,1.06,1.06,0,0,1-.059.588,4.639,4.639,0,0,1-.706.882,3.568,3.568,0,0,1-.588.412,3.1,3.1,0,0,1-.882.294h-.588Zm.529-.235Zm1.47-2.235h-.412a.782.782,0,0,0-.471.176,2.124,2.124,0,0,0-1.529,1.47v.294c.118.235.529.176.647.176H114a3.4,3.4,0,0,0,.823-.294l.529-.353a4.44,4.44,0,0,0,.647-.823c.059-.118.118-.294,0-.353q0-.088-.176-.176c-.118,0-.235-.059-.353-.059Z" transform="translate(-112.382 -100.311)" fill="#27191c"/></g><path d="M70.865,209.957h0c-.059,0-.118-.118-.118-.176a13.4,13.4,0,0,0-.647-8.7c0-.059,0-.176.059-.176s.176,0,.176.059a13.556,13.556,0,0,1,.706,8.881.127.127,0,0,1-.118.118Z" transform="translate(-34.966 -105.496)" fill="#27191c"/><path d="M68.194,211.134h0c-.059,0-.118-.118-.118-.176a7.7,7.7,0,0,0-.176-4.882c0-.059,0-.176.059-.176s.176,0,.176.059a8.253,8.253,0,0,1,.176,5.058S68.253,211.134,68.194,211.134Z" transform="translate(-34.059 -107.555)" fill="#27191c"/><g transform="translate(37.882)"><path d="M113.615,73.847h0l-12-2.353c-.059,0-.118-.059-.118-.176,0-.059.059-.118.176-.118l12,2.353c.059,0,.118.059.118.176a.126.126,0,0,1-.118.118Z" transform="translate(-85.78 -52.077)" fill="#27191c"/><path d="M88.618,110.134h0c-.059,0-.118-.059-.118-.176l1.706-8.587,1.882-9.645,4-20.408c0-.059.059-.118.176-.118.059,0,.118.059.118.176l-4,20.408L90.5,101.43l-1.706,8.587a.126.126,0,0,1-.118.118Z" transform="translate(-80.426 -52.077)" fill="#27191c"/><path d="M76.118,178.447h0c-.059,0-.118-.059-.118-.176l6.293-32.053c0-.059.059-.118.176-.118.059,0,.118.059.118.176L76.294,178.33a.126.126,0,0,1-.118.118Z" transform="translate(-75.278 -82.926)" fill="#27191c"/><path d="M96.818,165.979h0c-.059,0-.118-.059-.118-.176l10.469-53.285c0-.059.059-.118.176-.118.059,0,.118.059.118.176l-.235,1.235-9,45.815L96.994,165.8a.126.126,0,0,1-.118.118Z" transform="translate(-83.803 -69.046)" fill="#27191c"/><path d="M117.018,90.3h0c-.059,0-.118-.059-.118-.176l2.882-14.7c0-.059.059-.118.176-.118.059,0,.118.059.118.176l-2.882,14.7a.126.126,0,0,1-.118.118Z" transform="translate(-92.123 -53.765)" fill="#27191c"/><path d="M90.515,191.147h0l-12-2.353c-.059,0-.118-.059-.118-.176,0-.059.059-.118.176-.118l12,2.353c.059,0,.118.059.118.176a.127.127,0,0,1-.118.118Z" transform="translate(-76.266 -100.389)" fill="#27191c"/><path d="M81.081,209.221a4.4,4.4,0,0,1-1.235-.118,6.264,6.264,0,0,1-4-2.647,6.083,6.083,0,0,1-.941-4.705l1.059-5.352,12.292,2.411L87.2,204.163a6.264,6.264,0,0,1-2.647,4A6.174,6.174,0,0,1,81.081,209.221ZM76.2,196.753l-1,5.058a5.94,5.94,0,0,0,.882,4.47,5.743,5.743,0,0,0,3.823,2.529,5.94,5.94,0,0,0,4.47-.882A5.743,5.743,0,0,0,86.9,204.1l1-5.058-11.763-2.294Z" transform="translate(-74.772 -103.643)" fill="#27191c"/><path d="M116.729,51.776h0l-4.411-.882c-.059,0-.118-.059-.118-.176,0-.059.059-.118.176-.118l4.411.882c.059,0,.118.059.118.176a.126.126,0,0,1-.118.118Z" transform="translate(-90.187 -43.592)" fill="#27191c"/><path d="M120.617,60.461c-.059,0-.118,0-.118-.118l-2-21.526c0-.059,0-.118.118-.118.059,0,.118,0,.118.118l2,21.526c0,.059,0,.118-.118.118Z" transform="translate(-92.782 -38.691)" fill="#27191c"/><path d="M101.511,58.1h-.059c-.059,0-.118-.118,0-.176l10-19.173c0-.059.118-.118.176,0,.059,0,.118.118,0,.176l-10,19.173a.205.205,0,0,1-.118.059Z" transform="translate(-85.733 -38.685)" fill="#27191c"/></g><g transform="translate(4.081 16.803)"><path d="M44.206,72.1a17,17,0,0,1-.059,3.94,11.48,11.48,0,0,0-.588-3.588,5.206,5.206,0,0,1-3.94-.353c-1.941-.882-2.941-.706-3.646.412a4.758,4.758,0,0,0-.882,2.235c-2-.353-2.705,3.646.647,3.294a16.574,16.574,0,0,1,1,2.294,3.558,3.558,0,0,1-.118,1.529s-8.41-3.529-3.352-11.645c2.235-3.588,4.529-3.117,6.587-2.647,2.588.529,4,1.353,5,1.059.529-.118.941-.588,1.059-.353a3.687,3.687,0,0,1-1,3.411c-.176.176-.412.353-.588.529Z" transform="translate(-23.209 -67.255)" fill="#27191c"/><path d="M49.676,80.488a.588.588,0,1,1-.588-.588A.589.589,0,0,1,49.676,80.488Z" transform="translate(-30.15 -72.463)" fill="#27191c"/><path d="M42.976,80.188a.588.588,0,1,1-.588-.588A.589.589,0,0,1,42.976,80.188Z" transform="translate(-27.391 -72.34)" fill="#27191c"/><path d="M17.535,125.959A18.249,18.249,0,0,0,23,132.369a38.252,38.252,0,0,0,7.822,4.235c2.764,1.235,11.645,2.411,14.468,2.294,0,0-3.352.118-4.411.059-8.234-.294-18.82-2.823-23.584-11.41l.176-1.647Z" transform="translate(-17.3 -91.409)" fill="#27191c"/><path d="M58.516,115.068h0a45.7,45.7,0,0,0-1.882-9.292v-.118a13.906,13.906,0,0,0-1.941-3.705c-.118-.118-.235-.294-.353-.412l-.118-.118s-.118-.118-.118-.176c0,0-.059-.118-.118-.118,0-.059-.118-.118-.176-.176l-.118-.118-.118-.118s-.118-.118-.118-.176l-.118-.118c-.353-.353-.765-.706-1.176-1.059l-.118-.118-.118-.118a1.285,1.285,0,0,0-.294-.176c-.059,0-.118-.118-.235-.176V98.6s7.528,4.235,8.351,16.232a8.682,8.682,0,0,1-1.235-.059Z" transform="translate(-31.345 -80.165)" fill="#27191c"/><path d="M45.2,178.9l.353,11.88-.294-1.059L44.2,186.075h0c.353-2.764.588-5.176.765-6.352Z" transform="translate(-28.379 -113.238)" fill="#27191c"/></g></g></g></g></g></svg>