<svg xmlns="http://www.w3.org/2000/svg" width="57.991" height="62.133" viewBox="0 0 57.991 62.133"><g transform="translate(-0.5)"><g transform="translate(3.607 1.036)"><path d="M340.927,62.213H337.82V74.64h-6.213V62.213H328.5L334.713,56Zm0,0" transform="translate(-289.149 -49.787)" fill="#22cac5"/><path d="M188.927,14.213H185.82V26.64h-6.213V14.213H176.5L182.713,8Zm0,0" transform="translate(-156.825 -8)" fill="#22cac5"/><path d="M36.927,86.213H33.82V98.64H27.607V86.213H24.5L30.713,80Zm0,0" transform="translate(-24.5 -70.68)" fill="#22cac5"/></g><path d="M320.662,344h-.052a8.284,8.284,0,0,0-.052,16.569h.052A8.284,8.284,0,0,0,320.662,344Zm0,0" transform="translate(-271.44 -299.471)" fill="#b15815"/><path d="M168.662,264h-.052a8.284,8.284,0,0,0-.052,16.569h.052A8.284,8.284,0,1,0,168.662,264Zm0,0" transform="translate(-139.115 -229.827)" fill="#b15815"/><path d="M16.662,320h-.052a8.284,8.284,0,0,0-.052,16.569h.052A8.284,8.284,0,0,0,16.662,320Zm0,0" transform="translate(-6.791 -278.578)" fill="#b15815"/><path d="M17.536,80.284h2.071V91.675h2.071V79.249a1.035,1.035,0,0,0-1.036-1.036h-.607L23.749,74.5l3.713,3.714h-.607a1.035,1.035,0,0,0-1.036,1.036V91.675h2.071V80.284h2.071a1.036,1.036,0,0,0,.732-1.768L24.481,72.3a1.035,1.035,0,0,0-1.464,0L16.8,78.517a1.036,1.036,0,0,0,.732,1.768Zm0,0" transform="translate(-13.929 -62.68)"/><path d="M169.535,8.284h2.071V19.675h2.071V7.249a1.035,1.035,0,0,0-1.036-1.036h-.607L175.749,2.5l3.713,3.714h-.607a1.035,1.035,0,0,0-1.036,1.036V19.675h2.071V8.284h2.071a1.036,1.036,0,0,0,.732-1.768L176.481.3a1.035,1.035,0,0,0-1.464,0L168.8,6.517a1.036,1.036,0,0,0,.732,1.768Zm0,0" transform="translate(-146.253)"/><path d="M321.535,56.284h2.071V67.675h2.071V55.249a1.035,1.035,0,0,0-1.036-1.036h-.607l3.713-3.714,3.713,3.714h-.607a1.035,1.035,0,0,0-1.036,1.036V67.675h2.071V56.284h2.071a1.036,1.036,0,0,0,.732-1.768L328.481,48.3a1.035,1.035,0,0,0-1.464,0L320.8,54.517a1.036,1.036,0,0,0,.732,1.768Zm0,0" transform="translate(-278.578 -41.787)"/><path d="M192.5,168h2.071v4.142H192.5Zm0,0" transform="translate(-167.147 -146.253)"/><path d="M192.5,216h2.071v2.071H192.5Zm0,0" transform="translate(-167.147 -188.04)"/><path d="M240.5,184h2.071v4.142H240.5Zm0,0" transform="translate(-208.934 -160.182)"/><path d="M344.5,216h2.071v4.142H344.5Zm0,0" transform="translate(-299.471 -188.04)"/><path d="M344.5,264h2.071v2.071H344.5Zm0,0" transform="translate(-299.471 -229.827)"/><path d="M392.5,232h2.071v2.071H392.5Zm0,0" transform="translate(-341.258 -201.969)"/><path d="M392.5,280h2.071v2.071H392.5Zm0,0" transform="translate(-341.258 -243.756)"/><path d="M40.5,240h2.071v2.071H40.5Zm0,0" transform="translate(-34.822 -208.934)"/><path d="M40.5,272h2.071v2.071H40.5Zm0,0" transform="translate(-34.822 -236.791)"/><path d="M355.607,363.107a1.035,1.035,0,0,1,1.036,1.036h2.071a3.107,3.107,0,0,0-2.071-2.917V360h-2.071v1.226a3.1,3.1,0,0,0,1.036,6.023,1.036,1.036,0,1,1-1.036,1.036H352.5a3.107,3.107,0,0,0,2.071,2.916v1.226h2.071V371.2a3.1,3.1,0,0,0-1.036-6.023,1.036,1.036,0,1,1,0-2.071Zm0,0" transform="translate(-306.436 -313.4)"/><path d="M313.82,336a9.32,9.32,0,1,0,9.32,9.32A9.32,9.32,0,0,0,313.82,336Zm0,16.569a7.249,7.249,0,1,1,7.249-7.249A7.249,7.249,0,0,1,313.82,352.569Zm0,0" transform="translate(-264.649 -292.507)"/><path d="M408.5,400h2.071v2.071H408.5Zm0,0" transform="translate(-355.187 -348.223)"/><path d="M328.5,400h2.071v2.071H328.5Zm0,0" transform="translate(-285.543 -348.223)"/><path d="M51.607,339.107a1.035,1.035,0,0,1,1.036,1.036h2.071a3.107,3.107,0,0,0-2.071-2.917V336H50.571v1.226a3.1,3.1,0,0,0,1.036,6.023,1.036,1.036,0,1,1-1.036,1.036H48.5a3.107,3.107,0,0,0,2.071,2.916v1.226h2.071V347.2a3.1,3.1,0,0,0-1.036-6.023,1.036,1.036,0,1,1,0-2.071Zm0,0" transform="translate(-41.787 -292.507)"/><path d="M9.82,312a9.32,9.32,0,1,0,9.32,9.32A9.32,9.32,0,0,0,9.82,312Zm0,16.569a7.249,7.249,0,1,1,7.249-7.249A7.249,7.249,0,0,1,9.82,328.569Zm0,0" transform="translate(0 -271.614)"/><path d="M104.5,376h2.071v2.071H104.5Zm0,0" transform="translate(-90.538 -327.329)"/><path d="M24.5,376h2.071v2.071H24.5Zm0,0" transform="translate(-20.893 -327.329)"/><path d="M203.607,283.107a1.035,1.035,0,0,1,1.036,1.036h2.071a3.107,3.107,0,0,0-2.071-2.917V280h-2.071v1.226a3.1,3.1,0,0,0,1.036,6.023,1.036,1.036,0,1,1-1.036,1.036H200.5a3.107,3.107,0,0,0,2.071,2.916v1.226h2.071V291.2a3.1,3.1,0,0,0-1.036-6.023,1.036,1.036,0,0,1,0-2.071Zm0,0" transform="translate(-174.111 -243.756)"/><path d="M161.82,256a9.32,9.32,0,1,0,9.32,9.32A9.32,9.32,0,0,0,161.82,256Zm0,16.569a7.249,7.249,0,1,1,7.249-7.249A7.249,7.249,0,0,1,161.82,272.569Zm0,0" transform="translate(-132.325 -222.863)"/><path d="M256.5,320h2.071v2.071H256.5Zm0,0" transform="translate(-222.863 -278.578)"/><path d="M176.5,320h2.071v2.071H176.5Zm0,0" transform="translate(-153.218 -278.578)"/><path d="M240.5,232h2.071v2.071H240.5Zm0,0" transform="translate(-208.934 -201.969)"/><path d="M88.5,256h2.071v4.142H88.5Zm0,0" transform="translate(-76.609 -222.863)"/></g></svg>