<svg xmlns="http://www.w3.org/2000/svg" xmlns:xlink="http://www.w3.org/1999/xlink" width="140" height="140" viewBox="0 0 140 140"><defs><filter id="a" x="0" y="0" width="140" height="140" filterUnits="userSpaceOnUse"><feOffset dy="3" input="SourceAlpha"/><feGaussianBlur stdDeviation="3" result="b"/><feFlood flood-opacity="0.161"/><feComposite operator="in" in2="b"/><feComposite in="SourceGraphic"/></filter></defs><g transform="translate(-678.146 -2923.371)"><g transform="translate(382.339 -693.68)"><g transform="matrix(1, 0, 0, 1, 295.81, 3617.05)" filter="url(#a)"><circle cx="61" cy="61" r="61" transform="translate(9 6)" fill="#fff" opacity="0.45"/></g><circle cx="49" cy="49" r="49" transform="translate(316.808 3635.051)" fill="#fff"/></g><g transform="translate(718.086 2960.622)"><g transform="translate(0.246 0)"><g transform="translate(0)"><g transform="translate(0.679 0.679)"><g transform="translate(46.288 26.076)"><path d="M410.306,230.23a5.9,5.9,0,1,1-5.9,5.9A5.909,5.909,0,0,1,410.306,230.23Z" transform="translate(-404.41 -230.23)" fill="#b15815"/></g><g transform="translate(41.743 9.079)"><path d="M371.2,83.971a5.9,5.9,0,1,1-5.9,5.9A5.905,5.905,0,0,1,371.2,83.971Z" transform="translate(-365.297 -83.971)" fill="#b15815"/></g><g transform="translate(13.027 40.746)"><path d="M147.49,359.152l2.59,14.652-15.946.065-15.947-.065,2.593-14.652,5.4-2.674,2.928,4.348-.985,2.105,6,8.329,6.012-8.329-.987-2.105,2.928-4.348Z" transform="translate(-118.188 -356.478)" fill="#22cac5"/></g><g transform="translate(20.381 14.955)"><path d="M198.643,143.117a6.967,6.967,0,0,1-.318,2.028l-.092-.027c-2.68.206-3.253-4.856-4.515-3.384-2.863,3.34-8.445-1.853-11.806,3.661a7.2,7.2,0,0,1-.443-2.278,8.587,8.587,0,0,1,17.174,0Z" transform="translate(-181.469 -134.53)" fill="#636c77"/></g><g transform="translate(20.823 21.889)"><path d="M201.6,197.856l.092.027q-.041.141-.085.277a7.245,7.245,0,0,0-.506,2.119,7.668,7.668,0,0,1-7.678,7.68,7.666,7.666,0,0,1-7.52-6.129h0a7.78,7.78,0,0,1-.156-1.55,6.976,6.976,0,0,0-.467-2.146c3.361-5.514,8.943-.322,11.806-3.661C198.346,193,198.919,198.063,201.6,197.856Z" transform="translate(-185.277 -194.203)" fill="#efc7a4"/></g><g transform="translate(28.97 38.699)"><path d="M259.2,338.861l4.136,2.047-2.928,4.348.987,2.105-6.012,8.329Z" transform="translate(-255.381 -338.861)" fill="#116562"/></g><g transform="translate(23.077)"><path d="M210.566,5.841a5.9,5.9,0,1,1-5.9,5.9A5.912,5.912,0,0,1,210.566,5.841Z" transform="translate(-204.669 -5.841)" fill="#b15815"/></g><g transform="translate(25.159 35.242)"><path d="M228.9,309.218l1.317,3.346a9.337,9.337,0,0,1-7.628,0l1.317-3.346.029-.111a7.727,7.727,0,0,0,4.926,0Z" transform="translate(-222.589 -309.107)" fill="#e3b692"/></g><g transform="translate(25.159 38.699)"><path d="M230.218,338.861,226.4,355.69l-3.81-16.829A9.336,9.336,0,0,0,230.218,338.861Z" transform="translate(-222.59 -338.861)" fill="#a6eae8"/></g><g transform="translate(21.024 38.699)"><path d="M191.142,338.861l3.811,16.83-6-8.329.985-2.105-2.928-4.348Z" transform="translate(-187.007 -338.861)" fill="#116562"/></g><g transform="translate(14.046 0.983)"><path d="M128.669,14.3a1.708,1.708,0,1,1-1.708,1.709A1.714,1.714,0,0,1,128.669,14.3Z" transform="translate(-126.961 -14.3)" fill="#22cac5"/></g><g transform="translate(4.96 8.448)"><path d="M54.673,78.538a5.9,5.9,0,1,1-5.9,5.9A5.906,5.906,0,0,1,54.673,78.538Z" transform="translate(-48.773 -78.538)" fill="#b15815"/></g><g transform="translate(0 26.076)"><path d="M11.983,230.23a5.9,5.9,0,1,1-5.9,5.9A5.909,5.909,0,0,1,11.983,230.23Z" transform="translate(-6.087 -230.23)" fill="#b15815"/></g></g><g transform="translate(13.027 38.699)"><path d="M129.6,353.816h0l-16.574-.068a.679.679,0,0,1-.666-.8l2.593-14.652a.679.679,0,0,1,.367-.49l9.539-4.721a.679.679,0,1,1,.6,1.216l-9.232,4.569-2.393,13.52,15.768.065a.679.679,0,0,1,0,1.358Z" transform="translate(-112.346 -333.017)"/></g><g transform="translate(21.009 38.699)"><path d="M189.675,351.207h-.01a.684.684,0,0,1-.171-.025h0a.676.676,0,0,1-.346-.228h0l-.024-.032-6-8.325a.679.679,0,0,1-.064-.685l.822-1.757-2.735-4.062a.679.679,0,0,1,.272-.98l4.15-2.024a.679.679,0,0,1,.96.46l3.149,13.908,3.155-13.909a.679.679,0,0,1,.959-.46l4.151,2.024a.679.679,0,0,1,.272.98l-.015.023-2.72,4.039.824,1.757a.679.679,0,0,1-.064.685l-6.01,8.325-.027.035a.678.678,0,0,1-.526.25Zm4.29-16.523-2.891,12.747,3.83-5.305-.817-1.744a.679.679,0,0,1,.051-.667l2.508-3.724Zm-9.509,7.442,3.821,5.3-2.885-12.743-2.679,1.307,2.508,3.724a.679.679,0,0,1,.052.667Z" transform="translate(-181.035 -333.02)"/></g><g transform="translate(28.345 38.699)"><path d="M244.845,353.818a.679.679,0,0,1,0-1.357l15.768-.065-2.39-13.52-9.235-4.569a.679.679,0,1,1,.6-1.217l9.542,4.721a.679.679,0,0,1,.367.49l2.59,14.652a.679.679,0,0,1-.666.8l-16.574.068Z" transform="translate(-244.166 -333.019)"/></g><g transform="translate(20.38 14.955)"><path d="M184.892,150.738a8.345,8.345,0,0,1-8.176-6.629c0-.014-.007-.029-.01-.044a8.469,8.469,0,0,1-.17-1.686,5.886,5.886,0,0,0-.39-1.8l-.045-.139a7.8,7.8,0,0,1-.475-2.486,9.266,9.266,0,0,1,18.532,0,7.628,7.628,0,0,1-.346,2.22c-.028.1-.059.2-.091.3-.04.126-.082.255-.124.382a5.111,5.111,0,0,0-.348,1.525,8.352,8.352,0,0,1-5.675,7.919,8.339,8.339,0,0,1-2.681.439Zm-6.864-6.983c0,.013.006.026.009.038a7,7,0,0,0,13.854-1.414,6.156,6.156,0,0,1,.416-1.95c.04-.122.081-.247.122-.374.03-.09.056-.175.081-.261a6.343,6.343,0,0,0,.291-1.839,7.908,7.908,0,0,0-15.817,0,6.554,6.554,0,0,0,.41,2.07l.044.137a7.094,7.094,0,0,1,.456,2.217A7.122,7.122,0,0,0,178.029,143.755Z" transform="translate(-175.627 -128.69)"/></g><g transform="translate(20.614 21.889)"><path d="M178.315,194.011a.679.679,0,0,1-.593-1.007c.055-.1.109-.2.165-.288l.058-.1c2.1-3.452,5.1-3.142,7.511-2.893,1.787.185,3.33.344,4.36-.857a1.233,1.233,0,0,1,1.06-.5c.718.061,1.144.776,1.638,1.6.719,1.2,1.344,2.119,2.28,2.048a.679.679,0,0,1,.1,1.354c-1.851.141-2.873-1.572-3.55-2.706a8.371,8.371,0,0,0-.555-.853c-1.488,1.676-3.516,1.467-5.478,1.264-2.342-.242-4.555-.47-6.212,2.249l-.05.085c-.052.087-.1.169-.144.253A.679.679,0,0,1,178.315,194.011Z" transform="translate(-177.637 -188.361)"/></g><g transform="translate(19.968 25.876)"><path d="M174.233,227.67a.682.682,0,0,1-.37-.109,3.413,3.413,0,0,1-1.765-2.27,3.006,3.006,0,0,1,.871-2.38.679.679,0,0,1,1.032.882,1.757,1.757,0,0,0-.56,1.3c.061.418.447.861,1.147,1.318a.679.679,0,0,1-.355,1.257Z" transform="translate(-172.074 -222.673)"/></g><g transform="translate(36.501 25.876)"><path d="M315.031,227.67a.679.679,0,0,1-.392-1.233c.709-.5,1.1-.974,1.15-1.4a1.7,1.7,0,0,0-.531-1.242.679.679,0,0,1,1.033-.88,2.964,2.964,0,0,1,.845,2.292,3.542,3.542,0,0,1-1.713,2.342A.677.677,0,0,1,315.031,227.67Z" transform="translate(-314.352 -222.673)"/></g><g transform="translate(25.159 35.353)"><path d="M217.426,308.926a.679.679,0,0,1-.631-.927l1.317-3.346a.679.679,0,1,1,1.263.5l-1.317,3.346A.679.679,0,0,1,217.426,308.926Z" transform="translate(-216.747 -304.222)"/></g><g transform="translate(31.47 35.353)"><path d="M273.051,308.926a.679.679,0,0,1-.632-.43l-1.317-3.346a.679.679,0,1,1,1.263-.5L273.683,308a.679.679,0,0,1-.631.927Z" transform="translate(-271.055 -304.222)"/></g><g transform="translate(25.159 38.699)"><path d="M221.229,335.189a10.231,10.231,0,0,1-4.07-.869.679.679,0,1,1,.536-1.247,8.606,8.606,0,0,0,7.094,0,.679.679,0,0,1,.53,1.25A10.4,10.4,0,0,1,221.229,335.189Z" transform="translate(-216.748 -333.018)"/></g><g transform="translate(17.581 51.377)"><path d="M152.219,450.172a.68.68,0,0,1-.669-.8l1.185-6.7a.679.679,0,1,1,1.337.237l-1.185,6.7A.679.679,0,0,1,152.219,450.172Z" transform="translate(-151.54 -442.118)"/></g><g transform="translate(39.242 51.377)"><path d="M339.8,450.172a.679.679,0,0,1-.667-.56l-1.188-6.7a.679.679,0,0,1,1.337-.237l1.188,6.7a.68.68,0,0,1-.669.8Z" transform="translate(-337.936 -442.119)"/></g><g transform="translate(10.851 11.151)"><path d="M94.3,98.4a.679.679,0,0,1-.679-.679V96.635a.679.679,0,1,1,1.358,0v1.086A.679.679,0,0,1,94.3,98.4Z" transform="translate(-93.62 -95.956)"/></g><g transform="translate(10.851 16.309)"><path d="M94.3,142.927a.679.679,0,0,1-.679-.679v-1.222a.679.679,0,0,1,1.358,0v1.222A.679.679,0,0,1,94.3,142.927Z" transform="translate(-93.62 -140.348)"/></g><g transform="translate(9.596 12.294)"><path d="M84.575,111.237a3.048,3.048,0,0,1-1.38-.343.679.679,0,0,1,.616-1.21,1.627,1.627,0,0,0,.886.19c.426-.038.64-.258.65-.336,0-.024-.1-.223-.622-.409-1.453-.516-1.863-1.4-1.762-2.057a1.678,1.678,0,0,1,1.775-1.272,3.883,3.883,0,0,1,1.326.2.679.679,0,1,1-.41,1.294,2.592,2.592,0,0,0-.862-.137.811.811,0,0,0-.48.129c.038.087.245.344.866.564,1.555.55,1.553,1.562,1.515,1.859a1.931,1.931,0,0,1-1.877,1.518Q84.7,111.236,84.575,111.237Z" transform="translate(-82.824 -105.797)"/></g><g transform="translate(4.961 8.448)"><path d="M49.511,85.851a6.577,6.577,0,1,1,6.573-6.579A6.586,6.586,0,0,1,49.511,85.851Zm0-11.8a5.219,5.219,0,1,0,5.216,5.217A5.225,5.225,0,0,0,49.511,74.056Z" transform="translate(-42.933 -72.698)"/></g><g transform="translate(47.64 11.83)"><path d="M410.882,104.241a.679.679,0,0,1-.679-.679v-1.086a.679.679,0,0,1,1.358,0v1.086A.679.679,0,0,1,410.882,104.241Z" transform="translate(-410.203 -101.797)"/></g><g transform="translate(47.64 16.993)"><path d="M410.882,148.668a.679.679,0,0,1-.679-.679v-1.077a.683.683,0,0,1,.679-.684.675.675,0,0,1,.679.674v1.086A.679.679,0,0,1,410.882,148.668Z" transform="translate(-410.203 -146.229)"/></g><g transform="translate(46.38 12.922)"><path d="M401.118,116.642a3.064,3.064,0,0,1-1.387-.345.679.679,0,1,1,.616-1.21,1.642,1.642,0,0,0,.892.192c.421-.038.634-.258.644-.335,0-.024-.1-.224-.622-.409-1.452-.517-1.862-1.4-1.763-2.055a1.683,1.683,0,0,1,1.774-1.276,3.976,3.976,0,0,1,1.325.2.679.679,0,0,1-.411,1.294,2.574,2.574,0,0,0-.863-.137.8.8,0,0,0-.475.131c.038.089.239.34.868.564,1.553.55,1.552,1.561,1.515,1.858a1.928,1.928,0,0,1-1.87,1.518C401.28,116.639,401.2,116.642,401.118,116.642Z" transform="translate(-399.36 -111.202)"/></g><g transform="translate(41.743 9.079)"><path d="M366.036,91.279a6.575,6.575,0,1,1,6.573-6.575A6.585,6.585,0,0,1,366.036,91.279Zm0-11.791a5.217,5.217,0,1,0,5.216,5.217,5.226,5.226,0,0,0-5.216-5.217Z" transform="translate(-359.456 -78.13)"/></g><g transform="translate(52.12 28.799)"><path d="M449.433,250.267a.679.679,0,0,1-.679-.679V248.5a.679.679,0,0,1,1.358,0v1.086A.679.679,0,0,1,449.433,250.267Z" transform="translate(-448.754 -247.823)"/></g><g transform="translate(52.12 33.957)"><path d="M449.433,294.658a.679.679,0,0,1-.679-.679v-1.086a.679.679,0,1,1,1.358,0v1.086A.679.679,0,0,1,449.433,294.658Z" transform="translate(-448.754 -292.214)"/></g><g transform="translate(50.925 29.922)"><path d="M440.224,262.929a3.049,3.049,0,0,1-1.382-.344.679.679,0,1,1,.618-1.209,1.654,1.654,0,0,0,.845.193c.447-.026.676-.255.688-.338,0-.024-.095-.225-.623-.412-1.452-.515-1.863-1.4-1.762-2.055a1.68,1.68,0,0,1,1.776-1.274,4.048,4.048,0,0,1,1.323.2.679.679,0,1,1-.408,1.295,2.637,2.637,0,0,0-.87-.137.792.792,0,0,0-.472.129c.039.087.246.343.867.563,1.573.559,1.555,1.582,1.513,1.883a1.973,1.973,0,0,1-1.953,1.5Q440.3,262.929,440.224,262.929Z" transform="translate(-438.472 -257.49)"/></g><g transform="translate(46.288 26.075)"><path d="M405.143,237.541a6.577,6.577,0,1,1,6.578-6.576A6.583,6.583,0,0,1,405.143,237.541Zm0-11.8a5.219,5.219,0,1,0,5.221,5.22A5.224,5.224,0,0,0,405.143,225.746Z" transform="translate(-398.568 -224.388)"/></g><g transform="translate(5.828 28.799)"><path d="M51.075,250.267a.679.679,0,0,1-.679-.679V248.5a.679.679,0,0,1,1.358,0v1.086A.679.679,0,0,1,51.075,250.267Z" transform="translate(-50.396 -247.823)"/></g><g transform="translate(5.828 33.957)"><path d="M51.075,294.658a.679.679,0,0,1-.679-.679v-1.086a.679.679,0,0,1,1.358,0v1.086A.679.679,0,0,1,51.075,294.658Z" transform="translate(-50.396 -292.214)"/></g><g transform="translate(4.634 29.922)"><path d="M41.877,262.929a3.043,3.043,0,0,1-1.381-.344.679.679,0,1,1,.618-1.209,1.654,1.654,0,0,0,.844.193c.449-.026.679-.255.69-.338,0-.024-.095-.225-.623-.412-1.451-.515-1.861-1.4-1.76-2.055a1.679,1.679,0,0,1,1.774-1.273,4.053,4.053,0,0,1,1.325.2.679.679,0,0,1-.406,1.3,2.662,2.662,0,0,0-.873-.137.786.786,0,0,0-.471.129c.038.087.244.343.865.564,1.574.559,1.556,1.583,1.513,1.884a1.973,1.973,0,0,1-1.955,1.5C41.984,262.927,41.93,262.929,41.877,262.929Z" transform="translate(-40.126 -257.488)"/></g><g transform="translate(0 26.075)"><path d="M6.821,237.541a6.577,6.577,0,1,1,6.576-6.576,6.583,6.583,0,0,1-6.576,6.576Zm0-11.8a5.219,5.219,0,1,0,5.218,5.22A5.224,5.224,0,0,0,6.821,225.746Z" transform="translate(-0.246 -224.388)"/></g><g transform="translate(28.906 2.734)"><path d="M249.67,25.972a.679.679,0,0,1-.679-.679V24.207a.679.679,0,0,1,1.358,0v1.086A.679.679,0,0,1,249.67,25.972Z" transform="translate(-248.991 -23.528)"/></g><g transform="translate(28.906 7.893)"><path d="M249.67,70.363a.679.679,0,0,1-.679-.679V68.6a.679.679,0,1,1,1.358,0v1.086A.679.679,0,0,1,249.67,70.363Z" transform="translate(-248.991 -67.919)"/></g><g transform="translate(27.715 3.847)"><path d="M240.5,38.546a3.045,3.045,0,0,1-1.386-.346.679.679,0,1,1,.62-1.208,1.653,1.653,0,0,0,.843.194c.447-.026.677-.256.689-.339,0-.024-.095-.225-.622-.413-1.452-.515-1.863-1.4-1.762-2.055a1.677,1.677,0,0,1,1.772-1.272,4.014,4.014,0,0,1,1.324.2.679.679,0,1,1-.4,1.3,2.687,2.687,0,0,0-.873-.137.794.794,0,0,0-.472.128c.038.089.239.34.867.563,1.573.56,1.555,1.584,1.512,1.885a1.975,1.975,0,0,1-1.956,1.5C240.6,38.545,240.551,38.546,240.5,38.546Z" transform="translate(-238.745 -33.106)"/></g><g transform="translate(23.077)"><path d="M205.4,13.153a6.577,6.577,0,1,1,6.579-6.576A6.583,6.583,0,0,1,205.4,13.153Zm0-11.8a5.219,5.219,0,1,0,5.221,5.22A5.225,5.225,0,0,0,205.4,1.358Z" transform="translate(-198.828 0)"/></g><g transform="translate(42.128 1.777)"><path d="M366.868,20.065a.677.677,0,0,1-.48-.2l-3.415-3.416a.679.679,0,0,1,.96-.96l3.416,3.416a.679.679,0,0,1-.48,1.159Z" transform="translate(-362.774 -15.292)"/></g><g transform="translate(42.128 1.777)"><path d="M363.453,20.065a.679.679,0,0,1-.48-1.159l3.416-3.416a.679.679,0,0,1,.96.96l-3.416,3.416A.676.676,0,0,1,363.453,20.065Z" transform="translate(-362.774 -15.292)"/></g><g transform="translate(6.099 52.148)"><path d="M56.806,450.112H53.412a.679.679,0,0,1,0-1.358h3.394a.679.679,0,0,1,0,1.358Z" transform="translate(-52.733 -448.754)"/></g><g transform="translate(7.864 50.384)"><path d="M68.6,438.318a.679.679,0,0,1-.679-.679v-3.394a.679.679,0,1,1,1.358,0v3.394A.679.679,0,0,1,68.6,438.318Z" transform="translate(-67.92 -433.567)"/></g><g transform="translate(14.046 0.983)"><path d="M123.506,13.232a2.387,2.387,0,1,1,2.387-2.387A2.389,2.389,0,0,1,123.506,13.232Zm0-3.417a1.03,1.03,0,1,0,1.029,1.03A1.031,1.031,0,0,0,123.506,9.816Z" transform="translate(-121.119 -8.458)"/></g></g></g></g></g></svg>