<svg xmlns="http://www.w3.org/2000/svg" xmlns:xlink="http://www.w3.org/1999/xlink" width="140" height="140" viewBox="0 0 140 140"><defs><filter id="a" x="0" y="0" width="140" height="140" filterUnits="userSpaceOnUse"><feOffset dy="3" input="SourceAlpha"/><feGaussianBlur stdDeviation="3" result="b"/><feFlood flood-opacity="0.161"/><feComposite operator="in" in2="b"/><feComposite in="SourceGraphic"/></filter></defs><g transform="translate(11738 8729.299)"><g transform="translate(-12033.808 -12346.35)"><g transform="matrix(1, 0, 0, 1, 295.81, 3617.05)" filter="url(#a)"><circle cx="61" cy="61" r="61" transform="translate(9 6)" fill="#fff" opacity="0.45"/></g><circle cx="49" cy="49" r="49" transform="translate(316.808 3635.051)" fill="#fff"/></g><g transform="translate(-11711 -8721.752)"><g transform="translate(16 33.78)"><path d="M69.48,33.78a2.083,2.083,0,0,1,2.079,2.079v2.707a.634.634,0,0,1-.677.635l-2.213.05-.044,14.318a.634.634,0,0,1-.634.634v0h-2a.633.633,0,0,1-.433-.17l-1.24-1-1.359,1.037a.635.635,0,0,1-.711.04l-1.527-.783-.844.277V55.8h4.063a2.225,2.225,0,0,1,2.219,2.22V82.48A2.224,2.224,0,0,1,63.942,84.7H46.423a2.226,2.226,0,0,1-2.168-1.746,7.529,7.529,0,0,1-11.371-.689H19.441A3.32,3.32,0,0,1,16,79.106V45.836a3.32,3.32,0,0,1,3.441-3.159h4.842V41.33a2.689,2.689,0,0,1,5.378,0v1.347H35.25V41.33a2.689,2.689,0,0,1,5.378,0v1.347h5.589V41.33a2.689,2.689,0,0,1,5.378,0v1.347h1.5V36.856a3.083,3.083,0,0,1,3.075-3.075H69.48Z" transform="translate(-16 -33.78)" fill="#1a1a1a" fill-rule="evenodd"/><path d="M360.531,48.357v-.009h0V45.577a2.062,2.062,0,0,1,.163-.807H349.3a1.81,1.81,0,0,0-1.8,1.8v15.81l1.56-.595v0a.633.633,0,0,1,.509.025l1.567.786,2.572-.843h0a.631.631,0,0,1,.484.038l1.445.741,1.438-1.1a.635.635,0,0,1,.783.01l1.487,1.2h1.144l.044-14.293ZM350.39,59.968a.636.636,0,1,1,0-1.272h7.555a.636.636,0,1,1,0,1.272Zm0-3.523a.636.636,0,1,1,0-1.272h7.555a.636.636,0,1,1,0,1.272Zm0-3.523a.636.636,0,1,1,0-1.272h7.555a.636.636,0,1,1,0,1.272Zm0-3.523a.636.636,0,1,1,0-1.272h7.555a.636.636,0,1,1,0,1.272Zm12.787-4.392a.807.807,0,0,0-1.376.569V47.7l1.613-.036V45.577A.8.8,0,0,0,363.177,45.008Z" transform="translate(-309.128 -43.498)" fill="#fff" fill-rule="evenodd"/><path d="M97.8,376.1H93.688a.087.087,0,0,0-.062.026h0a.086.086,0,0,0-.024.062v3.554a.086.086,0,0,0,.024.062h0a.087.087,0,0,0,.062.026H97.8a.087.087,0,0,0,.062-.026h0a.086.086,0,0,0,.024-.062v-3.554a.086.086,0,0,0-.024-.062h0A.087.087,0,0,0,97.8,376.1Z" transform="translate(-84.618 -336.473)" fill="#22cac5" fill-rule="evenodd"/><path d="M68.326,197.336c-.394.129-.639.273-.972.091l-1.511-.758-2.164.825a.638.638,0,0,1-.862-.594h0v-1.049H26.992v26.566a2.055,2.055,0,0,0,2.169,1.886H41.817A7.529,7.529,0,0,1,53.923,215.7V201.331a2.224,2.224,0,0,1,2.219-2.22H68.326Zm-22.643,9.492h3.952a1.406,1.406,0,0,1,1.441,1.36v3.554a1.406,1.406,0,0,1-1.441,1.36H45.683a1.406,1.406,0,0,1-1.441-1.36v-3.554A1.406,1.406,0,0,1,45.683,206.828Zm-.081-8.614h4.114a1.357,1.357,0,0,1,.961.4h0a1.358,1.358,0,0,1,.4.96v3.554a1.358,1.358,0,0,1-.4.96h0a1.357,1.357,0,0,1-.961.4H45.6a1.356,1.356,0,0,1-.961-.4h0a1.358,1.358,0,0,1-.4-.96v-3.554a1.357,1.357,0,0,1,.4-.96h0A1.357,1.357,0,0,1,45.6,198.214Zm-10.812,0H38.9a1.357,1.357,0,0,1,.961.4h0a1.358,1.358,0,0,1,.4.96v3.554a1.357,1.357,0,0,1-.4.96h0a1.357,1.357,0,0,1-.961.4H34.79a1.356,1.356,0,0,1-.961-.4h0a1.358,1.358,0,0,1-.4-.96v-3.554a1.358,1.358,0,0,1,.4-.96h0A1.357,1.357,0,0,1,34.79,198.214Zm.081,8.614h3.952a1.406,1.406,0,0,1,1.441,1.36v3.554a1.406,1.406,0,0,1-1.441,1.36H34.87a1.406,1.406,0,0,1-1.441-1.36v-3.554A1.406,1.406,0,0,1,34.87,206.828Zm-.081,8.614H38.9a1.356,1.356,0,0,1,.961.4h0a1.357,1.357,0,0,1,.4.96v3.554a1.357,1.357,0,0,1-.4.96h0a1.357,1.357,0,0,1-.961.4H34.79a1.357,1.357,0,0,1-.961-.4h0a1.358,1.358,0,0,1-.4-.96V216.8a1.358,1.358,0,0,1,.4-.96h0A1.356,1.356,0,0,1,34.79,215.443Z" transform="translate(-25.72 -177.092)" fill="#e6e6e6" fill-rule="evenodd"/><path d="M107.248,197.336c-.394.129-.639.273-.972.091l-1.511-.758-2.164.825a.638.638,0,0,1-.862-.594h0v-1.049H71.009q.723,1.521,1.575,2.966a1.388,1.388,0,0,1,.168-.2h0a1.357,1.357,0,0,1,.961-.4h4.114a1.357,1.357,0,0,1,.961.4h0a1.358,1.358,0,0,1,.4.96v3.554a1.357,1.357,0,0,1-.4.96h0a1.357,1.357,0,0,1-.961.4H76.66a38.37,38.37,0,0,0,6.5,5.946v-2.246a1.406,1.406,0,0,1,1.441-1.36h3.952A1.406,1.406,0,0,1,90,208.189v3.554a1.406,1.406,0,0,1-1.441,1.36H87.421q.388.209.782.41a7.463,7.463,0,0,1,4.3,1.862c.114.041.228.081.342.121V201.331a2.224,2.224,0,0,1,2.219-2.22h12.184v-1.775Zm-22.724.877h4.114a1.357,1.357,0,0,1,.961.4h0a1.358,1.358,0,0,1,.4.96v3.554a1.358,1.358,0,0,1-.4.96h0a1.357,1.357,0,0,1-.961.4H84.524a1.356,1.356,0,0,1-.961-.4h0a1.358,1.358,0,0,1-.4-.96v-3.554a1.357,1.357,0,0,1,.4-.96h0A1.357,1.357,0,0,1,84.524,198.214Z" transform="translate(-64.642 -177.092)" fill="#fff" fill-rule="evenodd"/><path d="M62.819,128.954v-7.318h-1.5v.952a2.689,2.689,0,0,1-5.378,0v-.952H50.349v.952a2.689,2.689,0,0,1-5.378,0v-.952H39.382v.952a2.689,2.689,0,0,1-5.378,0v-.952H29.162a2.055,2.055,0,0,0-2.169,1.886v5.432H62.819Z" transform="translate(-25.721 -111.467)" fill="#178d89" fill-rule="evenodd"/><path d="M79.705,128.954v-7.318H78.2v.952a2.689,2.689,0,0,1-5.378,0v-.952H67.236v.952a2.689,2.689,0,0,1-5.378,0v-.952H56.269v.952a2.689,2.689,0,0,1-5.378,0v-.952h-4.8a37.85,37.85,0,0,0,2.309,7.318H79.705Z" transform="translate(-42.607 -111.467)" fill="#22cac5" fill-rule="evenodd"/><path d="M270.652,252.023a7.539,7.539,0,0,1,0,7.214v1.177a.952.952,0,0,0,.947.947h17.519a.952.952,0,0,0,.947-.947V235.953a.952.952,0,0,0-.947-.947H271.6a.952.952,0,0,0-.947.947Zm2.488-7.089h2.954a.636.636,0,0,1,.636.636v2.7a.636.636,0,0,1-.636.636H273.14a.636.636,0,0,1-.636-.636v-2.7A.636.636,0,0,1,273.14,244.935Zm5.79,0h2.954a.636.636,0,0,1,.636.636v2.7a.636.636,0,0,1-.636.636H278.93a.636.636,0,0,1-.636-.636v-2.7A.636.636,0,0,1,278.93,244.935Zm5.79,0h2.954a.636.636,0,0,1,.636.636v2.7a.636.636,0,0,1-.636.636H284.72a.636.636,0,0,1-.636-.636v-2.7A.636.636,0,0,1,284.72,244.935ZM273.14,237h14.534a.636.636,0,0,1,.636.636v5.3a.636.636,0,0,1-.636.636H273.14a.636.636,0,0,1-.636-.636v-5.3A.636.636,0,0,1,273.14,237Zm5.79,18.368h2.954a.636.636,0,0,1,.636.636v2.7a.636.636,0,0,1-.636.636H278.93a.636.636,0,0,1-.636-.636V256A.636.636,0,0,1,278.93,255.365Zm-5.79,0h2.954a.636.636,0,0,1,.636.636v2.7a.636.636,0,0,1-.636.636H273.14a.636.636,0,0,1-.636-.636V256A.636.636,0,0,1,273.14,255.365Zm0-5.216h2.954a.636.636,0,0,1,.636.636v2.7a.636.636,0,0,1-.636.636H273.14a.636.636,0,0,1-.636-.636v-2.7A.636.636,0,0,1,273.14,250.15Zm5.79,0h2.954a.636.636,0,0,1,.636.636v2.7a.636.636,0,0,1-.636.636H278.93a.636.636,0,0,1-.636-.636v-2.7A.636.636,0,0,1,278.93,250.15Zm5.79,0h2.954a.636.636,0,0,1,.636.636v7.92a.636.636,0,0,1-.636.636H284.72a.636.636,0,0,1-.636-.636v-7.92A.636.636,0,0,1,284.72,250.15Z" transform="translate(-241.176 -211.714)" fill="#178d89" fill-rule="evenodd"/><path d="M290.064,251.4V235.953a.952.952,0,0,0-.947-.947H271.6a.952.952,0,0,0-.947.947v14.588q.916.285,1.852.525v-.28a.636.636,0,0,1,.636-.636h2.954a.636.636,0,0,1,.636.636V251.9q.777.107,1.563.185v-1.293a.636.636,0,0,1,.636-.636h2.954a.636.636,0,0,1,.636.636v1.467c.524-.007,1.045-.023,1.563-.05v-1.417a.636.636,0,0,1,.636-.636h2.954a.636.636,0,0,1,.636.636v.952q.884-.147,1.754-.334Zm-16.925-6.47h2.954a.636.636,0,0,1,.636.636v2.7a.636.636,0,0,1-.636.636h-2.954a.636.636,0,0,1-.636-.636v-2.7A.636.636,0,0,1,273.139,244.935Zm5.79,0h2.954a.636.636,0,0,1,.636.636v2.7a.636.636,0,0,1-.636.636h-2.954a.636.636,0,0,1-.636-.636v-2.7A.636.636,0,0,1,278.929,244.935Zm5.79,0h2.954a.636.636,0,0,1,.636.636v2.7a.636.636,0,0,1-.636.636h-2.954a.636.636,0,0,1-.636-.636v-2.7A.636.636,0,0,1,284.719,244.935ZM273.139,237h14.534a.636.636,0,0,1,.636.636v5.3a.636.636,0,0,1-.636.636H273.139a.636.636,0,0,1-.636-.636v-5.3A.636.636,0,0,1,273.139,237Z" transform="translate(-241.175 -211.714)" fill="#22cac5" fill-rule="evenodd"/><path d="M170.19,360.975a6.256,6.256,0,1,0,1,7.539,6.256,6.256,0,0,0-1-7.539Zm-5.06.233a.636.636,0,0,1,1.272,0v.431a2.148,2.148,0,0,1,1.748,2.152.636.636,0,1,1-1.272,0c0-1.277-2.223-1.277-2.223,0,0,1.677,3.5.183,3.5,3.215a2.148,2.148,0,0,1-1.748,2.152v.431a.636.636,0,0,1-1.272,0v-.431a2.148,2.148,0,0,1-1.748-2.152.636.636,0,1,1,1.272,0c0,1.277,2.223,1.277,2.223,0,0-1.691-3.5-.191-3.5-3.215a2.148,2.148,0,0,1,1.748-2.152Z" transform="translate(-142.9 -321.483)" fill="#b15815" fill-rule="evenodd"/><path d="M289.469,86.767a1.422,1.422,0,0,0-1.417,1.417v3.572a1.417,1.417,0,0,0,2.833,0V88.184A1.422,1.422,0,0,0,289.469,86.767Z" transform="translate(-256.562 -80.634)" fill="#ccc" fill-rule="evenodd"/><path d="M194.722,86.767a1.422,1.422,0,0,0-1.417,1.417v3.572a1.417,1.417,0,0,0,2.833,0V88.184A1.422,1.422,0,0,0,194.722,86.767Z" transform="translate(-172.782 -80.634)" fill="#ccc" fill-rule="evenodd"/><path d="M99.975,86.767a1.422,1.422,0,0,0-1.417,1.417v3.572a1.417,1.417,0,0,0,2.833,0V88.184A1.422,1.422,0,0,0,99.975,86.767Z" transform="translate(-89.002 -80.634)" fill="#ccc" fill-rule="evenodd"/><path d="M97.8,227.248H93.688a.088.088,0,0,0-.062.026h0a.086.086,0,0,0-.024.062v3.554a.086.086,0,0,0,.024.062h0a.087.087,0,0,0,.062.026H97.8a.088.088,0,0,0,.062-.026h0a.086.086,0,0,0,.024-.062v-3.554a.086.086,0,0,0-.024-.062h0a.088.088,0,0,0-.062-.026Z" transform="translate(-84.618 -204.854)" fill="#22cac5" fill-rule="evenodd"/><path d="M191.214,227.248H187.1a.088.088,0,0,0-.062.026h0a.086.086,0,0,0-.024.062v3.554a.086.086,0,0,0,.024.062h0a.087.087,0,0,0,.062.026h4.114a.087.087,0,0,0,.062-.026h0a.086.086,0,0,0,.024-.062v-3.554a.086.086,0,0,0-.024-.062h0a.087.087,0,0,0-.062-.026Z" transform="translate(-167.218 -204.854)" fill="#22cac5" fill-rule="evenodd"/><path d="M97.72,301.672H93.768c-.084,0-.169.049-.169.088v3.554c0,.039.085.088.169.088H97.72c.084,0,.169-.049.169-.088V301.76C97.889,301.721,97.8,301.672,97.72,301.672Z" transform="translate(-84.617 -270.664)" fill="#22cac5" fill-rule="evenodd"/><path d="M191.132,301.672H187.18c-.084,0-.169.049-.169.088v3.554c0,.039.085.088.169.088h3.952c.084,0,.169-.049.169-.088V301.76C191.3,301.721,191.216,301.672,191.132,301.672Z" transform="translate(-167.217 -270.664)" fill="#22cac5" fill-rule="evenodd"/></g><path d="M297.646,331.775h1.682v1.432h-1.682Z" transform="translate(-249.046 -263.502)" fill="#5796d4"/><path d="M347.668,331.775h1.682v1.432h-1.682Z" transform="translate(-293.278 -263.502)" fill="#5796d4"/><path d="M397.69,331.775h1.682v1.432H397.69Z" transform="translate(-337.51 -263.502)" fill="#5796d4"/><path d="M297.646,263.2h13.262v4.026H297.646Z" transform="translate(-249.046 -202.865)" fill="#abcced"/><path d="M297.646,376.834h1.682v1.432h-1.682Z" transform="translate(-249.046 -303.346)" fill="#5796d4"/><path d="M347.668,376.834h1.682v1.432h-1.682Z" transform="translate(-293.278 -303.346)" fill="#5796d4"/><path d="M297.646,421.893h1.682v1.432h-1.682Z" transform="translate(-249.046 -343.189)" fill="#5796d4"/><path d="M347.668,421.893h1.682v1.432h-1.682Z" transform="translate(-293.278 -343.189)" fill="#5796d4"/><path d="M397.69,376.835h1.682v6.648H397.69Z" transform="translate(-337.51 -303.347)" fill="#5796d4"/></g></g></svg>