<svg xmlns="http://www.w3.org/2000/svg" xmlns:xlink="http://www.w3.org/1999/xlink" width="140" height="140" viewBox="0 0 140 140"><defs><filter id="a" x="0" y="0" width="140" height="140" filterUnits="userSpaceOnUse"><feOffset dy="3" input="SourceAlpha"/><feGaussianBlur stdDeviation="3" result="b"/><feFlood flood-opacity="0.161"/><feComposite operator="in" in2="b"/><feComposite in="SourceGraphic"/></filter></defs><g transform="translate(10474.521 8729.299)"><g transform="translate(-10770.329 -12346.35)"><g transform="matrix(1, 0, 0, 1, 295.81, 3617.05)" filter="url(#a)"><circle cx="61" cy="61" r="61" transform="translate(9 6)" fill="#fff" opacity="0.45"/></g><circle cx="49" cy="49" r="49" transform="translate(316.808 3635.051)" fill="#fff"/></g><g transform="translate(-10436.69 -8706.289)"><g transform="translate(2.81 13.985)"><g transform="translate(25.601 11.804)"><path d="M118.174,65.65V85.616H112.33V65.65a1.169,1.169,0,0,1,1.169-1.169h3.506A1.169,1.169,0,0,1,118.174,65.65Z" transform="translate(-112.33 -64.481)" fill="#22cac5"/></g><g transform="translate(28.078 38.332)"><path d="M126.294,177.965V183.9h-.316a3.025,3.025,0,0,1-3.048-2.828,2.969,2.969,0,0,1,2.964-3.107Z" transform="translate(-122.927 -177.965)" fill="#22cac5"/></g><g transform="translate(36.822 0.584)"><path d="M166.174,17.654V31.361a6.181,6.181,0,0,0-5.844,0V17.654a1.168,1.168,0,0,1,1.169-1.169h3.506A1.168,1.168,0,0,1,166.174,17.654Z" transform="translate(-160.33 -16.485)" fill="#a6eae8"/></g><g transform="translate(36.822 12.623)"><path d="M166.174,68.519v2.3a6.181,6.181,0,0,0-5.844,0v-2.3A8.279,8.279,0,0,1,166.174,68.519Z" transform="translate(-160.33 -67.986)" fill="#22cac5"/></g><g transform="translate(40.017 2.623)"><path d="M174.584,33.854A.584.584,0,0,1,174,33.27v-7.48a.584.584,0,0,1,1.169,0v7.48A.584.584,0,0,1,174.584,33.854Z" transform="translate(-174 -25.205)" fill="#22cac5"/></g><g transform="translate(36.822 26.345)"><g transform="translate(0 0)"><path d="M166.174,126.685v17.922H160.33V138.63a2.691,2.691,0,0,0,0-5.318v-6.627a6.183,6.183,0,0,0,5.844,0Z" transform="translate(-160.33 -126.685)" fill="#a6eae8"/></g></g><g transform="translate(36.822 26.345)"><g transform="translate(0 0)"><path d="M163.252,127.419a6.155,6.155,0,0,0,2.922-.734v2.3a8.276,8.276,0,0,1-5.844,0v-2.3A6.155,6.155,0,0,0,163.252,127.419Z" transform="translate(-160.33 -126.685)" fill="#22cac5"/></g></g><g transform="translate(40.017 30.615)"><g transform="translate(0 0)"><path d="M174.584,157.286A.584.584,0,0,1,174,156.7V145.539a.584.584,0,0,1,1.169,0V156.7A.584.584,0,0,1,174.584,157.286Z" transform="translate(-174 -144.955)" fill="#22cac5"/></g></g><g transform="translate(48.042 4.791)"><path d="M214.174,35.65V65.829a2.907,2.907,0,0,0-1,.657l-4.846,4.741V35.65a1.169,1.169,0,0,1,1.169-1.169h3.506A1.169,1.169,0,0,1,214.174,35.65Z" transform="translate(-208.33 -34.481)" fill="#116562"/></g><g transform="translate(0.585 32.939)"><g transform="translate(10.355 0)"><path d="M95.745,162.941l-9.456,9.308a3.26,3.26,0,0,1-2.3.951H49.61V161.106h1.183a5.794,5.794,0,0,0,4.551-2.209,11.074,11.074,0,0,1,8.523-4H75.076a2.725,2.725,0,0,1,.416.033,2.7,2.7,0,0,1,2.279,2.728,2.732,2.732,0,0,1-2.751,2.632h-5.3a2.969,2.969,0,0,0-2.964,3.107,3.025,3.025,0,0,0,3.048,2.828H82.888a2.539,2.539,0,0,0,1.8-.746l2.029-1.985,4.846-4.741a2.906,2.906,0,0,1,1-.657,2.961,2.961,0,0,1,3.188,4.846Z" transform="translate(-49.61 -154.895)" fill="#f6ede6"/></g><g transform="translate(0 3.718)"><path d="M14.683,170.8H5.313v16.062h9.37a.984.984,0,0,0,.984-.984V171.786A.984.984,0,0,0,14.683,170.8Z" transform="translate(-5.313 -170.802)" fill="#116562"/></g><g transform="translate(12.453 5.563)"><path d="M90.867,189.338H62.506a.584.584,0,0,1,0-1.169h28.36l9.449-9.308a.584.584,0,0,1,.82.833l-9.442,9.294a1.154,1.154,0,0,1-.827.349Zm-30.7,0h-1a.584.584,0,1,1,0-1.169h1a.584.584,0,0,1,0,1.169Z" transform="translate(-58.584 -178.693)" fill="#dfbba0"/></g><g transform="translate(6.575 5.707)"><path d="M34.025,191.232a.584.584,0,0,1-.584-.584v-.936a.584.584,0,0,1,1.169,0v.936A.584.584,0,0,1,34.025,191.232Zm0-3.273a.584.584,0,0,1-.584-.584v-7.48a.584.584,0,0,1,1.169,0v7.48A.584.584,0,0,1,34.025,187.959Z" transform="translate(-33.441 -179.31)" fill="#efeff0"/></g></g><g transform="translate(33.571 14.727)"><path d="M158.772,83.16a6.176,6.176,0,1,1-3.254-5.442A6.173,6.173,0,0,1,158.772,83.16Z" transform="translate(-146.424 -76.984)" fill="#f0c020"/></g><g transform="translate(0 0)"><circle cx="0.584" cy="0.584" r="0.584" transform="translate(3.506 36.074)"/><path d="M3.394,169.474H4.563a.584.584,0,1,0,0-1.169H3.394a.584.584,0,1,0,0,1.169Z" transform="translate(-2.81 -132.231)"/><path d="M164.344,85.348a.584.584,0,0,0-.584.584v.6a1.81,1.81,0,1,0-.1,3.617h1.363a.64.64,0,1,1,0,1.279h-1.428a.945.945,0,0,1-.706-.345.584.584,0,1,0-.9.748,2.123,2.123,0,0,0,1.77.765v.6a.584.584,0,0,0,1.169,0v-.6a1.81,1.81,0,1,0,.1-3.617h-1.363a.64.64,0,1,1,.009-1.279h1.3a.943.943,0,0,1,.775.438.584.584,0,0,0,.985-.63,2.1,2.1,0,0,0-1.807-.977v-.6A.585.585,0,0,0,164.344,85.348Z" transform="translate(-124.676 -68.666)"/><path d="M147.437,113.636a.585.585,0,0,0,.266-.781.594.594,0,0,0-.783-.269.585.585,0,0,0,.517,1.05Z" transform="translate(-112.983 -89.493)"/><circle cx="0.584" cy="0.584" r="0.584" transform="translate(47.458 13.661)"/><path d="M60.3,50.367a3.514,3.514,0,0,0-3.02-1V19.946a1.754,1.754,0,0,0-1.753-1.753H52.021a1.755,1.755,0,0,0-1.753,1.753v5.947a.584.584,0,1,0,1.169,0V19.946a.585.585,0,0,1,.584-.584h3.506a.585.585,0,0,1,.584.584V49.753c-.586.314-.468.264-4.675,4.379V30.568a.584.584,0,0,0-1.169,0V55.275l-1.854,1.813,0,0a1.934,1.934,0,0,1-1.382.575H46.06v-17a6.764,6.764,0,0,0,0-11.564V15.738a1.76,1.76,0,0,0-1.753-1.753H40.8a1.76,1.76,0,0,0-1.753,1.753V29.106a6.75,6.75,0,0,0-3.235,6.3.585.585,0,0,0,1.166-.089,5.591,5.591,0,1,1,1.816,3.71.6.6,0,0,0-.825.04.582.582,0,0,0,.04.825,6.78,6.78,0,0,0,1.038.774V46.34H34.84V26.959a1.755,1.755,0,0,0-1.753-1.753H29.58a1.755,1.755,0,0,0-1.753,1.753V46.345a11.658,11.658,0,0,0-8.794,4.207l-.007.012a5.185,5.185,0,0,1-4.093,1.987h-.6v-.923a1.57,1.57,0,0,0-1.569-1.569H9.238a.584.584,0,1,0,0,1.169h3.527a.4.4,0,0,1,.4.4V65.721a.4.4,0,0,1-.4.4H3.394a.584.584,0,1,0,0,1.169h9.371a1.569,1.569,0,0,0,1.564-1.475h33.8a3.865,3.865,0,0,0,2.709-1.122l9.453-9.306a3.543,3.543,0,0,0,.007-5.019ZM40.216,15.738a.585.585,0,0,1,.584-.584h3.506a.585.585,0,0,1,.584.584v12.8a6.8,6.8,0,0,0-4.675,0Zm2.338,25.91a6.759,6.759,0,0,0,2.338-.415V57.668H40.216V52.731a3.271,3.271,0,0,0,0-6.234V41.232A6.832,6.832,0,0,0,42.554,41.648ZM34.84,57.668V52.9h4.208v4.766ZM31.476,55.4a2.393,2.393,0,0,1,2.195-2.484v4.741A2.437,2.437,0,0,1,31.476,55.4ZM29,26.959a.585.585,0,0,1,.584-.584h3.506a.586.586,0,0,1,.584.584V46.34H29Zm30.475,27.6-9.453,9.306a2.686,2.686,0,0,1-1.886.783h-33.8V53.719h.6a6.387,6.387,0,0,0,5-2.419,10.457,10.457,0,0,1,8.074-3.792H39.216a2.118,2.118,0,0,1,2.111,2.111,2.089,2.089,0,0,1-.931,1.734,2.266,2.266,0,0,1-1.236.379h-5.3a3.558,3.558,0,0,0-3.548,3.721,3.608,3.608,0,0,0,3.633,3.382H47.028a3.1,3.1,0,0,0,2.2-.912h0l2.028-1.984h0L56.107,51.2l0,0a2.3,2.3,0,0,1,.8-.526,2.376,2.376,0,0,1,2.562,3.887Z" transform="translate(-2.81 -13.985)"/></g><g transform="translate(28.68 15.304)"><path d="M126.084,94.883a.584.584,0,0,1-.584-.584V93.13a.584.584,0,1,1,1.169,0V94.3A.584.584,0,0,1,126.084,94.883Zm0-3.506a.584.584,0,0,1-.584-.584V80.039a.584.584,0,1,1,1.169,0V90.792A.584.584,0,0,1,126.084,91.377Z" transform="translate(-125.5 -79.455)" fill="#178d89"/></g><g transform="translate(51.101 6.83)"><path d="M222,71.649a.584.584,0,0,1-.584-.584V68.727a.584.584,0,0,1,1.169,0v2.338A.584.584,0,0,1,222,71.649Zm0-4.675a.584.584,0,0,1-.584-.584v-22.6a.584.584,0,0,1,1.169,0v22.6A.584.584,0,0,1,222,66.974Z" transform="translate(-221.416 -43.205)" fill="#22cac5"/></g></g></g></g></svg>